<svg width="393" height="852" viewBox="0 0 393 852" fill="none" xmlns="http://www.w3.org/2000/svg">
<rect width="393" height="852" fill="white"/>
<path d="M126.187 379.864L126.139 373.912H141.115C141.307 374.2 141.483 374.6 141.643 375.112C141.803 375.624 141.883 376.184 141.883 376.792C141.883 377.816 141.643 378.584 141.163 379.096C140.683 379.608 140.043 379.864 139.243 379.864H126.187ZM133.147 373.912L133.195 379.864H118.267C118.043 379.576 117.851 379.176 117.691 378.664C117.563 378.12 117.499 377.56 117.499 376.984C117.499 375.896 117.723 375.112 118.171 374.632C118.651 374.152 119.291 373.912 120.091 373.912H133.147ZM125.851 378.568H133.291V402.952C132.971 403.048 132.491 403.128 131.851 403.192C131.211 403.288 130.555 403.336 129.883 403.336C128.411 403.336 127.371 403.08 126.763 402.568C126.155 402.024 125.851 401.112 125.851 399.832V378.568ZM167.843 393.208H160.595V388.936C160.595 387.496 160.227 386.472 159.491 385.864C158.755 385.224 157.827 384.904 156.707 384.904C155.683 384.904 154.755 385.096 153.923 385.48C153.123 385.864 152.435 386.296 151.859 386.776L151.715 380.92C152.451 380.504 153.347 380.12 154.403 379.768C155.491 379.416 156.691 379.24 158.003 379.24C161.043 379.24 163.443 380.024 165.203 381.592C166.963 383.128 167.843 385.432 167.843 388.504V393.208ZM145.715 390.328H152.963V402.952C152.643 403.048 152.179 403.128 151.571 403.192C150.995 403.288 150.371 403.336 149.699 403.336C148.323 403.336 147.315 403.096 146.675 402.616C146.035 402.136 145.715 401.256 145.715 399.976V390.328ZM160.595 390.328H167.843V402.952C167.523 403.048 167.075 403.128 166.499 403.192C165.923 403.288 165.283 403.336 164.579 403.336C163.203 403.336 162.195 403.096 161.555 402.616C160.915 402.136 160.595 401.256 160.595 399.976V390.328ZM152.963 394.072H145.715V371.752C146.035 371.656 146.483 371.56 147.059 371.464C147.635 371.368 148.275 371.32 148.979 371.32C150.387 371.32 151.395 371.56 152.003 372.04C152.643 372.52 152.963 373.416 152.963 374.728V394.072ZM180.617 386.2V392.104H173.369V385.288C173.369 384.392 173.593 383.64 174.041 383.032C174.489 382.392 175.097 381.816 175.865 381.304C176.921 380.664 178.185 380.168 179.657 379.816C181.161 379.432 182.729 379.24 184.361 379.24C187.657 379.24 189.305 380.344 189.305 382.552C189.305 383.096 189.225 383.592 189.065 384.04C188.937 384.488 188.761 384.872 188.537 385.192C188.217 385.128 187.817 385.08 187.337 385.048C186.889 384.984 186.409 384.952 185.897 384.952C184.937 384.952 183.977 385.064 183.017 385.288C182.089 385.512 181.289 385.816 180.617 386.2ZM173.369 390.328L180.617 390.472V402.952C180.297 403.048 179.833 403.128 179.225 403.192C178.649 403.288 178.025 403.336 177.353 403.336C175.977 403.336 174.969 403.096 174.329 402.616C173.689 402.136 173.369 401.256 173.369 399.976V390.328ZM192.582 373.336C192.582 372.216 192.966 371.288 193.734 370.552C194.502 369.784 195.462 369.4 196.614 369.4C197.83 369.4 198.806 369.784 199.542 370.552C200.278 371.288 200.646 372.216 200.646 373.336C200.646 374.392 200.278 375.304 199.542 376.072C198.806 376.84 197.83 377.224 196.614 377.224C195.462 377.224 194.502 376.84 193.734 376.072C192.966 375.304 192.582 374.392 192.582 373.336ZM193.014 390.328H200.262V402.952C199.942 403.048 199.494 403.128 198.918 403.192C198.342 403.288 197.702 403.336 196.998 403.336C195.622 403.336 194.614 403.096 193.974 402.616C193.334 402.136 193.014 401.256 193.014 399.976V390.328ZM200.262 394.072H193.014V380.2C193.334 380.104 193.782 380.024 194.358 379.96C194.966 379.864 195.606 379.816 196.278 379.816C197.686 379.816 198.694 380.056 199.302 380.536C199.942 380.984 200.262 381.864 200.262 383.176V394.072ZM211.851 387.208V381.64H221.163C221.323 381.896 221.483 382.28 221.643 382.792C221.803 383.272 221.883 383.8 221.883 384.376C221.883 385.368 221.659 386.088 221.211 386.536C220.763 386.984 220.155 387.208 219.387 387.208H211.851ZM212.907 379.768V386.344H206.043V379.48C206.043 377.368 206.491 375.656 207.387 374.344C208.283 373.032 209.499 372.072 211.035 371.464C212.603 370.824 214.347 370.504 216.267 370.504C218.507 370.504 220.171 370.808 221.259 371.416C222.379 371.992 222.939 372.952 222.939 374.296C222.939 374.872 222.811 375.4 222.555 375.88C222.331 376.328 222.059 376.68 221.739 376.936C221.163 376.744 220.523 376.584 219.819 376.456C219.115 376.296 218.331 376.216 217.467 376.216C215.963 376.216 214.827 376.488 214.059 377.032C213.291 377.576 212.907 378.488 212.907 379.768ZM206.043 384.904H213.291V402.952C212.971 403.048 212.507 403.128 211.899 403.192C211.323 403.288 210.699 403.336 210.027 403.336C208.651 403.336 207.643 403.096 207.003 402.616C206.363 402.136 206.043 401.256 206.043 399.976V384.904ZM226.012 390.328H233.164V395.416C233.164 396.312 233.452 396.968 234.028 397.384C234.604 397.768 235.404 397.96 236.428 397.96C236.908 397.96 237.42 397.912 237.964 397.816C238.508 397.72 238.988 397.592 239.404 397.432C239.66 397.72 239.884 398.072 240.076 398.488C240.268 398.904 240.364 399.384 240.364 399.928C240.364 401.016 239.916 401.928 239.02 402.664C238.156 403.368 236.652 403.72 234.508 403.72C231.82 403.72 229.724 403.112 228.22 401.896C226.748 400.648 226.012 398.648 226.012 395.896V390.328ZM230.572 386.008V380.44H239.788C239.948 380.728 240.108 381.112 240.268 381.592C240.428 382.072 240.508 382.6 240.508 383.176C240.508 384.168 240.284 384.888 239.836 385.336C239.388 385.784 238.796 386.008 238.06 386.008H230.572ZM233.164 391.528H226.012V374.296C226.3 374.2 226.732 374.104 227.308 374.008C227.916 373.88 228.556 373.816 229.228 373.816C230.604 373.816 231.596 374.072 232.204 374.584C232.844 375.064 233.164 375.944 233.164 377.224V391.528ZM248.599 397.288C248.087 396.2 247.527 394.92 246.919 393.448C246.343 391.944 245.735 390.168 245.095 388.12C244.455 386.072 243.783 383.704 243.079 381.016C243.495 380.568 244.023 380.2 244.663 379.912C245.335 379.592 246.071 379.432 246.871 379.432C247.863 379.432 248.679 379.656 249.319 380.104C249.991 380.52 250.487 381.304 250.807 382.456C251.543 384.792 252.263 387.112 252.967 389.416C253.703 391.688 254.455 393.992 255.223 396.328H255.415C255.959 394.888 256.503 393.256 257.047 391.432C257.591 389.608 258.103 387.736 258.583 385.816C259.063 383.896 259.463 382.04 259.783 380.248C260.263 379.992 260.759 379.8 261.271 379.672C261.783 379.512 262.327 379.432 262.903 379.432C263.895 379.432 264.759 379.656 265.495 380.104C266.231 380.552 266.599 381.288 266.599 382.312C266.599 383.24 266.455 384.36 266.167 385.672C265.911 386.984 265.543 388.408 265.063 389.944C264.615 391.448 264.087 392.984 263.479 394.552C262.903 396.12 262.279 397.64 261.607 399.112C260.967 400.584 260.311 401.896 259.639 403.048C257.911 406.088 256.311 408.344 254.839 409.816C253.367 411.32 251.911 412.072 250.471 412.072C249.319 412.072 248.359 411.72 247.591 411.016C246.823 410.312 246.359 409.4 246.199 408.28C246.903 407.704 247.607 407.032 248.311 406.264C249.047 405.528 249.751 404.744 250.423 403.912C251.127 403.08 251.735 402.248 252.247 401.416C251.703 401.256 251.127 400.904 250.519 400.36C249.943 399.816 249.303 398.792 248.599 397.288Z" fill="#597668"/>
<path d="M119.485 421.016C119.805 420.856 120.301 420.696 120.973 420.536C121.645 420.344 122.333 420.248 123.037 420.248C124.221 420.248 125.213 420.424 126.013 420.776C126.813 421.128 127.309 421.656 127.501 422.36C128.045 424.248 128.525 425.976 128.941 427.544C129.389 429.08 129.821 430.568 130.237 432.008C130.653 433.448 131.069 434.968 131.485 436.568H131.725C132.141 433.912 132.525 431.384 132.877 428.984C133.229 426.552 133.549 424.168 133.837 421.832C134.157 419.464 134.477 417.032 134.797 414.536C135.853 413.96 136.957 413.672 138.109 413.672C139.165 413.672 140.061 413.912 140.797 414.392C141.565 414.84 141.949 415.592 141.949 416.648C141.949 417.352 141.869 418.344 141.709 419.624C141.581 420.872 141.389 422.312 141.133 423.944C140.877 425.576 140.573 427.272 140.221 429.032C139.901 430.792 139.549 432.52 139.165 434.216C138.813 435.88 138.445 437.384 138.061 438.728C137.677 440.072 137.309 441.16 136.957 441.992C136.509 442.344 135.805 442.664 134.845 442.952C133.917 443.208 132.941 443.336 131.917 443.336C130.605 443.336 129.485 443.16 128.557 442.808C127.629 442.424 127.053 441.912 126.829 441.272C126.541 440.344 126.189 439.272 125.773 438.056C125.389 436.808 124.989 435.464 124.573 434.024C124.189 432.552 123.789 431.032 123.373 429.464C123.021 431 122.637 432.552 122.221 434.12C121.805 435.656 121.405 437.112 121.021 438.488C120.669 439.832 120.333 441 120.013 441.992C119.597 442.344 118.957 442.664 118.093 442.952C117.229 443.208 116.285 443.336 115.261 443.336C114.013 443.336 112.877 443.144 111.853 442.76C110.829 442.376 110.157 441.88 109.837 441.272C109.517 440.536 109.133 439.432 108.685 437.96C108.269 436.456 107.821 434.744 107.341 432.824C106.893 430.872 106.461 428.856 106.045 426.776C105.629 424.664 105.245 422.616 104.893 420.632C104.573 418.616 104.317 416.808 104.125 415.208C104.541 414.824 105.101 414.472 105.805 414.152C106.509 413.832 107.277 413.672 108.109 413.672C109.165 413.672 110.029 413.912 110.701 414.392C111.405 414.872 111.853 415.672 112.045 416.792C112.557 419.768 112.973 422.312 113.293 424.424C113.645 426.536 113.933 428.344 114.157 429.848C114.413 431.352 114.621 432.632 114.781 433.688C114.973 434.744 115.165 435.704 115.357 436.568H115.597C115.917 435.256 116.221 434.04 116.509 432.92C116.797 431.768 117.085 430.616 117.373 429.464C117.693 428.312 118.029 427.064 118.381 425.72C118.733 424.344 119.101 422.776 119.485 421.016ZM155.851 443.768C152.555 443.768 149.931 443.128 147.979 441.848C146.027 440.568 145.051 438.664 145.051 436.136C145.051 433.96 145.723 432.296 147.067 431.144C148.411 429.96 150.411 429.224 153.067 428.936L159.499 428.264V427.736C159.499 426.648 159.067 425.864 158.203 425.384C157.371 424.904 156.171 424.664 154.603 424.664C153.387 424.664 152.187 424.808 151.003 425.096C149.851 425.384 148.811 425.736 147.883 426.152C147.499 425.864 147.163 425.464 146.875 424.952C146.619 424.408 146.491 423.848 146.491 423.272C146.491 421.896 147.227 420.904 148.699 420.296C149.627 419.944 150.699 419.688 151.915 419.528C153.163 419.336 154.363 419.24 155.515 419.24C158.843 419.24 161.499 419.928 163.483 421.304C165.499 422.68 166.507 424.84 166.507 427.784V438.68C166.507 439.48 166.299 440.136 165.883 440.648C165.467 441.128 164.939 441.544 164.299 441.896C163.339 442.472 162.139 442.92 160.699 443.24C159.291 443.592 157.675 443.768 155.851 443.768ZM155.851 438.392C156.555 438.392 157.259 438.328 157.963 438.2C158.667 438.04 159.195 437.848 159.547 437.624V433.112L155.515 433.496C154.459 433.56 153.611 433.784 152.971 434.168C152.363 434.552 152.059 435.128 152.059 435.896C152.059 436.632 152.347 437.24 152.923 437.72C153.531 438.168 154.507 438.392 155.851 438.392ZM179.187 426.2V432.104H171.939V425.288C171.939 424.392 172.163 423.64 172.611 423.032C173.059 422.392 173.667 421.816 174.435 421.304C175.491 420.664 176.755 420.168 178.227 419.816C179.731 419.432 181.299 419.24 182.931 419.24C186.227 419.24 187.875 420.344 187.875 422.552C187.875 423.096 187.795 423.592 187.635 424.04C187.507 424.488 187.331 424.872 187.107 425.192C186.787 425.128 186.387 425.08 185.907 425.048C185.459 424.984 184.979 424.952 184.467 424.952C183.507 424.952 182.547 425.064 181.587 425.288C180.659 425.512 179.859 425.816 179.187 426.2ZM171.939 430.328L179.187 430.472V442.952C178.867 443.048 178.403 443.128 177.795 443.192C177.219 443.288 176.595 443.336 175.923 443.336C174.547 443.336 173.539 443.096 172.899 442.616C172.259 442.136 171.939 441.256 171.939 439.976V430.328ZM198.218 426.2V432.104H190.97V425.288C190.97 424.392 191.194 423.64 191.642 423.032C192.09 422.392 192.698 421.816 193.466 421.304C194.522 420.664 195.786 420.168 197.258 419.816C198.762 419.432 200.33 419.24 201.962 419.24C205.258 419.24 206.906 420.344 206.906 422.552C206.906 423.096 206.826 423.592 206.666 424.04C206.538 424.488 206.362 424.872 206.138 425.192C205.818 425.128 205.418 425.08 204.938 425.048C204.49 424.984 204.01 424.952 203.498 424.952C202.538 424.952 201.578 425.064 200.618 425.288C199.69 425.512 198.89 425.816 198.218 426.2ZM190.97 430.328L198.218 430.472V442.952C197.898 443.048 197.434 443.128 196.826 443.192C196.25 443.288 195.626 443.336 194.954 443.336C193.578 443.336 192.57 443.096 191.93 442.616C191.29 442.136 190.97 441.256 190.97 439.976V430.328ZM210.184 413.336C210.184 412.216 210.568 411.288 211.336 410.552C212.104 409.784 213.064 409.4 214.216 409.4C215.432 409.4 216.408 409.784 217.144 410.552C217.88 411.288 218.248 412.216 218.248 413.336C218.248 414.392 217.88 415.304 217.144 416.072C216.408 416.84 215.432 417.224 214.216 417.224C213.064 417.224 212.104 416.84 211.336 416.072C210.568 415.304 210.184 414.392 210.184 413.336ZM210.616 430.328H217.864V442.952C217.544 443.048 217.096 443.128 216.52 443.192C215.944 443.288 215.304 443.336 214.6 443.336C213.224 443.336 212.216 443.096 211.576 442.616C210.936 442.136 210.616 441.256 210.616 439.976V430.328ZM217.864 434.072H210.616V420.2C210.936 420.104 211.384 420.024 211.96 419.96C212.568 419.864 213.208 419.816 213.88 419.816C215.288 419.816 216.296 420.056 216.904 420.536C217.544 420.984 217.864 421.864 217.864 423.176V434.072ZM246.925 431.48C246.925 433.976 246.413 436.152 245.389 438.008C244.397 439.832 242.989 441.24 241.165 442.232C239.341 443.224 237.197 443.72 234.733 443.72C232.269 443.72 230.109 443.24 228.253 442.28C226.429 441.288 225.005 439.88 223.98 438.056C222.988 436.2 222.493 434.008 222.493 431.48C222.493 428.952 223.005 426.776 224.029 424.952C225.053 423.128 226.477 421.72 228.301 420.728C230.157 419.736 232.301 419.24 234.733 419.24C237.165 419.24 239.293 419.752 241.117 420.776C242.941 421.768 244.365 423.176 245.389 425C246.413 426.824 246.925 428.984 246.925 431.48ZM234.685 424.904C233.213 424.904 232.045 425.48 231.181 426.632C230.317 427.784 229.885 429.4 229.885 431.48C229.885 433.592 230.301 435.224 231.133 436.376C231.997 437.496 233.197 438.056 234.733 438.056C236.237 438.056 237.405 437.48 238.237 436.328C239.101 435.176 239.533 433.56 239.533 431.48C239.533 429.4 239.101 427.784 238.237 426.632C237.373 425.48 236.189 424.904 234.685 424.904ZM258.593 426.2V432.104H251.345V425.288C251.345 424.392 251.569 423.64 252.017 423.032C252.465 422.392 253.073 421.816 253.841 421.304C254.897 420.664 256.161 420.168 257.633 419.816C259.137 419.432 260.705 419.24 262.337 419.24C265.633 419.24 267.281 420.344 267.281 422.552C267.281 423.096 267.201 423.592 267.041 424.04C266.913 424.488 266.737 424.872 266.513 425.192C266.193 425.128 265.793 425.08 265.313 425.048C264.865 424.984 264.385 424.952 263.873 424.952C262.913 424.952 261.953 425.064 260.993 425.288C260.065 425.512 259.265 425.816 258.593 426.2ZM251.345 430.328L258.593 430.472V442.952C258.273 443.048 257.809 443.128 257.201 443.192C256.625 443.288 256.001 443.336 255.329 443.336C253.953 443.336 252.945 443.096 252.305 442.616C251.665 442.136 251.345 441.256 251.345 439.976V430.328ZM289.615 436.28C289.615 438.616 288.719 440.456 286.927 441.8C285.167 443.112 282.607 443.768 279.247 443.768C276.591 443.768 274.415 443.384 272.719 442.616C271.023 441.848 270.175 440.712 270.175 439.208C270.175 438.504 270.319 437.912 270.607 437.432C270.895 436.92 271.263 436.504 271.711 436.184C272.607 436.728 273.647 437.208 274.831 437.624C276.047 438.04 277.423 438.248 278.959 438.248C281.295 438.248 282.463 437.608 282.463 436.328C282.463 435.752 282.239 435.304 281.791 434.984C281.375 434.664 280.703 434.408 279.775 434.216L277.807 433.784C275.215 433.24 273.279 432.392 271.999 431.24C270.751 430.088 270.127 428.52 270.127 426.536C270.127 424.296 271.039 422.52 272.863 421.208C274.687 419.864 277.135 419.192 280.207 419.192C281.743 419.192 283.135 419.352 284.383 419.672C285.663 419.96 286.671 420.424 287.407 421.064C288.143 421.672 288.511 422.44 288.511 423.368C288.511 424.008 288.383 424.584 288.127 425.096C287.871 425.576 287.535 425.96 287.119 426.248C286.767 426.024 286.223 425.8 285.487 425.576C284.783 425.32 283.999 425.112 283.135 424.952C282.303 424.76 281.519 424.664 280.783 424.664C279.663 424.664 278.783 424.824 278.143 425.144C277.503 425.464 277.183 425.928 277.183 426.536C277.183 426.952 277.359 427.304 277.711 427.592C278.063 427.88 278.719 428.136 279.679 428.36L281.551 428.792C284.431 429.464 286.495 430.408 287.743 431.624C288.991 432.808 289.615 434.36 289.615 436.28Z" fill="#BF8975"/>
<path d="M102.56 467.36C102.373 467.653 102.147 467.967 101.88 468.3C101.627 468.62 101.307 468.993 100.92 469.42C100.76 469.607 100.627 469.913 100.52 470.34C100.413 470.753 100.36 471.247 100.36 471.82C100.36 472.433 100.4 472.96 100.48 473.4C100.56 473.84 100.667 474.193 100.8 474.46L98.22 474.94C98.1267 474.407 98.0933 473.827 98.12 473.2C98.1467 472.56 98.24 471.94 98.4 471.34C98.16 471.7 97.8333 472.093 97.42 472.52C97.0067 472.933 96.56 473.32 96.08 473.68C95.6133 474.04 95.1467 474.34 94.68 474.58C94.2267 474.82 93.84 474.94 93.52 474.94C93.2133 474.94 92.9067 474.847 92.6 474.66C92.3067 474.473 92.04 474.253 91.8 474C91.56 473.733 91.3667 473.467 91.22 473.2C91.0733 472.92 91 472.687 91 472.5C91 472.38 91.0267 472.227 91.08 472.04C91.1467 471.84 91.28 471.507 91.48 471.04C91.76 470.36 91.9933 469.76 92.18 469.24C92.38 468.707 92.54 468.22 92.66 467.78C92.78 467.34 92.8667 466.94 92.92 466.58C92.9733 466.22 93 465.873 93 465.54L95.56 464.92C95.5467 465.467 95.4933 466.013 95.4 466.56C95.3067 467.107 95.16 467.673 94.96 468.26C94.7733 468.847 94.5267 469.46 94.22 470.1C93.9133 470.74 93.54 471.433 93.1 472.18C93.2867 472.473 93.4733 472.72 93.66 472.92C93.86 473.12 94.1133 473.313 94.42 473.5C94.8733 473.3 95.3333 473.033 95.8 472.7C96.2667 472.353 96.7133 471.953 97.14 471.5C97.58 471.033 97.98 470.52 98.34 469.96C98.7133 469.4 99.02 468.8 99.26 468.16C99.4867 467.56 99.6867 467.073 99.86 466.7C100.047 466.313 100.213 465.967 100.36 465.66C100.573 465.233 100.747 464.987 100.88 464.92C101.013 464.853 101.193 464.88 101.42 465C101.607 465.107 101.793 465.233 101.98 465.38C102.167 465.527 102.333 465.693 102.48 465.88C102.707 466.173 102.82 466.427 102.82 466.64C102.82 466.853 102.733 467.093 102.56 467.36ZM112.918 469.04C112.918 469.187 112.851 469.387 112.718 469.64C112.331 470.36 112.025 471.093 111.798 471.84C111.571 472.573 111.425 473.36 111.358 474.2L109.198 474.72C109.345 473.8 109.578 472.907 109.898 472.04C110.218 471.173 110.591 470.44 111.018 469.84L110.538 469.34C110.058 469.5 109.605 469.707 109.178 469.96C108.765 470.2 108.398 470.46 108.078 470.74C107.758 471.007 107.498 471.267 107.298 471.52C107.111 471.773 106.998 471.987 106.958 472.16C106.838 472.733 106.718 473.2 106.598 473.56C106.478 473.907 106.358 474.173 106.238 474.36C106.131 474.547 106.025 474.667 105.918 474.72C105.825 474.76 105.731 474.76 105.638 474.72C105.318 474.587 105.065 474.433 104.878 474.26C104.705 474.087 104.518 473.853 104.318 473.56C104.118 473.307 104.178 473.06 104.498 472.82C104.671 472.687 104.818 472.553 104.938 472.42C105.058 472.273 105.151 472.107 105.218 471.92C105.285 471.72 105.331 471.487 105.358 471.22C105.385 470.94 105.398 470.6 105.398 470.2C105.398 469.72 105.391 469.367 105.378 469.14C105.378 468.9 105.365 468.687 105.338 468.5L107.438 468.1C107.465 468.473 107.465 468.833 107.438 469.18C107.425 469.527 107.365 469.907 107.258 470.32C107.538 470.027 107.878 469.747 108.278 469.48C108.691 469.213 109.111 468.98 109.538 468.78C109.965 468.567 110.378 468.4 110.778 468.28C111.178 468.16 111.511 468.1 111.778 468.1C111.845 468.1 111.938 468.14 112.058 468.22C112.191 468.287 112.318 468.373 112.438 468.48C112.571 468.587 112.685 468.693 112.778 468.8C112.871 468.907 112.918 468.987 112.918 469.04ZM124.651 469.62C124.651 470.313 124.438 470.967 124.011 471.58C123.598 472.193 122.951 472.82 122.071 473.46C121.858 473.62 121.618 473.767 121.351 473.9C121.098 474.033 120.845 474.153 120.591 474.26C120.351 474.367 120.125 474.453 119.911 474.52C119.698 474.573 119.531 474.6 119.411 474.6C119.198 474.6 119.005 474.527 118.831 474.38C118.658 474.233 118.571 474.067 118.571 473.88C118.571 473.787 118.605 473.7 118.671 473.62C118.738 473.527 118.858 473.453 119.031 473.4C119.218 473.333 119.465 473.287 119.771 473.26C120.091 473.233 120.498 473.227 120.991 473.24C121.258 472.92 121.485 472.627 121.671 472.36C121.858 472.093 122.018 471.84 122.151 471.6C122.285 471.36 122.398 471.113 122.491 470.86C122.585 470.607 122.671 470.327 122.751 470.02L122.111 469.44C121.511 469.733 120.985 470.053 120.531 470.4C120.091 470.733 119.685 471.14 119.311 471.62C118.951 472.1 118.605 472.68 118.271 473.36C117.951 474.027 117.605 474.847 117.231 475.82C116.871 476.767 116.505 477.24 116.131 477.24C115.985 477.24 115.831 477.167 115.671 477.02C115.511 476.887 115.305 476.647 115.051 476.3C114.811 475.953 114.691 475.68 114.691 475.48C114.691 475.28 114.798 475.067 115.011 474.84C115.385 474.427 115.691 474.067 115.931 473.76C116.171 473.44 116.411 473.087 116.651 472.7C116.745 472.54 116.825 472.367 116.891 472.18C116.958 471.98 117.011 471.727 117.051 471.42C117.091 471.113 117.118 470.733 117.131 470.28C117.145 469.827 117.145 469.26 117.131 468.58L119.451 468.2C119.411 468.613 119.365 469.007 119.311 469.38C119.271 469.74 119.205 470.153 119.111 470.62C119.991 469.727 120.758 469.08 121.411 468.68C122.065 468.28 122.618 468.08 123.071 468.08C123.205 468.08 123.358 468.127 123.531 468.22C123.718 468.3 123.891 468.413 124.051 468.56C124.225 468.693 124.365 468.853 124.471 469.04C124.591 469.227 124.651 469.42 124.651 469.62ZM134.554 470.1C134.661 470.3 134.707 470.447 134.694 470.54C134.681 470.633 134.614 470.747 134.494 470.88C134.227 471.16 134.014 471.393 133.854 471.58C133.707 471.753 133.594 471.9 133.514 472.02C133.447 472.127 133.401 472.213 133.374 472.28C133.361 472.347 133.354 472.4 133.354 472.44C133.354 472.76 133.407 473.12 133.514 473.52C133.634 473.907 133.801 474.233 134.014 474.5L132.274 474.76C132.101 474.533 131.967 474.287 131.874 474.02C131.781 473.74 131.721 473.387 131.694 472.96C131.174 473.32 130.721 473.62 130.334 473.86C129.961 474.1 129.634 474.293 129.354 474.44C129.074 474.573 128.827 474.667 128.614 474.72C128.401 474.773 128.194 474.8 127.994 474.8C127.794 474.8 127.574 474.753 127.334 474.66C127.107 474.567 126.901 474.447 126.714 474.3C126.527 474.153 126.367 473.993 126.234 473.82C126.114 473.647 126.054 473.48 126.054 473.32C126.054 473.04 126.194 472.733 126.474 472.4C126.754 472.067 127.161 471.727 127.694 471.38C128.241 471.033 128.914 470.693 129.714 470.36C130.514 470.013 131.434 469.693 132.474 469.4C131.914 469.213 131.247 469.133 130.474 469.16C129.701 469.173 128.834 469.313 127.874 469.58L128.014 468.68C128.827 468.413 129.627 468.267 130.414 468.24C131.214 468.2 131.894 468.24 132.454 468.36C132.774 468.427 133.034 468.507 133.234 468.6C133.434 468.68 133.607 468.793 133.754 468.94C133.901 469.073 134.034 469.233 134.154 469.42C134.274 469.607 134.407 469.833 134.554 470.1ZM132.234 470.2C130.941 470.693 129.961 471.207 129.294 471.74C128.627 472.26 128.161 472.807 127.894 473.38L128.674 473.8C129.181 473.6 129.701 473.347 130.234 473.04C130.781 472.733 131.267 472.4 131.694 472.04C131.761 471.853 131.867 471.64 132.014 471.4C132.174 471.16 132.407 470.84 132.714 470.44L132.234 470.2ZM142.588 470.64L142.188 468.8L140.688 469.12C140.488 469.387 140.295 469.673 140.108 469.98C139.922 470.273 139.748 470.573 139.588 470.88C139.428 471.173 139.288 471.453 139.168 471.72C139.048 471.973 138.962 472.187 138.908 472.36C138.868 472.48 138.868 472.593 138.908 472.7C138.948 472.793 139.068 472.94 139.268 473.14C139.442 473.327 139.595 473.433 139.728 473.46C139.875 473.473 140.115 473.453 140.448 473.4C140.622 473.373 140.795 473.34 140.968 473.3C141.142 473.247 141.342 473.18 141.568 473.1C141.808 473.007 142.095 472.887 142.428 472.74C142.762 472.593 143.175 472.407 143.668 472.18L143.548 472.78C143.522 472.927 143.468 473.04 143.388 473.12C143.308 473.2 143.168 473.287 142.968 473.38C142.542 473.567 142.115 473.74 141.688 473.9C141.275 474.06 140.882 474.2 140.508 474.32C140.148 474.44 139.822 474.533 139.528 474.6C139.235 474.667 139.008 474.7 138.848 474.7C138.608 474.7 138.348 474.633 138.068 474.5C137.788 474.367 137.528 474.207 137.288 474.02C137.062 473.833 136.868 473.633 136.708 473.42C136.562 473.193 136.488 473 136.488 472.84C136.488 472.56 136.575 472.213 136.748 471.8C136.922 471.373 137.142 470.953 137.408 470.54C137.675 470.127 137.968 469.753 138.288 469.42C138.622 469.087 138.942 468.86 139.248 468.74C139.808 468.513 140.335 468.34 140.828 468.22C141.335 468.087 141.888 468.02 142.488 468.02C142.915 468.02 143.235 468.053 143.448 468.12C143.675 468.187 143.828 468.273 143.908 468.38C144.202 468.74 144.435 469.407 144.608 470.38L142.588 470.64ZM155.235 470.18C154.555 470.233 153.935 470.367 153.375 470.58C152.828 470.78 152.255 471.093 151.655 471.52C152.162 472.08 152.635 472.547 153.075 472.92C153.515 473.28 153.995 473.627 154.515 473.96L152.895 475.08C152.388 474.72 151.915 474.347 151.475 473.96C151.035 473.573 150.662 473.187 150.355 472.8C150.208 472.627 150.102 472.473 150.035 472.34C149.982 472.207 149.975 472.067 150.015 471.92C150.068 471.76 150.175 471.593 150.335 471.42C150.495 471.247 150.722 471.033 151.015 470.78L151.275 471.08C151.608 470.827 151.915 470.607 152.195 470.42C152.475 470.233 152.742 470.067 152.995 469.92L152.935 469.72C152.268 469.72 151.668 469.813 151.135 470C150.615 470.187 150.162 470.44 149.775 470.76C149.402 471.08 149.095 471.46 148.855 471.9C148.615 472.327 148.455 472.787 148.375 473.28C148.322 473.6 148.268 473.86 148.215 474.06C148.162 474.247 148.095 474.393 148.015 474.5C147.948 474.607 147.862 474.68 147.755 474.72C147.662 474.747 147.542 474.76 147.395 474.76C147.288 474.76 147.142 474.687 146.955 474.54C146.782 474.393 146.528 474.113 146.195 473.7C146.048 473.513 145.982 473.367 145.995 473.26C146.008 473.153 146.128 473 146.355 472.8C146.622 472.547 146.822 472.293 146.955 472.04C147.102 471.773 147.228 471.413 147.335 470.96C148.055 467.827 148.742 465.96 149.395 465.36C149.662 465.133 150.002 464.947 150.415 464.8C150.842 464.64 151.428 464.507 152.175 464.4C152.308 464.373 152.395 464.407 152.435 464.5C152.475 464.58 152.428 464.693 152.295 464.84C151.868 465.36 151.502 465.833 151.195 466.26C150.888 466.687 150.615 467.113 150.375 467.54C150.135 467.967 149.915 468.413 149.715 468.88C149.515 469.333 149.308 469.853 149.095 470.44C149.482 470.08 149.868 469.767 150.255 469.5C150.655 469.233 151.042 469.013 151.415 468.84C151.788 468.667 152.142 468.54 152.475 468.46C152.808 468.367 153.102 468.32 153.355 468.32C153.942 468.32 154.568 468.94 155.235 470.18ZM166.895 466.24C166.895 466.373 166.848 466.527 166.755 466.7C166.662 466.873 166.475 467.113 166.195 467.42C165.435 468.22 164.888 469.067 164.555 469.96C164.235 470.84 164.075 471.667 164.075 472.44C164.075 472.8 164.088 473.153 164.115 473.5C164.142 473.847 164.188 474.147 164.255 474.4L162.155 474.86C162.102 474.673 162.068 474.487 162.055 474.3C162.042 474.1 162.035 473.84 162.035 473.52C162.035 473.093 162.068 472.633 162.135 472.14C162.202 471.647 162.295 471.16 162.415 470.68C162.535 470.2 162.668 469.74 162.815 469.3C162.962 468.86 163.115 468.48 163.275 468.16C163.648 467.387 163.962 466.76 164.215 466.28C164.468 465.787 164.682 465.407 164.855 465.14C165.028 464.873 165.175 464.693 165.295 464.6C165.415 464.507 165.528 464.46 165.635 464.46C165.742 464.46 165.868 464.527 166.015 464.66C166.162 464.793 166.295 464.953 166.415 465.14C166.548 465.327 166.662 465.527 166.755 465.74C166.848 465.94 166.895 466.107 166.895 466.24ZM176.28 469.38C176.28 469.767 176.2 470.087 176.04 470.34C175.893 470.593 175.607 470.813 175.18 471C174.753 471.173 174.16 471.327 173.4 471.46C172.653 471.593 171.68 471.74 170.48 471.9C170.507 472.167 170.613 472.46 170.8 472.78C171 473.087 171.253 473.333 171.56 473.52C171.947 473.44 172.307 473.36 172.64 473.28C172.987 473.2 173.32 473.113 173.64 473.02C173.96 472.927 174.28 472.82 174.6 472.7C174.933 472.58 175.28 472.44 175.64 472.28L175.58 472.82C175.567 472.913 175.54 473 175.5 473.08C175.473 473.147 175.393 473.22 175.26 473.3C175.127 473.38 174.927 473.48 174.66 473.6C174.393 473.707 174.02 473.847 173.54 474.02C173.047 474.207 172.547 474.36 172.04 474.48C171.533 474.6 171.127 474.66 170.82 474.66C170.54 474.66 170.247 474.6 169.94 474.48C169.647 474.347 169.373 474.187 169.12 474C168.88 473.813 168.68 473.613 168.52 473.4C168.373 473.173 168.3 472.96 168.3 472.76C168.3 472.573 168.32 472.4 168.36 472.24C168.4 472.067 168.467 471.873 168.56 471.66C168.667 471.447 168.813 471.193 169 470.9C169.187 470.607 169.42 470.24 169.7 469.8C170.047 469.293 170.613 468.873 171.4 468.54C172.2 468.193 173.207 468.02 174.42 468.02C175.113 468.02 175.593 468.113 175.86 468.3C176.14 468.487 176.28 468.847 176.28 469.38ZM174.24 468.78L172.14 469.04C171.873 469.387 171.627 469.72 171.4 470.04C171.187 470.347 170.953 470.713 170.7 471.14C171.46 471.073 172.073 471 172.54 470.92C173.007 470.84 173.36 470.74 173.6 470.62C173.853 470.5 174.02 470.36 174.1 470.2C174.193 470.04 174.24 469.847 174.24 469.62V468.78ZM185.09 469.96C184.41 469.613 183.824 469.373 183.33 469.24C182.837 469.093 182.397 469.02 182.01 469.02C181.677 469.02 181.33 469.26 180.97 469.74C181.237 469.9 181.517 470.06 181.81 470.22C182.104 470.367 182.464 470.547 182.89 470.76C183.33 470.973 183.677 471.173 183.93 471.36C184.197 471.533 184.384 471.707 184.49 471.88C184.61 472.053 184.664 472.233 184.65 472.42C184.637 472.593 184.577 472.787 184.47 473C184.297 473.36 184.117 473.66 183.93 473.9C183.744 474.14 183.53 474.333 183.29 474.48C183.05 474.613 182.777 474.707 182.47 474.76C182.177 474.813 181.83 474.84 181.43 474.84C180.87 474.84 180.304 474.767 179.73 474.62C179.17 474.473 178.55 474.233 177.87 473.9L178.69 472.6C179.25 472.88 179.85 473.107 180.49 473.28C181.13 473.453 181.684 473.54 182.15 473.54C182.497 473.54 182.73 473.513 182.85 473.46C182.97 473.407 183.07 473.287 183.15 473.1C183.177 473.033 183.184 472.973 183.17 472.92C183.17 472.867 183.137 472.807 183.07 472.74C183.004 472.66 182.897 472.573 182.75 472.48C182.604 472.387 182.397 472.273 182.13 472.14C181.584 471.887 181.137 471.66 180.79 471.46C180.444 471.247 180.17 471.053 179.97 470.88C179.77 470.693 179.63 470.527 179.55 470.38C179.47 470.233 179.43 470.1 179.43 469.98C179.43 469.82 179.504 469.62 179.65 469.38C179.81 469.127 180.024 468.887 180.29 468.66C180.57 468.42 180.897 468.22 181.27 468.06C181.644 467.887 182.05 467.8 182.49 467.8C182.877 467.8 183.364 467.88 183.95 468.04C184.55 468.187 185.25 468.447 186.05 468.82L185.09 469.96ZM194.875 469.96C194.195 469.613 193.609 469.373 193.115 469.24C192.622 469.093 192.182 469.02 191.795 469.02C191.462 469.02 191.115 469.26 190.755 469.74C191.022 469.9 191.302 470.06 191.595 470.22C191.889 470.367 192.249 470.547 192.675 470.76C193.115 470.973 193.462 471.173 193.715 471.36C193.982 471.533 194.169 471.707 194.275 471.88C194.395 472.053 194.449 472.233 194.435 472.42C194.422 472.593 194.362 472.787 194.255 473C194.082 473.36 193.902 473.66 193.715 473.9C193.529 474.14 193.315 474.333 193.075 474.48C192.835 474.613 192.562 474.707 192.255 474.76C191.962 474.813 191.615 474.84 191.215 474.84C190.655 474.84 190.089 474.767 189.515 474.62C188.955 474.473 188.335 474.233 187.655 473.9L188.475 472.6C189.035 472.88 189.635 473.107 190.275 473.28C190.915 473.453 191.469 473.54 191.935 473.54C192.282 473.54 192.515 473.513 192.635 473.46C192.755 473.407 192.855 473.287 192.935 473.1C192.962 473.033 192.969 472.973 192.955 472.92C192.955 472.867 192.922 472.807 192.855 472.74C192.789 472.66 192.682 472.573 192.535 472.48C192.389 472.387 192.182 472.273 191.915 472.14C191.369 471.887 190.922 471.66 190.575 471.46C190.229 471.247 189.955 471.053 189.755 470.88C189.555 470.693 189.415 470.527 189.335 470.38C189.255 470.233 189.215 470.1 189.215 469.98C189.215 469.82 189.289 469.62 189.435 469.38C189.595 469.127 189.809 468.887 190.075 468.66C190.355 468.42 190.682 468.22 191.055 468.06C191.429 467.887 191.835 467.8 192.275 467.8C192.662 467.8 193.149 467.88 193.735 468.04C194.335 468.187 195.035 468.447 195.835 468.82L194.875 469.96ZM200.441 471.52C200.334 472.2 200.081 472.8 199.681 473.32C199.281 473.827 198.681 474.273 197.881 474.66C197.761 474.727 197.687 474.747 197.661 474.72C197.634 474.68 197.674 474.593 197.781 474.46C198.167 473.967 198.414 473.36 198.521 472.64C198.547 472.44 198.541 472.233 198.501 472.02C198.474 471.807 198.394 471.54 198.261 471.22C198.141 470.927 198.181 470.7 198.381 470.54C198.554 470.393 198.761 470.313 199.001 470.3C199.254 470.273 199.541 470.293 199.861 470.36C200.127 470.427 200.301 470.56 200.381 470.76C200.474 470.947 200.494 471.2 200.441 471.52ZM217.861 466.68C216.901 466.573 216.034 466.513 215.261 466.5C214.487 466.473 213.801 466.473 213.201 466.5C212.854 467.06 212.541 467.6 212.261 468.12C211.994 468.64 211.727 469.167 211.461 469.7C211.634 469.58 211.774 469.48 211.881 469.4C212.001 469.32 212.121 469.227 212.241 469.12C213.161 469.053 213.947 469.007 214.601 468.98C215.254 468.953 215.681 468.94 215.881 468.94H216.901L215.761 470.48C214.921 470.36 214.141 470.293 213.421 470.28C212.714 470.253 211.981 470.287 211.221 470.38C211.061 470.74 210.921 471.073 210.801 471.38C210.694 471.687 210.581 472.027 210.461 472.4L209.061 473.34C210.501 473.14 211.814 473.033 213.001 473.02C214.187 472.993 215.287 473.033 216.301 473.14L215.481 474.84C214.267 474.653 212.967 474.567 211.581 474.58C210.207 474.58 208.894 474.673 207.641 474.86C207.787 474.553 207.907 474.293 208.001 474.08C208.107 473.867 208.187 473.687 208.241 473.54C208.307 473.38 208.354 473.247 208.381 473.14C208.421 473.02 208.454 472.913 208.481 472.82C208.734 471.767 209.007 470.807 209.301 469.94C209.594 469.073 209.921 468.28 210.281 467.56C210.574 467.427 210.861 467.293 211.141 467.16C211.421 467.027 211.794 466.84 212.261 466.6C211.994 466.613 211.634 466.647 211.181 466.7C210.741 466.753 210.234 466.82 209.661 466.9L210.641 465.48C211.627 465.333 212.514 465.227 213.301 465.16C214.087 465.08 214.801 465.027 215.441 465C216.094 464.973 216.687 464.967 217.221 464.98C217.767 464.993 218.281 465.02 218.761 465.06L217.861 466.68ZM228.855 469.04C228.855 469.187 228.789 469.387 228.655 469.64C228.269 470.36 227.962 471.093 227.735 471.84C227.509 472.573 227.362 473.36 227.295 474.2L225.135 474.72C225.282 473.8 225.515 472.907 225.835 472.04C226.155 471.173 226.529 470.44 226.955 469.84L226.475 469.34C225.995 469.5 225.542 469.707 225.115 469.96C224.702 470.2 224.335 470.46 224.015 470.74C223.695 471.007 223.435 471.267 223.235 471.52C223.049 471.773 222.935 471.987 222.895 472.16C222.775 472.733 222.655 473.2 222.535 473.56C222.415 473.907 222.295 474.173 222.175 474.36C222.069 474.547 221.962 474.667 221.855 474.72C221.762 474.76 221.669 474.76 221.575 474.72C221.255 474.587 221.002 474.433 220.815 474.26C220.642 474.087 220.455 473.853 220.255 473.56C220.055 473.307 220.115 473.06 220.435 472.82C220.609 472.687 220.755 472.553 220.875 472.42C220.995 472.273 221.089 472.107 221.155 471.92C221.222 471.72 221.269 471.487 221.295 471.22C221.322 470.94 221.335 470.6 221.335 470.2C221.335 469.72 221.329 469.367 221.315 469.14C221.315 468.9 221.302 468.687 221.275 468.5L223.375 468.1C223.402 468.473 223.402 468.833 223.375 469.18C223.362 469.527 223.302 469.907 223.195 470.32C223.475 470.027 223.815 469.747 224.215 469.48C224.629 469.213 225.049 468.98 225.475 468.78C225.902 468.567 226.315 468.4 226.715 468.28C227.115 468.16 227.449 468.1 227.715 468.1C227.782 468.1 227.875 468.14 227.995 468.22C228.129 468.287 228.255 468.373 228.375 468.48C228.509 468.587 228.622 468.693 228.715 468.8C228.809 468.907 228.855 468.987 228.855 469.04ZM236.609 467.18C236.076 467.287 235.616 467.34 235.229 467.34C234.802 467.34 234.442 467.28 234.149 467.16C233.856 467.04 233.709 466.873 233.709 466.66C233.709 466.527 233.762 466.4 233.869 466.28C233.989 466.147 234.136 466.027 234.309 465.92C234.496 465.813 234.696 465.727 234.909 465.66C235.136 465.593 235.349 465.56 235.549 465.56C235.722 465.56 235.862 465.587 235.969 465.64C236.076 465.68 236.129 465.793 236.129 465.98V466.3C236.129 466.407 236.169 466.547 236.249 466.72C236.342 466.88 236.462 467.033 236.609 467.18ZM235.529 468.54C235.449 469.193 235.309 469.853 235.109 470.52C234.922 471.187 234.696 471.847 234.429 472.5C234.162 473.153 233.862 473.793 233.529 474.42C233.196 475.033 232.842 475.62 232.469 476.18C232.136 476.673 231.882 477 231.709 477.16C231.536 477.333 231.376 477.42 231.229 477.42C231.122 477.42 230.996 477.347 230.849 477.2C230.716 477.067 230.589 476.907 230.469 476.72C230.349 476.533 230.242 476.333 230.149 476.12C230.069 475.92 230.029 475.753 230.029 475.62C230.029 475.473 230.069 475.32 230.149 475.16C230.242 475 230.462 474.753 230.809 474.42C231.249 473.993 231.616 473.593 231.909 473.22C232.202 472.833 232.442 472.44 232.629 472.04C232.829 471.627 232.976 471.187 233.069 470.72C233.176 470.24 233.256 469.687 233.309 469.06L235.529 468.54ZM245.834 469.68C245.834 470.133 245.727 470.573 245.514 471C245.301 471.413 245.021 471.813 244.674 472.2C244.341 472.573 243.961 472.92 243.534 473.24C243.121 473.547 242.701 473.813 242.274 474.04C241.861 474.253 241.461 474.427 241.074 474.56C240.701 474.68 240.394 474.74 240.154 474.74C239.874 474.74 239.587 474.673 239.294 474.54C239.014 474.393 238.754 474.22 238.514 474.02C238.274 473.807 238.081 473.58 237.934 473.34C237.787 473.087 237.714 472.847 237.714 472.62C237.714 472.18 237.827 471.733 238.054 471.28C238.294 470.813 238.607 470.373 238.994 469.96C239.381 469.547 239.821 469.18 240.314 468.86C240.807 468.527 241.321 468.273 241.854 468.1L242.534 468.58C242.947 468.473 243.281 468.387 243.534 468.32C243.801 468.253 244.014 468.207 244.174 468.18C244.334 468.14 244.461 468.12 244.554 468.12C244.647 468.107 244.734 468.1 244.814 468.1C245.147 468.1 245.401 468.247 245.574 468.54C245.747 468.833 245.834 469.213 245.834 469.68ZM243.514 470.38C243.514 470.193 243.474 469.987 243.394 469.76C243.314 469.533 243.207 469.307 243.074 469.08H242.634C242.221 469.307 241.847 469.58 241.514 469.9C241.194 470.207 240.914 470.533 240.674 470.88C240.447 471.213 240.274 471.553 240.154 471.9C240.034 472.247 239.974 472.567 239.974 472.86C239.974 472.94 239.974 473.013 239.974 473.08C239.987 473.147 240.007 473.233 240.034 473.34L240.474 473.5C240.887 473.327 241.281 473.127 241.654 472.9C242.027 472.66 242.347 472.407 242.614 472.14C242.894 471.86 243.114 471.573 243.274 471.28C243.434 470.987 243.514 470.687 243.514 470.38ZM256.201 468.1C255.961 469.34 255.634 470.547 255.221 471.72C254.807 472.893 254.287 473.927 253.661 474.82C253.887 474.793 254.114 474.76 254.341 474.72C254.567 474.68 254.794 474.647 255.021 474.62L255.221 475.32C254.754 475.387 254.334 475.467 253.961 475.56C253.587 475.653 253.187 475.78 252.761 475.94C252.201 476.66 251.641 477.213 251.081 477.6C250.521 477.987 250.034 478.18 249.621 478.18C249.247 478.18 248.954 478.073 248.741 477.86C248.541 477.647 248.441 477.38 248.441 477.06C248.441 476.913 248.487 476.76 248.581 476.6C248.674 476.44 248.847 476.273 249.101 476.1C249.367 475.94 249.727 475.767 250.181 475.58C250.634 475.407 251.227 475.22 251.961 475.02C252.147 474.66 252.314 474.293 252.461 473.92C252.621 473.547 252.754 473.187 252.861 472.84C252.221 473.427 251.627 473.88 251.081 474.2C250.547 474.52 250.067 474.74 249.641 474.86C249.227 474.98 248.874 475.013 248.581 474.96C248.287 474.907 248.061 474.8 247.901 474.64C247.754 474.48 247.641 474.347 247.561 474.24C247.481 474.12 247.434 474.007 247.421 473.9C247.407 473.78 247.427 473.647 247.481 473.5C247.534 473.353 247.621 473.167 247.741 472.94C248.047 472.34 248.301 471.707 248.501 471.04C248.714 470.373 248.874 469.56 248.981 468.6L251.301 468.1C251.207 468.567 251.107 469 251.001 469.4C250.894 469.787 250.767 470.173 250.621 470.56C250.487 470.947 250.327 471.347 250.141 471.76C249.967 472.173 249.754 472.64 249.501 473.16L250.321 473.54C251.361 473.14 252.187 472.553 252.801 471.78C253.427 470.993 253.814 469.94 253.961 468.62L256.201 468.1ZM275.492 468.84C275.599 468.973 275.639 469.127 275.612 469.3C275.599 469.473 275.479 469.773 275.252 470.2C274.666 471.36 274.332 472.7 274.252 474.22L271.992 474.72C272.019 474.373 272.079 474 272.172 473.6C272.266 473.187 272.386 472.773 272.532 472.36C272.692 471.933 272.872 471.513 273.072 471.1C273.286 470.687 273.519 470.3 273.772 469.94L273.332 469.52C273.012 469.533 272.659 469.66 272.272 469.9C271.886 470.14 271.512 470.433 271.152 470.78C270.806 471.127 270.499 471.507 270.232 471.92C269.966 472.32 269.799 472.7 269.732 473.06C269.612 473.687 269.472 474.107 269.312 474.32C269.152 474.533 268.959 474.64 268.732 474.64C268.599 474.64 268.452 474.587 268.292 474.48C268.146 474.373 268.006 474.24 267.872 474.08C267.739 473.92 267.626 473.76 267.532 473.6C267.452 473.427 267.412 473.28 267.412 473.16C267.412 473.053 267.452 472.92 267.532 472.76C267.626 472.587 267.826 472.333 268.132 472C268.426 471.693 268.652 471.393 268.812 471.1C268.986 470.793 269.146 470.42 269.292 469.98L268.792 469.42C267.792 469.7 266.999 470.127 266.412 470.7C265.839 471.26 265.446 472 265.232 472.92C265.139 473.32 265.059 473.64 264.992 473.88C264.926 474.107 264.852 474.287 264.772 474.42C264.692 474.54 264.599 474.62 264.492 474.66C264.399 474.7 264.272 474.72 264.112 474.72C263.992 474.72 263.859 474.667 263.712 474.56C263.566 474.453 263.419 474.327 263.272 474.18C263.139 474.033 263.026 473.887 262.932 473.74C262.839 473.58 262.792 473.447 262.792 473.34C262.792 473.22 262.819 473.087 262.872 472.94C262.926 472.793 263.046 472.627 263.232 472.44C263.419 472.227 263.566 472.027 263.672 471.84C263.792 471.64 263.879 471.407 263.932 471.14C263.999 470.86 264.032 470.52 264.032 470.12C264.046 469.707 264.032 469.18 263.992 468.54L265.952 468.06V468.7C265.952 469.007 265.939 469.28 265.912 469.52C265.886 469.747 265.846 469.993 265.792 470.26C266.166 469.913 266.552 469.607 266.952 469.34C267.352 469.073 267.739 468.853 268.112 468.68C268.486 468.493 268.832 468.353 269.152 468.26C269.486 468.167 269.766 468.12 269.992 468.12C270.086 468.12 270.199 468.147 270.332 468.2C270.466 468.253 270.592 468.32 270.712 468.4C270.832 468.48 270.932 468.567 271.012 468.66C271.092 468.74 271.132 468.82 271.132 468.9C271.132 469.073 271.126 469.253 271.112 469.44C271.099 469.613 271.059 469.78 270.992 469.94C271.286 469.673 271.592 469.427 271.912 469.2C272.246 468.96 272.566 468.76 272.872 468.6C273.179 468.427 273.472 468.293 273.752 468.2C274.032 468.107 274.286 468.06 274.512 468.06C274.619 468.06 274.752 468.113 274.912 468.22C275.072 468.327 275.266 468.533 275.492 468.84ZM285.326 469.68C285.326 470.133 285.22 470.573 285.006 471C284.793 471.413 284.513 471.813 284.166 472.2C283.833 472.573 283.453 472.92 283.026 473.24C282.613 473.547 282.193 473.813 281.766 474.04C281.353 474.253 280.953 474.427 280.566 474.56C280.193 474.68 279.886 474.74 279.646 474.74C279.366 474.74 279.08 474.673 278.786 474.54C278.506 474.393 278.246 474.22 278.006 474.02C277.766 473.807 277.573 473.58 277.426 473.34C277.28 473.087 277.206 472.847 277.206 472.62C277.206 472.18 277.32 471.733 277.546 471.28C277.786 470.813 278.1 470.373 278.486 469.96C278.873 469.547 279.313 469.18 279.806 468.86C280.3 468.527 280.813 468.273 281.346 468.1L282.026 468.58C282.44 468.473 282.773 468.387 283.026 468.32C283.293 468.253 283.506 468.207 283.666 468.18C283.826 468.14 283.953 468.12 284.046 468.12C284.14 468.107 284.226 468.1 284.306 468.1C284.64 468.1 284.893 468.247 285.066 468.54C285.24 468.833 285.326 469.213 285.326 469.68ZM283.006 470.38C283.006 470.193 282.966 469.987 282.886 469.76C282.806 469.533 282.7 469.307 282.566 469.08H282.126C281.713 469.307 281.34 469.58 281.006 469.9C280.686 470.207 280.406 470.533 280.166 470.88C279.94 471.213 279.766 471.553 279.646 471.9C279.526 472.247 279.466 472.567 279.466 472.86C279.466 472.94 279.466 473.013 279.466 473.08C279.48 473.147 279.5 473.233 279.526 473.34L279.966 473.5C280.38 473.327 280.773 473.127 281.146 472.9C281.52 472.66 281.84 472.407 282.106 472.14C282.386 471.86 282.606 471.573 282.766 471.28C282.926 470.987 283.006 470.687 283.006 470.38ZM293.533 468.26C293.426 468.473 293.333 468.66 293.253 468.82C293.173 468.967 293.099 469.113 293.033 469.26C292.966 469.393 292.899 469.533 292.833 469.68C292.766 469.827 292.693 469.993 292.613 470.18L291.113 470C290.966 470.08 290.806 470.22 290.633 470.42C290.473 470.607 290.319 470.827 290.173 471.08C290.026 471.333 289.893 471.6 289.773 471.88C289.653 472.16 289.566 472.427 289.513 472.68C289.406 473.16 289.306 473.553 289.213 473.86C289.119 474.153 289.026 474.387 288.933 474.56C288.839 474.72 288.746 474.833 288.653 474.9C288.559 474.953 288.466 474.98 288.373 474.98C288.293 474.98 288.179 474.92 288.033 474.8C287.899 474.667 287.766 474.52 287.633 474.36C287.499 474.187 287.379 474.013 287.273 473.84C287.179 473.653 287.133 473.5 287.133 473.38C287.133 473.153 287.179 472.947 287.273 472.76C287.366 472.573 287.546 472.32 287.813 472C287.919 471.88 287.993 471.727 288.033 471.54C288.086 471.34 288.113 471.047 288.113 470.66C288.113 470.087 288.099 469.593 288.073 469.18C288.046 468.753 288.013 468.413 287.973 468.16L290.013 467.66C290.079 468.553 290.013 469.42 289.813 470.26C290.119 469.78 290.393 469.387 290.633 469.08C290.886 468.76 291.119 468.507 291.333 468.32C291.546 468.133 291.746 468 291.933 467.92C292.119 467.84 292.306 467.8 292.493 467.8C292.613 467.8 292.766 467.84 292.953 467.92C293.153 468 293.346 468.113 293.533 468.26ZM302.921 469.38C302.921 469.767 302.841 470.087 302.681 470.34C302.534 470.593 302.247 470.813 301.821 471C301.394 471.173 300.801 471.327 300.041 471.46C299.294 471.593 298.321 471.74 297.121 471.9C297.147 472.167 297.254 472.46 297.441 472.78C297.641 473.087 297.894 473.333 298.201 473.52C298.587 473.44 298.947 473.36 299.281 473.28C299.627 473.2 299.961 473.113 300.281 473.02C300.601 472.927 300.921 472.82 301.241 472.7C301.574 472.58 301.921 472.44 302.281 472.28L302.221 472.82C302.207 472.913 302.181 473 302.141 473.08C302.114 473.147 302.034 473.22 301.901 473.3C301.767 473.38 301.567 473.48 301.301 473.6C301.034 473.707 300.661 473.847 300.181 474.02C299.687 474.207 299.187 474.36 298.681 474.48C298.174 474.6 297.767 474.66 297.461 474.66C297.181 474.66 296.887 474.6 296.581 474.48C296.287 474.347 296.014 474.187 295.761 474C295.521 473.813 295.321 473.613 295.161 473.4C295.014 473.173 294.941 472.96 294.941 472.76C294.941 472.573 294.961 472.4 295.001 472.24C295.041 472.067 295.107 471.873 295.201 471.66C295.307 471.447 295.454 471.193 295.641 470.9C295.827 470.607 296.061 470.24 296.341 469.8C296.687 469.293 297.254 468.873 298.041 468.54C298.841 468.193 299.847 468.02 301.061 468.02C301.754 468.02 302.234 468.113 302.501 468.3C302.781 468.487 302.921 468.847 302.921 469.38ZM300.881 468.78L298.781 469.04C298.514 469.387 298.267 469.72 298.041 470.04C297.827 470.347 297.594 470.713 297.341 471.14C298.101 471.073 298.714 471 299.181 470.92C299.647 470.84 300.001 470.74 300.241 470.62C300.494 470.5 300.661 470.36 300.741 470.2C300.834 470.04 300.881 469.847 300.881 469.62V468.78Z" fill="#4D6753"/>
<rect width="390" height="58" fill="white"/>
<rect x="277.713" y="30.83" width="3.15573" height="4.66" rx="1.1" fill="black"/>
<rect x="282.923" y="28.4" width="3.15573" height="7.1" rx="1.1" fill="black"/>
<rect x="288.233" y="25.75" width="3.15573" height="9.75" rx="1.1" fill="black"/>
<rect x="293.443" y="23.35" width="3.16565" height="12.2" rx="1.1" fill="black"/>
<path d="M320.609 27.6655C320.723 27.5554 320.723 27.3725 320.606 27.2653C319.546 26.2908 318.308 25.5128 316.954 24.9712C315.509 24.3933 313.961 24.0958 312.397 24.0958C310.833 24.0958 309.284 24.3933 307.84 24.9712C306.486 25.5128 305.248 26.2908 304.187 27.2653C304.071 27.3725 304.071 27.5554 304.185 27.6655L305.27 28.714C305.379 28.8188 305.551 28.8184 305.662 28.7167C306.53 27.9245 307.541 27.2916 308.645 26.8497C309.835 26.374 311.109 26.1291 312.397 26.1291C313.684 26.1291 314.959 26.374 316.148 26.8497C317.253 27.2916 318.264 27.9245 319.131 28.7167C319.243 28.8184 319.414 28.8188 319.523 28.714L320.609 27.6655Z" fill="black"/>
<path d="M317.845 30.5988C317.956 30.488 317.956 30.3078 317.841 30.2009C316.383 28.8412 314.472 28.0639 312.472 28.0241C310.472 27.9842 308.531 28.6848 307.02 29.9853C306.901 30.0876 306.894 30.2676 307.001 30.3828L308.042 31.5103C308.148 31.6255 308.327 31.6321 308.447 31.5313C309.559 30.5984 310.973 30.097 312.43 30.126C313.887 30.1551 315.28 30.7124 316.354 31.6888C316.47 31.7943 316.649 31.7948 316.76 31.684L317.845 30.5988Z" fill="black"/>
<path d="M315.256 33.0951C315.363 32.9822 315.358 32.8037 315.238 32.7052C314.497 32.0957 313.567 31.7558 312.602 31.747C311.637 31.7382 310.701 32.0611 309.949 32.657C309.827 32.7533 309.819 32.9317 309.923 33.0465L312.359 35.7326C312.469 35.8539 312.66 35.8556 312.772 35.7363L315.256 33.0951Z" fill="black"/>
<path opacity="0.35" d="M353.522 31.6C353.917 31.6 354.296 31.3893 354.575 31.0143C354.854 30.6392 355.011 30.1305 355.011 29.6C355.011 29.0696 354.854 28.5609 354.575 28.1858C354.296 27.8108 353.917 27.6 353.522 27.6L353.522 29.6V31.6Z" fill="#241C19"/>
<rect x="329.914" y="24.8" width="20.6412" height="9" rx="2.2" fill="black"/>
<rect opacity="0.35" x="328.37" y="23.4" width="23.8092" height="12" rx="4" stroke="#241C19"/>
<path d="M44.9381 35.1996V25.4053H44.7898L41.8326 27.4894V25.4959L44.9381 23.313H47.0551V35.1996H44.9381ZM54.5676 23.0165C55.2047 23.0165 55.8088 23.1345 56.3799 23.3707C56.951 23.6013 57.4562 23.9638 57.8956 24.458C58.3404 24.9468 58.6891 25.5756 58.9417 26.3444C59.1943 27.1077 59.3206 28.0276 59.3206 29.1039V29.1204C59.3206 30.4549 59.1284 31.5971 58.744 32.5472C58.3596 33.4972 57.8077 34.2276 57.0883 34.7383C56.3744 35.2435 55.5204 35.4962 54.5265 35.4962C53.7961 35.4962 53.1371 35.3644 52.5495 35.1008C51.9674 34.8317 51.4841 34.4637 51.0997 33.997C50.7208 33.5247 50.4654 32.9865 50.3336 32.3824L50.3171 32.2918H52.4012L52.4342 32.3742C52.5385 32.6488 52.6868 32.8904 52.879 33.0991C53.0767 33.3078 53.3128 33.4698 53.5874 33.5851C53.8675 33.6949 54.1805 33.7498 54.5265 33.7498C55.1525 33.7498 55.6632 33.5659 56.0586 33.1979C56.4595 32.8245 56.7588 32.3275 56.9565 31.707C57.1597 31.0809 57.275 30.389 57.3025 29.6311C57.308 29.5487 57.3107 29.4691 57.3107 29.3922C57.3107 29.3099 57.3107 29.2302 57.3107 29.1534L56.94 27.1681C56.94 26.7178 56.8357 26.3087 56.627 25.9408C56.4183 25.5728 56.1355 25.2818 55.7785 25.0676C55.4271 24.8534 55.0289 24.7463 54.5841 24.7463C54.1558 24.7463 53.7631 24.8507 53.4062 25.0594C53.0492 25.268 52.7637 25.5536 52.5495 25.916C52.3353 26.273 52.2282 26.6739 52.2282 27.1187V27.1352C52.2282 27.5965 52.3298 28.0056 52.533 28.3626C52.7362 28.714 53.0135 28.9913 53.365 29.1945C53.7164 29.3977 54.1173 29.4993 54.5676 29.4993C55.018 29.4993 55.4216 29.4005 55.7785 29.2028C56.1355 29.0051 56.4183 28.7305 56.627 28.379C56.8357 28.0276 56.94 27.6294 56.94 27.1846V27.1681H57.4343V29.3593H57.146C57.0032 29.6723 56.7918 29.9634 56.5117 30.2325C56.2316 30.5015 55.8856 30.7185 55.4738 30.8832C55.0674 31.048 54.5896 31.1303 54.0405 31.1303C53.2826 31.1303 52.6126 30.9601 52.0305 30.6196C51.4484 30.2791 50.9899 29.8123 50.6549 29.2193C50.3254 28.6262 50.1606 27.9562 50.1606 27.2093V27.1928C50.1606 26.3856 50.3473 25.6689 50.7208 25.0429C51.0997 24.4113 51.6214 23.9171 52.2859 23.5601C52.9559 23.1977 53.7164 23.0165 54.5676 23.0165ZM63.0604 33.6016C62.687 33.6016 62.374 33.478 62.1214 33.2309C61.8742 32.9783 61.7507 32.6707 61.7507 32.3083C61.7507 31.9403 61.8742 31.6328 62.1214 31.3857C62.374 31.1331 62.687 31.0068 63.0604 31.0068C63.4393 31.0068 63.7524 31.1331 63.9995 31.3857C64.2466 31.6328 64.3702 31.9403 64.3702 32.3083C64.3702 32.6707 64.2466 32.9783 63.9995 33.2309C63.7524 33.478 63.4393 33.6016 63.0604 33.6016ZM63.0604 27.4894C62.687 27.4894 62.374 27.3658 62.1214 27.1187C61.8742 26.8661 61.7507 26.5586 61.7507 26.1961C61.7507 25.8282 61.8742 25.5207 62.1214 25.2735C62.374 25.0209 62.687 24.8946 63.0604 24.8946C63.4393 24.8946 63.7524 25.0209 63.9995 25.2735C64.2466 25.5207 64.3702 25.8282 64.3702 26.1961C64.3702 26.5586 64.2466 26.8661 63.9995 27.1187C63.7524 27.3658 63.4393 27.4894 63.0604 27.4894ZM72.5664 35.1996V32.9179H66.7508V31.1798C67.0638 30.6471 67.3768 30.1116 67.6899 29.5735C68.0084 29.0353 68.3296 28.4998 68.6536 27.9672C68.9831 27.429 69.3099 26.899 69.6339 26.3773C69.9634 25.8501 70.2901 25.3312 70.6141 24.8205C70.9436 24.3043 71.2731 23.8018 71.6026 23.313H74.5928V31.1633H76.1991V32.9179H74.5928V35.1996H72.5664ZM68.7278 31.2127H72.5994V25.0099H72.4758C72.2342 25.3834 71.9843 25.7678 71.7262 26.1632C71.4736 26.5586 71.2182 26.9622 70.9601 27.3741C70.702 27.7859 70.4466 28.2006 70.194 28.6179C69.9414 29.0298 69.6915 29.4444 69.4444 29.8618C69.1973 30.2736 68.9584 30.6828 68.7278 31.0891V31.2127ZM81.1168 35.1996V25.4053H80.9686L78.0113 27.4894V25.4959L81.1168 23.313H83.2339V35.1996H81.1168Z" fill="black"/>
<rect x="129" y="839" width="135" height="5" rx="2.5" fill="black"/>
</svg>
