<svg width="272" height="317" viewBox="0 0 272 317" fill="none" xmlns="http://www.w3.org/2000/svg">
<rect x="0.5" y="0.5" width="271" height="316" rx="4.5" stroke="#8A38F5" stroke-dasharray="10 5"/>
<mask id="path-2-inside-1_3_2679" fill="white">
<path d="M20 34C20 26.268 26.268 20 34 20H238C245.732 20 252 26.268 252 34V181C252 188.732 245.732 195 238 195H34C26.268 195 20 188.732 20 181V34Z"/>
</mask>
<path d="M20 34C20 26.268 26.268 20 34 20H238C245.732 20 252 26.268 252 34V181C252 188.732 245.732 195 238 195H34C26.268 195 20 188.732 20 181V34Z" fill="white"/>
<path d="M34 20V21H238V20V19H34V20ZM252 34H251V181H252H253V34H252ZM238 195V194H34V195V196H238V195ZM20 181H21V34H20H19V181H20ZM34 195V194C26.8203 194 21 188.18 21 181H20H19C19 189.284 25.7157 196 34 196V195ZM252 181H251C251 188.18 245.18 194 238 194V195V196C246.284 196 253 189.284 253 181H252ZM238 20V21C245.18 21 251 26.8203 251 34H252H253C253 25.7157 246.284 19 238 19V20ZM34 20V19C25.7157 19 19 25.7157 19 34H20H21C21 26.8203 26.8203 21 34 21V20Z" fill="#E5E5E5" mask="url(#path-2-inside-1_3_2679)"/>
<path d="M37.12 51V41.06H38.94V45.806L38.1 45.204H43.952L43.126 45.806V41.06H44.946V51H43.126V46.198L43.952 46.786H38.1L38.94 46.198V51H37.12ZM50.1398 51.168C49.3931 51.168 48.7444 51.0093 48.1938 50.692C47.6431 50.3653 47.2184 49.908 46.9198 49.32C46.6211 48.732 46.4718 48.046 46.4718 47.262C46.4718 46.478 46.6211 45.7967 46.9198 45.218C47.2184 44.63 47.6384 44.1727 48.1798 43.846C48.7304 43.5193 49.3698 43.356 50.0978 43.356C50.8071 43.356 51.4278 43.5147 51.9598 43.832C52.5011 44.1493 52.9164 44.6067 53.2058 45.204C53.4951 45.8013 53.6398 46.52 53.6398 47.36V47.766H48.3338C48.3711 48.4193 48.5484 48.914 48.8658 49.25C49.1924 49.5767 49.6218 49.74 50.1538 49.74C50.5551 49.74 50.8864 49.6513 51.1478 49.474C51.4184 49.2873 51.6051 49.0307 51.7078 48.704L53.5418 48.816C53.3364 49.544 52.9304 50.118 52.3238 50.538C51.7264 50.958 50.9984 51.168 50.1398 51.168ZM48.3338 46.562H51.7918C51.7544 45.9553 51.5818 45.5073 51.2738 45.218C50.9658 44.9193 50.5738 44.77 50.0978 44.77C49.6218 44.77 49.2251 44.924 48.9078 45.232C48.5998 45.54 48.4084 45.9833 48.3338 46.562ZM56.9009 51C56.3596 51 55.9256 50.86 55.5989 50.58C55.2722 50.3 55.1089 49.852 55.1089 49.236V41.06H56.9009V49.054C56.9009 49.2407 56.9476 49.3807 57.0409 49.474C57.1436 49.5673 57.2836 49.614 57.4609 49.614H58.0069V51H56.9009ZM59.2378 53.1V43.524H60.9598L61.0018 45.12L60.8198 45.036C61.0065 44.4853 61.3098 44.07 61.7298 43.79C62.1591 43.5007 62.6585 43.356 63.2278 43.356C63.9371 43.356 64.5251 43.5333 64.9918 43.888C65.4678 44.2427 65.8225 44.714 66.0558 45.302C66.2891 45.89 66.4058 46.5433 66.4058 47.262C66.4058 47.9807 66.2845 48.634 66.0418 49.222C65.8085 49.81 65.4538 50.2813 64.9778 50.636C64.5111 50.9907 63.9231 51.168 63.2138 51.168C62.8405 51.168 62.4905 51.1027 62.1638 50.972C61.8465 50.8413 61.5711 50.6547 61.3378 50.412C61.1138 50.1693 60.9551 49.8847 60.8618 49.558L61.0298 49.418V53.1H59.2378ZM62.7938 49.712C63.3351 49.712 63.7598 49.4973 64.0678 49.068C64.3851 48.6293 64.5438 48.0273 64.5438 47.262C64.5438 46.4967 64.3851 45.8993 64.0678 45.47C63.7598 45.0313 63.3351 44.812 62.7938 44.812C62.4298 44.812 62.1171 44.9053 61.8558 45.092C61.5945 45.2693 61.3891 45.54 61.2398 45.904C61.0998 46.268 61.0298 46.7207 61.0298 47.262C61.0298 47.8033 61.0998 48.256 61.2398 48.62C61.3798 48.984 61.5805 49.2593 61.8418 49.446C62.1125 49.6233 62.4298 49.712 62.7938 49.712ZM68.2933 51V43.23C68.2933 42.558 68.48 42.0307 68.8533 41.648C69.236 41.256 69.8193 41.06 70.6033 41.06H72.0593V42.446H70.9393C70.65 42.446 70.4353 42.5207 70.2953 42.67C70.1646 42.8193 70.0993 43.0387 70.0993 43.328V51H68.2933ZM67.2293 45.106V43.72H71.9613V45.106H67.2293ZM75.9753 51.168C75.2193 51.168 74.6173 50.9207 74.1693 50.426C73.7306 49.922 73.5113 49.2267 73.5113 48.34V43.524H75.3033V47.892C75.3033 48.5173 75.4059 48.9793 75.6113 49.278C75.8259 49.5673 76.1479 49.712 76.5773 49.712C77.0626 49.712 77.4359 49.5533 77.6973 49.236C77.9679 48.9093 78.1033 48.438 78.1033 47.822V43.524H79.8953V51H78.2573L78.2153 48.942L78.4393 49.012C78.3273 49.7213 78.0613 50.258 77.6413 50.622C77.2213 50.986 76.6659 51.168 75.9753 51.168ZM83.6568 51C83.1154 51 82.6814 50.86 82.3548 50.58C82.0281 50.3 81.8648 49.852 81.8648 49.236V41.06H83.6568V49.054C83.6568 49.2407 83.7034 49.3807 83.7968 49.474C83.8994 49.5673 84.0394 49.614 84.2168 49.614H84.7628V51H83.6568ZM89.4696 51V41.06H91.2896V50.44L90.2956 49.418H96.0076V51H89.4696ZM96.9995 51V43.524H98.7915V51H96.9995ZM96.9715 42.53V40.934H98.8335V42.53H96.9715ZM100.869 51V43.524H102.493L102.563 45.624L102.353 45.54C102.427 45.0173 102.581 44.5973 102.815 44.28C103.048 43.9627 103.333 43.7293 103.669 43.58C104.005 43.4307 104.373 43.356 104.775 43.356C105.325 43.356 105.787 43.4773 106.161 43.72C106.543 43.9627 106.833 44.2987 107.029 44.728C107.225 45.148 107.323 45.638 107.323 46.198V51H105.531V46.772C105.531 46.352 105.489 45.9973 105.405 45.708C105.321 45.4187 105.181 45.1993 104.985 45.05C104.798 44.8913 104.546 44.812 104.229 44.812C103.753 44.812 103.37 44.98 103.081 45.316C102.801 45.652 102.661 46.1373 102.661 46.772V51H100.869ZM109.154 51V41.06H110.946V46.898L114.012 43.524H116.224L113.298 46.632L116.322 51H114.306L112.122 47.696L110.946 48.942V51H109.154ZM120.081 51.168C119.343 51.168 118.723 51.0607 118.219 50.846C117.724 50.6313 117.341 50.3327 117.071 49.95C116.8 49.5673 116.646 49.1333 116.609 48.648L118.443 48.564C118.508 48.956 118.671 49.2593 118.933 49.474C119.194 49.6887 119.581 49.796 120.095 49.796C120.515 49.796 120.841 49.7307 121.075 49.6C121.317 49.46 121.439 49.2453 121.439 48.956C121.439 48.788 121.397 48.648 121.313 48.536C121.229 48.424 121.07 48.326 120.837 48.242C120.603 48.158 120.258 48.074 119.801 47.99C119.035 47.8593 118.433 47.7007 117.995 47.514C117.556 47.318 117.243 47.0753 117.057 46.786C116.879 46.4967 116.791 46.1373 116.791 45.708C116.791 45.008 117.057 44.4433 117.589 44.014C118.13 43.5753 118.919 43.356 119.955 43.356C120.627 43.356 121.191 43.468 121.649 43.692C122.106 43.9067 122.461 44.2053 122.713 44.588C122.974 44.9613 123.137 45.3907 123.203 45.876L121.397 45.96C121.35 45.708 121.266 45.4887 121.145 45.302C121.023 45.1153 120.86 44.9753 120.655 44.882C120.449 44.7793 120.207 44.728 119.927 44.728C119.507 44.728 119.189 44.812 118.975 44.98C118.76 45.148 118.653 45.372 118.653 45.652C118.653 45.848 118.699 46.0113 118.793 46.142C118.895 46.2727 119.059 46.38 119.283 46.464C119.507 46.5387 119.805 46.6087 120.178 46.674C120.963 46.7953 121.579 46.954 122.027 47.15C122.484 47.3367 122.806 47.5793 122.993 47.878C123.189 48.1673 123.287 48.5173 123.287 48.928C123.287 49.404 123.151 49.81 122.881 50.146C122.619 50.482 122.246 50.7387 121.761 50.916C121.285 51.084 120.725 51.168 120.081 51.168Z" fill="#0A0A0A"/>
<path d="M228 47.5L232 44.5L236 47.5" stroke="black" stroke-width="2" stroke-linecap="round" stroke-linejoin="round"/>
<path d="M43.672 75.966L42.846 74.902C42.622 74.9953 42.3607 75.07 42.062 75.126C41.7633 75.1913 41.4507 75.224 41.124 75.224C40.172 75.224 39.36 74.9953 38.688 74.538C38.0253 74.0713 37.5167 73.446 37.162 72.662C36.8073 71.878 36.63 71.0053 36.63 70.044C36.63 69.0733 36.8027 68.196 37.148 67.412C37.5027 66.628 38.016 66.0027 38.688 65.536C39.36 65.0693 40.172 64.836 41.124 64.836C42.0947 64.836 42.916 65.0693 43.588 65.536C44.26 66.0027 44.7687 66.628 45.114 67.412C45.4593 68.196 45.632 69.0733 45.632 70.044C45.632 70.9587 45.4687 71.7987 45.142 72.564C44.8153 73.3293 44.344 73.9453 43.728 74.412L44.96 75.966H43.672ZM41.124 74.048C41.3293 74.048 41.5113 74.0387 41.67 74.02C41.8287 73.992 41.9687 73.95 42.09 73.894L40.648 72.088H41.936L43 73.488C43.4573 73.124 43.798 72.6527 44.022 72.074C44.2553 71.486 44.372 70.8093 44.372 70.044C44.372 69.3067 44.2507 68.6347 44.008 68.028C43.7747 67.4213 43.4153 66.936 42.93 66.572C42.454 66.1987 41.852 66.012 41.124 66.012C40.396 66.012 39.794 66.1987 39.318 66.572C38.842 66.936 38.4827 67.4213 38.24 68.028C38.0067 68.6347 37.89 69.3067 37.89 70.044C37.89 70.772 38.0067 71.4393 38.24 72.046C38.4827 72.6527 38.842 73.138 39.318 73.502C39.8033 73.866 40.4053 74.048 41.124 74.048ZM49.8236 75.168C49.0862 75.168 48.4936 74.9207 48.0456 74.426C47.6069 73.922 47.3876 73.2313 47.3876 72.354V67.58H48.5636V72.032C48.5636 72.7507 48.6896 73.2827 48.9416 73.628C49.2029 73.964 49.5996 74.132 50.1316 74.132C50.7196 74.132 51.1816 73.9453 51.5176 73.572C51.8536 73.1893 52.0216 72.6667 52.0216 72.004V67.58H53.1976V75H52.0776V73.166L52.2596 73.264C52.1102 73.8707 51.8256 74.342 51.4056 74.678C50.9856 75.0047 50.4582 75.168 49.8236 75.168ZM55.2352 75V67.58H56.4112V75H55.2352ZM55.2072 66.418V65.046H56.4392V66.418H55.2072ZM61.4145 75.168C60.7238 75.168 60.1218 75.0093 59.6085 74.692C59.1045 74.3747 58.7125 73.9267 58.4325 73.348C58.1525 72.76 58.0125 72.074 58.0125 71.29C58.0125 70.506 58.1525 69.8247 58.4325 69.246C58.7125 68.6673 59.1045 68.2193 59.6085 67.902C60.1218 67.5753 60.7238 67.412 61.4145 67.412C61.9838 67.412 62.4878 67.5147 62.9265 67.72C63.3745 67.916 63.7385 68.2053 64.0185 68.588C64.2985 68.9707 64.4805 69.4373 64.5645 69.988L63.3325 70.072C63.2485 69.5773 63.0338 69.1993 62.6885 68.938C62.3432 68.6673 61.9185 68.532 61.4145 68.532C60.7332 68.532 60.2012 68.7793 59.8185 69.274C59.4358 69.7593 59.2445 70.4313 59.2445 71.29C59.2445 72.1487 59.4358 72.8253 59.8185 73.32C60.2012 73.8053 60.7332 74.048 61.4145 74.048C61.9185 74.048 62.3432 73.908 62.6885 73.628C63.0338 73.348 63.2485 72.928 63.3325 72.368L64.5645 72.452C64.4805 73.0027 64.2985 73.4833 64.0185 73.894C63.7385 74.2953 63.3745 74.608 62.9265 74.832C62.4878 75.056 61.9838 75.168 61.4145 75.168ZM66.0223 75V65.06H67.1983V71.57L70.8103 67.58H72.3783L69.4523 70.73L72.5043 75H71.0763L68.6543 71.528L67.1983 73.068V75H66.0223ZM77.7802 75V67.58H78.8162L78.8722 69.456L78.7602 69.414C78.8535 68.7793 79.0542 68.3173 79.3622 68.028C79.6795 67.7293 80.0995 67.58 80.6222 67.58H81.3502V68.7H80.6362C80.2628 68.7 79.9502 68.77 79.6982 68.91C79.4555 69.0407 79.2688 69.2413 79.1382 69.512C79.0168 69.7733 78.9562 70.1093 78.9562 70.52V75H77.7802ZM85.4223 75.168C84.7223 75.168 84.1156 75.0093 83.6023 74.692C83.0983 74.3747 82.7063 73.9267 82.4263 73.348C82.1556 72.76 82.0203 72.074 82.0203 71.29C82.0203 70.506 82.1556 69.8247 82.4263 69.246C82.7063 68.6673 83.0936 68.2193 83.5883 67.902C84.0923 67.5753 84.685 67.412 85.3663 67.412C86.0103 67.412 86.5796 67.566 87.0743 67.874C87.569 68.1727 87.9516 68.6113 88.2223 69.19C88.5023 69.7687 88.6423 70.4733 88.6423 71.304V71.654H83.2523C83.299 72.4473 83.509 73.0447 83.8823 73.446C84.265 73.8473 84.7783 74.048 85.4223 74.048C85.9076 74.048 86.3043 73.936 86.6123 73.712C86.9296 73.4787 87.149 73.1753 87.2703 72.802L88.5303 72.9C88.3343 73.5627 87.961 74.1087 87.4103 74.538C86.869 74.958 86.2063 75.168 85.4223 75.168ZM83.2523 70.618H87.3543C87.2983 69.8993 87.0883 69.372 86.7243 69.036C86.3696 68.7 85.917 68.532 85.3663 68.532C84.797 68.532 84.3256 68.7093 83.9523 69.064C83.5883 69.4093 83.355 69.9273 83.2523 70.618ZM92.9372 75.168C92.2746 75.168 91.7099 75.0607 91.2432 74.846C90.7859 74.6313 90.4266 74.3373 90.1652 73.964C89.9132 73.5813 89.7686 73.1473 89.7312 72.662L90.9632 72.578C91.0379 73.026 91.2292 73.3853 91.5372 73.656C91.8452 73.9173 92.3119 74.048 92.9372 74.048C93.4412 74.048 93.8426 73.9687 94.1412 73.81C94.4492 73.642 94.6032 73.376 94.6032 73.012C94.6032 72.816 94.5566 72.6527 94.4632 72.522C94.3699 72.3913 94.1879 72.2793 93.9172 72.186C93.6466 72.0833 93.2452 71.9853 92.7132 71.892C92.0039 71.7613 91.4439 71.6027 91.0332 71.416C90.6319 71.22 90.3426 70.982 90.1652 70.702C89.9972 70.4127 89.9132 70.072 89.9132 69.68C89.9132 69.0173 90.1559 68.476 90.6412 68.056C91.1266 67.6267 91.8172 67.412 92.7132 67.412C93.3199 67.412 93.8286 67.524 94.2392 67.748C94.6592 67.9627 94.9859 68.252 95.2192 68.616C95.4619 68.9707 95.6206 69.3627 95.6952 69.792L94.4632 69.876C94.4072 69.6147 94.3046 69.386 94.1552 69.19C94.0059 68.9847 93.8099 68.826 93.5672 68.714C93.3246 68.5927 93.0352 68.532 92.6992 68.532C92.1672 68.532 91.7752 68.6347 91.5232 68.84C91.2712 69.0453 91.1452 69.3067 91.1452 69.624C91.1452 69.8667 91.2012 70.0673 91.3132 70.226C91.4346 70.3753 91.6259 70.5013 91.8872 70.604C92.1486 70.6973 92.4986 70.7813 92.9372 70.856C93.6932 70.9867 94.2812 71.1453 94.7012 71.332C95.1212 71.5187 95.4152 71.7473 95.5832 72.018C95.7512 72.2887 95.8352 72.62 95.8352 73.012C95.8352 73.4693 95.7046 73.8613 95.4432 74.188C95.1912 74.5053 94.8459 74.748 94.4072 74.916C93.9779 75.084 93.4879 75.168 92.9372 75.168ZM100.338 75.168C99.657 75.168 99.0596 75.0093 98.5463 74.692C98.033 74.3747 97.6363 73.9267 97.3563 73.348C97.0763 72.76 96.9363 72.074 96.9363 71.29C96.9363 70.4967 97.0763 69.8107 97.3563 69.232C97.6363 68.6533 98.033 68.2053 98.5463 67.888C99.0596 67.5707 99.657 67.412 100.338 67.412C101.02 67.412 101.612 67.5707 102.116 67.888C102.63 68.2053 103.026 68.6533 103.306 69.232C103.586 69.8107 103.726 70.4967 103.726 71.29C103.726 72.074 103.586 72.76 103.306 73.348C103.026 73.9267 102.63 74.3747 102.116 74.692C101.612 75.0093 101.02 75.168 100.338 75.168ZM100.338 74.048C101.02 74.048 101.547 73.8053 101.92 73.32C102.303 72.8253 102.494 72.1487 102.494 71.29C102.494 70.4313 102.303 69.7593 101.92 69.274C101.547 68.7793 101.02 68.532 100.338 68.532C99.657 68.532 99.125 68.7793 98.7423 69.274C98.3596 69.7593 98.1683 70.4313 98.1683 71.29C98.1683 72.1487 98.3596 72.8253 98.7423 73.32C99.125 73.8053 99.657 74.048 100.338 74.048ZM107.765 75.168C107.028 75.168 106.435 74.9207 105.987 74.426C105.548 73.922 105.329 73.2313 105.329 72.354V67.58H106.505V72.032C106.505 72.7507 106.631 73.2827 106.883 73.628C107.144 73.964 107.541 74.132 108.073 74.132C108.661 74.132 109.123 73.9453 109.459 73.572C109.795 73.1893 109.963 72.6667 109.963 72.004V67.58H111.139V75H110.019V73.166L110.201 73.264C110.052 73.8707 109.767 74.342 109.347 74.678C108.927 75.0047 108.4 75.168 107.765 75.168ZM113.382 75V67.58H114.418L114.474 69.456L114.362 69.414C114.455 68.7793 114.656 68.3173 114.964 68.028C115.281 67.7293 115.701 67.58 116.224 67.58H116.952V68.7H116.238C115.864 68.7 115.552 68.77 115.3 68.91C115.057 69.0407 114.87 69.2413 114.74 69.512C114.618 69.7733 114.558 70.1093 114.558 70.52V75H113.382ZM121.024 75.168C120.333 75.168 119.731 75.0093 119.218 74.692C118.714 74.3747 118.322 73.9267 118.042 73.348C117.762 72.76 117.622 72.074 117.622 71.29C117.622 70.506 117.762 69.8247 118.042 69.246C118.322 68.6673 118.714 68.2193 119.218 67.902C119.731 67.5753 120.333 67.412 121.024 67.412C121.593 67.412 122.097 67.5147 122.536 67.72C122.984 67.916 123.348 68.2053 123.628 68.588C123.908 68.9707 124.09 69.4373 124.174 69.988L122.942 70.072C122.858 69.5773 122.643 69.1993 122.298 68.938C121.953 68.6673 121.528 68.532 121.024 68.532C120.343 68.532 119.811 68.7793 119.428 69.274C119.045 69.7593 118.854 70.4313 118.854 71.29C118.854 72.1487 119.045 72.8253 119.428 73.32C119.811 73.8053 120.343 74.048 121.024 74.048C121.528 74.048 121.953 73.908 122.298 73.628C122.643 73.348 122.858 72.928 122.942 72.368L124.174 72.452C124.09 73.0027 123.908 73.4833 123.628 73.894C123.348 74.2953 122.984 74.608 122.536 74.832C122.097 75.056 121.593 75.168 121.024 75.168ZM128.53 75.168C127.83 75.168 127.223 75.0093 126.71 74.692C126.206 74.3747 125.814 73.9267 125.534 73.348C125.263 72.76 125.128 72.074 125.128 71.29C125.128 70.506 125.263 69.8247 125.534 69.246C125.814 68.6673 126.201 68.2193 126.696 67.902C127.2 67.5753 127.792 67.412 128.474 67.412C129.118 67.412 129.687 67.566 130.182 67.874C130.676 68.1727 131.059 68.6113 131.33 69.19C131.61 69.7687 131.75 70.4733 131.75 71.304V71.654H126.36C126.406 72.4473 126.616 73.0447 126.99 73.446C127.372 73.8473 127.886 74.048 128.53 74.048C129.015 74.048 129.412 73.936 129.72 73.712C130.037 73.4787 130.256 73.1753 130.378 72.802L131.638 72.9C131.442 73.5627 131.068 74.1087 130.518 74.538C129.976 74.958 129.314 75.168 128.53 75.168ZM126.36 70.618H130.462C130.406 69.8993 130.196 69.372 129.832 69.036C129.477 68.7 129.024 68.532 128.474 68.532C127.904 68.532 127.433 68.7093 127.06 69.064C126.696 69.4093 126.462 69.9273 126.36 70.618ZM136.045 75.168C135.382 75.168 134.817 75.0607 134.351 74.846C133.893 74.6313 133.534 74.3373 133.273 73.964C133.021 73.5813 132.876 73.1473 132.839 72.662L134.071 72.578C134.145 73.026 134.337 73.3853 134.645 73.656C134.953 73.9173 135.419 74.048 136.045 74.048C136.549 74.048 136.95 73.9687 137.249 73.81C137.557 73.642 137.711 73.376 137.711 73.012C137.711 72.816 137.664 72.6527 137.571 72.522C137.477 72.3913 137.295 72.2793 137.025 72.186C136.754 72.0833 136.353 71.9853 135.821 71.892C135.111 71.7613 134.551 71.6027 134.141 71.416C133.739 71.22 133.45 70.982 133.273 70.702C133.105 70.4127 133.021 70.072 133.021 69.68C133.021 69.0173 133.263 68.476 133.749 68.056C134.234 67.6267 134.925 67.412 135.821 67.412C136.427 67.412 136.936 67.524 137.347 67.748C137.767 67.9627 138.093 68.252 138.327 68.616C138.569 68.9707 138.728 69.3627 138.803 69.792L137.571 69.876C137.515 69.6147 137.412 69.386 137.263 69.19C137.113 68.9847 136.917 68.826 136.675 68.714C136.432 68.5927 136.143 68.532 135.807 68.532C135.275 68.532 134.883 68.6347 134.631 68.84C134.379 69.0453 134.253 69.3067 134.253 69.624C134.253 69.8667 134.309 70.0673 134.421 70.226C134.542 70.3753 134.733 70.5013 134.995 70.604C135.256 70.6973 135.606 70.7813 136.045 70.856C136.801 70.9867 137.389 71.1453 137.809 71.332C138.229 71.5187 138.523 71.7473 138.691 72.018C138.859 72.2887 138.943 72.62 138.943 73.012C138.943 73.4693 138.812 73.8613 138.551 74.188C138.299 74.5053 137.953 74.748 137.515 74.916C137.085 75.084 136.595 75.168 136.045 75.168ZM144.912 75V66.908C144.912 66.3573 145.071 65.914 145.388 65.578C145.706 65.2327 146.2 65.06 146.872 65.06H148.048V66.096H146.956C146.667 66.096 146.448 66.1753 146.298 66.334C146.158 66.4927 146.088 66.712 146.088 66.992V75H144.912ZM143.904 68.616V67.58H147.95V68.616H143.904ZM151.991 75.168C151.309 75.168 150.712 75.0093 150.199 74.692C149.685 74.3747 149.289 73.9267 149.009 73.348C148.729 72.76 148.589 72.074 148.589 71.29C148.589 70.4967 148.729 69.8107 149.009 69.232C149.289 68.6533 149.685 68.2053 150.199 67.888C150.712 67.5707 151.309 67.412 151.991 67.412C152.672 67.412 153.265 67.5707 153.769 67.888C154.282 68.2053 154.679 68.6533 154.959 69.232C155.239 69.8107 155.379 70.4967 155.379 71.29C155.379 72.074 155.239 72.76 154.959 73.348C154.679 73.9267 154.282 74.3747 153.769 74.692C153.265 75.0093 152.672 75.168 151.991 75.168ZM151.991 74.048C152.672 74.048 153.199 73.8053 153.573 73.32C153.955 72.8253 154.147 72.1487 154.147 71.29C154.147 70.4313 153.955 69.7593 153.573 69.274C153.199 68.7793 152.672 68.532 151.991 68.532C151.309 68.532 150.777 68.7793 150.395 69.274C150.012 69.7593 149.821 70.4313 149.821 71.29C149.821 72.1487 150.012 72.8253 150.395 73.32C150.777 73.8053 151.309 74.048 151.991 74.048ZM156.981 75V67.58H158.017L158.073 69.456L157.961 69.414C158.055 68.7793 158.255 68.3173 158.563 68.028C158.881 67.7293 159.301 67.58 159.823 67.58H160.551V68.7H159.837C159.464 68.7 159.151 68.77 158.899 68.91C158.657 69.0407 158.47 69.2413 158.339 69.512C158.218 69.7733 158.157 70.1093 158.157 70.52V75H156.981ZM168.6 77.268C168.068 77.268 167.587 77.1793 167.158 77.002C166.729 76.8247 166.369 76.5727 166.08 76.246C165.791 75.9193 165.595 75.5413 165.492 75.112L166.724 75.028C166.836 75.3733 167.032 75.644 167.312 75.84C167.601 76.0453 168.031 76.148 168.6 76.148C169.272 76.148 169.785 76.0127 170.14 75.742C170.504 75.4713 170.686 75.0653 170.686 74.524V73.32C170.509 73.712 170.224 74.0247 169.832 74.258C169.44 74.4913 169.001 74.608 168.516 74.608C167.891 74.608 167.331 74.454 166.836 74.146C166.351 73.838 165.968 73.4133 165.688 72.872C165.417 72.3307 165.282 71.71 165.282 71.01C165.282 70.3007 165.417 69.68 165.688 69.148C165.959 68.6067 166.332 68.182 166.808 67.874C167.293 67.566 167.844 67.412 168.46 67.412C168.983 67.412 169.449 67.5333 169.86 67.776C170.28 68.0187 170.574 68.3453 170.742 68.756V67.58H171.862V74.496C171.862 75.0747 171.731 75.5693 171.47 75.98C171.209 76.4 170.835 76.7173 170.35 76.932C169.865 77.156 169.281 77.268 168.6 77.268ZM168.572 73.488C169.207 73.488 169.715 73.2687 170.098 72.83C170.481 72.382 170.677 71.7753 170.686 71.01C170.695 70.4967 170.611 70.058 170.434 69.694C170.266 69.3207 170.019 69.036 169.692 68.84C169.375 68.6347 169.001 68.532 168.572 68.532C167.919 68.532 167.41 68.756 167.046 69.204C166.691 69.6427 166.514 70.2447 166.514 71.01C166.514 71.7753 166.696 72.382 167.06 72.83C167.433 73.2687 167.937 73.488 168.572 73.488ZM176.101 75.168C175.335 75.168 174.724 74.9907 174.267 74.636C173.819 74.2813 173.595 73.7867 173.595 73.152C173.595 72.5173 173.781 72.018 174.155 71.654C174.528 71.29 175.121 71.0333 175.933 70.884L178.565 70.394C178.565 69.7687 178.415 69.302 178.117 68.994C177.827 68.686 177.389 68.532 176.801 68.532C176.287 68.532 175.881 68.6487 175.583 68.882C175.284 69.106 175.079 69.4327 174.967 69.862L173.721 69.764C173.861 69.064 174.197 68.4993 174.729 68.07C175.27 67.6313 175.961 67.412 176.801 67.412C177.753 67.412 178.481 67.6827 178.985 68.224C179.489 68.756 179.741 69.4933 179.741 70.436V73.502C179.741 73.67 179.769 73.7913 179.825 73.866C179.89 73.9313 179.993 73.964 180.133 73.964H180.427V75C180.389 75.0093 180.329 75.014 180.245 75.014C180.161 75.0233 180.072 75.028 179.979 75.028C179.643 75.028 179.367 74.9767 179.153 74.874C178.947 74.762 178.798 74.594 178.705 74.37C178.611 74.1367 178.565 73.8333 178.565 73.46L178.705 73.488C178.639 73.8053 178.481 74.0947 178.229 74.356C177.977 74.608 177.664 74.8087 177.291 74.958C176.917 75.098 176.521 75.168 176.101 75.168ZM176.213 74.132C176.707 74.132 177.127 74.0387 177.473 73.852C177.827 73.656 178.098 73.3947 178.285 73.068C178.471 72.732 178.565 72.3587 178.565 71.948V71.416L176.157 71.864C175.653 71.9573 175.303 72.102 175.107 72.298C174.92 72.4847 174.827 72.732 174.827 73.04C174.827 73.3853 174.948 73.656 175.191 73.852C175.443 74.0387 175.783 74.132 176.213 74.132ZM181.755 75V67.58H182.791L182.847 69.456L182.735 69.414C182.828 68.7793 183.029 68.3173 183.337 68.028C183.654 67.7293 184.074 67.58 184.597 67.58H185.325V68.7H184.611C184.237 68.7 183.925 68.77 183.673 68.91C183.43 69.0407 183.243 69.2413 183.113 69.512C182.991 69.7733 182.931 70.1093 182.931 70.52V75H181.755ZM189.131 75.168C188.487 75.168 187.927 75.0093 187.451 74.692C186.984 74.3747 186.625 73.9267 186.373 73.348C186.121 72.7693 185.995 72.0833 185.995 71.29C185.995 70.4967 186.121 69.8107 186.373 69.232C186.625 68.6533 186.984 68.2053 187.451 67.888C187.927 67.5707 188.487 67.412 189.131 67.412C189.626 67.412 190.078 67.5193 190.489 67.734C190.9 67.9393 191.208 68.2333 191.413 68.616V65.06H192.589V75H191.525L191.483 73.88C191.278 74.2813 190.965 74.5987 190.545 74.832C190.125 75.056 189.654 75.168 189.131 75.168ZM189.369 74.048C189.808 74.048 190.176 73.936 190.475 73.712C190.783 73.488 191.016 73.1707 191.175 72.76C191.334 72.34 191.413 71.85 191.413 71.29C191.413 70.7113 191.334 70.2167 191.175 69.806C191.016 69.3953 190.783 69.0827 190.475 68.868C190.176 68.644 189.808 68.532 189.369 68.532C188.716 68.532 188.193 68.7793 187.801 69.274C187.418 69.7593 187.227 70.4313 187.227 71.29C187.227 72.1393 187.418 72.8113 187.801 73.306C188.193 73.8007 188.716 74.048 189.369 74.048ZM197.586 75.168C196.886 75.168 196.28 75.0093 195.766 74.692C195.262 74.3747 194.87 73.9267 194.59 73.348C194.32 72.76 194.184 72.074 194.184 71.29C194.184 70.506 194.32 69.8247 194.59 69.246C194.87 68.6673 195.258 68.2193 195.752 67.902C196.256 67.5753 196.849 67.412 197.53 67.412C198.174 67.412 198.744 67.566 199.238 67.874C199.733 68.1727 200.116 68.6113 200.386 69.19C200.666 69.7687 200.806 70.4733 200.806 71.304V71.654H195.416C195.463 72.4473 195.673 73.0447 196.046 73.446C196.429 73.8473 196.942 74.048 197.586 74.048C198.072 74.048 198.468 73.936 198.776 73.712C199.094 73.4787 199.313 73.1753 199.434 72.802L200.694 72.9C200.498 73.5627 200.125 74.1087 199.574 74.538C199.033 74.958 198.37 75.168 197.586 75.168ZM195.416 70.618H199.518C199.462 69.8993 199.252 69.372 198.888 69.036C198.534 68.7 198.081 68.532 197.53 68.532C196.961 68.532 196.49 68.7093 196.116 69.064C195.752 69.4093 195.519 69.9273 195.416 70.618ZM202.399 75V67.58H203.477L203.519 69.47L203.379 69.344C203.473 68.9053 203.636 68.546 203.869 68.266C204.103 67.9767 204.383 67.762 204.709 67.622C205.045 67.482 205.405 67.412 205.787 67.412C206.357 67.412 206.823 67.538 207.187 67.79C207.561 68.042 207.836 68.3827 208.013 68.812C208.2 69.232 208.293 69.7033 208.293 70.226V75H207.117V70.562C207.117 70.1047 207.061 69.722 206.949 69.414C206.847 69.0967 206.679 68.8587 206.445 68.7C206.212 68.532 205.909 68.448 205.535 68.448C204.966 68.448 204.495 68.63 204.121 68.994C203.757 69.3487 203.575 69.8713 203.575 70.562V75H202.399ZM210.397 75V67.58H211.573V75H210.397ZM210.369 66.418V65.046H211.601V66.418H210.369ZM213.952 75V67.58H215.03L215.072 69.47L214.932 69.344C215.025 68.9053 215.189 68.546 215.422 68.266C215.655 67.9767 215.935 67.762 216.262 67.622C216.598 67.482 216.957 67.412 217.34 67.412C217.909 67.412 218.376 67.538 218.74 67.79C219.113 68.042 219.389 68.3827 219.566 68.812C219.753 69.232 219.846 69.7033 219.846 70.226V75H218.67V70.562C218.67 70.1047 218.614 69.722 218.502 69.414C218.399 69.0967 218.231 68.8587 217.998 68.7C217.765 68.532 217.461 68.448 217.088 68.448C216.519 68.448 216.047 68.63 215.674 68.994C215.31 69.3487 215.128 69.8713 215.128 70.562V75H213.952ZM224.737 77.268C224.205 77.268 223.724 77.1793 223.295 77.002C222.865 76.8247 222.506 76.5727 222.217 76.246C221.927 75.9193 221.731 75.5413 221.629 75.112L222.861 75.028C222.973 75.3733 223.169 75.644 223.449 75.84C223.738 76.0453 224.167 76.148 224.737 76.148C225.409 76.148 225.922 76.0127 226.277 75.742C226.641 75.4713 226.823 75.0653 226.823 74.524V73.32C226.645 73.712 226.361 74.0247 225.969 74.258C225.577 74.4913 225.138 74.608 224.653 74.608C224.027 74.608 223.467 74.454 222.973 74.146C222.487 73.838 222.105 73.4133 221.825 72.872C221.554 72.3307 221.419 71.71 221.419 71.01C221.419 70.3007 221.554 69.68 221.825 69.148C222.095 68.6067 222.469 68.182 222.945 67.874C223.43 67.566 223.981 67.412 224.597 67.412C225.119 67.412 225.586 67.5333 225.997 67.776C226.417 68.0187 226.711 68.3453 226.879 68.756V67.58H227.999V74.496C227.999 75.0747 227.868 75.5693 227.607 75.98C227.345 76.4 226.972 76.7173 226.487 76.932C226.001 77.156 225.418 77.268 224.737 77.268ZM224.709 73.488C225.343 73.488 225.852 73.2687 226.235 72.83C226.617 72.382 226.813 71.7753 226.823 71.01C226.832 70.4967 226.748 70.058 226.571 69.694C226.403 69.3207 226.155 69.036 225.829 68.84C225.511 68.6347 225.138 68.532 224.709 68.532C224.055 68.532 223.547 68.756 223.183 69.204C222.828 69.6427 222.651 70.2447 222.651 71.01C222.651 71.7753 222.833 72.382 223.197 72.83C223.57 73.2687 224.074 73.488 224.709 73.488ZM229.731 75V73.418H231.313V75H229.731Z" fill="#626262"/>
<path d="M37.288 100V90.06H40.858C41.9687 90.06 42.832 90.326 43.448 90.858C44.064 91.39 44.372 92.1273 44.372 93.07C44.372 93.7047 44.232 94.2553 43.952 94.722C43.672 95.1793 43.2707 95.5293 42.748 95.772C42.2253 96.0147 41.5953 96.136 40.858 96.136H38.492V100H37.288ZM38.492 94.96H40.858C41.6047 94.96 42.1647 94.8013 42.538 94.484C42.9207 94.1667 43.112 93.6953 43.112 93.07C43.112 92.4633 42.9207 92.006 42.538 91.698C42.1647 91.39 41.6047 91.236 40.858 91.236H38.492V94.96ZM47.6815 100C47.2521 100 46.9021 99.888 46.6315 99.664C46.3608 99.44 46.2255 99.0853 46.2255 98.6V90.06H47.4015V98.502C47.4015 98.6513 47.4388 98.768 47.5135 98.852C47.5975 98.9267 47.7141 98.964 47.8635 98.964H48.5075V100H47.6815ZM51.9599 100.168C51.1946 100.168 50.5832 99.9907 50.1259 99.636C49.6779 99.2813 49.4539 98.7867 49.4539 98.152C49.4539 97.5173 49.6406 97.018 50.0139 96.654C50.3872 96.29 50.9799 96.0333 51.7919 95.884L54.4239 95.394C54.4239 94.7687 54.2746 94.302 53.9759 93.994C53.6866 93.686 53.2479 93.532 52.6599 93.532C52.1466 93.532 51.7406 93.6487 51.4419 93.882C51.1432 94.106 50.9379 94.4327 50.8259 94.862L49.5799 94.764C49.7199 94.064 50.0559 93.4993 50.5879 93.07C51.1292 92.6313 51.8199 92.412 52.6599 92.412C53.6119 92.412 54.3399 92.6827 54.8439 93.224C55.3479 93.756 55.5999 94.4933 55.5999 95.436V98.502C55.5999 98.67 55.6279 98.7913 55.6839 98.866C55.7492 98.9313 55.8519 98.964 55.9919 98.964H56.2859V100C56.2486 100.009 56.1879 100.014 56.1039 100.014C56.0199 100.023 55.9312 100.028 55.8379 100.028C55.5019 100.028 55.2266 99.9767 55.0119 99.874C54.8066 99.762 54.6572 99.594 54.5639 99.37C54.4706 99.1367 54.4239 98.8333 54.4239 98.46L54.5639 98.488C54.4986 98.8053 54.3399 99.0947 54.0879 99.356C53.8359 99.608 53.5232 99.8087 53.1499 99.958C52.7766 100.098 52.3799 100.168 51.9599 100.168ZM52.0719 99.132C52.5666 99.132 52.9866 99.0387 53.3319 98.852C53.6866 98.656 53.9572 98.3947 54.1439 98.068C54.3306 97.732 54.4239 97.3587 54.4239 96.948V96.416L52.0159 96.864C51.5119 96.9573 51.1619 97.102 50.9659 97.298C50.7792 97.4847 50.6859 97.732 50.6859 98.04C50.6859 98.3853 50.8072 98.656 51.0499 98.852C51.3019 99.0387 51.6426 99.132 52.0719 99.132ZM57.6141 100V92.58H58.6921L58.7341 94.47L58.5941 94.344C58.6875 93.9053 58.8508 93.546 59.0841 93.266C59.3175 92.9767 59.5975 92.762 59.9241 92.622C60.2601 92.482 60.6195 92.412 61.0021 92.412C61.5715 92.412 62.0381 92.538 62.4021 92.79C62.7755 93.042 63.0508 93.3827 63.2281 93.812C63.4148 94.232 63.5081 94.7033 63.5081 95.226V100H62.3321V95.562C62.3321 95.1047 62.2761 94.722 62.1641 94.414C62.0615 94.0967 61.8935 93.8587 61.6601 93.7C61.4268 93.532 61.1235 93.448 60.7501 93.448C60.1808 93.448 59.7095 93.63 59.3361 93.994C58.9721 94.3487 58.7901 94.8713 58.7901 95.562V100H57.6141ZM67.9044 100C67.2324 100 66.733 99.846 66.4064 99.538C66.089 99.23 65.9304 98.7493 65.9304 98.096V90.844H67.1064V98.068C67.1064 98.404 67.181 98.6373 67.3304 98.768C67.4797 98.8987 67.7084 98.964 68.0164 98.964H69.0804V100H67.9044ZM64.8384 93.616V92.58H69.0804V93.616H64.8384ZM78.1468 100.224C77.2601 100.224 76.4808 100.019 75.8088 99.608C75.1368 99.188 74.6141 98.5907 74.2408 97.816C73.8674 97.0413 73.6808 96.1173 73.6808 95.044C73.6808 93.9707 73.8674 93.0467 74.2408 92.272C74.6141 91.488 75.1368 90.886 75.8088 90.466C76.4808 90.046 77.2601 89.836 78.1468 89.836C79.3508 89.836 80.2841 90.1393 80.9468 90.746C81.6094 91.3527 82.0434 92.1787 82.2488 93.224L80.9748 93.308C80.8348 92.5987 80.5361 92.0387 80.0788 91.628C79.6214 91.2173 78.9774 91.012 78.1468 91.012C77.5121 91.012 76.9521 91.1753 76.4668 91.502C75.9908 91.8193 75.6174 92.2813 75.3468 92.888C75.0761 93.4853 74.9408 94.204 74.9408 95.044C74.9408 95.884 75.0761 96.6027 75.3468 97.2C75.6174 97.7973 75.9908 98.2547 76.4668 98.572C76.9521 98.8893 77.5121 99.048 78.1468 99.048C79.0148 99.048 79.6868 98.824 80.1628 98.376C80.6388 97.9187 80.9374 97.3027 81.0588 96.528L82.3328 96.612C82.2114 97.3307 81.9734 97.9607 81.6188 98.502C81.2641 99.0433 80.7928 99.468 80.2048 99.776C79.6261 100.075 78.9401 100.224 78.1468 100.224ZM85.9618 100.168C85.1965 100.168 84.5852 99.9907 84.1278 99.636C83.6798 99.2813 83.4558 98.7867 83.4558 98.152C83.4558 97.5173 83.6425 97.018 84.0158 96.654C84.3892 96.29 84.9818 96.0333 85.7938 95.884L88.4258 95.394C88.4258 94.7687 88.2765 94.302 87.9778 93.994C87.6885 93.686 87.2498 93.532 86.6618 93.532C86.1485 93.532 85.7425 93.6487 85.4438 93.882C85.1452 94.106 84.9398 94.4327 84.8278 94.862L83.5818 94.764C83.7218 94.064 84.0578 93.4993 84.5898 93.07C85.1312 92.6313 85.8218 92.412 86.6618 92.412C87.6138 92.412 88.3418 92.6827 88.8458 93.224C89.3498 93.756 89.6018 94.4933 89.6018 95.436V98.502C89.6018 98.67 89.6298 98.7913 89.6858 98.866C89.7512 98.9313 89.8538 98.964 89.9938 98.964H90.2878V100C90.2505 100.009 90.1898 100.014 90.1058 100.014C90.0218 100.023 89.9332 100.028 89.8398 100.028C89.5038 100.028 89.2285 99.9767 89.0138 99.874C88.8085 99.762 88.6592 99.594 88.5658 99.37C88.4725 99.1367 88.4258 98.8333 88.4258 98.46L88.5658 98.488C88.5005 98.8053 88.3418 99.0947 88.0898 99.356C87.8378 99.608 87.5252 99.8087 87.1518 99.958C86.7785 100.098 86.3818 100.168 85.9618 100.168ZM86.0738 99.132C86.5685 99.132 86.9885 99.0387 87.3338 98.852C87.6885 98.656 87.9592 98.3947 88.1458 98.068C88.3325 97.732 88.4258 97.3587 88.4258 96.948V96.416L86.0178 96.864C85.5138 96.9573 85.1638 97.102 84.9678 97.298C84.7812 97.4847 84.6878 97.732 84.6878 98.04C84.6878 98.3853 84.8092 98.656 85.0518 98.852C85.3038 99.0387 85.6445 99.132 86.0738 99.132ZM91.6161 100V92.58H92.6521L92.7081 94.456L92.5961 94.414C92.6894 93.7793 92.8901 93.3173 93.1981 93.028C93.5154 92.7293 93.9354 92.58 94.4581 92.58H95.1861V93.7H94.4721C94.0988 93.7 93.7861 93.77 93.5341 93.91C93.2914 94.0407 93.1048 94.2413 92.9741 94.512C92.8528 94.7733 92.7921 95.1093 92.7921 95.52V100H91.6161ZM99.2582 100.168C98.5582 100.168 97.9516 100.009 97.4382 99.692C96.9342 99.3747 96.5422 98.9267 96.2622 98.348C95.9916 97.76 95.8562 97.074 95.8562 96.29C95.8562 95.506 95.9916 94.8247 96.2622 94.246C96.5422 93.6673 96.9296 93.2193 97.4242 92.902C97.9282 92.5753 98.5209 92.412 99.2022 92.412C99.8462 92.412 100.416 92.566 100.91 92.874C101.405 93.1727 101.788 93.6113 102.058 94.19C102.338 94.7687 102.478 95.4733 102.478 96.304V96.654H97.0882C97.1349 97.4473 97.3449 98.0447 97.7182 98.446C98.1009 98.8473 98.6142 99.048 99.2582 99.048C99.7436 99.048 100.14 98.936 100.448 98.712C100.766 98.4787 100.985 98.1753 101.106 97.802L102.366 97.9C102.17 98.5627 101.797 99.1087 101.246 99.538C100.705 99.958 100.042 100.168 99.2582 100.168ZM97.0882 95.618H101.19C101.134 94.8993 100.924 94.372 100.56 94.036C100.206 93.7 99.7529 93.532 99.2022 93.532C98.6329 93.532 98.1616 93.7093 97.7882 94.064C97.4242 94.4093 97.1909 94.9273 97.0882 95.618Z" fill="black"/>
<path d="M36 101.75H103.094V102.45H36V101.75Z" fill="black"/>
<path d="M40.704 128.224C39.9387 128.224 39.2713 128.079 38.702 127.79C38.1327 127.501 37.68 127.104 37.344 126.6C37.0173 126.087 36.826 125.494 36.77 124.822L38.03 124.738C38.0953 125.233 38.24 125.653 38.464 125.998C38.688 126.343 38.9867 126.605 39.36 126.782C39.7427 126.959 40.2 127.048 40.732 127.048C41.1987 127.048 41.5953 126.987 41.922 126.866C42.2487 126.745 42.496 126.567 42.664 126.334C42.8413 126.101 42.93 125.816 42.93 125.48C42.93 125.172 42.8553 124.901 42.706 124.668C42.566 124.425 42.2907 124.206 41.88 124.01C41.4787 123.805 40.8813 123.604 40.088 123.408C39.3227 123.212 38.7113 122.997 38.254 122.764C37.806 122.531 37.4793 122.246 37.274 121.91C37.078 121.574 36.98 121.159 36.98 120.664C36.98 120.104 37.1107 119.614 37.372 119.194C37.6427 118.765 38.0253 118.433 38.52 118.2C39.0147 117.957 39.6027 117.836 40.284 117.836C41.012 117.836 41.6373 117.976 42.16 118.256C42.6827 118.527 43.098 118.9 43.406 119.376C43.714 119.852 43.9053 120.393 43.98 121L42.72 121.084C42.664 120.683 42.5333 120.328 42.328 120.02C42.132 119.703 41.8613 119.455 41.516 119.278C41.1707 119.101 40.7507 119.012 40.256 119.012C39.64 119.012 39.15 119.161 38.786 119.46C38.422 119.749 38.24 120.132 38.24 120.608C38.24 120.916 38.31 121.173 38.45 121.378C38.5993 121.574 38.8607 121.751 39.234 121.91C39.6073 122.059 40.144 122.223 40.844 122.4C41.6747 122.605 42.3327 122.853 42.818 123.142C43.3127 123.422 43.6627 123.749 43.868 124.122C44.0827 124.495 44.19 124.92 44.19 125.396C44.19 125.975 44.0407 126.479 43.742 126.908C43.4433 127.328 43.0327 127.655 42.51 127.888C41.9873 128.112 41.3853 128.224 40.704 128.224ZM49.1645 128.168C48.4645 128.168 47.8578 128.009 47.3445 127.692C46.8405 127.375 46.4485 126.927 46.1685 126.348C45.8978 125.76 45.7625 125.074 45.7625 124.29C45.7625 123.506 45.8978 122.825 46.1685 122.246C46.4485 121.667 46.8358 121.219 47.3305 120.902C47.8345 120.575 48.4272 120.412 49.1085 120.412C49.7525 120.412 50.3218 120.566 50.8165 120.874C51.3112 121.173 51.6938 121.611 51.9645 122.19C52.2445 122.769 52.3845 123.473 52.3845 124.304V124.654H46.9945C47.0412 125.447 47.2512 126.045 47.6245 126.446C48.0072 126.847 48.5205 127.048 49.1645 127.048C49.6498 127.048 50.0465 126.936 50.3545 126.712C50.6718 126.479 50.8912 126.175 51.0125 125.802L52.2725 125.9C52.0765 126.563 51.7032 127.109 51.1525 127.538C50.6112 127.958 49.9485 128.168 49.1645 128.168ZM46.9945 123.618H51.0965C51.0405 122.899 50.8305 122.372 50.4665 122.036C50.1118 121.7 49.6592 121.532 49.1085 121.532C48.5392 121.532 48.0678 121.709 47.6945 122.064C47.3305 122.409 47.0972 122.927 46.9945 123.618ZM56.1708 128.168C55.4055 128.168 54.7942 127.991 54.3368 127.636C53.8888 127.281 53.6648 126.787 53.6648 126.152C53.6648 125.517 53.8515 125.018 54.2248 124.654C54.5982 124.29 55.1908 124.033 56.0028 123.884L58.6348 123.394C58.6348 122.769 58.4855 122.302 58.1868 121.994C57.8975 121.686 57.4588 121.532 56.8708 121.532C56.3575 121.532 55.9515 121.649 55.6528 121.882C55.3542 122.106 55.1488 122.433 55.0368 122.862L53.7908 122.764C53.9308 122.064 54.2668 121.499 54.7988 121.07C55.3402 120.631 56.0308 120.412 56.8708 120.412C57.8228 120.412 58.5508 120.683 59.0548 121.224C59.5588 121.756 59.8108 122.493 59.8108 123.436V126.502C59.8108 126.67 59.8388 126.791 59.8948 126.866C59.9602 126.931 60.0628 126.964 60.2028 126.964H60.4968V128C60.4595 128.009 60.3988 128.014 60.3148 128.014C60.2308 128.023 60.1422 128.028 60.0488 128.028C59.7128 128.028 59.4375 127.977 59.2228 127.874C59.0175 127.762 58.8682 127.594 58.7748 127.37C58.6815 127.137 58.6348 126.833 58.6348 126.46L58.7748 126.488C58.7095 126.805 58.5508 127.095 58.2988 127.356C58.0468 127.608 57.7342 127.809 57.3608 127.958C56.9875 128.098 56.5908 128.168 56.1708 128.168ZM56.2828 127.132C56.7775 127.132 57.1975 127.039 57.5428 126.852C57.8975 126.656 58.1682 126.395 58.3548 126.068C58.5415 125.732 58.6348 125.359 58.6348 124.948V124.416L56.2268 124.864C55.7228 124.957 55.3728 125.102 55.1768 125.298C54.9902 125.485 54.8968 125.732 54.8968 126.04C54.8968 126.385 55.0182 126.656 55.2608 126.852C55.5128 127.039 55.8535 127.132 56.2828 127.132ZM64.4997 128.168C63.8371 128.168 63.2724 128.061 62.8057 127.846C62.3484 127.631 61.9891 127.337 61.7277 126.964C61.4757 126.581 61.3311 126.147 61.2937 125.662L62.5257 125.578C62.6004 126.026 62.7917 126.385 63.0997 126.656C63.4077 126.917 63.8744 127.048 64.4997 127.048C65.0037 127.048 65.4051 126.969 65.7037 126.81C66.0117 126.642 66.1657 126.376 66.1657 126.012C66.1657 125.816 66.1191 125.653 66.0257 125.522C65.9324 125.391 65.7504 125.279 65.4797 125.186C65.2091 125.083 64.8077 124.985 64.2757 124.892C63.5664 124.761 63.0064 124.603 62.5957 124.416C62.1944 124.22 61.9051 123.982 61.7277 123.702C61.5597 123.413 61.4757 123.072 61.4757 122.68C61.4757 122.017 61.7184 121.476 62.2037 121.056C62.6891 120.627 63.3797 120.412 64.2757 120.412C64.8824 120.412 65.3911 120.524 65.8017 120.748C66.2217 120.963 66.5484 121.252 66.7817 121.616C67.0244 121.971 67.1831 122.363 67.2577 122.792L66.0257 122.876C65.9697 122.615 65.8671 122.386 65.7177 122.19C65.5684 121.985 65.3724 121.826 65.1297 121.714C64.8871 121.593 64.5977 121.532 64.2617 121.532C63.7297 121.532 63.3377 121.635 63.0857 121.84C62.8337 122.045 62.7077 122.307 62.7077 122.624C62.7077 122.867 62.7637 123.067 62.8757 123.226C62.9971 123.375 63.1884 123.501 63.4497 123.604C63.7111 123.697 64.0611 123.781 64.4997 123.856C65.2557 123.987 65.8437 124.145 66.2637 124.332C66.6837 124.519 66.9777 124.747 67.1457 125.018C67.3137 125.289 67.3977 125.62 67.3977 126.012C67.3977 126.469 67.2671 126.861 67.0057 127.188C66.7537 127.505 66.4084 127.748 65.9697 127.916C65.5404 128.084 65.0504 128.168 64.4997 128.168ZM71.9008 128.168C71.2195 128.168 70.6221 128.009 70.1088 127.692C69.5955 127.375 69.1988 126.927 68.9188 126.348C68.6388 125.76 68.4988 125.074 68.4988 124.29C68.4988 123.497 68.6388 122.811 68.9188 122.232C69.1988 121.653 69.5955 121.205 70.1088 120.888C70.6221 120.571 71.2195 120.412 71.9008 120.412C72.5821 120.412 73.1748 120.571 73.6788 120.888C74.1921 121.205 74.5888 121.653 74.8688 122.232C75.1488 122.811 75.2888 123.497 75.2888 124.29C75.2888 125.074 75.1488 125.76 74.8688 126.348C74.5888 126.927 74.1921 127.375 73.6788 127.692C73.1748 128.009 72.5821 128.168 71.9008 128.168ZM71.9008 127.048C72.5821 127.048 73.1095 126.805 73.4828 126.32C73.8655 125.825 74.0568 125.149 74.0568 124.29C74.0568 123.431 73.8655 122.759 73.4828 122.274C73.1095 121.779 72.5821 121.532 71.9008 121.532C71.2195 121.532 70.6875 121.779 70.3048 122.274C69.9221 122.759 69.7308 123.431 69.7308 124.29C69.7308 125.149 69.9221 125.825 70.3048 126.32C70.6875 126.805 71.2195 127.048 71.9008 127.048ZM76.8915 128V120.58H77.9695L78.0115 122.47L77.8715 122.344C77.9648 121.905 78.1282 121.546 78.3615 121.266C78.5948 120.977 78.8748 120.762 79.2015 120.622C79.5375 120.482 79.8968 120.412 80.2795 120.412C80.8488 120.412 81.3155 120.538 81.6795 120.79C82.0528 121.042 82.3282 121.383 82.5055 121.812C82.6922 122.232 82.7855 122.703 82.7855 123.226V128H81.6095V123.562C81.6095 123.105 81.5535 122.722 81.4415 122.414C81.3388 122.097 81.1708 121.859 80.9375 121.7C80.7042 121.532 80.4008 121.448 80.0275 121.448C79.4582 121.448 78.9868 121.63 78.6135 121.994C78.2495 122.349 78.0675 122.871 78.0675 123.562V128H76.8915ZM86.8915 128.168C86.1262 128.168 85.5149 127.991 85.0575 127.636C84.6095 127.281 84.3855 126.787 84.3855 126.152C84.3855 125.517 84.5722 125.018 84.9455 124.654C85.3189 124.29 85.9115 124.033 86.7235 123.884L89.3555 123.394C89.3555 122.769 89.2062 122.302 88.9075 121.994C88.6182 121.686 88.1795 121.532 87.5915 121.532C87.0782 121.532 86.6722 121.649 86.3735 121.882C86.0749 122.106 85.8695 122.433 85.7575 122.862L84.5115 122.764C84.6515 122.064 84.9875 121.499 85.5195 121.07C86.0609 120.631 86.7515 120.412 87.5915 120.412C88.5435 120.412 89.2715 120.683 89.7755 121.224C90.2795 121.756 90.5315 122.493 90.5315 123.436V126.502C90.5315 126.67 90.5595 126.791 90.6155 126.866C90.6809 126.931 90.7835 126.964 90.9235 126.964H91.2175V128C91.1802 128.009 91.1195 128.014 91.0355 128.014C90.9515 128.023 90.8629 128.028 90.7695 128.028C90.4335 128.028 90.1582 127.977 89.9435 127.874C89.7382 127.762 89.5889 127.594 89.4955 127.37C89.4022 127.137 89.3555 126.833 89.3555 126.46L89.4955 126.488C89.4302 126.805 89.2715 127.095 89.0195 127.356C88.7675 127.608 88.4549 127.809 88.0815 127.958C87.7082 128.098 87.3115 128.168 86.8915 128.168ZM87.0035 127.132C87.4982 127.132 87.9182 127.039 88.2635 126.852C88.6182 126.656 88.8889 126.395 89.0755 126.068C89.2622 125.732 89.3555 125.359 89.3555 124.948V124.416L86.9475 124.864C86.4435 124.957 86.0935 125.102 85.8975 125.298C85.7109 125.485 85.6175 125.732 85.6175 126.04C85.6175 126.385 85.7389 126.656 85.9815 126.852C86.2335 127.039 86.5742 127.132 87.0035 127.132ZM93.9198 128C93.4904 128 93.1404 127.888 92.8698 127.664C92.5991 127.44 92.4638 127.085 92.4638 126.6V118.06H93.6398V126.502C93.6398 126.651 93.6771 126.768 93.7518 126.852C93.8358 126.927 93.9524 126.964 94.1018 126.964H94.7458V128H93.9198ZM101.838 128V119.236H98.7442V118.06H106.136V119.236H103.042V128H101.838ZM106.997 128V120.58H108.173V128H106.997ZM106.969 119.418V118.046H108.201V119.418H106.969ZM110.552 130.1V120.58H111.644L111.672 122.176L111.504 122.092C111.69 121.541 111.998 121.126 112.428 120.846C112.866 120.557 113.37 120.412 113.94 120.412C114.677 120.412 115.279 120.594 115.746 120.958C116.222 121.322 116.572 121.798 116.796 122.386C117.029 122.974 117.146 123.609 117.146 124.29C117.146 124.971 117.029 125.606 116.796 126.194C116.572 126.782 116.222 127.258 115.746 127.622C115.279 127.986 114.677 128.168 113.94 128.168C113.557 128.168 113.198 128.103 112.862 127.972C112.535 127.841 112.255 127.659 112.022 127.426C111.798 127.193 111.644 126.917 111.56 126.6L111.728 126.404V130.1H110.552ZM113.828 127.048C114.472 127.048 114.98 126.805 115.354 126.32C115.727 125.835 115.914 125.158 115.914 124.29C115.914 123.422 115.727 122.745 115.354 122.26C114.98 121.775 114.472 121.532 113.828 121.532C113.398 121.532 113.025 121.635 112.708 121.84C112.4 122.045 112.157 122.353 111.98 122.764C111.812 123.175 111.728 123.683 111.728 124.29C111.728 124.897 111.812 125.405 111.98 125.816C112.148 126.227 112.39 126.535 112.708 126.74C113.025 126.945 113.398 127.048 113.828 127.048ZM121.443 128.168C120.78 128.168 120.216 128.061 119.749 127.846C119.292 127.631 118.932 127.337 118.671 126.964C118.419 126.581 118.274 126.147 118.237 125.662L119.469 125.578C119.544 126.026 119.735 126.385 120.043 126.656C120.351 126.917 120.818 127.048 121.443 127.048C121.947 127.048 122.348 126.969 122.647 126.81C122.955 126.642 123.109 126.376 123.109 126.012C123.109 125.816 123.062 125.653 122.969 125.522C122.876 125.391 122.694 125.279 122.423 125.186C122.152 125.083 121.751 124.985 121.219 124.892C120.51 124.761 119.95 124.603 119.539 124.416C119.138 124.22 118.848 123.982 118.671 123.702C118.503 123.413 118.419 123.072 118.419 122.68C118.419 122.017 118.662 121.476 119.147 121.056C119.632 120.627 120.323 120.412 121.219 120.412C121.826 120.412 122.334 120.524 122.745 120.748C123.165 120.963 123.492 121.252 123.725 121.616C123.968 121.971 124.126 122.363 124.201 122.792L122.969 122.876C122.913 122.615 122.81 122.386 122.661 122.19C122.512 121.985 122.316 121.826 122.073 121.714C121.83 121.593 121.541 121.532 121.205 121.532C120.673 121.532 120.281 121.635 120.029 121.84C119.777 122.045 119.651 122.307 119.651 122.624C119.651 122.867 119.707 123.067 119.819 123.226C119.94 123.375 120.132 123.501 120.393 123.604C120.654 123.697 121.004 123.781 121.443 123.856C122.199 123.987 122.787 124.145 123.207 124.332C123.627 124.519 123.921 124.747 124.089 125.018C124.257 125.289 124.341 125.62 124.341 126.012C124.341 126.469 124.21 126.861 123.949 127.188C123.697 127.505 123.352 127.748 122.913 127.916C122.484 128.084 121.994 128.168 121.443 128.168Z" fill="black"/>
<path d="M36 129.75H109.855V130.45H36V129.75ZM112.427 129.75H124.957V130.45H112.427V129.75Z" fill="black"/>
<path d="M37.288 156V146.06H40.858C41.9687 146.06 42.832 146.326 43.448 146.858C44.064 147.39 44.372 148.127 44.372 149.07C44.372 149.705 44.232 150.255 43.952 150.722C43.672 151.179 43.2707 151.529 42.748 151.772C42.2253 152.015 41.5953 152.136 40.858 152.136H38.492V156H37.288ZM38.492 150.96H40.858C41.6047 150.96 42.1647 150.801 42.538 150.484C42.9207 150.167 43.112 149.695 43.112 149.07C43.112 148.463 42.9207 148.006 42.538 147.698C42.1647 147.39 41.6047 147.236 40.858 147.236H38.492V150.96ZM48.727 156.168C48.0457 156.168 47.4483 156.009 46.935 155.692C46.4217 155.375 46.025 154.927 45.745 154.348C45.465 153.76 45.325 153.074 45.325 152.29C45.325 151.497 45.465 150.811 45.745 150.232C46.025 149.653 46.4217 149.205 46.935 148.888C47.4483 148.571 48.0457 148.412 48.727 148.412C49.4083 148.412 50.001 148.571 50.505 148.888C51.0183 149.205 51.415 149.653 51.695 150.232C51.975 150.811 52.115 151.497 52.115 152.29C52.115 153.074 51.975 153.76 51.695 154.348C51.415 154.927 51.0183 155.375 50.505 155.692C50.001 156.009 49.4083 156.168 48.727 156.168ZM48.727 155.048C49.4083 155.048 49.9357 154.805 50.309 154.32C50.6917 153.825 50.883 153.149 50.883 152.29C50.883 151.431 50.6917 150.759 50.309 150.274C49.9357 149.779 49.4083 149.532 48.727 149.532C48.0457 149.532 47.5137 149.779 47.131 150.274C46.7483 150.759 46.557 151.431 46.557 152.29C46.557 153.149 46.7483 153.825 47.131 154.32C47.5137 154.805 48.0457 155.048 48.727 155.048ZM55.242 156C54.8127 156 54.4627 155.888 54.192 155.664C53.9213 155.44 53.786 155.085 53.786 154.6V146.06H54.962V154.502C54.962 154.651 54.9993 154.768 55.074 154.852C55.158 154.927 55.2747 154.964 55.424 154.964H56.068V156H55.242ZM58.8377 156C58.4084 156 58.0584 155.888 57.7877 155.664C57.5171 155.44 57.3817 155.085 57.3817 154.6V146.06H58.5577V154.502C58.5577 154.651 58.5951 154.768 58.6697 154.852C58.7537 154.927 58.8704 154.964 59.0197 154.964H59.6637V156H58.8377ZM61.0048 156V148.58H62.1808V156H61.0048ZM60.9768 147.418V146.046H62.2088V147.418H60.9768ZM64.5595 156V148.58H65.6375L65.6795 150.47L65.5395 150.344C65.6328 149.905 65.7961 149.546 66.0295 149.266C66.2628 148.977 66.5428 148.762 66.8695 148.622C67.2055 148.482 67.5648 148.412 67.9475 148.412C68.5168 148.412 68.9835 148.538 69.3475 148.79C69.7208 149.042 69.9961 149.383 70.1735 149.812C70.3601 150.232 70.4535 150.703 70.4535 151.226V156H69.2775V151.562C69.2775 151.105 69.2215 150.722 69.1095 150.414C69.0068 150.097 68.8388 149.859 68.6055 149.7C68.3721 149.532 68.0688 149.448 67.6955 149.448C67.1261 149.448 66.6548 149.63 66.2815 149.994C65.9175 150.349 65.7355 150.871 65.7355 151.562V156H64.5595ZM74.5595 156.168C73.7942 156.168 73.1828 155.991 72.7255 155.636C72.2775 155.281 72.0535 154.787 72.0535 154.152C72.0535 153.517 72.2402 153.018 72.6135 152.654C72.9868 152.29 73.5795 152.033 74.3915 151.884L77.0235 151.394C77.0235 150.769 76.8742 150.302 76.5755 149.994C76.2862 149.686 75.8475 149.532 75.2595 149.532C74.7462 149.532 74.3402 149.649 74.0415 149.882C73.7428 150.106 73.5375 150.433 73.4255 150.862L72.1795 150.764C72.3195 150.064 72.6555 149.499 73.1875 149.07C73.7288 148.631 74.4195 148.412 75.2595 148.412C76.2115 148.412 76.9395 148.683 77.4435 149.224C77.9475 149.756 78.1995 150.493 78.1995 151.436V154.502C78.1995 154.67 78.2275 154.791 78.2835 154.866C78.3488 154.931 78.4515 154.964 78.5915 154.964H78.8855V156C78.8482 156.009 78.7875 156.014 78.7035 156.014C78.6195 156.023 78.5308 156.028 78.4375 156.028C78.1015 156.028 77.8262 155.977 77.6115 155.874C77.4062 155.762 77.2568 155.594 77.1635 155.37C77.0702 155.137 77.0235 154.833 77.0235 154.46L77.1635 154.488C77.0982 154.805 76.9395 155.095 76.6875 155.356C76.4355 155.608 76.1228 155.809 75.7495 155.958C75.3762 156.098 74.9795 156.168 74.5595 156.168ZM74.6715 155.132C75.1662 155.132 75.5862 155.039 75.9315 154.852C76.2862 154.656 76.5568 154.395 76.7435 154.068C76.9302 153.732 77.0235 153.359 77.0235 152.948V152.416L74.6155 152.864C74.1115 152.957 73.7615 153.102 73.5655 153.298C73.3788 153.485 73.2855 153.732 73.2855 154.04C73.2855 154.385 73.4068 154.656 73.6495 154.852C73.9015 155.039 74.2422 155.132 74.6715 155.132ZM82.5606 156C81.8886 156 81.3893 155.846 81.0626 155.538C80.7453 155.23 80.5866 154.749 80.5866 154.096V146.844H81.7626V154.068C81.7626 154.404 81.8373 154.637 81.9866 154.768C82.1359 154.899 82.3646 154.964 82.6726 154.964H83.7366V156H82.5606ZM79.4946 149.616V148.58H83.7366V149.616H79.4946ZM88.0063 156.168C87.3249 156.168 86.7276 156.009 86.2143 155.692C85.7009 155.375 85.3043 154.927 85.0243 154.348C84.7443 153.76 84.6043 153.074 84.6043 152.29C84.6043 151.497 84.7443 150.811 85.0243 150.232C85.3043 149.653 85.7009 149.205 86.2143 148.888C86.7276 148.571 87.3249 148.412 88.0063 148.412C88.6876 148.412 89.2803 148.571 89.7843 148.888C90.2976 149.205 90.6943 149.653 90.9743 150.232C91.2543 150.811 91.3943 151.497 91.3943 152.29C91.3943 153.074 91.2543 153.76 90.9743 154.348C90.6943 154.927 90.2976 155.375 89.7843 155.692C89.2803 156.009 88.6876 156.168 88.0063 156.168ZM88.0063 155.048C88.6876 155.048 89.2149 154.805 89.5883 154.32C89.9709 153.825 90.1623 153.149 90.1623 152.29C90.1623 151.431 89.9709 150.759 89.5883 150.274C89.2149 149.779 88.6876 149.532 88.0063 149.532C87.3249 149.532 86.7929 149.779 86.4103 150.274C86.0276 150.759 85.8363 151.431 85.8363 152.29C85.8363 153.149 86.0276 153.825 86.4103 154.32C86.7929 154.805 87.3249 155.048 88.0063 155.048ZM92.997 156V148.58H94.033L94.089 150.456L93.977 150.414C94.0703 149.779 94.271 149.317 94.579 149.028C94.8963 148.729 95.3163 148.58 95.839 148.58H96.567V149.7H95.853C95.4796 149.7 95.167 149.77 94.915 149.91C94.6723 150.041 94.4856 150.241 94.355 150.512C94.2336 150.773 94.173 151.109 94.173 151.52V156H92.997ZM100.443 156.168C99.7804 156.168 99.2158 156.061 98.7491 155.846C98.2918 155.631 97.9324 155.337 97.6711 154.964C97.4191 154.581 97.2744 154.147 97.2371 153.662L98.4691 153.578C98.5438 154.026 98.7351 154.385 99.0431 154.656C99.3511 154.917 99.8178 155.048 100.443 155.048C100.947 155.048 101.348 154.969 101.647 154.81C101.955 154.642 102.109 154.376 102.109 154.012C102.109 153.816 102.062 153.653 101.969 153.522C101.876 153.391 101.694 153.279 101.423 153.186C101.152 153.083 100.751 152.985 100.219 152.892C99.5098 152.761 98.9498 152.603 98.5391 152.416C98.1378 152.22 97.8484 151.982 97.6711 151.702C97.5031 151.413 97.4191 151.072 97.4191 150.68C97.4191 150.017 97.6618 149.476 98.1471 149.056C98.6324 148.627 99.3231 148.412 100.219 148.412C100.826 148.412 101.334 148.524 101.745 148.748C102.165 148.963 102.492 149.252 102.725 149.616C102.968 149.971 103.126 150.363 103.201 150.792L101.969 150.876C101.913 150.615 101.81 150.386 101.661 150.19C101.512 149.985 101.316 149.826 101.073 149.714C100.83 149.593 100.541 149.532 100.205 149.532C99.6731 149.532 99.2811 149.635 99.0291 149.84C98.7771 150.045 98.6511 150.307 98.6511 150.624C98.6511 150.867 98.7071 151.067 98.8191 151.226C98.9404 151.375 99.1318 151.501 99.3931 151.604C99.6544 151.697 100.004 151.781 100.443 151.856C101.199 151.987 101.787 152.145 102.207 152.332C102.627 152.519 102.921 152.747 103.089 153.018C103.257 153.289 103.341 153.62 103.341 154.012C103.341 154.469 103.21 154.861 102.949 155.188C102.697 155.505 102.352 155.748 101.913 155.916C101.484 156.084 100.994 156.168 100.443 156.168Z" fill="black"/>
<path d="M36 157.75H103.957V158.45H36V157.75Z" fill="black"/>
<path d="M37.288 184V174.06H40.858C41.9687 174.06 42.832 174.326 43.448 174.858C44.064 175.39 44.372 176.127 44.372 177.07C44.372 177.705 44.232 178.255 43.952 178.722C43.672 179.179 43.2707 179.529 42.748 179.772C42.2253 180.015 41.5953 180.136 40.858 180.136H38.492V184H37.288ZM38.492 178.96H40.858C41.6047 178.96 42.1647 178.801 42.538 178.484C42.9207 178.167 43.112 177.695 43.112 177.07C43.112 176.463 42.9207 176.006 42.538 175.698C42.1647 175.39 41.6047 175.236 40.858 175.236H38.492V178.96ZM47.6815 184C47.2521 184 46.9021 183.888 46.6315 183.664C46.3608 183.44 46.2255 183.085 46.2255 182.6V174.06H47.4015V182.502C47.4015 182.651 47.4388 182.768 47.5135 182.852C47.5975 182.927 47.7141 182.964 47.8635 182.964H48.5075V184H47.6815ZM51.9599 184.168C51.1946 184.168 50.5832 183.991 50.1259 183.636C49.6779 183.281 49.4539 182.787 49.4539 182.152C49.4539 181.517 49.6406 181.018 50.0139 180.654C50.3872 180.29 50.9799 180.033 51.7919 179.884L54.4239 179.394C54.4239 178.769 54.2746 178.302 53.9759 177.994C53.6866 177.686 53.2479 177.532 52.6599 177.532C52.1466 177.532 51.7406 177.649 51.4419 177.882C51.1432 178.106 50.9379 178.433 50.8259 178.862L49.5799 178.764C49.7199 178.064 50.0559 177.499 50.5879 177.07C51.1292 176.631 51.8199 176.412 52.6599 176.412C53.6119 176.412 54.3399 176.683 54.8439 177.224C55.3479 177.756 55.5999 178.493 55.5999 179.436V182.502C55.5999 182.67 55.6279 182.791 55.6839 182.866C55.7492 182.931 55.8519 182.964 55.9919 182.964H56.2859V184C56.2486 184.009 56.1879 184.014 56.1039 184.014C56.0199 184.023 55.9312 184.028 55.8379 184.028C55.5019 184.028 55.2266 183.977 55.0119 183.874C54.8066 183.762 54.6572 183.594 54.5639 183.37C54.4706 183.137 54.4239 182.833 54.4239 182.46L54.5639 182.488C54.4986 182.805 54.3399 183.095 54.0879 183.356C53.8359 183.608 53.5232 183.809 53.1499 183.958C52.7766 184.098 52.3799 184.168 51.9599 184.168ZM52.0719 183.132C52.5666 183.132 52.9866 183.039 53.3319 182.852C53.6866 182.656 53.9572 182.395 54.1439 182.068C54.3306 181.732 54.4239 181.359 54.4239 180.948V180.416L52.0159 180.864C51.5119 180.957 51.1619 181.102 50.9659 181.298C50.7792 181.485 50.6859 181.732 50.6859 182.04C50.6859 182.385 50.8072 182.656 51.0499 182.852C51.3019 183.039 51.6426 183.132 52.0719 183.132ZM57.6141 184V176.58H58.6921L58.7341 178.47L58.5941 178.344C58.6875 177.905 58.8508 177.546 59.0841 177.266C59.3175 176.977 59.5975 176.762 59.9241 176.622C60.2601 176.482 60.6195 176.412 61.0021 176.412C61.5715 176.412 62.0381 176.538 62.4021 176.79C62.7755 177.042 63.0508 177.383 63.2281 177.812C63.4148 178.232 63.5081 178.703 63.5081 179.226V184H62.3321V179.562C62.3321 179.105 62.2761 178.722 62.1641 178.414C62.0615 178.097 61.8935 177.859 61.6601 177.7C61.4268 177.532 61.1235 177.448 60.7501 177.448C60.1808 177.448 59.7095 177.63 59.3361 177.994C58.9721 178.349 58.7901 178.871 58.7901 179.562V184H57.6141ZM67.9044 184C67.2324 184 66.733 183.846 66.4064 183.538C66.089 183.23 65.9304 182.749 65.9304 182.096V174.844H67.1064V182.068C67.1064 182.404 67.181 182.637 67.3304 182.768C67.4797 182.899 67.7084 182.964 68.0164 182.964H69.0804V184H67.9044ZM64.8384 177.616V176.58H69.0804V177.616H64.8384ZM70.7568 184V174.06H72.4648L77.3787 182.796V174.06H78.5828V184H76.7908L71.9608 175.432V184H70.7568ZM83.7543 184.168C83.0543 184.168 82.4477 184.009 81.9343 183.692C81.4303 183.375 81.0383 182.927 80.7583 182.348C80.4877 181.76 80.3523 181.074 80.3523 180.29C80.3523 179.506 80.4877 178.825 80.7583 178.246C81.0383 177.667 81.4257 177.219 81.9203 176.902C82.4243 176.575 83.017 176.412 83.6983 176.412C84.3423 176.412 84.9117 176.566 85.4063 176.874C85.901 177.173 86.2837 177.611 86.5543 178.19C86.8343 178.769 86.9743 179.473 86.9743 180.304V180.654H81.5843C81.631 181.447 81.841 182.045 82.2143 182.446C82.597 182.847 83.1103 183.048 83.7543 183.048C84.2397 183.048 84.6363 182.936 84.9443 182.712C85.2617 182.479 85.481 182.175 85.6023 181.802L86.8623 181.9C86.6663 182.563 86.293 183.109 85.7423 183.538C85.201 183.958 84.5383 184.168 83.7543 184.168ZM81.5843 179.618H85.6863C85.6303 178.899 85.4203 178.372 85.0563 178.036C84.7017 177.7 84.249 177.532 83.6983 177.532C83.129 177.532 82.6577 177.709 82.2843 178.064C81.9203 178.409 81.687 178.927 81.5843 179.618ZM90.9962 184C90.3242 184 89.8248 183.846 89.4982 183.538C89.1808 183.23 89.0222 182.749 89.0222 182.096V174.844H90.1982V182.068C90.1982 182.404 90.2728 182.637 90.4222 182.768C90.5715 182.899 90.8002 182.964 91.1082 182.964H92.1722V184H90.9962ZM87.9302 177.616V176.58H92.1722V177.616H87.9302Z" fill="black"/>
<path d="M36 185.75H92.6482V186.45H36V185.75Z" fill="black"/>
<path d="M243 195H36" stroke="#E5E5E5"/>
<mask id="path-12-inside-2_3_2679" fill="white">
<path d="M20 252C20 244.268 26.268 238 34 238H238C245.732 238 252 244.268 252 252V264C252 271.732 245.732 278 238 278H34C26.268 278 20 271.732 20 264V252Z"/>
</mask>
<path d="M20 252C20 244.268 26.268 238 34 238H238C245.732 238 252 244.268 252 252V264C252 271.732 245.732 278 238 278H34C26.268 278 20 271.732 20 264V252Z" fill="white"/>
<path d="M34 238V239H238V238V237H34V238ZM252 252H251V264H252H253V252H252ZM238 278V277H34V278V279H238V278ZM20 264H21V252H20H19V264H20ZM34 278V277C26.8203 277 21 271.18 21 264H20H19C19 272.284 25.7157 279 34 279V278ZM252 264H251C251 271.18 245.18 277 238 277V278V279C246.284 279 253 272.284 253 264H252ZM238 238V239C245.18 239 251 244.82 251 252H252H253C253 243.716 246.284 237 238 237V238ZM34 238V237C25.7157 237 19 243.716 19 252H20H21C21 244.82 26.8203 239 34 239V238Z" fill="#E5E5E5" mask="url(#path-12-inside-2_3_2679)"/>
<path d="M40.886 263.724C40.0833 263.724 39.3787 263.57 38.772 263.262C38.1747 262.954 37.7127 262.52 37.386 261.96C37.0687 261.391 36.91 260.719 36.91 259.944V253.546H38.73V259.944C38.73 260.644 38.9167 261.185 39.29 261.568C39.6633 261.951 40.1953 262.142 40.886 262.142C41.5767 262.142 42.1087 261.951 42.482 261.568C42.8647 261.185 43.056 260.644 43.056 259.944V253.546H44.876V259.944C44.876 260.719 44.7127 261.391 44.386 261.96C44.0593 262.52 43.5973 262.954 43 263.262C42.412 263.57 41.7073 263.724 40.886 263.724ZM49.8071 263.668C49.0697 263.668 48.4491 263.561 47.9451 263.346C47.4504 263.131 47.0677 262.833 46.7971 262.45C46.5264 262.067 46.3724 261.633 46.3351 261.148L48.1691 261.064C48.2344 261.456 48.3977 261.759 48.6591 261.974C48.9204 262.189 49.3077 262.296 49.8211 262.296C50.2411 262.296 50.5677 262.231 50.8011 262.1C51.0437 261.96 51.1651 261.745 51.1651 261.456C51.1651 261.288 51.1231 261.148 51.0391 261.036C50.9551 260.924 50.7964 260.826 50.5631 260.742C50.3297 260.658 49.9844 260.574 49.5271 260.49C48.7617 260.359 48.1597 260.201 47.7211 260.014C47.2824 259.818 46.9697 259.575 46.7831 259.286C46.6057 258.997 46.5171 258.637 46.5171 258.208C46.5171 257.508 46.7831 256.943 47.3151 256.514C47.8564 256.075 48.6451 255.856 49.6811 255.856C50.3531 255.856 50.9177 255.968 51.3751 256.192C51.8324 256.407 52.1871 256.705 52.4391 257.088C52.7004 257.461 52.8637 257.891 52.9291 258.376L51.1231 258.46C51.0764 258.208 50.9924 257.989 50.8711 257.802C50.7497 257.615 50.5864 257.475 50.3811 257.382C50.1757 257.279 49.9331 257.228 49.6531 257.228C49.2331 257.228 48.9157 257.312 48.7011 257.48C48.4864 257.648 48.3791 257.872 48.3791 258.152C48.3791 258.348 48.4257 258.511 48.5191 258.642C48.6217 258.773 48.7851 258.88 49.0091 258.964C49.2331 259.039 49.5317 259.109 49.9051 259.174C50.6891 259.295 51.3051 259.454 51.7531 259.65C52.2104 259.837 52.5324 260.079 52.7191 260.378C52.9151 260.667 53.0131 261.017 53.0131 261.428C53.0131 261.904 52.8777 262.31 52.6071 262.646C52.3457 262.982 51.9724 263.239 51.4871 263.416C51.0111 263.584 50.4511 263.668 49.8071 263.668ZM57.6456 263.668C56.899 263.668 56.2503 263.509 55.6996 263.192C55.149 262.865 54.7243 262.408 54.4256 261.82C54.127 261.232 53.9776 260.546 53.9776 259.762C53.9776 258.978 54.127 258.297 54.4256 257.718C54.7243 257.13 55.1443 256.673 55.6856 256.346C56.2363 256.019 56.8756 255.856 57.6036 255.856C58.313 255.856 58.9336 256.015 59.4656 256.332C60.007 256.649 60.4223 257.107 60.7116 257.704C61.001 258.301 61.1456 259.02 61.1456 259.86V260.266H55.8396C55.877 260.919 56.0543 261.414 56.3716 261.75C56.6983 262.077 57.1276 262.24 57.6596 262.24C58.061 262.24 58.3923 262.151 58.6536 261.974C58.9243 261.787 59.111 261.531 59.2136 261.204L61.0476 261.316C60.8423 262.044 60.4363 262.618 59.8296 263.038C59.2323 263.458 58.5043 263.668 57.6456 263.668ZM55.8396 259.062H59.2976C59.2603 258.455 59.0876 258.007 58.7796 257.718C58.4716 257.419 58.0796 257.27 57.6036 257.27C57.1276 257.27 56.731 257.424 56.4136 257.732C56.1056 258.04 55.9143 258.483 55.8396 259.062ZM63.0433 263.5V255.73C63.0433 255.058 63.23 254.531 63.6033 254.148C63.986 253.756 64.5693 253.56 65.3533 253.56H66.8093V254.946H65.6893C65.4 254.946 65.1853 255.021 65.0453 255.17C64.9146 255.319 64.8493 255.539 64.8493 255.828V263.5H63.0433ZM61.9793 257.606V256.22H66.7113V257.606H61.9793ZM70.7253 263.668C69.9693 263.668 69.3673 263.421 68.9193 262.926C68.4806 262.422 68.2613 261.727 68.2613 260.84V256.024H70.0533V260.392C70.0533 261.017 70.1559 261.479 70.3613 261.778C70.5759 262.067 70.8979 262.212 71.3273 262.212C71.8126 262.212 72.1859 262.053 72.4473 261.736C72.7179 261.409 72.8533 260.938 72.8533 260.322V256.024H74.6453V263.5H73.0073L72.9653 261.442L73.1893 261.512C73.0773 262.221 72.8113 262.758 72.3913 263.122C71.9713 263.486 71.4159 263.668 70.7253 263.668ZM78.4068 263.5C77.8654 263.5 77.4314 263.36 77.1048 263.08C76.7781 262.8 76.6148 262.352 76.6148 261.736V253.56H78.4068V261.554C78.4068 261.741 78.4534 261.881 78.5468 261.974C78.6494 262.067 78.7894 262.114 78.9668 262.114H79.5128V263.5H78.4068ZM84.2196 263.5V253.56H86.0396V262.94L85.0456 261.918H90.7576V263.5H84.2196ZM91.7495 263.5V256.024H93.5415V263.5H91.7495ZM91.7215 255.03V253.434H93.5835V255.03H91.7215ZM95.6187 263.5V256.024H97.2427L97.3127 258.124L97.1027 258.04C97.1773 257.517 97.3313 257.097 97.5647 256.78C97.798 256.463 98.0827 256.229 98.4187 256.08C98.7547 255.931 99.1233 255.856 99.5247 255.856C100.075 255.856 100.537 255.977 100.911 256.22C101.293 256.463 101.583 256.799 101.779 257.228C101.975 257.648 102.073 258.138 102.073 258.698V263.5H100.281V259.272C100.281 258.852 100.239 258.497 100.155 258.208C100.071 257.919 99.9307 257.699 99.7347 257.55C99.548 257.391 99.296 257.312 98.9787 257.312C98.5027 257.312 98.12 257.48 97.8307 257.816C97.5507 258.152 97.4107 258.637 97.4107 259.272V263.5H95.6187ZM103.904 263.5V253.56H105.696V259.398L108.762 256.024H110.974L108.048 259.132L111.072 263.5H109.056L106.872 260.196L105.696 261.442V263.5H103.904ZM114.831 263.668C114.093 263.668 113.473 263.561 112.969 263.346C112.474 263.131 112.091 262.833 111.821 262.45C111.55 262.067 111.396 261.633 111.359 261.148L113.193 261.064C113.258 261.456 113.421 261.759 113.683 261.974C113.944 262.189 114.331 262.296 114.845 262.296C115.265 262.296 115.591 262.231 115.825 262.1C116.067 261.96 116.189 261.745 116.189 261.456C116.189 261.288 116.147 261.148 116.063 261.036C115.979 260.924 115.82 260.826 115.587 260.742C115.353 260.658 115.008 260.574 114.551 260.49C113.785 260.359 113.183 260.201 112.745 260.014C112.306 259.818 111.993 259.575 111.807 259.286C111.629 258.997 111.541 258.637 111.541 258.208C111.541 257.508 111.807 256.943 112.339 256.514C112.88 256.075 113.669 255.856 114.705 255.856C115.377 255.856 115.941 255.968 116.399 256.192C116.856 256.407 117.211 256.705 117.463 257.088C117.724 257.461 117.887 257.891 117.953 258.376L116.147 258.46C116.1 258.208 116.016 257.989 115.895 257.802C115.773 257.615 115.61 257.475 115.405 257.382C115.199 257.279 114.957 257.228 114.677 257.228C114.257 257.228 113.939 257.312 113.725 257.48C113.51 257.648 113.403 257.872 113.403 258.152C113.403 258.348 113.449 258.511 113.543 258.642C113.645 258.773 113.809 258.88 114.033 258.964C114.257 259.039 114.555 259.109 114.928 259.174C115.713 259.295 116.329 259.454 116.777 259.65C117.234 259.837 117.556 260.079 117.743 260.378C117.939 260.667 118.037 261.017 118.037 261.428C118.037 261.904 117.901 262.31 117.631 262.646C117.369 262.982 116.996 263.239 116.511 263.416C116.035 263.584 115.475 263.668 114.831 263.668Z" fill="#0A0A0A"/>
<path d="M228 257L232 260L236 257" stroke="black" stroke-width="2" stroke-linecap="round" stroke-linejoin="round"/>
</svg>
