<svg xmlns="http://www.w3.org/2000/svg" viewBox="0 0 1080 1080" role="img" aria-labelledby="title desc">
  <title id="title">Blue Guardian voice integration campaign asset</title>
  <desc id="desc">A Blue Guardian marketing card about voice integration.</desc>
  <rect width="1080" height="1080" fill="#edf5ff"/>
  <text x="105" y="250" fill="#2f80df" font-family="Open Sans, Arial, sans-serif" font-size="64" font-weight="800">Voice</text>
  <text x="105" y="330" fill="#0a0d12" font-family="Open Sans, Arial, sans-serif" font-size="64" font-weight="800">Integration</text>
  <text x="105" y="405" fill="#0a0d12" font-family="Open Sans, Arial, sans-serif" font-size="26" font-weight="700">Speak your mind; let our chatbot reply with warmth and understanding.</text>
  <text x="105" y="440" fill="#0a0d12" font-family="Open Sans, Arial, sans-serif" font-size="26" font-weight="700">Experience a comforting, human-like interaction on your journey to wellness.</text>
  <g transform="translate(105 605)" fill="none" stroke="#2f80df" stroke-linecap="round" stroke-width="5">
    <circle cx="28" cy="80" r="28" fill="#2f80df" stroke="none"/>
    <path d="M18 64l22 16-22 16z" fill="#ffffff" stroke="none"/>
    <path d="M112 18v164"/>
    <path d="M126 38v124"/>
    <path d="M140 58v84"/>
    <path d="M154 67v66"/>
    <path d="M168 82v32"/>
    <path d="M182 72v52"/>
    <path d="M196 88v20"/>
    <path d="M210 76v48"/>
    <path d="M224 66v68"/>
    <path d="M238 78v44"/>
    <path d="M252 90v20"/>
    <path d="M266 64v72"/>
    <path d="M280 40v120"/>
    <path d="M294 22v156"/>
    <path d="M308 48v104"/>
    <path d="M322 68v64"/>
    <path d="M336 84v32"/>
    <path d="M350 72v52"/>
    <path d="M364 54v88"/>
    <path d="M378 32v132"/>
    <path d="M392 20v160"/>
    <path d="M406 42v116"/>
    <path d="M420 68v64"/>
    <path d="M434 82v32"/>
    <path d="M448 94v12"/>
    <path d="M462 78v44"/>
    <path d="M476 72v52"/>
    <path d="M490 82v32"/>
    <path d="M504 94v12"/>
    <path d="M518 82v32"/>
    <path d="M532 70v56"/>
    <path d="M546 58v84"/>
    <path d="M560 42v116"/>
    <path d="M574 25v150"/>
    <path d="M588 10v180"/>
    <path d="M602 30v140"/>
    <path d="M616 54v92"/>
    <path d="M630 72v52"/>
    <path d="M644 84v32"/>
    <path d="M658 76v48"/>
    <path d="M672 66v68"/>
    <path d="M686 78v44"/>
    <path d="M700 88v20"/>
    <path d="M714 74v52"/>
    <path d="M728 82v32"/>
    <path d="M742 90v20"/>
    <path d="M756 96v8"/>
    <path d="M770 86v28"/>
  </g>
  <g transform="translate(420 935)">
    <rect x="0" y="0" width="30" height="30" rx="8" fill="#ffffff"/>
    <path d="M15 6l9 4v8c0 6-4 10-9 12-5-2-9-6-9-12v-8z" fill="#2f80df"/>
    <text x="50" y="24" fill="#102a5f" font-family="Open Sans, Arial, sans-serif" font-size="25" font-weight="800">BLUE GUARDIAN</text>
  </g>
</svg>
