<svg xmlns="http://www.w3.org/2000/svg" viewBox="0 0 1080 1080" role="img" aria-labelledby="title desc">
  <title id="title">Blue Guardian freshman year campaign asset</title>
  <desc id="desc">A Blue Guardian marketing card for anxious students entering freshman year.</desc>
  <rect width="1080" height="1080" fill="#edf5ff"/>
  <g fill="none" stroke="#101820" stroke-linecap="round" stroke-width="5">
    <path d="M245 210l-24-30"/>
    <path d="M285 190l-4-44"/>
    <path d="M210 250l-44-9"/>
  </g>
  <text x="540" y="285" text-anchor="middle" fill="#0a0d12" font-family="Open Sans, Arial, sans-serif" font-size="62" font-weight="800">Anxious About</text>
  <text x="540" y="370" text-anchor="middle" fill="#2f80df" font-family="Open Sans, Arial, sans-serif" font-size="78" font-weight="800">Freshman Year?</text>
  <text x="540" y="425" text-anchor="middle" fill="#0a0d12" font-family="Open Sans, Arial, sans-serif" font-size="24" font-weight="700">Step into a Stress-Free Zone with Blue Guardian</text>
  <g transform="translate(250 505)">
    <rect x="150" y="0" width="340" height="238" rx="18" fill="#101820"/>
    <rect x="170" y="20" width="300" height="198" rx="8" fill="#ffffff"/>
    <rect x="215" y="50" width="72" height="10" rx="5" fill="#2f80df"/>
    <text x="320" y="92" text-anchor="middle" fill="#101820" font-family="Open Sans, Arial, sans-serif" font-size="22" font-weight="800">AI-Powered Mental Health Coach</text>
    <text x="320" y="124" text-anchor="middle" fill="#41526d" font-family="Open Sans, Arial, sans-serif" font-size="15" font-weight="600">Designed for Youth</text>
    <rect x="280" y="154" width="80" height="22" rx="5" fill="#2f80df"/>
    <rect x="0" y="88" width="210" height="170" rx="16" fill="#101820"/>
    <rect x="14" y="102" width="182" height="126" rx="6" fill="#ffffff"/>
    <text x="105" y="136" text-anchor="middle" fill="#41526d" font-family="Open Sans, Arial, sans-serif" font-size="12" font-weight="800">Select Your Goal</text>
    <rect x="34" y="158" width="42" height="58" rx="6" fill="#eff6ff"/>
    <rect x="86" y="158" width="42" height="58" rx="6" fill="#eff6ff"/>
    <rect x="138" y="158" width="42" height="58" rx="6" fill="#eff6ff"/>
    <rect x="480" y="78" width="92" height="184" rx="16" fill="#101820"/>
    <rect x="490" y="94" width="72" height="146" rx="8" fill="#ffffff"/>
    <circle cx="526" cy="124" r="7" fill="#2f80df"/>
    <rect x="506" y="150" width="40" height="8" rx="4" fill="#c9dbef"/>
    <rect x="506" y="172" width="36" height="8" rx="4" fill="#dbe8f7"/>
    <rect x="506" y="194" width="44" height="8" rx="4" fill="#c9dbef"/>
  </g>
  <g fill="#2f80df">
    <path d="M830 745c38-88 98-91 81-22-11 42-62 92-109 129 6-39 14-75 28-107z"/>
    <circle cx="246" cy="575" r="35" fill="#a9cbf4"/>
    <circle cx="214" cy="610" r="16" fill="#a9cbf4"/>
    <circle cx="288" cy="615" r="18" fill="#a9cbf4"/>
  </g>
  <g transform="translate(420 935)">
    <rect x="0" y="0" width="30" height="30" rx="8" fill="#ffffff"/>
    <path d="M15 6l9 4v8c0 6-4 10-9 12-5-2-9-6-9-12v-8z" fill="#2f80df"/>
    <text x="50" y="24" fill="#102a5f" font-family="Open Sans, Arial, sans-serif" font-size="25" font-weight="800">BLUE GUARDIAN</text>
  </g>
</svg>
