<svg width="294" height="156" viewBox="0 0 294 156" fill="none" xmlns="http://www.w3.org/2000/svg">
<path d="M49.4243 14.3641L49.3585 6.19347H69.9168C70.1803 6.58882 70.4219 7.13792 70.6416 7.84077C70.8612 8.54362 70.971 9.31236 70.971 10.147C70.971 11.5527 70.6416 12.607 69.9827 13.3098C69.3237 14.0127 68.4452 14.3641 67.347 14.3641H49.4243ZM58.9787 6.19347L59.0446 14.3641H38.5522C38.2447 13.9687 37.9811 13.4196 37.7615 12.7168C37.5857 11.97 37.4979 11.2013 37.4979 10.4106C37.4979 8.917 37.8054 7.84077 38.4204 7.18185C39.0793 6.52293 39.9579 6.19347 41.0561 6.19347H58.9787ZM48.9631 12.585H59.1764V46.0581C58.7371 46.1899 58.0782 46.2997 57.1996 46.3876C56.321 46.5194 55.4205 46.5853 54.498 46.5853C52.4773 46.5853 51.0497 46.2338 50.2151 45.531C49.3804 44.7842 48.9631 43.5323 48.9631 41.7752V12.585ZM106.607 32.6821H96.6576V26.8177C96.6576 24.8409 96.1524 23.4352 95.1421 22.6006C94.1317 21.722 92.8578 21.2827 91.3203 21.2827C89.9146 21.2827 88.6407 21.5463 87.4986 22.0734C86.4004 22.6006 85.456 23.1936 84.6652 23.8525L84.4676 15.8137C85.4779 15.2426 86.7079 14.7155 88.1575 14.2323C89.6511 13.7491 91.2984 13.5075 93.0994 13.5075C97.2726 13.5075 100.567 14.5837 102.983 16.7362C105.399 18.8447 106.607 22.0075 106.607 26.2246V32.6821ZM76.2311 28.7285H86.1808V46.0581C85.7415 46.1899 85.1045 46.2997 84.2699 46.3876C83.4792 46.5194 82.6226 46.5853 81.7001 46.5853C79.8112 46.5853 78.4275 46.2558 77.5489 45.5969C76.6703 44.938 76.2311 43.7299 76.2311 41.9728V28.7285ZM96.6576 28.7285H106.607V46.0581C106.168 46.1899 105.553 46.2997 104.762 46.3876C103.972 46.5194 103.093 46.5853 102.127 46.5853C100.238 46.5853 98.854 46.2558 97.9754 45.5969C97.0969 44.938 96.6576 43.7299 96.6576 41.9728V28.7285ZM86.1808 33.8681H76.2311V3.22833C76.6703 3.09654 77.2853 2.96476 78.076 2.83298C78.8667 2.70119 79.7453 2.6353 80.7117 2.6353C82.6446 2.6353 84.0283 2.96476 84.8629 3.62368C85.7415 4.2826 86.1808 5.51258 86.1808 7.31363V33.8681ZM124.143 23.0618V31.1665H114.193V21.8099C114.193 20.5799 114.501 19.5476 115.116 18.7129C115.731 17.8344 116.565 17.0437 117.619 16.3408C119.069 15.4623 120.804 14.7814 122.825 14.2982C124.89 13.771 127.042 13.5075 129.282 13.5075C133.807 13.5075 136.069 15.023 136.069 18.054C136.069 18.8008 135.959 19.4817 135.74 20.0967C135.564 20.7117 135.322 21.2388 135.015 21.6781C134.576 21.5902 134.027 21.5243 133.368 21.4804C132.753 21.3926 132.094 21.3486 131.391 21.3486C130.073 21.3486 128.755 21.5024 127.437 21.8099C126.163 22.1174 125.065 22.5347 124.143 23.0618ZM114.193 28.7285L124.143 28.9262V46.0581C123.704 46.1899 123.067 46.2997 122.232 46.3876C121.441 46.5194 120.585 46.5853 119.662 46.5853C117.773 46.5853 116.39 46.2558 115.511 45.5969C114.632 44.938 114.193 43.7299 114.193 41.9728V28.7285ZM140.568 5.40276C140.568 3.86528 141.095 2.59137 142.149 1.58102C143.204 0.526752 144.521 -0.000383849 146.103 -0.000383849C147.772 -0.000383849 149.112 0.526752 150.122 1.58102C151.133 2.59137 151.638 3.86528 151.638 5.40276C151.638 6.85239 151.133 8.10433 150.122 9.1586C149.112 10.2129 147.772 10.74 146.103 10.74C144.521 10.74 143.204 10.2129 142.149 9.1586C141.095 8.10433 140.568 6.85239 140.568 5.40276ZM141.161 28.7285H151.111V46.0581C150.671 46.1899 150.056 46.2997 149.266 46.3876C148.475 46.5194 147.596 46.5853 146.63 46.5853C144.741 46.5853 143.357 46.2558 142.479 45.5969C141.6 44.938 141.161 43.7299 141.161 41.9728V28.7285ZM151.111 33.8681H141.161V14.8253C141.6 14.6935 142.215 14.5837 143.006 14.4959C143.841 14.3641 144.719 14.2982 145.642 14.2982C147.574 14.2982 148.958 14.6276 149.793 15.2866C150.671 15.9016 151.111 17.1096 151.111 18.9106V33.8681ZM167.019 24.4456V16.8021H179.802C180.022 17.1535 180.242 17.6806 180.461 18.3835C180.681 19.0424 180.791 19.7672 180.791 20.5579C180.791 21.9197 180.483 22.9081 179.868 23.5231C179.253 24.1381 178.419 24.4456 177.364 24.4456H167.019ZM168.469 14.2323V23.2595H159.047V13.8369C159.047 10.9377 159.661 8.58754 160.891 6.7865C162.121 4.98545 163.791 3.66761 165.899 2.83298C168.052 1.95441 170.446 1.51513 173.082 1.51513C176.156 1.51513 178.441 1.93245 179.934 2.76708C181.472 3.55778 182.24 4.87562 182.24 6.7206C182.24 7.5113 182.065 8.23612 181.713 8.89504C181.406 9.51003 181.032 9.99324 180.593 10.3447C179.802 10.0811 178.924 9.86145 177.958 9.68574C176.991 9.4661 175.915 9.35628 174.729 9.35628C172.664 9.35628 171.105 9.72967 170.05 10.4764C168.996 11.2232 168.469 12.4752 168.469 14.2323ZM159.047 21.2827H168.996V46.0581C168.557 46.1899 167.92 46.2997 167.085 46.3876C166.295 46.5194 165.438 46.5853 164.516 46.5853C162.627 46.5853 161.243 46.2558 160.364 45.5969C159.486 44.938 159.047 43.7299 159.047 41.9728V21.2827ZM186.459 28.7285H196.277V35.7131C196.277 36.9431 196.672 37.8436 197.463 38.4147C198.253 38.9418 199.351 39.2054 200.757 39.2054C201.416 39.2054 202.119 39.1395 202.866 39.0077C203.612 38.8759 204.271 38.7002 204.842 38.4806C205.194 38.8759 205.501 39.3591 205.765 39.9302C206.029 40.5012 206.16 41.1602 206.16 41.9069C206.16 43.4005 205.545 44.6524 204.315 45.6628C203.129 46.6292 201.065 47.1124 198.121 47.1124C194.432 47.1124 191.554 46.2778 189.49 44.6085C187.469 42.8953 186.459 40.1498 186.459 36.372V28.7285ZM192.718 22.7983V15.1548H205.37C205.589 15.5501 205.809 16.0773 206.029 16.7362C206.248 17.3951 206.358 18.1199 206.358 18.9106C206.358 20.2724 206.051 21.2608 205.436 21.8758C204.821 22.4908 204.008 22.7983 202.998 22.7983H192.718ZM196.277 30.3758H186.459V6.7206C186.854 6.58882 187.447 6.45703 188.238 6.32525C189.072 6.14954 189.951 6.06168 190.873 6.06168C192.762 6.06168 194.124 6.41311 194.959 7.11596C195.837 7.77487 196.277 8.9829 196.277 10.74V30.3758ZM217.466 38.2829C216.763 36.7893 215.994 35.0322 215.16 33.0115C214.369 30.9469 213.534 28.5089 212.656 25.6975C211.777 22.8861 210.855 19.6354 209.888 15.9455C210.459 15.3305 211.184 14.8253 212.063 14.43C212.985 13.9907 213.996 13.771 215.094 13.771C216.456 13.771 217.576 14.0785 218.454 14.6935C219.377 15.2646 220.058 16.3408 220.497 17.9222C221.507 21.129 222.496 24.3138 223.462 27.4766C224.472 30.5955 225.505 33.7583 226.559 36.965H226.823C227.569 34.9883 228.316 32.7479 229.063 30.244C229.81 27.7402 230.513 25.1704 231.171 22.5347C231.83 19.899 232.38 17.3512 232.819 14.8912C233.478 14.5398 234.159 14.2762 234.861 14.1005C235.564 13.8809 236.311 13.771 237.102 13.771C238.464 13.771 239.65 14.0785 240.66 14.6935C241.67 15.3085 242.175 16.3189 242.175 17.7246C242.175 18.9985 241.978 20.536 241.582 22.337C241.231 24.1381 240.726 26.0929 240.067 28.2014C239.452 30.266 238.727 32.3746 237.892 34.527C237.102 36.6795 236.245 38.7661 235.323 40.7868C234.444 42.8075 233.544 44.6085 232.621 46.1899C230.249 50.3631 228.053 53.46 226.032 55.4807C224.011 57.5453 222.013 58.5776 220.036 58.5776C218.454 58.5776 217.136 58.0944 216.082 57.128C215.028 56.1616 214.391 54.9096 214.171 53.3721C215.138 52.5814 216.104 51.659 217.071 50.6047C218.081 49.5943 219.047 48.5181 219.97 47.376C220.936 46.2338 221.771 45.0917 222.474 43.9496C221.727 43.7299 220.936 43.2467 220.102 42.5C219.311 41.7532 218.432 40.3475 217.466 38.2829Z" fill="#597668"/>
<path d="M40.2244 70.9455C40.6637 70.7258 41.3446 70.5062 42.2671 70.2866C43.1896 70.023 44.134 69.8912 45.1004 69.8912C46.7258 69.8912 48.0875 70.1328 49.1857 70.616C50.2839 71.0992 50.9648 71.824 51.2284 72.7905C51.9752 75.3822 52.6341 77.7543 53.2052 79.9068C53.8201 82.0153 54.4132 84.058 54.9842 86.0348C55.5553 88.0115 56.1264 90.0981 56.6974 92.2945H57.0269C57.598 88.6485 58.1251 85.1782 58.6083 81.8836C59.0915 78.545 59.5308 75.2724 59.9261 72.0656C60.3654 68.815 60.8047 65.4764 61.244 62.0501C62.6936 61.2594 64.2091 60.864 65.7905 60.864C67.2402 60.864 68.4701 61.1935 69.4805 61.8524C70.5348 62.4674 71.0619 63.4997 71.0619 64.9493C71.0619 65.9157 70.9521 67.2775 70.7324 69.0346C70.5567 70.7478 70.2931 72.7246 69.9417 74.9649C69.5903 77.2052 69.173 79.5334 68.6898 81.9494C68.2505 84.3655 67.7673 86.7376 67.2401 89.0658C66.7569 91.35 66.2518 93.4147 65.7246 95.2596C65.1975 97.1046 64.6923 98.5982 64.2091 99.7403C63.5941 100.223 62.6277 100.663 61.3099 101.058C60.036 101.41 58.6962 101.585 57.2905 101.585C55.4894 101.585 53.9519 101.344 52.678 100.86C51.4041 100.333 50.6134 99.6305 50.3059 98.7519C49.9106 97.478 49.4273 96.0064 48.8563 94.3371C48.3291 92.624 47.78 90.779 47.209 88.8022C46.6818 86.7815 46.1327 84.6949 45.5617 82.5425C45.0785 84.651 44.5513 86.7815 43.9803 88.934C43.4092 91.0425 42.8601 93.0413 42.333 94.9302C41.8498 96.7752 41.3885 98.3785 40.9492 99.7403C40.3782 100.223 39.4996 100.663 38.3136 101.058C37.1275 101.41 35.8316 101.585 34.4259 101.585C32.7127 101.585 31.1533 101.322 29.7476 100.795C28.3419 100.267 27.4194 99.5865 26.9801 98.7519C26.5409 97.7416 26.0137 96.2261 25.3987 94.2054C24.8277 92.1407 24.2127 89.7906 23.5537 87.1549C22.9388 84.4753 22.3457 81.7078 21.7747 78.8525C21.2036 75.9533 20.6765 73.1419 20.1933 70.4183C19.754 67.6509 19.4026 65.1689 19.139 62.9725C19.71 62.4454 20.4788 61.9622 21.4452 61.5229C22.4116 61.0836 23.4659 60.864 24.608 60.864C26.0576 60.864 27.2437 61.1935 28.1662 61.8524C29.1326 62.5113 29.7476 63.6095 30.0112 65.147C30.714 69.2323 31.2851 72.7246 31.7244 75.6238C32.2076 78.5231 32.6029 81.005 32.9104 83.0696C33.2618 85.1342 33.5474 86.8913 33.767 88.341C34.0306 89.7906 34.2941 91.1084 34.5577 92.2945H34.8872C35.3265 90.4934 35.7438 88.8242 36.1391 87.2867C36.5345 85.7053 36.9298 84.1239 37.3252 82.5425C37.7645 80.9611 38.2257 79.2479 38.7089 77.4029C39.1921 75.514 39.6973 73.3615 40.2244 70.9455ZM90.1448 102.178C85.6202 102.178 82.0181 101.3 79.3385 99.5426C76.6589 97.7855 75.3191 95.1718 75.3191 91.7015C75.3191 88.7144 76.2416 86.4301 78.0866 84.8487C79.9316 83.2234 82.6771 82.213 86.3231 81.8177L95.1526 80.8952V80.1704C95.1526 78.6768 94.5596 77.6006 93.3735 76.9417C92.2314 76.2827 90.5841 75.9533 88.4316 75.9533C86.7624 75.9533 85.1151 76.151 83.4897 76.5463C81.9083 76.9417 80.4807 77.4249 79.2068 77.9959C78.6796 77.6006 78.2184 77.0515 77.823 76.3486C77.4716 75.6019 77.2959 74.8331 77.2959 74.0424C77.2959 72.1535 78.3062 70.7917 80.3269 69.9571C81.6008 69.4739 83.0724 69.1225 84.7417 68.9028C86.4549 68.6393 88.1022 68.5075 89.6836 68.5075C94.2521 68.5075 97.8981 69.4519 100.622 71.3408C103.389 73.2297 104.773 76.1949 104.773 80.2363V95.1937C104.773 96.2919 104.487 97.1925 103.916 97.8953C103.345 98.5542 102.62 99.1253 101.742 99.6085C100.424 100.399 98.7767 101.014 96.7999 101.453C94.8671 101.937 92.6487 102.178 90.1448 102.178ZM90.1448 94.7984C91.1112 94.7984 92.0777 94.7105 93.0441 94.5348C94.0105 94.3152 94.7353 94.0516 95.2185 93.7441V87.5503L89.6836 88.0774C88.234 88.1653 87.0699 88.4728 86.1913 88.9999C85.3567 89.527 84.9394 90.3177 84.9394 91.372C84.9394 92.3824 85.3347 93.217 86.1254 93.8759C86.96 94.4909 88.2999 94.7984 90.1448 94.7984ZM122.18 78.0618V86.1665H112.23V76.8099C112.23 75.5799 112.538 74.5476 113.153 73.7129C113.768 72.8344 114.603 72.0437 115.657 71.3408C117.106 70.4623 118.842 69.7814 120.862 69.2982C122.927 68.771 125.079 68.5075 127.32 68.5075C131.844 68.5075 134.107 70.023 134.107 73.054C134.107 73.8008 133.997 74.4817 133.777 75.0967C133.601 75.7117 133.36 76.2388 133.052 76.6781C132.613 76.5902 132.064 76.5243 131.405 76.4804C130.79 76.3926 130.131 76.3486 129.428 76.3486C128.11 76.3486 126.793 76.5024 125.475 76.8099C124.201 77.1174 123.103 77.5347 122.18 78.0618ZM112.23 83.7285L122.18 83.9262V101.058C121.741 101.19 121.104 101.3 120.269 101.388C119.479 101.519 118.622 101.585 117.7 101.585C115.811 101.585 114.427 101.256 113.548 100.597C112.67 99.938 112.23 98.7299 112.23 96.9728V83.7285ZM148.305 78.0618V86.1665H138.356V76.8099C138.356 75.5799 138.663 74.5476 139.278 73.7129C139.893 72.8344 140.728 72.0437 141.782 71.3408C143.232 70.4623 144.967 69.7814 146.987 69.2982C149.052 68.771 151.205 68.5075 153.445 68.5075C157.969 68.5075 160.232 70.023 160.232 73.054C160.232 73.8008 160.122 74.4817 159.902 75.0967C159.727 75.7117 159.485 76.2388 159.178 76.6781C158.738 76.5902 158.189 76.5243 157.53 76.4804C156.915 76.3926 156.256 76.3486 155.553 76.3486C154.236 76.3486 152.918 76.5024 151.6 76.8099C150.326 77.1174 149.228 77.5347 148.305 78.0618ZM138.356 83.7285L148.305 83.9262V101.058C147.866 101.19 147.229 101.3 146.394 101.388C145.604 101.519 144.747 101.585 143.825 101.585C141.936 101.585 140.552 101.256 139.673 100.597C138.795 99.938 138.356 98.7299 138.356 96.9728V83.7285ZM164.73 60.4028C164.73 58.8653 165.258 57.5914 166.312 56.581C167.366 55.5268 168.684 54.9996 170.265 54.9996C171.935 54.9996 173.274 55.5268 174.285 56.581C175.295 57.5914 175.8 58.8653 175.8 60.4028C175.8 61.8524 175.295 63.1043 174.285 64.1586C173.274 65.2129 171.935 65.74 170.265 65.74C168.684 65.74 167.366 65.2129 166.312 64.1586C165.258 63.1043 164.73 61.8524 164.73 60.4028ZM165.323 83.7285H175.273V101.058C174.834 101.19 174.219 101.3 173.428 101.388C172.638 101.519 171.759 101.585 170.793 101.585C168.904 101.585 167.52 101.256 166.641 100.597C165.763 99.938 165.323 98.7299 165.323 96.9728V83.7285ZM175.273 88.8681H165.323V69.8253C165.763 69.6935 166.378 69.5837 167.168 69.4959C168.003 69.3641 168.882 69.2982 169.804 69.2982C171.737 69.2982 173.121 69.6276 173.955 70.2866C174.834 70.9016 175.273 72.1096 175.273 73.9106V88.8681ZM215.167 85.3099C215.167 88.7363 214.464 91.7234 213.058 94.2713C211.696 96.7752 209.764 98.708 207.26 100.07C204.756 101.432 201.813 102.112 198.43 102.112C195.048 102.112 192.082 101.453 189.535 100.136C187.031 98.7739 185.076 96.841 183.67 94.3371C182.309 91.7893 181.628 88.7803 181.628 85.3099C181.628 81.8396 182.33 78.8525 183.736 76.3486C185.142 73.8447 187.097 71.9119 189.601 70.5501C192.148 69.1884 195.092 68.5075 198.43 68.5075C201.769 68.5075 204.69 69.2103 207.194 70.616C209.698 71.9778 211.652 73.9106 213.058 76.4145C214.464 78.9184 215.167 81.8836 215.167 85.3099ZM198.364 76.2827C196.344 76.2827 194.74 77.0734 193.554 78.6548C192.368 80.2363 191.775 82.4546 191.775 85.3099C191.775 88.2092 192.346 90.4495 193.488 92.0309C194.674 93.5684 196.322 94.3371 198.43 94.3371C200.495 94.3371 202.098 93.5464 203.24 91.965C204.426 90.3836 205.019 88.1653 205.019 85.3099C205.019 82.4546 204.426 80.2363 203.24 78.6548C202.054 77.0734 200.429 76.2827 198.364 76.2827ZM231.185 78.0618V86.1665H221.235V76.8099C221.235 75.5799 221.543 74.5476 222.158 73.7129C222.773 72.8344 223.608 72.0437 224.662 71.3408C226.111 70.4623 227.847 69.7814 229.867 69.2982C231.932 68.771 234.084 68.5075 236.325 68.5075C240.849 68.5075 243.112 70.023 243.112 73.054C243.112 73.8008 243.002 74.4817 242.782 75.0967C242.606 75.7117 242.365 76.2388 242.057 76.6781C241.618 76.5902 241.069 76.5243 240.41 76.4804C239.795 76.3926 239.136 76.3486 238.433 76.3486C237.115 76.3486 235.798 76.5024 234.48 76.8099C233.206 77.1174 232.108 77.5347 231.185 78.0618ZM221.235 83.7285L231.185 83.9262V101.058C230.746 101.19 230.109 101.3 229.274 101.388C228.484 101.519 227.627 101.585 226.704 101.585C224.816 101.585 223.432 101.256 222.553 100.597C221.675 99.938 221.235 98.7299 221.235 96.9728V83.7285ZM273.769 91.8991C273.769 95.1059 272.539 97.6317 270.079 99.4767C267.663 101.278 264.149 102.178 259.537 102.178C255.891 102.178 252.904 101.651 250.575 100.597C248.247 99.5426 247.083 97.9832 247.083 95.9186C247.083 94.9521 247.281 94.1395 247.676 93.4806C248.071 92.7777 248.577 92.2066 249.192 91.7674C250.422 92.5141 251.849 93.1731 253.475 93.7441C255.144 94.3152 257.033 94.6007 259.141 94.6007C262.348 94.6007 263.951 93.7222 263.951 91.965C263.951 91.1743 263.644 90.5593 263.029 90.1201C262.458 89.6808 261.535 89.3294 260.262 89.0658L257.56 88.4728C254.002 87.726 251.344 86.5619 249.587 84.9805C247.874 83.3991 247.017 81.2466 247.017 78.5231C247.017 75.4481 248.269 73.0101 250.773 71.2091C253.277 69.3641 256.637 68.4416 260.855 68.4416C262.963 68.4416 264.874 68.6612 266.587 69.1005C268.344 69.4959 269.728 70.1328 270.738 71.0114C271.749 71.846 272.254 72.9003 272.254 74.1742C272.254 75.0528 272.078 75.8435 271.727 76.5463C271.375 77.2052 270.914 77.7324 270.343 78.1277C269.86 77.8202 269.113 77.5127 268.103 77.2052C267.136 76.8538 266.06 76.5683 264.874 76.3486C263.732 76.0851 262.656 75.9533 261.645 75.9533C260.108 75.9533 258.9 76.1729 258.021 76.6122C257.143 77.0515 256.703 77.6884 256.703 78.5231C256.703 79.0941 256.945 79.5773 257.428 79.9727C257.911 80.368 258.812 80.7195 260.13 81.027L262.7 81.62C266.653 82.5425 269.486 83.8384 271.2 85.5076C272.913 87.133 273.769 89.2635 273.769 91.8991Z" fill="#BF8975"/>
<path d="M17.2417 134.947C16.9855 135.349 16.6743 135.78 16.3083 136.237C15.9605 136.676 15.5212 137.189 14.9904 137.775C14.7708 138.031 14.5878 138.452 14.4413 139.038C14.2949 139.605 14.2217 140.282 14.2217 141.069C14.2217 141.911 14.2766 142.634 14.3864 143.238C14.4962 143.842 14.6427 144.327 14.8257 144.693L11.284 145.352C11.1559 144.62 11.1101 143.824 11.1467 142.964C11.1833 142.085 11.3115 141.234 11.5311 140.41C11.2016 140.904 10.7532 141.444 10.1858 142.03C9.6184 142.598 9.00524 143.128 8.34632 143.623C7.7057 144.117 7.06509 144.529 6.42447 144.858C5.80216 145.187 5.27136 145.352 4.83208 145.352C4.4111 145.352 3.99013 145.224 3.56915 144.968C3.16648 144.712 2.80041 144.41 2.47095 144.062C2.14149 143.696 1.87609 143.33 1.67476 142.964C1.47342 142.579 1.37275 142.259 1.37275 142.003C1.37275 141.838 1.40936 141.627 1.48257 141.371C1.57409 141.097 1.75712 140.639 2.03167 139.998C2.41604 139.065 2.73635 138.241 2.9926 137.528C3.26715 136.795 3.48679 136.127 3.65152 135.523C3.81625 134.919 3.93522 134.37 4.00843 133.876C4.08164 133.382 4.11825 132.906 4.11825 132.448L7.63249 131.597C7.61419 132.348 7.54097 133.098 7.41285 133.849C7.28473 134.599 7.08339 135.377 6.80884 136.182C6.55259 136.988 6.21398 137.83 5.79301 138.708C5.37203 139.587 4.85954 140.538 4.25553 141.563C4.51177 141.966 4.76802 142.305 5.02427 142.579C5.29882 142.854 5.64658 143.119 6.06756 143.375C6.68987 143.101 7.32133 142.735 7.96195 142.277C8.60257 141.801 9.21573 141.252 9.80144 140.63C10.4054 139.989 10.9545 139.285 11.4487 138.516C11.9612 137.747 12.3822 136.924 12.7117 136.045C13.0228 135.221 13.2974 134.553 13.5353 134.041C13.7916 133.51 14.0204 133.034 14.2217 132.613C14.5145 132.027 14.7525 131.689 14.9355 131.597C15.1186 131.506 15.3656 131.542 15.6768 131.707C15.9331 131.853 16.1893 132.027 16.4455 132.229C16.7018 132.43 16.9306 132.659 17.1319 132.915C17.4431 133.318 17.5987 133.666 17.5987 133.958C17.5987 134.251 17.4797 134.581 17.2417 134.947ZM31.4606 137.253C31.4606 137.454 31.3691 137.729 31.1861 138.077C30.6553 139.065 30.2343 140.072 29.9232 141.097C29.612 142.103 29.4107 143.183 29.3192 144.336L26.354 145.05C26.5553 143.787 26.8757 142.561 27.3149 141.371C27.7542 140.182 28.2667 139.175 28.8524 138.351L28.1935 137.665C27.5346 137.884 26.9123 138.168 26.3266 138.516C25.7592 138.845 25.2558 139.202 24.8165 139.587C24.3773 139.953 24.0203 140.31 23.7458 140.657C23.4895 141.005 23.334 141.298 23.2791 141.536C23.1143 142.323 22.9496 142.964 22.7849 143.458C22.6201 143.934 22.4554 144.3 22.2907 144.556C22.1442 144.812 21.9978 144.977 21.8514 145.05C21.7233 145.105 21.5951 145.105 21.467 145.05C21.0277 144.867 20.68 144.657 20.4237 144.419C20.1858 144.181 19.9295 143.86 19.655 143.458C19.3804 143.11 19.4628 142.771 19.9021 142.442C20.14 142.259 20.3414 142.076 20.5061 141.893C20.6708 141.692 20.799 141.463 20.8905 141.206C20.982 140.932 21.046 140.612 21.0827 140.246C21.1193 139.861 21.1376 139.394 21.1376 138.845C21.1376 138.186 21.1284 137.701 21.1101 137.39C21.1101 137.061 21.0918 136.768 21.0552 136.512L23.938 135.963C23.9746 136.475 23.9746 136.969 23.938 137.445C23.9197 137.921 23.8373 138.443 23.6909 139.01C24.0752 138.607 24.542 138.223 25.0911 137.857C25.6585 137.491 26.235 137.171 26.8207 136.896C27.4065 136.603 27.9739 136.374 28.523 136.21C29.0721 136.045 29.5296 135.963 29.8957 135.963C29.9872 135.963 30.1153 136.018 30.2801 136.127C30.4631 136.219 30.637 136.338 30.8017 136.484C30.9848 136.631 31.1403 136.777 31.2685 136.924C31.3966 137.07 31.4606 137.18 31.4606 137.253ZM47.5677 138.049C47.5677 139.001 47.2749 139.898 46.6892 140.74C46.1218 141.582 45.234 142.442 44.026 143.321C43.7332 143.54 43.4037 143.742 43.0376 143.925C42.6899 144.108 42.3421 144.272 41.9944 144.419C41.6649 144.565 41.3537 144.684 41.0609 144.776C40.768 144.849 40.5392 144.885 40.3745 144.885C40.0817 144.885 39.8163 144.785 39.5783 144.583C39.3404 144.382 39.2214 144.153 39.2214 143.897C39.2214 143.769 39.2672 143.65 39.3587 143.54C39.4502 143.412 39.6149 143.311 39.8529 143.238C40.1091 143.147 40.4477 143.083 40.8687 143.046C41.308 143.009 41.8662 143 42.5435 143.019C42.9095 142.579 43.2207 142.177 43.4769 141.811C43.7332 141.444 43.9528 141.097 44.1358 140.767C44.3189 140.438 44.4745 140.099 44.6026 139.751C44.7307 139.404 44.8497 139.019 44.9595 138.598L44.0809 137.802C43.2573 138.205 42.5343 138.644 41.912 139.12C41.308 139.578 40.7497 140.136 40.2372 140.795C39.743 141.454 39.2672 142.25 38.8096 143.183C38.3703 144.098 37.8944 145.224 37.3819 146.56C36.8877 147.86 36.3844 148.51 35.8719 148.51C35.6706 148.51 35.4601 148.409 35.2404 148.208C35.0208 148.024 34.7371 147.695 34.3893 147.219C34.0599 146.743 33.8951 146.368 33.8951 146.093C33.8951 145.819 34.0416 145.526 34.3344 145.215C34.8469 144.648 35.2679 144.153 35.5973 143.732C35.9268 143.293 36.2563 142.808 36.5857 142.277C36.7138 142.058 36.8237 141.82 36.9152 141.563C37.0067 141.289 37.0799 140.941 37.1348 140.52C37.1897 140.099 37.2263 139.578 37.2446 138.955C37.2629 138.333 37.2629 137.555 37.2446 136.622L40.4294 136.1C40.3745 136.667 40.3104 137.207 40.2372 137.72C40.1823 138.214 40.0908 138.781 39.9627 139.422C41.1707 138.196 42.2231 137.308 43.12 136.759C44.0169 136.21 44.7765 135.935 45.3988 135.935C45.5818 135.935 45.7923 135.999 46.0302 136.127C46.2865 136.237 46.5244 136.393 46.7441 136.594C46.982 136.777 47.1742 136.997 47.3206 137.253C47.4854 137.509 47.5677 137.775 47.5677 138.049ZM61.1614 138.708C61.3078 138.983 61.3719 139.184 61.3536 139.312C61.3353 139.44 61.2437 139.596 61.079 139.779C60.7129 140.163 60.4201 140.484 60.2004 140.74C59.9991 140.978 59.8435 141.179 59.7337 141.344C59.6422 141.49 59.5781 141.609 59.5415 141.701C59.5232 141.792 59.5141 141.865 59.5141 141.92C59.5141 142.36 59.5873 142.854 59.7337 143.403C59.8984 143.934 60.1272 144.382 60.4201 144.748L58.0315 145.105C57.7936 144.794 57.6105 144.455 57.4824 144.089C57.3543 143.705 57.2719 143.22 57.2353 142.634C56.5215 143.128 55.8992 143.54 55.3684 143.87C54.8559 144.199 54.4074 144.464 54.0231 144.666C53.6387 144.849 53.3001 144.977 53.0072 145.05C52.7144 145.123 52.4307 145.16 52.1561 145.16C51.8816 145.16 51.5796 145.096 51.2501 144.968C50.939 144.84 50.6553 144.675 50.399 144.474C50.1428 144.272 49.9231 144.053 49.7401 143.815C49.5754 143.577 49.493 143.348 49.493 143.128C49.493 142.744 49.6852 142.323 50.0696 141.865C50.4539 141.408 51.0122 140.941 51.7443 140.465C52.4947 139.989 53.4191 139.523 54.5173 139.065C55.6155 138.589 56.8784 138.15 58.3061 137.747C57.5373 137.491 56.6221 137.381 55.5606 137.418C54.499 137.436 53.3092 137.628 51.9914 137.994L52.1836 136.759C53.3001 136.393 54.3983 136.191 55.4782 136.155C56.5764 136.1 57.5099 136.155 58.2786 136.32C58.7179 136.411 59.0748 136.521 59.3493 136.649C59.6239 136.759 59.8618 136.914 60.0632 137.116C60.2645 137.299 60.4475 137.518 60.6123 137.775C60.777 138.031 60.96 138.342 61.1614 138.708ZM57.9766 138.845C56.2012 139.523 54.8559 140.227 53.9407 140.959C53.0255 141.673 52.3849 142.424 52.0189 143.211L53.0896 143.787C53.7851 143.513 54.499 143.165 55.2311 142.744C55.9815 142.323 56.6496 141.865 57.2353 141.371C57.3268 141.115 57.4733 140.822 57.6746 140.493C57.8942 140.163 58.2145 139.724 58.6355 139.175L57.9766 138.845ZM72.1906 139.449L71.6415 136.924L69.5823 137.363C69.3078 137.729 69.0424 138.122 68.7861 138.543C68.5299 138.946 68.292 139.358 68.0723 139.779C67.8527 140.182 67.6605 140.566 67.4958 140.932C67.331 141.28 67.2121 141.573 67.1388 141.811C67.0839 141.975 67.0839 142.131 67.1388 142.277C67.1938 142.405 67.3585 142.607 67.633 142.881C67.871 143.138 68.0815 143.284 68.2645 143.321C68.4658 143.339 68.7953 143.311 69.2529 143.238C69.4908 143.202 69.7288 143.156 69.9667 143.101C70.2047 143.028 70.4792 142.936 70.7904 142.826C71.1198 142.698 71.5133 142.533 71.9709 142.332C72.4285 142.131 72.9959 141.875 73.6731 141.563L73.5084 142.387C73.4718 142.588 73.3986 142.744 73.2888 142.854C73.1789 142.964 72.9868 143.083 72.7122 143.211C72.1265 143.467 71.5408 143.705 70.9551 143.925C70.3877 144.144 69.8477 144.336 69.3352 144.501C68.8411 144.666 68.3926 144.794 67.9899 144.885C67.5873 144.977 67.2761 145.023 67.0565 145.023C66.727 145.023 66.3701 144.931 65.9857 144.748C65.6014 144.565 65.2444 144.346 64.915 144.089C64.6038 143.833 64.3384 143.558 64.1188 143.266C63.9175 142.954 63.8168 142.689 63.8168 142.469C63.8168 142.085 63.9358 141.609 64.1737 141.042C64.4116 140.456 64.7137 139.88 65.0797 139.312C65.4458 138.745 65.8485 138.232 66.2877 137.775C66.7453 137.317 67.1846 137.006 67.6056 136.841C68.3743 136.53 69.0973 136.292 69.7745 136.127C70.4701 135.944 71.2296 135.853 72.0533 135.853C72.639 135.853 73.0783 135.899 73.3711 135.99C73.6823 136.082 73.8928 136.201 74.0026 136.347C74.4053 136.841 74.7256 137.756 74.9635 139.092L72.1906 139.449ZM89.5511 138.818C88.6177 138.891 87.7666 139.074 86.9978 139.367C86.2474 139.642 85.4603 140.072 84.6367 140.657C85.3322 141.426 85.982 142.067 86.586 142.579C87.19 143.073 87.8489 143.549 88.5628 144.007L86.3389 145.544C85.6434 145.05 84.9936 144.538 84.3896 144.007C83.7856 143.476 83.2731 142.945 82.8521 142.415C82.6508 142.177 82.5044 141.966 82.4128 141.783C82.3396 141.6 82.3305 141.408 82.3854 141.206C82.4586 140.987 82.605 140.758 82.8247 140.52C83.0443 140.282 83.3555 139.989 83.7581 139.642L84.115 140.053C84.5726 139.706 84.9936 139.404 85.378 139.147C85.7623 138.891 86.1284 138.662 86.4762 138.461L86.3938 138.186C85.4786 138.186 84.655 138.315 83.9229 138.571C83.209 138.827 82.5867 139.175 82.0559 139.614C81.5434 140.053 81.1225 140.575 80.793 141.179C80.4635 141.765 80.2439 142.396 80.1341 143.073C80.0609 143.513 79.9876 143.87 79.9144 144.144C79.8412 144.4 79.7497 144.602 79.6399 144.748C79.5484 144.895 79.4294 144.995 79.283 145.05C79.1548 145.087 78.9901 145.105 78.7888 145.105C78.6423 145.105 78.441 145.004 78.1848 144.803C77.9468 144.602 77.5991 144.217 77.1415 143.65C76.9401 143.394 76.8486 143.192 76.8669 143.046C76.8852 142.9 77.05 142.689 77.3611 142.415C77.7272 142.067 78.0017 141.719 78.1848 141.371C78.3861 141.005 78.56 140.511 78.7064 139.889C79.6948 135.587 80.6374 133.025 81.5343 132.201C81.9003 131.89 82.3671 131.634 82.9345 131.433C83.5202 131.213 84.3255 131.03 85.3505 130.883C85.5336 130.847 85.6525 130.893 85.7074 131.021C85.7623 131.131 85.6983 131.286 85.5153 131.487C84.9295 132.201 84.4262 132.851 84.0052 133.437C83.5842 134.022 83.209 134.608 82.8796 135.194C82.5501 135.78 82.2481 136.393 81.9736 137.033C81.699 137.656 81.4153 138.369 81.1225 139.175C81.6532 138.681 82.184 138.251 82.7148 137.884C83.2639 137.518 83.7947 137.216 84.3072 136.978C84.8197 136.74 85.3048 136.567 85.7623 136.457C86.2199 136.329 86.6226 136.265 86.9704 136.265C87.7757 136.265 88.636 137.116 89.5511 138.818ZM105.558 133.409C105.558 133.592 105.494 133.803 105.366 134.041C105.238 134.279 104.981 134.608 104.597 135.029C103.554 136.127 102.803 137.29 102.346 138.516C101.906 139.724 101.687 140.859 101.687 141.92C101.687 142.415 101.705 142.9 101.742 143.375C101.778 143.851 101.842 144.263 101.934 144.611L99.051 145.242C98.9778 144.986 98.932 144.73 98.9137 144.474C98.8954 144.199 98.8863 143.842 98.8863 143.403C98.8863 142.817 98.932 142.186 99.0235 141.509C99.1151 140.831 99.2432 140.163 99.4079 139.504C99.5726 138.845 99.7557 138.214 99.957 137.61C100.158 137.006 100.369 136.484 100.588 136.045C101.101 134.983 101.531 134.123 101.879 133.464C102.227 132.787 102.519 132.265 102.757 131.899C102.995 131.533 103.197 131.286 103.361 131.158C103.526 131.03 103.682 130.966 103.828 130.966C103.975 130.966 104.148 131.057 104.35 131.24C104.551 131.423 104.734 131.643 104.899 131.899C105.082 132.156 105.238 132.43 105.366 132.723C105.494 132.997 105.558 133.226 105.558 133.409ZM118.441 137.72C118.441 138.251 118.331 138.69 118.111 139.038C117.91 139.385 117.517 139.687 116.931 139.944C116.345 140.182 115.531 140.392 114.487 140.575C113.462 140.758 112.126 140.959 110.479 141.179C110.516 141.545 110.662 141.948 110.918 142.387C111.193 142.808 111.541 143.147 111.961 143.403C112.492 143.293 112.986 143.183 113.444 143.073C113.92 142.964 114.378 142.845 114.817 142.717C115.256 142.588 115.695 142.442 116.135 142.277C116.592 142.113 117.068 141.92 117.562 141.701L117.48 142.442C117.462 142.57 117.425 142.689 117.37 142.799C117.334 142.89 117.224 142.991 117.041 143.101C116.858 143.211 116.583 143.348 116.217 143.513C115.851 143.659 115.338 143.851 114.68 144.089C114.002 144.346 113.316 144.556 112.62 144.721C111.925 144.885 111.367 144.968 110.946 144.968C110.561 144.968 110.159 144.885 109.738 144.721C109.335 144.538 108.96 144.318 108.612 144.062C108.283 143.806 108.008 143.531 107.788 143.238C107.587 142.927 107.486 142.634 107.486 142.36C107.486 142.103 107.514 141.865 107.569 141.646C107.624 141.408 107.715 141.142 107.843 140.85C107.99 140.557 108.191 140.209 108.447 139.806C108.704 139.404 109.024 138.9 109.408 138.296C109.884 137.601 110.662 137.024 111.742 136.567C112.84 136.091 114.222 135.853 115.888 135.853C116.839 135.853 117.498 135.981 117.864 136.237C118.249 136.493 118.441 136.988 118.441 137.72ZM115.64 136.896L112.758 137.253C112.392 137.729 112.053 138.186 111.742 138.626C111.449 139.047 111.129 139.55 110.781 140.136C111.824 140.044 112.666 139.944 113.307 139.834C113.947 139.724 114.432 139.587 114.762 139.422C115.11 139.257 115.338 139.065 115.448 138.845C115.576 138.626 115.64 138.36 115.64 138.049V136.896ZM130.535 138.516C129.602 138.04 128.796 137.711 128.119 137.528C127.442 137.326 126.838 137.226 126.307 137.226C125.85 137.226 125.374 137.555 124.879 138.214C125.246 138.434 125.63 138.653 126.033 138.873C126.435 139.074 126.929 139.321 127.515 139.614C128.119 139.907 128.595 140.182 128.943 140.438C129.309 140.676 129.565 140.914 129.712 141.152C129.876 141.39 129.95 141.637 129.931 141.893C129.913 142.131 129.831 142.396 129.684 142.689C129.446 143.183 129.199 143.595 128.943 143.925C128.687 144.254 128.394 144.519 128.064 144.721C127.735 144.904 127.36 145.032 126.939 145.105C126.536 145.178 126.06 145.215 125.511 145.215C124.742 145.215 123.964 145.114 123.177 144.913C122.409 144.712 121.557 144.382 120.624 143.925L121.75 142.14C122.518 142.524 123.342 142.835 124.221 143.073C125.099 143.311 125.859 143.43 126.499 143.43C126.975 143.43 127.296 143.394 127.46 143.321C127.625 143.247 127.762 143.083 127.872 142.826C127.909 142.735 127.918 142.652 127.9 142.579C127.9 142.506 127.854 142.424 127.762 142.332C127.671 142.222 127.524 142.103 127.323 141.975C127.122 141.847 126.838 141.692 126.472 141.509C125.721 141.161 125.108 140.85 124.632 140.575C124.157 140.282 123.781 140.017 123.507 139.779C123.232 139.523 123.04 139.294 122.93 139.092C122.82 138.891 122.765 138.708 122.765 138.543C122.765 138.324 122.866 138.049 123.067 137.72C123.287 137.372 123.58 137.042 123.946 136.731C124.33 136.402 124.779 136.127 125.291 135.908C125.804 135.67 126.362 135.551 126.966 135.551C127.497 135.551 128.165 135.661 128.97 135.88C129.794 136.082 130.755 136.438 131.853 136.951L130.535 138.516ZM143.968 138.516C143.034 138.04 142.229 137.711 141.552 137.528C140.875 137.326 140.271 137.226 139.74 137.226C139.282 137.226 138.806 137.555 138.312 138.214C138.678 138.434 139.063 138.653 139.465 138.873C139.868 139.074 140.362 139.321 140.948 139.614C141.552 139.907 142.028 140.182 142.375 140.438C142.741 140.676 142.998 140.914 143.144 141.152C143.309 141.39 143.382 141.637 143.364 141.893C143.345 142.131 143.263 142.396 143.117 142.689C142.879 143.183 142.632 143.595 142.375 143.925C142.119 144.254 141.826 144.519 141.497 144.721C141.167 144.904 140.792 145.032 140.371 145.105C139.969 145.178 139.493 145.215 138.944 145.215C138.175 145.215 137.397 145.114 136.61 144.913C135.841 144.712 134.99 144.382 134.057 143.925L135.182 142.14C135.951 142.524 136.775 142.835 137.653 143.073C138.532 143.311 139.291 143.43 139.932 143.43C140.408 143.43 140.728 143.394 140.893 143.321C141.058 143.247 141.195 143.083 141.305 142.826C141.341 142.735 141.35 142.652 141.332 142.579C141.332 142.506 141.286 142.424 141.195 142.332C141.103 142.222 140.957 142.103 140.756 141.975C140.554 141.847 140.271 141.692 139.904 141.509C139.154 141.161 138.541 140.85 138.065 140.575C137.589 140.282 137.214 140.017 136.939 139.779C136.665 139.523 136.473 139.294 136.363 139.092C136.253 138.891 136.198 138.708 136.198 138.543C136.198 138.324 136.299 138.049 136.5 137.72C136.72 137.372 137.013 137.042 137.379 136.731C137.763 136.402 138.211 136.127 138.724 135.908C139.236 135.67 139.795 135.551 140.399 135.551C140.929 135.551 141.598 135.661 142.403 135.88C143.227 136.082 144.187 136.438 145.286 136.951L143.968 138.516ZM151.607 140.657C151.461 141.591 151.113 142.415 150.564 143.128C150.015 143.824 149.191 144.437 148.093 144.968C147.928 145.059 147.828 145.087 147.791 145.05C147.755 144.995 147.809 144.876 147.956 144.693C148.487 144.016 148.825 143.183 148.972 142.195C149.008 141.92 148.999 141.637 148.944 141.344C148.908 141.051 148.798 140.685 148.615 140.246C148.45 139.843 148.505 139.532 148.78 139.312C149.017 139.111 149.301 139.001 149.631 138.983C149.978 138.946 150.372 138.973 150.811 139.065C151.177 139.157 151.415 139.34 151.525 139.614C151.653 139.87 151.681 140.218 151.607 140.657ZM175.521 134.013C174.203 133.867 173.013 133.784 171.952 133.766C170.89 133.73 169.947 133.73 169.124 133.766C168.648 134.535 168.218 135.276 167.833 135.99C167.467 136.704 167.101 137.427 166.735 138.159C166.973 137.994 167.165 137.857 167.312 137.747C167.476 137.637 167.641 137.509 167.806 137.363C169.069 137.271 170.149 137.207 171.046 137.171C171.942 137.134 172.528 137.116 172.803 137.116H174.203L172.638 139.23C171.485 139.065 170.414 138.973 169.426 138.955C168.456 138.919 167.449 138.964 166.406 139.092C166.186 139.587 165.994 140.044 165.829 140.465C165.683 140.886 165.527 141.353 165.362 141.865L163.44 143.156C165.417 142.881 167.22 142.735 168.849 142.717C170.478 142.68 171.988 142.735 173.379 142.881L172.254 145.215C170.588 144.959 168.803 144.84 166.9 144.858C165.015 144.858 163.212 144.986 161.491 145.242C161.693 144.821 161.857 144.464 161.985 144.172C162.132 143.879 162.242 143.632 162.315 143.43C162.406 143.211 162.47 143.028 162.507 142.881C162.562 142.717 162.608 142.57 162.644 142.442C162.992 140.996 163.367 139.678 163.77 138.488C164.173 137.299 164.621 136.21 165.115 135.221C165.518 135.038 165.911 134.855 166.296 134.672C166.68 134.489 167.193 134.233 167.833 133.903C167.467 133.922 166.973 133.968 166.351 134.041C165.747 134.114 165.051 134.205 164.264 134.315L165.609 132.366C166.964 132.165 168.181 132.018 169.261 131.927C170.341 131.817 171.32 131.744 172.199 131.707C173.095 131.67 173.91 131.661 174.642 131.68C175.393 131.698 176.097 131.735 176.756 131.789L175.521 134.013ZM190.614 137.253C190.614 137.454 190.522 137.729 190.339 138.077C189.809 139.065 189.388 140.072 189.076 141.097C188.765 142.103 188.564 143.183 188.472 144.336L185.507 145.05C185.709 143.787 186.029 142.561 186.468 141.371C186.907 140.182 187.42 139.175 188.006 138.351L187.347 137.665C186.688 137.884 186.065 138.168 185.48 138.516C184.912 138.845 184.409 139.202 183.97 139.587C183.53 139.953 183.174 140.31 182.899 140.657C182.643 141.005 182.487 141.298 182.432 141.536C182.268 142.323 182.103 142.964 181.938 143.458C181.773 143.934 181.609 144.3 181.444 144.556C181.297 144.812 181.151 144.977 181.005 145.05C180.876 145.105 180.748 145.105 180.62 145.05C180.181 144.867 179.833 144.657 179.577 144.419C179.339 144.181 179.083 143.86 178.808 143.458C178.534 143.11 178.616 142.771 179.055 142.442C179.293 142.259 179.495 142.076 179.659 141.893C179.824 141.692 179.952 141.463 180.044 141.206C180.135 140.932 180.199 140.612 180.236 140.246C180.272 139.861 180.291 139.394 180.291 138.845C180.291 138.186 180.282 137.701 180.263 137.39C180.263 137.061 180.245 136.768 180.208 136.512L183.091 135.963C183.128 136.475 183.128 136.969 183.091 137.445C183.073 137.921 182.991 138.443 182.844 139.01C183.228 138.607 183.695 138.223 184.244 137.857C184.812 137.491 185.388 137.171 185.974 136.896C186.56 136.603 187.127 136.374 187.676 136.21C188.225 136.045 188.683 135.963 189.049 135.963C189.14 135.963 189.269 136.018 189.433 136.127C189.616 136.219 189.79 136.338 189.955 136.484C190.138 136.631 190.294 136.777 190.422 136.924C190.55 137.07 190.614 137.18 190.614 137.253ZM201.257 134.7C200.525 134.846 199.894 134.919 199.363 134.919C198.777 134.919 198.283 134.837 197.88 134.672C197.478 134.507 197.276 134.279 197.276 133.986C197.276 133.803 197.35 133.629 197.496 133.464C197.661 133.281 197.862 133.116 198.1 132.97C198.356 132.824 198.631 132.705 198.924 132.613C199.235 132.522 199.528 132.476 199.802 132.476C200.04 132.476 200.232 132.512 200.379 132.586C200.525 132.641 200.598 132.796 200.598 133.052V133.492C200.598 133.638 200.653 133.83 200.763 134.068C200.891 134.288 201.056 134.498 201.257 134.7ZM199.775 136.567C199.665 137.463 199.473 138.369 199.198 139.285C198.942 140.2 198.631 141.106 198.265 142.003C197.899 142.9 197.487 143.778 197.029 144.638C196.572 145.48 196.087 146.286 195.574 147.054C195.117 147.732 194.769 148.18 194.531 148.4C194.293 148.638 194.073 148.757 193.872 148.757C193.726 148.757 193.552 148.656 193.35 148.455C193.167 148.272 192.993 148.052 192.829 147.796C192.664 147.539 192.518 147.265 192.389 146.972C192.28 146.698 192.225 146.469 192.225 146.286C192.225 146.084 192.28 145.874 192.389 145.654C192.518 145.435 192.82 145.096 193.295 144.638C193.899 144.053 194.403 143.504 194.805 142.991C195.208 142.46 195.538 141.92 195.794 141.371C196.068 140.804 196.27 140.2 196.398 139.559C196.544 138.9 196.654 138.141 196.727 137.28L199.775 136.567ZM213.921 138.132C213.921 138.754 213.775 139.358 213.482 139.944C213.189 140.511 212.805 141.06 212.329 141.591C211.871 142.103 211.35 142.579 210.764 143.019C210.196 143.44 209.62 143.806 209.034 144.117C208.467 144.41 207.918 144.648 207.387 144.831C206.874 144.995 206.453 145.078 206.124 145.078C205.74 145.078 205.346 144.986 204.943 144.803C204.559 144.602 204.202 144.364 203.873 144.089C203.543 143.796 203.278 143.485 203.076 143.156C202.875 142.808 202.774 142.479 202.774 142.167C202.774 141.563 202.93 140.95 203.241 140.328C203.571 139.687 204.001 139.083 204.532 138.516C205.062 137.949 205.666 137.445 206.344 137.006C207.021 136.548 207.726 136.201 208.458 135.963L209.391 136.622C209.959 136.475 210.416 136.356 210.764 136.265C211.13 136.173 211.423 136.109 211.642 136.072C211.862 136.018 212.036 135.99 212.164 135.99C212.292 135.972 212.411 135.963 212.521 135.963C212.979 135.963 213.326 136.164 213.564 136.567C213.802 136.969 213.921 137.491 213.921 138.132ZM210.736 139.092C210.736 138.836 210.682 138.553 210.572 138.241C210.462 137.93 210.315 137.619 210.132 137.308H209.528C208.961 137.619 208.449 137.994 207.991 138.434C207.552 138.855 207.167 139.303 206.838 139.779C206.527 140.236 206.289 140.703 206.124 141.179C205.959 141.655 205.877 142.094 205.877 142.497C205.877 142.607 205.877 142.707 205.877 142.799C205.895 142.89 205.923 143.009 205.959 143.156L206.563 143.375C207.131 143.138 207.671 142.863 208.183 142.552C208.696 142.222 209.135 141.875 209.501 141.509C209.885 141.124 210.187 140.731 210.407 140.328C210.627 139.925 210.736 139.513 210.736 139.092ZM228.152 135.963C227.822 137.665 227.374 139.321 226.807 140.932C226.239 142.543 225.525 143.961 224.665 145.187C224.976 145.151 225.287 145.105 225.599 145.05C225.91 144.995 226.221 144.95 226.532 144.913L226.807 145.874C226.166 145.965 225.589 146.075 225.077 146.203C224.564 146.331 224.015 146.505 223.43 146.725C222.661 147.713 221.892 148.473 221.123 149.004C220.355 149.535 219.687 149.8 219.119 149.8C218.607 149.8 218.204 149.653 217.911 149.361C217.637 149.068 217.499 148.702 217.499 148.262C217.499 148.061 217.563 147.851 217.692 147.631C217.82 147.411 218.058 147.183 218.405 146.945C218.771 146.725 219.266 146.487 219.888 146.231C220.51 145.993 221.325 145.737 222.331 145.462C222.588 144.968 222.816 144.464 223.018 143.952C223.237 143.44 223.42 142.945 223.567 142.469C222.688 143.275 221.874 143.897 221.123 144.336C220.391 144.776 219.732 145.078 219.147 145.242C218.579 145.407 218.094 145.453 217.692 145.38C217.289 145.306 216.978 145.16 216.758 144.94C216.557 144.721 216.401 144.538 216.291 144.391C216.182 144.227 216.117 144.071 216.099 143.925C216.081 143.76 216.108 143.577 216.182 143.375C216.255 143.174 216.374 142.918 216.538 142.607C216.959 141.783 217.307 140.914 217.582 139.998C217.875 139.083 218.094 137.967 218.241 136.649L221.425 135.963C221.297 136.603 221.16 137.198 221.014 137.747C220.867 138.278 220.693 138.809 220.492 139.34C220.309 139.87 220.089 140.419 219.833 140.987C219.595 141.554 219.302 142.195 218.954 142.909L220.08 143.43C221.508 142.881 222.643 142.076 223.485 141.014C224.345 139.934 224.876 138.488 225.077 136.676L228.152 135.963ZM254.634 136.978C254.781 137.161 254.836 137.372 254.799 137.61C254.781 137.848 254.616 138.26 254.305 138.845C253.5 140.438 253.042 142.277 252.932 144.364L249.83 145.05C249.866 144.574 249.949 144.062 250.077 143.513C250.205 142.945 250.37 142.378 250.571 141.811C250.791 141.225 251.038 140.648 251.312 140.081C251.605 139.513 251.925 138.983 252.273 138.488L251.669 137.912C251.23 137.93 250.745 138.104 250.214 138.434C249.683 138.763 249.171 139.166 248.677 139.642C248.201 140.117 247.78 140.639 247.414 141.206C247.048 141.756 246.819 142.277 246.727 142.771C246.563 143.632 246.37 144.208 246.151 144.501C245.931 144.794 245.666 144.94 245.355 144.94C245.172 144.94 244.97 144.867 244.751 144.721C244.549 144.574 244.357 144.391 244.174 144.172C243.991 143.952 243.835 143.732 243.707 143.513C243.597 143.275 243.543 143.073 243.543 142.909C243.543 142.762 243.597 142.579 243.707 142.36C243.835 142.122 244.11 141.774 244.531 141.316C244.934 140.895 245.245 140.484 245.464 140.081C245.702 139.66 245.922 139.147 246.123 138.543L245.437 137.775C244.064 138.159 242.975 138.745 242.17 139.532C241.383 140.3 240.843 141.316 240.55 142.579C240.422 143.128 240.312 143.568 240.221 143.897C240.129 144.208 240.028 144.455 239.919 144.638C239.809 144.803 239.681 144.913 239.534 144.968C239.406 145.023 239.232 145.05 239.012 145.05C238.848 145.05 238.665 144.977 238.463 144.831C238.262 144.684 238.061 144.51 237.859 144.309C237.676 144.108 237.521 143.906 237.393 143.705C237.265 143.485 237.2 143.302 237.2 143.156C237.2 142.991 237.237 142.808 237.31 142.607C237.383 142.405 237.548 142.177 237.804 141.92C238.061 141.627 238.262 141.353 238.408 141.097C238.573 140.822 238.692 140.502 238.765 140.136C238.857 139.751 238.903 139.285 238.903 138.736C238.921 138.168 238.903 137.445 238.848 136.567L241.538 135.908V136.786C241.538 137.207 241.52 137.582 241.483 137.912C241.447 138.223 241.392 138.562 241.319 138.928C241.831 138.452 242.362 138.031 242.911 137.665C243.46 137.299 243.991 136.997 244.503 136.759C245.016 136.503 245.492 136.31 245.931 136.182C246.389 136.054 246.773 135.99 247.084 135.99C247.212 135.99 247.368 136.027 247.551 136.1C247.734 136.173 247.908 136.265 248.073 136.374C248.237 136.484 248.375 136.603 248.484 136.731C248.594 136.841 248.649 136.951 248.649 137.061C248.649 137.299 248.64 137.546 248.622 137.802C248.603 138.04 248.549 138.269 248.457 138.488C248.86 138.122 249.281 137.784 249.72 137.473C250.178 137.143 250.617 136.869 251.038 136.649C251.459 136.411 251.861 136.228 252.246 136.1C252.63 135.972 252.978 135.908 253.289 135.908C253.436 135.908 253.619 135.981 253.838 136.127C254.058 136.274 254.323 136.557 254.634 136.978ZM268.134 138.132C268.134 138.754 267.988 139.358 267.695 139.944C267.402 140.511 267.018 141.06 266.542 141.591C266.084 142.103 265.562 142.579 264.977 143.019C264.409 143.44 263.833 143.806 263.247 144.117C262.68 144.41 262.131 144.648 261.6 144.831C261.087 144.995 260.666 145.078 260.337 145.078C259.953 145.078 259.559 144.986 259.156 144.803C258.772 144.602 258.415 144.364 258.086 144.089C257.756 143.796 257.491 143.485 257.289 143.156C257.088 142.808 256.987 142.479 256.987 142.167C256.987 141.563 257.143 140.95 257.454 140.328C257.784 139.687 258.214 139.083 258.744 138.516C259.275 137.949 259.879 137.445 260.557 137.006C261.234 136.548 261.938 136.201 262.671 135.963L263.604 136.622C264.171 136.475 264.629 136.356 264.977 136.265C265.343 136.173 265.636 136.109 265.855 136.072C266.075 136.018 266.249 135.99 266.377 135.99C266.505 135.972 266.624 135.963 266.734 135.963C267.191 135.963 267.539 136.164 267.777 136.567C268.015 136.969 268.134 137.491 268.134 138.132ZM264.949 139.092C264.949 138.836 264.894 138.553 264.785 138.241C264.675 137.93 264.528 137.619 264.345 137.308H263.741C263.174 137.619 262.661 137.994 262.204 138.434C261.765 138.855 261.38 139.303 261.051 139.779C260.74 140.236 260.502 140.703 260.337 141.179C260.172 141.655 260.09 142.094 260.09 142.497C260.09 142.607 260.09 142.707 260.09 142.799C260.108 142.89 260.136 143.009 260.172 143.156L260.776 143.375C261.344 143.138 261.884 142.863 262.396 142.552C262.908 142.222 263.348 141.875 263.714 141.509C264.098 141.124 264.4 140.731 264.62 140.328C264.839 139.925 264.949 139.513 264.949 139.092ZM279.4 136.182C279.253 136.475 279.125 136.731 279.015 136.951C278.905 137.152 278.805 137.354 278.713 137.555C278.622 137.738 278.53 137.93 278.439 138.132C278.347 138.333 278.247 138.562 278.137 138.818L276.078 138.571C275.876 138.681 275.657 138.873 275.419 139.147C275.199 139.404 274.989 139.706 274.787 140.053C274.586 140.401 274.403 140.767 274.238 141.152C274.073 141.536 273.954 141.902 273.881 142.25C273.735 142.909 273.597 143.449 273.469 143.87C273.341 144.272 273.213 144.593 273.085 144.831C272.957 145.05 272.829 145.206 272.701 145.297C272.573 145.371 272.444 145.407 272.316 145.407C272.206 145.407 272.051 145.325 271.85 145.16C271.666 144.977 271.483 144.776 271.3 144.556C271.117 144.318 270.953 144.08 270.806 143.842C270.678 143.586 270.614 143.375 270.614 143.211C270.614 142.9 270.678 142.616 270.806 142.36C270.934 142.103 271.181 141.756 271.548 141.316C271.694 141.152 271.795 140.941 271.85 140.685C271.923 140.41 271.959 140.008 271.959 139.477C271.959 138.69 271.941 138.013 271.904 137.445C271.868 136.859 271.822 136.393 271.767 136.045L274.568 135.359C274.659 136.585 274.568 137.775 274.293 138.928C274.714 138.269 275.089 137.729 275.419 137.308C275.766 136.869 276.087 136.521 276.38 136.265C276.672 136.008 276.947 135.825 277.203 135.716C277.459 135.606 277.716 135.551 277.972 135.551C278.137 135.551 278.347 135.606 278.603 135.716C278.878 135.825 279.143 135.981 279.4 136.182ZM292.287 137.72C292.287 138.251 292.177 138.69 291.957 139.038C291.756 139.385 291.362 139.687 290.777 139.944C290.191 140.182 289.377 140.392 288.333 140.575C287.308 140.758 285.972 140.959 284.325 141.179C284.361 141.545 284.508 141.948 284.764 142.387C285.039 142.808 285.386 143.147 285.807 143.403C286.338 143.293 286.832 143.183 287.29 143.073C287.766 142.964 288.223 142.845 288.663 142.717C289.102 142.588 289.541 142.442 289.981 142.277C290.438 142.113 290.914 141.92 291.408 141.701L291.326 142.442C291.308 142.57 291.271 142.689 291.216 142.799C291.179 142.89 291.07 142.991 290.887 143.101C290.704 143.211 290.429 143.348 290.063 143.513C289.697 143.659 289.184 143.851 288.525 144.089C287.848 144.346 287.162 144.556 286.466 144.721C285.771 144.885 285.213 144.968 284.792 144.968C284.407 144.968 284.005 144.885 283.584 144.721C283.181 144.538 282.806 144.318 282.458 144.062C282.128 143.806 281.854 143.531 281.634 143.238C281.433 142.927 281.332 142.634 281.332 142.36C281.332 142.103 281.36 141.865 281.415 141.646C281.47 141.408 281.561 141.142 281.689 140.85C281.836 140.557 282.037 140.209 282.293 139.806C282.549 139.404 282.87 138.9 283.254 138.296C283.73 137.601 284.508 137.024 285.588 136.567C286.686 136.091 288.068 135.853 289.733 135.853C290.685 135.853 291.344 135.981 291.71 136.237C292.095 136.493 292.287 136.988 292.287 137.72ZM289.486 136.896L286.604 137.253C286.238 137.729 285.899 138.186 285.588 138.626C285.295 139.047 284.975 139.55 284.627 140.136C285.67 140.044 286.512 139.944 287.153 139.834C287.793 139.724 288.278 139.587 288.608 139.422C288.956 139.257 289.184 139.065 289.294 138.845C289.422 138.626 289.486 138.36 289.486 138.049V136.896Z" fill="#4D6753"/>
</svg>
