<svg width="139" height="54" viewBox="0 0 139 54" fill="none" xmlns="http://www.w3.org/2000/svg">
<g filter="url(#filter0_d_3_2529)">
<mask id="path-1-inside-1_3_2529" fill="white">
<path d="M2 11C2 5.47715 6.47715 1 12 1H127C132.523 1 137 5.47715 137 11V41C137 46.5228 132.523 51 127 51H12C6.47715 51 2 46.5228 2 41V11Z"/>
</mask>
<path d="M2 11C2 5.47715 6.47715 1 12 1H127C132.523 1 137 5.47715 137 11V41C137 46.5228 132.523 51 127 51H12C6.47715 51 2 46.5228 2 41V11Z" fill="#FAFAFA"/>
<path d="M12 1V2H127V1V0H12V1ZM137 11H136V41H137H138V11H137ZM127 51V50H12V51V52H127V51ZM2 41H3V11H2H1V41H2ZM12 51V50C7.02944 50 3 45.9706 3 41H2H1C1 47.0751 5.92487 52 12 52V51ZM137 41H136C136 45.9706 131.971 50 127 50V51V52C133.075 52 138 47.0751 138 41H137ZM127 1V2C131.971 2 136 6.02944 136 11H137H138C138 4.92487 133.075 0 127 0V1ZM12 1V0C5.92487 0 1 4.92487 1 11H2H3C3 6.02944 7.02944 2 12 2V1Z" fill="#789D4A" mask="url(#path-1-inside-1_3_2529)"/>
<path d="M30.1919 20.6456C29.655 21.0039 29.1449 21.3076 28.6126 21.5118C28.9378 22.0382 29.2452 22.7235 29.3721 23.5503C29.4121 23.8134 29.2921 24.0754 29.0586 24.2346C28.9174 24.331 28.7484 24.3805 28.5778 24.3805C28.4663 24.3805 28.354 24.3593 28.2489 24.3162C26.9603 23.7885 25.9826 23.3319 25.3461 22.4746C24.5821 23.0014 23.5307 23.4659 22.2788 23.6062C22.246 23.61 22.2132 23.6115 22.1809 23.6115C21.9257 23.6115 21.6836 23.5008 21.5317 23.3102C21.3604 23.0951 21.3311 22.8123 21.455 22.572C21.8317 21.8422 22.1856 21.2011 22.6498 20.685C22.244 20.4601 21.8042 20.1605 21.3847 19.767C18.4985 21.0033 16.5 23.6721 16.5 26.7667C16.5 31.0377 20.3055 34.5 25 34.5C29.6945 34.5 33.5 31.0377 33.5 26.7667C33.4998 24.2749 32.2035 22.0602 30.1919 20.6456ZM24.0801 20.5056C23.2729 20.9346 22.8172 21.6486 22.1806 22.8824C23.7514 22.7063 24.9923 21.9287 25.5944 21.2651C26.0198 22.4772 26.8295 22.9355 28.5775 23.6512C28.4117 22.569 27.8684 21.6675 27.2929 21.0596C28.2203 21.0141 28.9845 20.5725 30.1691 19.7491C28.7941 19.2824 27.4085 19.394 26.5201 19.6807C26.6644 18.7285 27.1 18.3702 27.1218 18.3526L26.7394 17.9305L26.3686 17.5C26.2741 17.5671 25.5697 18.1148 25.3428 19.4529C24.3581 18.7157 23.407 18.7004 21.5914 18.8761C22.3175 19.7145 23.2596 20.2389 24.0801 20.5056Z" fill="#789D4A"/>
<path d="M47.4521 24.723C47.383 24.4992 47.2877 24.2989 47.1661 24.1221C47.0473 23.9425 46.9037 23.7892 46.7351 23.6621C46.5694 23.535 46.3787 23.4397 46.1633 23.3762C45.9478 23.3099 45.7129 23.2767 45.4587 23.2767C45.0029 23.2767 44.5968 23.3914 44.2404 23.6207C43.884 23.85 43.6035 24.187 43.3991 24.6318C43.1974 25.0739 43.0966 25.6126 43.0966 26.2481C43.0966 26.889 43.1974 27.4319 43.3991 27.8767C43.6008 28.3215 43.8812 28.66 44.2404 28.8921C44.5995 29.1214 45.0167 29.236 45.4919 29.236C45.9229 29.236 46.2959 29.1531 46.6108 28.9874C46.9285 28.8216 47.173 28.5868 47.3443 28.2829C47.5156 27.9762 47.6013 27.617 47.6013 27.2054L47.9494 27.2593H45.6452V26.0574H49.089V27.0769C49.089 27.8035 48.9343 28.4321 48.6249 28.9625C48.3155 29.493 47.89 29.9019 47.3485 30.1892C46.807 30.4738 46.1854 30.616 45.4836 30.616C44.7017 30.616 44.0152 30.4406 43.424 30.0897C42.8355 29.7361 42.3755 29.2346 42.0439 28.5854C41.7152 27.9334 41.5508 27.1598 41.5508 26.2647C41.5508 25.5795 41.6475 24.9675 41.8409 24.4288C42.037 23.89 42.3105 23.4328 42.6614 23.0571C43.0123 22.6786 43.424 22.3912 43.8964 22.1951C44.3688 21.9962 44.8827 21.8967 45.438 21.8967C45.9077 21.8967 46.3456 21.9658 46.7517 22.1039C47.1579 22.2393 47.5184 22.4327 47.8334 22.6841C48.1511 22.9355 48.4122 23.2339 48.6166 23.5792C48.8211 23.9246 48.955 24.3058 49.0186 24.723H47.4521ZM50.5678 30.5V24.1345H52.0224V25.1955H52.0887C52.2048 24.828 52.4037 24.5448 52.6855 24.3459C52.97 24.1442 53.2947 24.0434 53.6594 24.0434C53.7422 24.0434 53.8348 24.0475 53.937 24.0558C54.042 24.0613 54.129 24.071 54.1981 24.0848V25.4648C54.1346 25.4427 54.0337 25.4234 53.8956 25.4068C53.7602 25.3875 53.629 25.3778 53.5019 25.3778C53.2284 25.3778 52.9825 25.4372 52.7642 25.556C52.5487 25.672 52.3788 25.8337 52.2545 26.0409C52.1302 26.2481 52.068 26.4871 52.068 26.7578V30.5H50.5678ZM57.7676 30.6243C57.146 30.6243 56.6072 30.4876 56.1514 30.2141C55.6955 29.9405 55.3419 29.5579 55.0905 29.0661C54.8418 28.5743 54.7175 27.9997 54.7175 27.3421C54.7175 26.6846 54.8418 26.1086 55.0905 25.614C55.3419 25.1195 55.6955 24.7355 56.1514 24.4619C56.6072 24.1884 57.146 24.0517 57.7676 24.0517C58.3892 24.0517 58.928 24.1884 59.3838 24.4619C59.8397 24.7355 60.192 25.1195 60.4406 25.614C60.692 26.1086 60.8177 26.6846 60.8177 27.3421C60.8177 27.9997 60.692 28.5743 60.4406 29.0661C60.192 29.5579 59.8397 29.9405 59.3838 30.2141C58.928 30.4876 58.3892 30.6243 57.7676 30.6243ZM57.7759 29.4225C58.113 29.4225 58.3948 29.33 58.6213 29.1449C58.8479 28.957 59.0164 28.7056 59.1269 28.3906C59.2402 28.0757 59.2968 27.7248 59.2968 27.338C59.2968 26.9484 59.2402 26.5962 59.1269 26.2812C59.0164 25.9635 58.8479 25.7107 58.6213 25.5228C58.3948 25.335 58.113 25.241 57.7759 25.241C57.4305 25.241 57.1432 25.335 56.9139 25.5228C56.6874 25.7107 56.5174 25.9635 56.4042 26.2812C56.2937 26.5962 56.2384 26.9484 56.2384 27.338C56.2384 27.7248 56.2937 28.0757 56.4042 28.3906C56.5174 28.7056 56.6874 28.957 56.9139 29.1449C57.1432 29.33 57.4305 29.4225 57.7759 29.4225ZM63.2807 30.5L61.4822 24.1345H63.0114L64.1303 28.6103H64.1883L65.3321 24.1345H66.8447L67.9885 28.5854H68.0507L69.153 24.1345H70.6864L68.8837 30.5H67.3213L66.1278 26.1983H66.0408L64.8472 30.5H63.2807ZM74.8115 30.5V22.0127H80.2487V23.3016H76.349V25.6057H79.8757V26.8946H76.349V30.5H74.8115ZM83.9508 30.6243C83.3292 30.6243 82.7904 30.4876 82.3346 30.2141C81.8787 29.9405 81.5251 29.5579 81.2737 29.0661C81.025 28.5743 80.9007 27.9997 80.9007 27.3421C80.9007 26.6846 81.025 26.1086 81.2737 25.614C81.5251 25.1195 81.8787 24.7355 82.3346 24.4619C82.7904 24.1884 83.3292 24.0517 83.9508 24.0517C84.5724 24.0517 85.1112 24.1884 85.567 24.4619C86.0229 24.7355 86.3751 25.1195 86.6238 25.614C86.8752 26.1086 87.0009 26.6846 87.0009 27.3421C87.0009 27.9997 86.8752 28.5743 86.6238 29.0661C86.3751 29.5579 86.0229 29.9405 85.567 30.2141C85.1112 30.4876 84.5724 30.6243 83.9508 30.6243ZM83.9591 29.4225C84.2962 29.4225 84.578 29.33 84.8045 29.1449C85.0311 28.957 85.1996 28.7056 85.3101 28.3906C85.4234 28.0757 85.48 27.7248 85.48 27.338C85.48 26.9484 85.4234 26.5962 85.3101 26.2812C85.1996 25.9635 85.0311 25.7107 84.8045 25.5228C84.578 25.335 84.2962 25.241 83.9591 25.241C83.6137 25.241 83.3264 25.335 83.0971 25.5228C82.8706 25.7107 82.7006 25.9635 82.5874 26.2812C82.4769 26.5962 82.4216 26.9484 82.4216 27.338C82.4216 27.7248 82.4769 28.0757 82.5874 28.3906C82.7006 28.7056 82.8706 28.957 83.0971 29.1449C83.3264 29.33 83.6137 29.4225 83.9591 29.4225ZM91.1092 30.6243C90.4875 30.6243 89.9488 30.4876 89.4929 30.2141C89.0371 29.9405 88.6834 29.5579 88.432 29.0661C88.1834 28.5743 88.059 27.9997 88.059 27.3421C88.059 26.6846 88.1834 26.1086 88.432 25.614C88.6834 25.1195 89.0371 24.7355 89.4929 24.4619C89.9488 24.1884 90.4875 24.0517 91.1092 24.0517C91.7308 24.0517 92.2695 24.1884 92.7254 24.4619C93.1813 24.7355 93.5335 25.1195 93.7822 25.614C94.0336 26.1086 94.1593 26.6846 94.1593 27.3421C94.1593 27.9997 94.0336 28.5743 93.7822 29.0661C93.5335 29.5579 93.1813 29.9405 92.7254 30.2141C92.2695 30.4876 91.7308 30.6243 91.1092 30.6243ZM91.1175 29.4225C91.4545 29.4225 91.7363 29.33 91.9629 29.1449C92.1894 28.957 92.3579 28.7056 92.4685 28.3906C92.5817 28.0757 92.6384 27.7248 92.6384 27.338C92.6384 26.9484 92.5817 26.5962 92.4685 26.2812C92.3579 25.9635 92.1894 25.7107 91.9629 25.5228C91.7363 25.335 91.4545 25.241 91.1175 25.241C90.7721 25.241 90.4848 25.335 90.2555 25.5228C90.0289 25.7107 89.859 25.9635 89.7457 26.2812C89.6352 26.5962 89.58 26.9484 89.58 27.338C89.58 27.7248 89.6352 28.0757 89.7457 28.3906C89.859 28.7056 90.0289 28.957 90.2555 29.1449C90.4848 29.33 90.7721 29.4225 91.1175 29.4225ZM97.8531 30.6119C97.353 30.6119 96.9055 30.4834 96.5104 30.2265C96.1153 29.9695 95.8031 29.5966 95.5738 29.1076C95.3445 28.6185 95.2298 28.0245 95.2298 27.3256C95.2298 26.6183 95.3459 26.0215 95.578 25.5353C95.8128 25.0463 96.1291 24.6774 96.527 24.4288C96.9248 24.1774 97.3682 24.0517 97.8572 24.0517C98.2302 24.0517 98.5369 24.1152 98.7773 24.2423C99.0176 24.3666 99.2083 24.5172 99.3492 24.694C99.4901 24.8681 99.5992 25.0325 99.6765 25.1872H99.7387V22.0127H101.243V30.5H99.7677V29.4971H99.6765C99.5992 29.6518 99.4873 29.8162 99.3409 29.9903C99.1944 30.1616 99.001 30.308 98.7607 30.4295C98.5203 30.5511 98.2178 30.6119 97.8531 30.6119ZM98.2717 29.3811C98.5894 29.3811 98.8601 29.2954 99.0839 29.1241C99.3077 28.9501 99.4776 28.7083 99.5937 28.3989C99.7097 28.0895 99.7677 27.7289 99.7677 27.3173C99.7677 26.9056 99.7097 26.5478 99.5937 26.2439C99.4804 25.94 99.3119 25.7038 99.0881 25.5353C98.867 25.3667 98.5949 25.2825 98.2717 25.2825C97.9374 25.2825 97.6583 25.3695 97.4345 25.5436C97.2108 25.7176 97.0422 25.958 96.929 26.2647C96.8157 26.5713 96.759 26.9222 96.759 27.3173C96.759 27.7151 96.8157 28.0701 96.929 28.3823C97.045 28.6918 97.2149 28.9363 97.4387 29.1158C97.6652 29.2927 97.9429 29.3811 98.2717 29.3811Z" fill="#789D4A"/>
<path opacity="0.3" d="M118 19.6667C114.509 19.6667 111.667 22.5088 111.667 26.0001C111.667 29.4913 114.509 32.3334 118 32.3334C121.491 32.3334 124.333 29.4913 124.333 26.0001C124.333 22.5088 121.491 19.6667 118 19.6667ZM116.417 29.9584L113.25 26.7917L114.366 25.6755L116.417 27.718L121.634 22.5009L122.75 23.6251L116.417 29.9584Z" fill="#789D4A"/>
<path d="M118 18.0833C113.63 18.0833 110.083 21.6299 110.083 25.9999C110.083 30.3699 113.63 33.9166 118 33.9166C122.37 33.9166 125.917 30.3699 125.917 25.9999C125.917 21.6299 122.37 18.0833 118 18.0833ZM118 32.3333C114.509 32.3333 111.667 29.4912 111.667 25.9999C111.667 22.5087 114.509 19.6666 118 19.6666C121.491 19.6666 124.333 22.5087 124.333 25.9999C124.333 29.4912 121.491 32.3333 118 32.3333ZM121.634 22.5008L116.417 27.7178L114.366 25.6753L113.25 26.7916L116.417 29.9583L122.75 23.6249L121.634 22.5008Z" fill="#789D4A"/>
</g>
<defs>
<filter id="filter0_d_3_2529" x="0" y="0" width="139" height="54" filterUnits="userSpaceOnUse" color-interpolation-filters="sRGB">
<feFlood flood-opacity="0" result="BackgroundImageFix"/>
<feColorMatrix in="SourceAlpha" type="matrix" values="0 0 0 0 0 0 0 0 0 0 0 0 0 0 0 0 0 0 127 0" result="hardAlpha"/>
<feOffset dy="1"/>
<feGaussianBlur stdDeviation="1"/>
<feColorMatrix type="matrix" values="0 0 0 0 0 0 0 0 0 0 0 0 0 0 0 0 0 0 0.05 0"/>
<feBlend mode="normal" in2="BackgroundImageFix" result="effect1_dropShadow_3_2529"/>
<feBlend mode="normal" in="SourceGraphic" in2="effect1_dropShadow_3_2529" result="shape"/>
</filter>
</defs>
</svg>
