<svg width="128" height="54" viewBox="0 0 128 54" fill="none" xmlns="http://www.w3.org/2000/svg">
<g filter="url(#filter0_d_3_2406)">
<mask id="path-1-inside-1_3_2406" fill="white">
<path d="M2 11C2 5.47715 6.47715 1 12 1H116C121.523 1 126 5.47715 126 11V41C126 46.5228 121.523 51 116 51H12C6.47715 51 2 46.5228 2 41V11Z"/>
</mask>
<path d="M2 11C2 5.47715 6.47715 1 12 1H116C121.523 1 126 5.47715 126 11V41C126 46.5228 121.523 51 116 51H12C6.47715 51 2 46.5228 2 41V11Z" fill="#FAFAFA"/>
<path d="M12 1V2H116V1V0H12V1ZM126 11H125V41H126H127V11H126ZM116 51V50H12V51V52H116V51ZM2 41H3V11H2H1V41H2ZM12 51V50C7.02944 50 3 45.9706 3 41H2H1C1 47.0751 5.92487 52 12 52V51ZM126 41H125C125 45.9706 120.971 50 116 50V51V52C122.075 52 127 47.0751 127 41H126ZM116 1V2C120.971 2 125 6.02944 125 11H126H127C127 4.92487 122.075 0 116 0V1ZM12 1V0C5.92487 0 1 4.92487 1 11H2H3C3 6.02944 7.02944 2 12 2V1Z" fill="#789D4A" mask="url(#path-1-inside-1_3_2406)"/>
<g clip-path="url(#clip0_3_2406)">
<path d="M34.525 22.2955C34.4394 19.8546 32.4535 17.9016 30.0079 17.9016C29.0189 17.9016 28.1075 18.2238 27.3635 18.7661C26.8933 17.7253 25.8543 17 24.6453 17C23.5917 17 22.6686 17.5502 22.1365 18.3789C21.3253 17.5303 20.1888 17 18.9271 17C16.4658 17 14.4706 19.0087 14.4706 21.4867C14.4706 21.5689 14.4785 21.6485 14.4824 21.7294C13.0378 22.2717 12 23.6731 12 25.3105V25.4736C12 27.5765 13.7094 29.2974 15.7981 29.2974H20.007C19.5553 30.1195 18.3674 32.3602 18.3674 33.1769C18.3674 34.1846 19.1787 35 20.1782 35C21.1778 35 21.989 34.1833 21.989 33.1769C21.989 32.3615 20.8011 30.1208 20.3494 29.2974H24.0751C23.6234 30.1195 22.4355 32.3602 22.4355 33.1769C22.4355 34.1846 23.2467 35 24.2463 35C25.2458 35 26.0571 34.1833 26.0571 33.1769C26.0571 32.3615 24.8692 30.1208 24.4175 29.2974H28.1431C27.6914 30.1195 26.5035 32.3602 26.5035 33.1769C26.5035 34.1846 27.3147 35 28.3143 35C29.3139 35 30.1251 34.1833 30.1251 33.1769C30.1251 32.3615 28.9372 30.1208 28.4855 29.2974H32.1967C34.2853 29.2974 35.9947 27.5765 35.9947 25.4736V25.3105C35.9947 24.0881 35.4153 22.9969 34.5198 22.2955H34.525ZM15.8942 27.5937C15.7191 27.5937 15.5768 27.4505 15.5768 27.2742C15.5768 27.0978 15.7191 26.9546 15.8942 26.9546C16.0694 26.9546 16.2103 27.0978 16.2103 27.2742C16.2103 27.4505 16.0694 27.5937 15.8942 27.5937ZM17.8815 20.4764C17.7063 20.4764 17.5641 20.3332 17.5641 20.1569C17.5641 19.9806 17.7063 19.8374 17.8815 19.8374C18.0566 19.8374 18.1975 19.9806 18.1975 20.1569C18.1975 20.3332 18.0566 20.4764 17.8815 20.4764ZM21.241 25.044C21.0658 25.044 20.9236 24.9009 20.9236 24.7245C20.9236 24.5482 21.0658 24.405 21.241 24.405C21.4162 24.405 21.5584 24.5482 21.5584 24.7245C21.5584 24.9009 21.4162 25.044 21.241 25.044ZM23.5285 23.1481C23.3534 23.1481 23.2111 23.0062 23.2111 22.8298C23.2111 22.6535 23.3534 22.5103 23.5285 22.5103C23.7037 22.5103 23.8459 22.6535 23.8459 22.8298C23.8459 23.0062 23.7037 23.1481 23.5285 23.1481ZM28.8885 27.2742C28.7133 27.2742 28.5711 27.131 28.5711 26.9546C28.5711 26.7783 28.7133 26.6351 28.8885 26.6351C29.0637 26.6351 29.2059 26.7783 29.2059 26.9546C29.2059 27.131 29.0637 27.2742 28.8885 27.2742ZM30.1304 20.4764C29.9552 20.4764 29.813 20.3332 29.813 20.1569C29.813 19.9806 29.9552 19.8374 30.1304 19.8374C30.3055 19.8374 30.4478 19.9806 30.4478 20.1569C30.4478 20.3332 30.3055 20.4764 30.1304 20.4764ZM33.133 24.7245C32.9579 24.7245 32.8156 24.5813 32.8156 24.405C32.8156 24.2286 32.9579 24.0854 33.133 24.0854C33.3082 24.0854 33.4491 24.2286 33.4491 24.405C33.4491 24.5813 33.3082 24.7245 33.133 24.7245Z" fill="#789D4A"/>
</g>
<path d="M45.7567 30.5L43.3614 22.0127H45.0149L46.5441 28.2497H46.6228L48.2556 22.0127H49.76L51.3969 28.2539H51.4715L53.0007 22.0127H54.6543L52.2589 30.5H50.7421L49.043 24.5448H48.9767L47.2735 30.5H45.7567ZM57.8808 30.6243C57.2426 30.6243 56.6914 30.4917 56.2273 30.2265C55.7659 29.9585 55.4109 29.58 55.1622 29.091C54.9136 28.5992 54.7893 28.0204 54.7893 27.3546C54.7893 26.6998 54.9136 26.1251 55.1622 25.6306C55.4137 25.1333 55.7645 24.7465 56.2149 24.4702C56.6652 24.1912 57.1943 24.0517 57.8021 24.0517C58.1944 24.0517 58.5646 24.1152 58.9127 24.2423C59.2636 24.3666 59.573 24.56 59.841 24.8225C60.1118 25.0849 60.3245 25.4192 60.4792 25.8254C60.6339 26.2287 60.7113 26.7095 60.7113 27.2675V27.7275H55.4938V26.7164H59.2733C59.2705 26.429 59.2083 26.1735 59.0868 25.9497C58.9652 25.7231 58.7953 25.5449 58.577 25.4151C58.3615 25.2852 58.1101 25.2203 57.8228 25.2203C57.5161 25.2203 57.2468 25.2949 57.0147 25.4441C56.7826 25.5905 56.6017 25.7839 56.4718 26.0243C56.3447 26.2619 56.2798 26.523 56.277 26.8075V27.6902C56.277 28.0605 56.3447 28.3782 56.4801 28.6434C56.6155 28.9059 56.8047 29.1076 57.0478 29.2485C57.291 29.3866 57.5755 29.4557 57.9015 29.4557C58.1198 29.4557 58.3173 29.4253 58.4942 29.3645C58.671 29.301 58.8243 29.2084 58.9542 29.0868C59.084 28.9653 59.1821 28.8147 59.2484 28.6351L60.6491 28.7926C60.5607 29.1628 60.3922 29.4861 60.1435 29.7623C59.8977 30.0359 59.5827 30.2486 59.1987 30.4005C58.8146 30.5497 58.3754 30.6243 57.8808 30.6243ZM63.539 22.0127V30.5H62.0388V22.0127H63.539ZM66.6402 22.0127V30.5H65.14V22.0127H66.6402ZM74.1366 30.5H71.2606V22.0127H74.1947C75.0373 22.0127 75.7612 22.1826 76.3662 22.5225C76.974 22.8595 77.4409 23.3444 77.7669 23.9771C78.093 24.6097 78.256 25.3667 78.256 26.2481C78.256 27.1322 78.0916 27.8919 77.7628 28.5274C77.4368 29.1628 76.9657 29.6504 76.3496 29.9903C75.7363 30.3301 74.9986 30.5 74.1366 30.5ZM72.7981 29.1697H74.0621C74.6533 29.1697 75.1464 29.062 75.5415 28.8465C75.9366 28.6282 76.2336 28.3036 76.4325 27.8726C76.6314 27.4388 76.7309 26.8973 76.7309 26.2481C76.7309 25.5988 76.6314 25.0601 76.4325 24.6318C76.2336 24.2009 75.9394 23.879 75.5498 23.6663C75.163 23.4508 74.6823 23.343 74.1076 23.343H72.7981V29.1697ZM79.7088 30.5V24.1345H81.1634V25.1955H81.2297C81.3458 24.828 81.5447 24.5448 81.8265 24.3459C82.1111 24.1442 82.4357 24.0434 82.8004 24.0434C82.8833 24.0434 82.9758 24.0475 83.078 24.0558C83.183 24.0613 83.27 24.071 83.3391 24.0848V25.4648C83.2756 25.4427 83.1747 25.4234 83.0366 25.4068C82.9012 25.3875 82.77 25.3778 82.6429 25.3778C82.3694 25.3778 82.1235 25.4372 81.9052 25.556C81.6897 25.672 81.5198 25.8337 81.3955 26.0409C81.2712 26.2481 81.209 26.4871 81.209 26.7578V30.5H79.7088ZM86.1119 30.6285C85.7085 30.6285 85.3452 30.5566 85.022 30.413C84.7015 30.2665 84.4473 30.051 84.2595 29.7665C84.0744 29.4819 83.9818 29.131 83.9818 28.7139C83.9818 28.3547 84.0481 28.0577 84.1807 27.8229C84.3133 27.588 84.4943 27.4002 84.7236 27.2593C84.9529 27.1184 85.2112 27.012 85.4986 26.9402C85.7887 26.8656 86.0884 26.8117 86.3979 26.7785C86.7708 26.7399 87.0734 26.7053 87.3054 26.6749C87.5375 26.6418 87.706 26.592 87.811 26.5257C87.9188 26.4567 87.9726 26.3503 87.9726 26.2066V26.1818C87.9726 25.8696 87.8801 25.6278 87.695 25.4565C87.5099 25.2852 87.2433 25.1996 86.8952 25.1996C86.5277 25.1996 86.2362 25.2797 86.0207 25.44C85.808 25.6002 85.6643 25.7895 85.5897 26.0077L84.189 25.8088C84.2995 25.422 84.4819 25.0988 84.736 24.8391C84.9902 24.5766 85.301 24.3804 85.6685 24.2506C86.0359 24.118 86.4421 24.0517 86.8869 24.0517C87.1935 24.0517 87.4988 24.0876 87.8027 24.1594C88.1066 24.2312 88.3843 24.35 88.6357 24.5158C88.8871 24.6788 89.0888 24.9012 89.2408 25.183C89.3955 25.4648 89.4728 25.8171 89.4728 26.2398V30.5H88.0307V29.6256H87.9809C87.8898 29.8024 87.7613 29.9682 87.5955 30.1229C87.4325 30.2748 87.2267 30.3978 86.978 30.4917C86.7321 30.5829 86.4434 30.6285 86.1119 30.6285ZM86.5015 29.5261C86.8026 29.5261 87.0637 29.4667 87.2847 29.3479C87.5057 29.2264 87.6756 29.0661 87.7944 28.8672C87.916 28.6683 87.9768 28.4514 87.9768 28.2166V27.4665C87.9298 27.5051 87.8497 27.5411 87.7364 27.5742C87.6259 27.6074 87.5016 27.6364 87.3634 27.6612C87.2253 27.6861 87.0885 27.7082 86.9532 27.7275C86.8178 27.7469 86.7004 27.7635 86.6009 27.7773C86.3771 27.8077 86.1768 27.8574 86 27.9265C85.8232 27.9955 85.6837 28.0922 85.5814 28.2166C85.4792 28.3381 85.4281 28.4956 85.4281 28.689C85.4281 28.9653 85.529 29.1739 85.7306 29.3148C85.9323 29.4557 86.1893 29.5261 86.5015 29.5261ZM91.0397 30.5V24.1345H92.5399V30.5H91.0397ZM91.7939 23.2311C91.5563 23.2311 91.3519 23.1524 91.1806 22.9949C91.0093 22.8347 90.9236 22.6426 90.9236 22.4189C90.9236 22.1923 91.0093 22.0003 91.1806 21.8428C91.3519 21.6826 91.5563 21.6025 91.7939 21.6025C92.0343 21.6025 92.2387 21.6826 92.4072 21.8428C92.5785 22.0003 92.6642 22.1923 92.6642 22.4189C92.6642 22.6426 92.5785 22.8347 92.4072 22.9949C92.2387 23.1524 92.0343 23.2311 91.7939 23.2311ZM95.6411 26.7702V30.5H94.1409V24.1345H95.5748V25.2162H95.6494C95.7958 24.8598 96.0292 24.5766 96.3497 24.3666C96.673 24.1566 97.0722 24.0517 97.5474 24.0517C97.9867 24.0517 98.3693 24.1456 98.6953 24.3335C99.0241 24.5213 99.2783 24.7935 99.4579 25.1499C99.6402 25.5063 99.73 25.9386 99.7272 26.447V30.5H98.227V26.6791C98.227 26.2536 98.1165 25.9207 97.8955 25.6803C97.6772 25.44 97.3747 25.3198 96.9879 25.3198C96.7255 25.3198 96.492 25.3778 96.2876 25.4938C96.0859 25.6071 95.927 25.7715 95.811 25.987C95.6977 26.2025 95.6411 26.4636 95.6411 26.7702ZM104.129 30.6243C103.49 30.6243 102.939 30.4917 102.475 30.2265C102.014 29.9585 101.659 29.58 101.41 29.091C101.161 28.5992 101.037 28.0204 101.037 27.3546C101.037 26.6998 101.161 26.1251 101.41 25.6306C101.662 25.1333 102.012 24.7465 102.463 24.4702C102.913 24.1912 103.442 24.0517 104.05 24.0517C104.442 24.0517 104.812 24.1152 105.161 24.2423C105.511 24.3666 105.821 24.56 106.089 24.8225C106.36 25.0849 106.572 25.4192 106.727 25.8254C106.882 26.2287 106.959 26.7095 106.959 27.2675V27.7275H101.742V26.7164H105.521C105.518 26.429 105.456 26.1735 105.335 25.9497C105.213 25.7231 105.043 25.5449 104.825 25.4151C104.609 25.2852 104.358 25.2203 104.071 25.2203C103.764 25.2203 103.495 25.2949 103.263 25.4441C103.03 25.5905 102.85 25.7839 102.72 26.0243C102.593 26.2619 102.528 26.523 102.525 26.8075V27.6902C102.525 28.0605 102.593 28.3782 102.728 28.6434C102.863 28.9059 103.053 29.1076 103.296 29.2485C103.539 29.3866 103.823 29.4557 104.149 29.4557C104.368 29.4557 104.565 29.4253 104.742 29.3645C104.919 29.301 105.072 29.2084 105.202 29.0868C105.332 28.9653 105.43 28.8147 105.496 28.6351L106.897 28.7926C106.809 29.1628 106.64 29.4861 106.391 29.7623C106.146 30.0359 105.831 30.2486 105.447 30.4005C105.062 30.5497 104.623 30.6243 104.129 30.6243ZM110.649 30.6119C110.149 30.6119 109.701 30.4834 109.306 30.2265C108.911 29.9695 108.599 29.5966 108.37 29.1076C108.14 28.6185 108.026 28.0245 108.026 27.3256C108.026 26.6183 108.142 26.0215 108.374 25.5353C108.609 25.0463 108.925 24.6774 109.323 24.4288C109.721 24.1774 110.164 24.0517 110.653 24.0517C111.026 24.0517 111.333 24.1152 111.573 24.2423C111.813 24.3666 112.004 24.5172 112.145 24.694C112.286 24.8681 112.395 25.0325 112.472 25.1872H112.534V22.0127H114.039V30.5H112.563V29.4971H112.472C112.395 29.6518 112.283 29.8162 112.137 29.9903C111.99 30.1616 111.797 30.308 111.556 30.4295C111.316 30.5511 111.014 30.6119 110.649 30.6119ZM111.067 29.3811C111.385 29.3811 111.656 29.2954 111.88 29.1241C112.103 28.9501 112.273 28.7083 112.389 28.3989C112.505 28.0895 112.563 27.7289 112.563 27.3173C112.563 26.9056 112.505 26.5478 112.389 26.2439C112.276 25.94 112.108 25.7038 111.884 25.5353C111.663 25.3667 111.391 25.2825 111.067 25.2825C110.733 25.2825 110.454 25.3695 110.23 25.5436C110.006 25.7176 109.838 25.958 109.725 26.2647C109.611 26.5713 109.555 26.9222 109.555 27.3173C109.555 27.7151 109.611 28.0701 109.725 28.3823C109.841 28.6918 110.011 28.9363 110.234 29.1158C110.461 29.2927 110.739 29.3811 111.067 29.3811Z" fill="#789D4A"/>
</g>
<defs>
<filter id="filter0_d_3_2406" x="0" y="0" width="128" height="54" filterUnits="userSpaceOnUse" color-interpolation-filters="sRGB">
<feFlood flood-opacity="0" result="BackgroundImageFix"/>
<feColorMatrix in="SourceAlpha" type="matrix" values="0 0 0 0 0 0 0 0 0 0 0 0 0 0 0 0 0 0 127 0" result="hardAlpha"/>
<feOffset dy="1"/>
<feGaussianBlur stdDeviation="1"/>
<feColorMatrix type="matrix" values="0 0 0 0 0 0 0 0 0 0 0 0 0 0 0 0 0 0 0.05 0"/>
<feBlend mode="normal" in2="BackgroundImageFix" result="effect1_dropShadow_3_2406"/>
<feBlend mode="normal" in="SourceGraphic" in2="effect1_dropShadow_3_2406" result="shape"/>
</filter>
<clipPath id="clip0_3_2406">
<rect width="24" height="18" fill="white" transform="translate(12 17)"/>
</clipPath>
</defs>
</svg>
