<svg width="511" height="119" viewBox="0 0 511 119" fill="none" xmlns="http://www.w3.org/2000/svg">
<style>
@media (prefers-color-scheme: dark) {
  rect { stroke: rgba(255, 255, 255, 0.72); }
  path[fill="#282725"] { fill: #ffffff; }
  path[fill="#789D4A"] { fill: #f5f5f2; }
  path[fill="#7E8A7B"] { fill: #d7dcd2; }
}
</style>
<rect x="0.5" y="0.5" width="501" height="118" rx="15.5" stroke="#DEDEDE"/>
<path d="M26.9273 36.0478C26.6848 36.187 26.4333 36.2971 26.1727 36.3783C25.9121 36.4594 25.6424 36.5 25.3636 36.5C24.5879 36.5 23.9273 36.2362 23.3818 35.7087C22.8364 35.1812 22.5636 34.5406 22.5636 33.787C22.5636 33.5203 22.603 33.2652 22.6818 33.0217C22.7606 32.7783 22.8788 32.5464 23.0364 32.3261C22.8788 32.1058 22.7606 31.8681 22.6818 31.613C22.603 31.358 22.5636 31.0971 22.5636 30.8304C22.5636 30.0884 22.8364 29.4565 23.3818 28.9348C23.9273 28.413 24.5879 28.1522 25.3636 28.1522C25.6424 28.1522 25.9152 28.1899 26.1818 28.2652C26.4485 28.3406 26.697 28.4536 26.9273 28.6043C27.1576 28.4536 27.4061 28.3406 27.6727 28.2652C27.9394 28.1899 28.2121 28.1522 28.4909 28.1522C29.2667 28.1522 29.9273 28.4101 30.4727 28.9261C31.0182 29.442 31.2909 30.0652 31.2909 30.7957C31.2909 31.0623 31.2515 31.3232 31.1727 31.5783C31.0939 31.8333 30.9758 32.071 30.8182 32.2913C30.9758 32.5232 31.0939 32.7696 31.1727 33.0304C31.2515 33.2913 31.2909 33.5551 31.2909 33.8217C31.2909 34.5638 31.0152 35.1957 30.4636 35.7174C29.9121 36.2391 29.2424 36.5 28.4545 36.5C28.1758 36.5 27.9091 36.4594 27.6545 36.3783C27.4 36.2971 27.1576 36.187 26.9273 36.0478ZM29.3636 32.8652L28.7091 32.3087L29.4364 31.7174C29.5697 31.613 29.6697 31.4826 29.7364 31.3261C29.803 31.1696 29.8364 31.0043 29.8364 30.8304C29.8364 30.471 29.7061 30.1667 29.4455 29.9174C29.1848 29.6681 28.8667 29.5435 28.4909 29.5435C28.297 29.5435 28.1182 29.5754 27.9545 29.6391C27.7909 29.7029 27.6545 29.7986 27.5455 29.9261L26.9091 30.6217L26.2909 29.9261C26.1818 29.7986 26.0455 29.7029 25.8818 29.6391C25.7182 29.5754 25.5394 29.5435 25.3455 29.5435C24.9818 29.5435 24.6697 29.671 24.4091 29.9261C24.1485 30.1812 24.0182 30.4942 24.0182 30.8652C24.0182 31.0391 24.0576 31.2043 24.1364 31.3609C24.2152 31.5174 24.3273 31.6594 24.4727 31.787L25.1273 32.3087L24.4 32.9C24.2788 33.0043 24.1848 33.1319 24.1182 33.2826C24.0515 33.4333 24.0182 33.6014 24.0182 33.787C24.0182 34.158 24.1485 34.471 24.4091 34.7261C24.6697 34.9812 24.9818 35.1087 25.3455 35.1087C25.5273 35.1087 25.7061 35.0681 25.8818 34.987C26.0576 34.9058 26.2182 34.7841 26.3636 34.6217L26.9091 34.0304L27.5455 34.7261C27.6545 34.8536 27.7909 34.9493 27.9545 35.013C28.1182 35.0768 28.297 35.1087 28.4909 35.1087C28.8667 35.1087 29.1848 34.9812 29.4455 34.7261C29.7061 34.471 29.8364 34.158 29.8364 33.787C29.8364 33.6246 29.797 33.4623 29.7182 33.3C29.6394 33.1377 29.5212 32.9928 29.3636 32.8652ZM26.9273 33.3C27.2061 33.3 27.4455 33.2043 27.6455 33.013C27.8455 32.8217 27.9455 32.5928 27.9455 32.3261C27.9455 32.0594 27.8455 31.8304 27.6455 31.6391C27.4455 31.4478 27.2061 31.3522 26.9273 31.3522C26.6485 31.3522 26.4091 31.4478 26.2091 31.6391C26.0091 31.8304 25.9091 32.0594 25.9091 32.3261C25.9091 32.5928 26.0091 32.8217 26.2091 33.013C26.4091 33.2043 26.6485 33.3 26.9273 33.3ZM18.1818 33.7174V26.7261H16L24 20.5L32 26.7261H29.8182V27.4565H28.3636V25.6826L24 22.2739L19.6364 25.6826V32.3261H21.8182V33.7174H18.1818Z" fill="#282725"/>
<path d="M43.233 23.8182H44.7045L48.1648 32.2699H48.2841L51.7443 23.8182H53.2159V34H52.0625V26.2642H51.9631L48.7812 34H47.6676L44.4858 26.2642H44.3864V34H43.233V23.8182ZM56.2846 36.8636C56.0858 36.8636 55.9084 36.8471 55.7527 36.8139C55.5969 36.7841 55.4892 36.7543 55.4295 36.7244L55.7278 35.6903C56.0128 35.7633 56.2647 35.7898 56.4835 35.7699C56.7022 35.75 56.8961 35.6522 57.0652 35.4766C57.2375 35.3042 57.3949 35.0241 57.5375 34.6364L57.7562 34.0398L54.9324 26.3636H56.2051L58.313 32.4489H58.3926L60.5005 26.3636H61.7733L58.5318 35.1136C58.3859 35.508 58.2053 35.8345 57.9899 36.093C57.7744 36.3549 57.5242 36.5488 57.2392 36.6747C56.9574 36.8007 56.6393 36.8636 56.2846 36.8636ZM74.3787 27C74.2694 26.6652 74.1252 26.3653 73.9462 26.1001C73.7705 25.8317 73.5601 25.603 73.3148 25.4141C73.0729 25.2251 72.7978 25.081 72.4895 24.9815C72.1813 24.8821 71.8432 24.8324 71.4753 24.8324C70.8721 24.8324 70.3236 24.9882 69.8297 25.2997C69.3359 25.6113 68.9431 26.0703 68.6515 26.6768C68.3598 27.2834 68.214 28.0275 68.214 28.9091C68.214 29.7907 68.3614 30.5348 68.6564 31.1413C68.9514 31.7479 69.3508 32.2069 69.8546 32.5185C70.3584 32.83 70.9251 32.9858 71.5549 32.9858C72.1382 32.9858 72.6519 32.8615 73.0961 32.6129C73.5435 32.361 73.8915 32.0064 74.1401 31.549C74.392 31.0883 74.5179 30.5464 74.5179 29.9233L74.8958 30.0028H71.8333V28.9091H75.7111V30.0028C75.7111 30.8414 75.5321 31.5705 75.1742 32.1903C74.8195 32.8101 74.329 33.2907 73.7026 33.6321C73.0795 33.9702 72.3636 34.1392 71.5549 34.1392C70.6533 34.1392 69.8612 33.9271 69.1784 33.5028C68.499 33.0786 67.9687 32.4754 67.5875 31.6932C67.2097 30.911 67.0208 29.983 67.0208 28.9091C67.0208 28.1037 67.1285 27.3795 67.3439 26.7365C67.5627 26.0902 67.8709 25.54 68.2686 25.0859C68.6664 24.6319 69.137 24.2839 69.6806 24.0419C70.2241 23.8 70.8224 23.679 71.4753 23.679C72.0123 23.679 72.5127 23.7602 72.9767 23.9226C73.4441 24.0817 73.86 24.3087 74.2246 24.6037C74.5925 24.8954 74.8991 25.245 75.1444 25.6527C75.3896 26.0571 75.5587 26.5062 75.6515 27H74.3787ZM79.9109 34.179C79.427 34.179 78.9878 34.0878 78.5934 33.9055C78.199 33.7199 77.8858 33.4531 77.6538 33.1051C77.4218 32.7538 77.3058 32.3295 77.3058 31.8324C77.3058 31.3949 77.3919 31.0402 77.5643 30.7685C77.7366 30.4934 77.967 30.2779 78.2553 30.1222C78.5437 29.9664 78.8619 29.8504 79.2099 29.7741C79.5612 29.6946 79.9142 29.6316 80.2688 29.5852C80.7328 29.5256 81.109 29.4808 81.3974 29.451C81.689 29.4179 81.9012 29.3632 82.0337 29.2869C82.1696 29.2107 82.2376 29.0781 82.2376 28.8892V28.8494C82.2376 28.3589 82.1033 27.9777 81.8349 27.706C81.5697 27.4342 81.167 27.2983 80.6268 27.2983C80.0666 27.2983 79.6275 27.4209 79.3093 27.6662C78.9911 27.9115 78.7674 28.1733 78.6381 28.4517L77.5245 28.054C77.7234 27.59 77.9885 27.2287 78.32 26.9702C78.6547 26.7083 79.0193 26.526 79.4137 26.4233C79.8114 26.3172 80.2025 26.2642 80.587 26.2642C80.8323 26.2642 81.114 26.294 81.4322 26.3537C81.7537 26.41 82.0636 26.5277 82.3619 26.7067C82.6635 26.8857 82.9137 27.1558 83.1126 27.517C83.3114 27.8783 83.4109 28.3622 83.4109 28.9688V34H82.2376V32.9659H82.1779C82.0984 33.1316 81.9658 33.3089 81.7802 33.4979C81.5946 33.6868 81.3477 33.8475 81.0394 33.9801C80.7312 34.1127 80.355 34.179 79.9109 34.179ZM80.0898 33.125C80.5539 33.125 80.945 33.0339 81.2631 32.8516C81.5846 32.6693 81.8266 32.4339 81.989 32.1456C82.1547 31.8572 82.2376 31.554 82.2376 31.2358V30.1619C82.1879 30.2216 82.0785 30.2763 81.9094 30.326C81.7437 30.3724 81.5515 30.4138 81.3327 30.4503C81.1173 30.4834 80.9068 30.5133 80.7013 30.5398C80.4992 30.563 80.3351 30.5829 80.2092 30.5994C79.9042 30.6392 79.6192 30.7038 79.354 30.7933C79.0922 30.8795 78.8801 31.0104 78.7177 31.1861C78.5586 31.3584 78.479 31.5937 78.479 31.892C78.479 32.2997 78.6299 32.608 78.9315 32.8168C79.2364 33.0223 79.6225 33.125 80.0898 33.125ZM85.5524 34V26.3636H86.6859V27.517H86.7654C86.9047 27.1392 87.1565 26.8326 87.5211 26.5973C87.8857 26.362 88.2967 26.2443 88.7541 26.2443C88.8403 26.2443 88.948 26.246 89.0772 26.2493C89.2065 26.2526 89.3043 26.2576 89.3706 26.2642V27.4574C89.3308 27.4474 89.2396 27.4325 89.0971 27.4126C88.9579 27.3894 88.8104 27.3778 88.6547 27.3778C88.2834 27.3778 87.952 27.4557 87.6603 27.6115C87.372 27.764 87.1433 27.9761 86.9743 28.2479C86.8085 28.5163 86.7257 28.8229 86.7257 29.1676V34H85.5524ZM93.4125 34.1591C92.7761 34.1591 92.2143 33.9983 91.7271 33.6768C91.2399 33.352 90.8587 32.8946 90.5836 32.3047C90.3085 31.7114 90.171 31.0104 90.171 30.2017C90.171 29.3996 90.3085 28.7036 90.5836 28.1136C90.8587 27.5237 91.2415 27.0679 91.7321 26.7464C92.2226 26.425 92.7894 26.2642 93.4324 26.2642C93.9295 26.2642 94.3223 26.3471 94.6106 26.5128C94.9023 26.6752 95.1243 26.8608 95.2768 27.0696C95.4326 27.2751 95.5536 27.4441 95.6397 27.5767H95.7392V23.8182H96.9125V34H95.7789V32.8267H95.6397C95.5536 32.9659 95.4309 33.1416 95.2718 33.3537C95.1127 33.5625 94.8857 33.7498 94.5907 33.9155C94.2958 34.0779 93.903 34.1591 93.4125 34.1591ZM93.5716 33.1051C94.0422 33.1051 94.4399 32.9825 94.7647 32.7372C95.0895 32.4886 95.3365 32.1456 95.5055 31.7081C95.6745 31.2673 95.7591 30.7585 95.7591 30.1818C95.7591 29.6117 95.6762 29.1129 95.5105 28.6854C95.3448 28.2545 95.0995 27.9197 94.7747 27.6811C94.4499 27.4392 94.0488 27.3182 93.5716 27.3182C93.0744 27.3182 92.6601 27.4458 92.3287 27.701C92.0005 27.9529 91.7536 28.2959 91.5879 28.7301C91.4255 29.161 91.3443 29.6449 91.3443 30.1818C91.3443 30.7254 91.4271 31.2192 91.5929 31.6634C91.7619 32.1042 92.0105 32.4555 92.3386 32.7173C92.67 32.9759 93.081 33.1051 93.5716 33.1051ZM102.426 34.1591C101.69 34.1591 101.055 33.9967 100.522 33.6719C99.9915 33.3438 99.5822 32.8864 99.2939 32.2997C99.0088 31.7098 98.8663 31.0237 98.8663 30.2415C98.8663 29.4593 99.0088 28.7699 99.2939 28.1733C99.5822 27.5734 99.9833 27.1061 100.497 26.7713C101.014 26.4332 101.617 26.2642 102.307 26.2642C102.704 26.2642 103.097 26.3305 103.485 26.4631C103.873 26.5956 104.226 26.8111 104.544 27.1094C104.862 27.4044 105.116 27.7955 105.305 28.2827C105.493 28.7699 105.588 29.3698 105.588 30.0824V30.5795H99.7015V29.5653H104.395C104.395 29.1345 104.309 28.75 104.136 28.4119C103.967 28.0739 103.725 27.8071 103.41 27.6115C103.099 27.416 102.731 27.3182 102.307 27.3182C101.839 27.3182 101.435 27.4342 101.094 27.6662C100.756 27.8949 100.495 28.1932 100.313 28.5611C100.131 28.929 100.04 29.3234 100.04 29.7443V30.4205C100.04 30.9972 100.139 31.486 100.338 31.8871C100.54 32.2848 100.82 32.5881 101.178 32.7969C101.536 33.0024 101.952 33.1051 102.426 33.1051C102.734 33.1051 103.013 33.062 103.261 32.9759C103.513 32.8864 103.73 32.7538 103.912 32.5781C104.095 32.3991 104.236 32.1771 104.335 31.9119L105.469 32.2301C105.349 32.6146 105.149 32.9527 104.867 33.2443C104.585 33.5327 104.237 33.758 103.823 33.9205C103.409 34.0795 102.943 34.1591 102.426 34.1591ZM108.546 29.4062V34H107.373V26.3636H108.506V27.5568H108.606C108.785 27.169 109.056 26.8575 109.421 26.6222C109.786 26.3835 110.256 26.2642 110.833 26.2642C111.35 26.2642 111.802 26.3703 112.19 26.5824C112.578 26.7912 112.88 27.1094 113.095 27.5369C113.31 27.9612 113.418 28.4981 113.418 29.1477V34H112.245V29.2273C112.245 28.6274 112.089 28.16 111.778 27.8253C111.466 27.4872 111.038 27.3182 110.495 27.3182C110.12 27.3182 109.786 27.3994 109.491 27.5618C109.199 27.7242 108.969 27.9612 108.8 28.2727C108.631 28.5843 108.546 28.9621 108.546 29.4062Z" fill="#282725"/>
<path d="M18.6334 84.3796C18.6334 81.5651 19.0235 79.0849 19.8038 76.9392C20.5841 74.7656 21.6848 72.9403 23.106 71.4634C24.5551 69.9865 26.2967 68.8718 28.331 68.1194C30.3931 67.3391 32.7061 66.9351 35.2698 66.9072L35.5624 70.1676C33.9183 70.1955 32.4135 70.3766 31.048 70.711C29.7104 71.0454 28.5121 71.5749 27.4532 72.2994C26.3943 73.0239 25.5025 73.9714 24.778 75.1418C24.0535 76.2843 23.5101 77.7055 23.1478 79.4054C23.8723 79.071 24.6805 78.7923 25.5722 78.5694C26.4918 78.3465 27.4393 78.235 28.4146 78.235C30.0587 78.235 31.4521 78.4858 32.5946 78.9874C33.7371 79.489 34.6707 80.1578 35.3952 80.9938C36.1197 81.8019 36.6353 82.7494 36.9418 83.8362C37.2762 84.8951 37.4434 86.0098 37.4434 87.1802C37.4434 88.2391 37.2623 89.3259 36.9 90.4406C36.5377 91.5553 35.9804 92.5724 35.228 93.492C34.5035 94.4116 33.5699 95.164 32.4274 95.7492C31.2849 96.3344 29.9333 96.627 28.3728 96.627C25.196 96.627 22.7716 95.5402 21.0996 93.3666C19.4555 91.193 18.6334 88.1973 18.6334 84.3796ZM27.9966 81.4118C27.0213 81.4118 26.1156 81.5093 25.2796 81.7044C24.4436 81.8716 23.6076 82.1363 22.7716 82.4986C22.7437 82.8051 22.7159 83.1256 22.688 83.46C22.688 83.7665 22.688 84.0731 22.688 84.3796C22.688 85.6057 22.7716 86.7622 22.9388 87.849C23.106 88.9358 23.3986 89.8972 23.8166 90.7332C24.2625 91.5413 24.8477 92.1962 25.5722 92.6978C26.2967 93.1715 27.2163 93.4084 28.331 93.4084C29.2506 93.4084 30.0309 93.2133 30.6718 92.8232C31.3127 92.4331 31.8422 91.9315 32.2602 91.3184C32.6782 90.7053 32.9708 90.0505 33.138 89.3538C33.3331 88.6293 33.4306 87.9326 33.4306 87.2638C33.4306 85.3689 32.9708 83.9198 32.0512 82.9166C31.1595 81.9134 29.8079 81.4118 27.9966 81.4118Z" fill="#789D4A"/>
<path d="M49.8732 96.1708V100H48.8951V93.6345H49.84V94.6291H49.9229C50.0721 94.3059 50.2986 94.0462 50.6025 93.85C50.9064 93.6511 51.2988 93.5517 51.7795 93.5517C52.2105 93.5517 52.5876 93.6401 52.9108 93.8169C53.2341 93.9909 53.4855 94.2562 53.6651 94.6126C53.8447 94.9662 53.9345 95.4138 53.9345 95.9553V100H52.9564V96.0216C52.9564 95.5215 52.8266 95.132 52.5669 94.8529C52.3072 94.5711 51.9508 94.4302 51.4977 94.4302C51.1855 94.4302 50.9064 94.4979 50.6606 94.6333C50.4174 94.7687 50.2254 94.9662 50.0845 95.2259C49.9436 95.4856 49.8732 95.8006 49.8732 96.1708ZM57.6532 100.149C57.2498 100.149 56.8837 100.073 56.5549 99.9213C56.2262 99.7665 55.9651 99.5441 55.7717 99.254C55.5783 98.9612 55.4816 98.6076 55.4816 98.1931C55.4816 97.8285 55.5534 97.5328 55.6971 97.3063C55.8408 97.077 56.0328 96.8974 56.2731 96.7675C56.5135 96.6377 56.7787 96.541 57.0688 96.4775C57.3617 96.4111 57.6559 96.3587 57.9515 96.32C58.3383 96.2702 58.6519 96.2329 58.8923 96.2081C59.1354 96.1805 59.3122 96.1349 59.4227 96.0713C59.536 96.0078 59.5926 95.8973 59.5926 95.7398V95.7066C59.5926 95.2977 59.4807 94.98 59.257 94.7535C59.0359 94.5269 58.7002 94.4137 58.2499 94.4137C57.783 94.4137 57.4169 94.5159 57.1517 94.7203C56.8865 94.9248 56.7 95.143 56.5922 95.3751L55.6639 95.0436C55.8297 94.6568 56.0507 94.3556 56.327 94.1401C56.6061 93.9219 56.91 93.7699 57.2387 93.6843C57.5703 93.5959 57.8963 93.5517 58.2168 93.5517C58.4212 93.5517 58.656 93.5765 58.9213 93.6263C59.1893 93.6732 59.4476 93.7713 59.6962 93.9205C59.9476 94.0697 60.1562 94.2949 60.322 94.596C60.4878 94.8971 60.5707 95.3005 60.5707 95.8061V100H59.5926V99.138H59.5429C59.4766 99.2762 59.3661 99.424 59.2114 99.5814C59.0566 99.7389 58.8508 99.8729 58.5939 99.9834C58.3369 100.094 58.0234 100.149 57.6532 100.149ZM57.8023 99.2706C58.1891 99.2706 58.5151 99.1946 58.7804 99.0427C59.0484 98.8907 59.25 98.6946 59.3854 98.4542C59.5236 98.2139 59.5926 97.9611 59.5926 97.6958V96.8007C59.5512 96.8504 59.46 96.896 59.3191 96.9375C59.181 96.9761 59.0207 97.0107 58.8384 97.0411C58.6588 97.0687 58.4834 97.0936 58.3121 97.1157C58.1435 97.135 58.0068 97.1516 57.9018 97.1654C57.6476 97.1985 57.41 97.2524 57.189 97.327C56.9707 97.3988 56.7939 97.508 56.6586 97.6544C56.5259 97.7981 56.4596 97.9942 56.4596 98.2429C56.4596 98.5827 56.5853 98.8396 56.8368 99.0137C57.0909 99.185 57.4128 99.2706 57.8023 99.2706ZM65.1824 93.6345V94.4634H61.8837V93.6345H65.1824ZM62.8451 92.1095H63.8231V98.1766C63.8231 98.4528 63.8632 98.66 63.9433 98.7982C64.0262 98.9336 64.1312 99.0247 64.2583 99.0717C64.3881 99.1159 64.5249 99.138 64.6685 99.138C64.7763 99.138 64.8647 99.1325 64.9338 99.1214C65.0028 99.1076 65.0581 99.0966 65.0995 99.0883L65.2985 99.9668C65.2321 99.9917 65.1396 100.017 65.0208 100.041C64.902 100.069 64.7514 100.083 64.5691 100.083C64.2928 100.083 64.022 100.023 63.7568 99.9047C63.4944 99.7859 63.2761 99.6049 63.102 99.3618C62.9307 99.1187 62.8451 98.812 62.8451 98.4418V92.1095ZM66.712 100V93.6345H67.69V100H66.712ZM67.2093 92.5736C67.0186 92.5736 66.8542 92.5087 66.7161 92.3789C66.5807 92.249 66.513 92.0929 66.513 91.9106C66.513 91.7282 66.5807 91.5721 66.7161 91.4423C66.8542 91.3124 67.0186 91.2475 67.2093 91.2475C67.3999 91.2475 67.5629 91.3124 67.6983 91.4423C67.8364 91.5721 67.9055 91.7282 67.9055 91.9106C67.9055 92.0929 67.8364 92.249 67.6983 92.3789C67.5629 92.5087 67.3999 92.5736 67.2093 92.5736ZM74.7447 93.6345L72.3908 100H71.3962L69.0423 93.6345H70.1033L71.8604 98.707H71.9267L73.6838 93.6345H74.7447ZM78.5349 100.133C77.9216 100.133 77.3925 99.9972 76.9477 99.7265C76.5056 99.453 76.1644 99.0717 75.9241 98.5827C75.6865 98.0909 75.5677 97.519 75.5677 96.867C75.5677 96.215 75.6865 95.6403 75.9241 95.143C76.1644 94.643 76.4987 94.2534 76.927 93.9744C77.358 93.6926 77.8608 93.5517 78.4355 93.5517C78.767 93.5517 79.0944 93.6069 79.4176 93.7174C79.7409 93.8279 80.0351 94.0075 80.3003 94.2562C80.5656 94.5021 80.7769 94.8281 80.9344 95.2342C81.0919 95.6403 81.1706 96.1404 81.1706 96.7344V97.1488H76.2639V96.3034H80.176C80.176 95.9442 80.1042 95.6237 79.9605 95.3419C79.8196 95.0601 79.6179 94.8377 79.3555 94.6747C79.0958 94.5117 78.7891 94.4302 78.4355 94.4302C78.0459 94.4302 77.7088 94.5269 77.4243 94.7203C77.1425 94.911 76.9256 95.1596 76.7736 95.4663C76.6217 95.7729 76.5457 96.1017 76.5457 96.4526V97.0162C76.5457 97.4969 76.6286 97.9044 76.7944 98.2387C76.9629 98.5703 77.1963 98.8231 77.4947 98.9971C77.7931 99.1684 78.1398 99.254 78.5349 99.254C78.7919 99.254 79.0239 99.2181 79.2311 99.1463C79.4411 99.0717 79.6221 98.9612 79.774 98.8148C79.926 98.6656 80.0434 98.4805 80.1263 98.2594L81.0711 98.5247C80.9717 98.8452 80.8045 99.127 80.5697 99.3701C80.3349 99.6104 80.0448 99.7983 79.6994 99.9337C79.3541 100.066 78.9659 100.133 78.5349 100.133ZM86.0573 102.387V93.6345H87.0021V94.6457H87.1182C87.19 94.5352 87.2895 94.3943 87.4165 94.223C87.5464 94.049 87.7315 93.8942 87.9719 93.7589C88.215 93.6207 88.5438 93.5517 88.9582 93.5517C89.4942 93.5517 89.9666 93.6857 90.3755 93.9536C90.7844 94.2216 91.1035 94.6015 91.3328 95.0933C91.5621 95.5851 91.6768 96.1653 91.6768 96.8338C91.6768 97.508 91.5621 98.0923 91.3328 98.5868C91.1035 99.0786 90.7858 99.4599 90.3796 99.7306C89.9735 99.9986 89.5052 100.133 88.9748 100.133C88.5659 100.133 88.2385 100.065 87.9926 99.9295C87.7467 99.7914 87.5574 99.6353 87.4248 99.4613C87.2922 99.2844 87.19 99.138 87.1182 99.022H87.0353V102.387H86.0573ZM87.0187 96.8173C87.0187 97.298 87.0892 97.7221 87.2301 98.0895C87.371 98.4542 87.5768 98.7402 87.8475 98.9474C88.1183 99.1518 88.4498 99.254 88.8421 99.254C89.251 99.254 89.5922 99.1463 89.8658 98.9308C90.142 98.7125 90.3492 98.4197 90.4874 98.0522C90.6283 97.682 90.6987 97.2704 90.6987 96.8173C90.6987 96.3697 90.6297 95.9663 90.4915 95.6072C90.3561 95.2452 90.1503 94.9593 89.874 94.7493C89.6005 94.5366 89.2566 94.4302 88.8421 94.4302C88.4443 94.4302 88.11 94.5311 87.8393 94.7328C87.5685 94.9317 87.3641 95.2107 87.2259 95.5699C87.0878 95.9263 87.0187 96.3421 87.0187 96.8173ZM95.813 100.133C95.2383 100.133 94.7341 99.9959 94.3004 99.7223C93.8694 99.4488 93.5323 99.0662 93.2892 98.5744C93.0488 98.0826 92.9286 97.508 92.9286 96.8504C92.9286 96.1874 93.0488 95.6086 93.2892 95.114C93.5323 94.6195 93.8694 94.2355 94.3004 93.9619C94.7341 93.6884 95.2383 93.5517 95.813 93.5517C96.3876 93.5517 96.8905 93.6884 97.3215 93.9619C97.7552 94.2355 98.0923 94.6195 98.3326 95.114C98.5758 95.6086 98.6973 96.1874 98.6973 96.8504C98.6973 97.508 98.5758 98.0826 98.3326 98.5744C98.0923 99.0662 97.7552 99.4488 97.3215 99.7223C96.8905 99.9959 96.3876 100.133 95.813 100.133ZM95.813 99.254C96.2495 99.254 96.6087 99.1422 96.8905 98.9184C97.1723 98.6946 97.3809 98.4003 97.5162 98.0357C97.6516 97.671 97.7193 97.2759 97.7193 96.8504C97.7193 96.425 97.6516 96.0285 97.5162 95.661C97.3809 95.2936 97.1723 94.9966 96.8905 94.77C96.6087 94.5435 96.2495 94.4302 95.813 94.4302C95.3765 94.4302 95.0173 94.5435 94.7355 94.77C94.4537 94.9966 94.2451 95.2936 94.1097 95.661C93.9743 96.0285 93.9067 96.425 93.9067 96.8504C93.9067 97.2759 93.9743 97.671 94.1097 98.0357C94.2451 98.4003 94.4537 98.6946 94.7355 98.9184C95.0173 99.1422 95.3765 99.254 95.813 99.254ZM101.227 91.5127V100H100.249V91.5127H101.227ZM104.054 91.5127V100H103.076V91.5127H104.054ZM105.904 100V93.6345H106.882V100H105.904ZM106.401 92.5736C106.211 92.5736 106.046 92.5087 105.908 92.3789C105.773 92.249 105.705 92.0929 105.705 91.9106C105.705 91.7282 105.773 91.5721 105.908 91.4423C106.046 91.3124 106.211 91.2475 106.401 91.2475C106.592 91.2475 106.755 91.3124 106.89 91.4423C107.028 91.5721 107.098 91.7282 107.098 91.9106C107.098 92.0929 107.028 92.249 106.89 92.3789C106.755 92.5087 106.592 92.5736 106.401 92.5736ZM109.71 96.1708V100H108.732V93.6345H109.677V94.6291H109.759C109.909 94.3059 110.135 94.0462 110.439 93.85C110.743 93.6511 111.135 93.5517 111.616 93.5517C112.047 93.5517 112.424 93.6401 112.747 93.8169C113.071 93.9909 113.322 94.2562 113.502 94.6126C113.681 94.9662 113.771 95.4138 113.771 95.9553V100H112.793V96.0216C112.793 95.5215 112.663 95.132 112.403 94.8529C112.144 94.5711 111.787 94.4302 111.334 94.4302C111.022 94.4302 110.743 94.4979 110.497 94.6333C110.254 94.7687 110.062 94.9662 109.921 95.2259C109.78 95.4856 109.71 95.8006 109.71 96.1708ZM117.49 100.149C117.086 100.149 116.72 100.073 116.392 99.9213C116.063 99.7665 115.802 99.5441 115.608 99.254C115.415 98.9612 115.318 98.6076 115.318 98.1931C115.318 97.8285 115.39 97.5328 115.534 97.3063C115.677 97.077 115.869 96.8974 116.11 96.7675C116.35 96.6377 116.615 96.541 116.905 96.4775C117.198 96.4111 117.492 96.3587 117.788 96.32C118.175 96.2702 118.488 96.2329 118.729 96.2081C118.972 96.1805 119.149 96.1349 119.259 96.0713C119.373 96.0078 119.429 95.8973 119.429 95.7398V95.7066C119.429 95.2977 119.317 94.98 119.094 94.7535C118.872 94.5269 118.537 94.4137 118.086 94.4137C117.62 94.4137 117.253 94.5159 116.988 94.7203C116.723 94.9248 116.537 95.143 116.429 95.3751L115.501 95.0436C115.666 94.6568 115.887 94.3556 116.164 94.1401C116.443 93.9219 116.747 93.7699 117.075 93.6843C117.407 93.5959 117.733 93.5517 118.053 93.5517C118.258 93.5517 118.493 93.5765 118.758 93.6263C119.026 93.6732 119.284 93.7713 119.533 93.9205C119.784 94.0697 119.993 94.2949 120.159 94.596C120.324 94.8971 120.407 95.3005 120.407 95.8061V100H119.429V99.138H119.379C119.313 99.2762 119.203 99.424 119.048 99.5814C118.893 99.7389 118.687 99.8729 118.43 99.9834C118.174 100.094 117.86 100.149 117.49 100.149ZM117.639 99.2706C118.026 99.2706 118.352 99.1946 118.617 99.0427C118.885 98.8907 119.087 98.6946 119.222 98.4542C119.36 98.2139 119.429 97.9611 119.429 97.6958V96.8007C119.388 96.8504 119.297 96.896 119.156 96.9375C119.018 96.9761 118.857 97.0107 118.675 97.0411C118.495 97.0687 118.32 97.0936 118.149 97.1157C117.98 97.135 117.843 97.1516 117.738 97.1654C117.484 97.1985 117.247 97.2524 117.026 97.327C116.807 97.3988 116.63 97.508 116.495 97.6544C116.362 97.7981 116.296 97.9942 116.296 98.2429C116.296 98.5827 116.422 98.8396 116.673 99.0137C116.927 99.185 117.249 99.2706 117.639 99.2706ZM125.019 93.6345V94.4634H121.72V93.6345H125.019ZM122.682 92.1095H123.66V98.1766C123.66 98.4528 123.7 98.66 123.78 98.7982C123.863 98.9336 123.968 99.0247 124.095 99.0717C124.225 99.1159 124.361 99.138 124.505 99.138C124.613 99.138 124.701 99.1325 124.77 99.1214C124.839 99.1076 124.895 99.0966 124.936 99.0883L125.135 99.9668C125.069 99.9917 124.976 100.017 124.857 100.041C124.739 100.069 124.588 100.083 124.406 100.083C124.129 100.083 123.859 100.023 123.593 99.9047C123.331 99.7859 123.113 99.6049 122.939 99.3618C122.767 99.1187 122.682 98.812 122.682 98.4418V92.1095ZM129.066 100.133C128.491 100.133 127.987 99.9959 127.553 99.7223C127.122 99.4488 126.785 99.0662 126.542 98.5744C126.302 98.0826 126.182 97.508 126.182 96.8504C126.182 96.1874 126.302 95.6086 126.542 95.114C126.785 94.6195 127.122 94.2355 127.553 93.9619C127.987 93.6884 128.491 93.5517 129.066 93.5517C129.641 93.5517 130.144 93.6884 130.575 93.9619C131.008 94.2355 131.345 94.6195 131.586 95.114C131.829 95.6086 131.95 96.1874 131.95 96.8504C131.95 97.508 131.829 98.0826 131.586 98.5744C131.345 99.0662 131.008 99.4488 130.575 99.7223C130.144 99.9959 129.641 100.133 129.066 100.133ZM129.066 99.254C129.503 99.254 129.862 99.1422 130.144 98.9184C130.425 98.6946 130.634 98.4003 130.769 98.0357C130.905 97.671 130.972 97.2759 130.972 96.8504C130.972 96.425 130.905 96.0285 130.769 95.661C130.634 95.2936 130.425 94.9966 130.144 94.77C129.862 94.5435 129.503 94.4302 129.066 94.4302C128.63 94.4302 128.27 94.5435 127.989 94.77C127.707 94.9966 127.498 95.2936 127.363 95.661C127.227 96.0285 127.16 96.425 127.16 96.8504C127.16 97.2759 127.227 97.671 127.363 98.0357C127.498 98.4003 127.707 98.6946 127.989 98.9184C128.27 99.1422 128.63 99.254 129.066 99.254ZM133.502 100V93.6345H134.447V94.596H134.513C134.629 94.281 134.839 94.0255 135.143 93.8293C135.447 93.6332 135.789 93.5351 136.171 93.5351C136.242 93.5351 136.332 93.5365 136.44 93.5392C136.548 93.542 136.629 93.5461 136.684 93.5517V94.5463C136.651 94.538 136.575 94.5255 136.457 94.509C136.34 94.4896 136.218 94.48 136.088 94.48C135.778 94.48 135.502 94.5449 135.259 94.6747C135.019 94.8018 134.828 94.9786 134.687 95.2052C134.549 95.429 134.48 95.6845 134.48 95.9719V100H133.502ZM141.243 102.387V93.6345H142.188V94.6457H142.304C142.375 94.5352 142.475 94.3943 142.602 94.223C142.732 94.049 142.917 93.8942 143.157 93.7589C143.4 93.6207 143.729 93.5517 144.144 93.5517C144.68 93.5517 145.152 93.6857 145.561 93.9536C145.97 94.2216 146.289 94.6015 146.518 95.0933C146.748 95.5851 146.862 96.1653 146.862 96.8338C146.862 97.508 146.748 98.0923 146.518 98.5868C146.289 99.0786 145.971 99.4599 145.565 99.7306C145.159 99.9986 144.691 100.133 144.16 100.133C143.751 100.133 143.424 100.065 143.178 99.9295C142.932 99.7914 142.743 99.6353 142.61 99.4613C142.478 99.2844 142.375 99.138 142.304 99.022H142.221V102.387H141.243ZM142.204 96.8173C142.204 97.298 142.275 97.7221 142.415 98.0895C142.556 98.4542 142.762 98.7402 143.033 98.9474C143.304 99.1518 143.635 99.254 144.028 99.254C144.436 99.254 144.778 99.1463 145.051 98.9308C145.327 98.7125 145.535 98.4197 145.673 98.0522C145.814 97.682 145.884 97.2704 145.884 96.8173C145.884 96.3697 145.815 95.9663 145.677 95.6072C145.542 95.2452 145.336 94.9593 145.059 94.7493C144.786 94.5366 144.442 94.4302 144.028 94.4302C143.63 94.4302 143.295 94.5311 143.025 94.7328C142.754 94.9317 142.549 95.2107 142.411 95.5699C142.273 95.9263 142.204 96.3421 142.204 96.8173ZM149.39 91.5127V100H148.412V91.5127H149.39ZM153.113 100.149C152.71 100.149 152.344 100.073 152.015 99.9213C151.686 99.7665 151.425 99.5441 151.232 99.254C151.038 98.9612 150.942 98.6076 150.942 98.1931C150.942 97.8285 151.014 97.5328 151.157 97.3063C151.301 97.077 151.493 96.8974 151.733 96.7675C151.974 96.6377 152.239 96.541 152.529 96.4775C152.822 96.4111 153.116 96.3587 153.412 96.32C153.798 96.2702 154.112 96.2329 154.352 96.2081C154.596 96.1805 154.772 96.1349 154.883 96.0713C154.996 96.0078 155.053 95.8973 155.053 95.7398V95.7066C155.053 95.2977 154.941 94.98 154.717 94.7535C154.496 94.5269 154.16 94.4137 153.71 94.4137C153.243 94.4137 152.877 94.5159 152.612 94.7203C152.347 94.9248 152.16 95.143 152.052 95.3751L151.124 95.0436C151.29 94.6568 151.511 94.3556 151.787 94.1401C152.066 93.9219 152.37 93.7699 152.699 93.6843C153.03 93.5959 153.356 93.5517 153.677 93.5517C153.881 93.5517 154.116 93.5765 154.381 93.6263C154.649 93.6732 154.908 93.7713 155.156 93.9205C155.408 94.0697 155.616 94.2949 155.782 94.596C155.948 94.8971 156.031 95.3005 156.031 95.8061V100H155.053V99.138H155.003C154.937 99.2762 154.826 99.424 154.672 99.5814C154.517 99.7389 154.311 99.8729 154.054 99.9834C153.797 100.094 153.484 100.149 153.113 100.149ZM153.262 99.2706C153.649 99.2706 153.975 99.1946 154.241 99.0427C154.509 98.8907 154.71 98.6946 154.846 98.4542C154.984 98.2139 155.053 97.9611 155.053 97.6958V96.8007C155.011 96.8504 154.92 96.896 154.779 96.9375C154.641 96.9761 154.481 97.0107 154.299 97.0411C154.119 97.0687 153.944 97.0936 153.772 97.1157C153.604 97.135 153.467 97.1516 153.362 97.1654C153.108 97.1985 152.87 97.2524 152.649 97.327C152.431 97.3988 152.254 97.508 152.119 97.6544C151.986 97.7981 151.92 97.9942 151.92 98.2429C151.92 98.5827 152.045 98.8396 152.297 99.0137C152.551 99.185 152.873 99.2706 153.262 99.2706ZM158.852 96.1708V100H157.874V93.6345H158.819V94.6291H158.902C159.051 94.3059 159.278 94.0462 159.582 93.85C159.886 93.6511 160.278 93.5517 160.759 93.5517C161.19 93.5517 161.567 93.6401 161.89 93.8169C162.213 93.9909 162.465 94.2562 162.644 94.6126C162.824 94.9662 162.914 95.4138 162.914 95.9553V100H161.936V96.0216C161.936 95.5215 161.806 95.132 161.546 94.8529C161.286 94.5711 160.93 94.4302 160.477 94.4302C160.165 94.4302 159.886 94.4979 159.64 94.6333C159.397 94.7687 159.205 94.9662 159.064 95.2259C158.923 95.4856 158.852 95.8006 158.852 96.1708ZM167.527 93.6345V94.4634H164.229V93.6345H167.527ZM165.19 92.1095H166.168V98.1766C166.168 98.4528 166.208 98.66 166.288 98.7982C166.371 98.9336 166.476 99.0247 166.603 99.0717C166.733 99.1159 166.87 99.138 167.014 99.138C167.121 99.138 167.21 99.1325 167.279 99.1214C167.348 99.1076 167.403 99.0966 167.445 99.0883L167.643 99.9668C167.577 99.9917 167.485 100.017 167.366 100.041C167.247 100.069 167.096 100.083 166.914 100.083C166.638 100.083 166.367 100.023 166.102 99.9047C165.839 99.7859 165.621 99.6049 165.447 99.3618C165.276 99.1187 165.19 98.812 165.19 98.4418V92.1095ZM173.452 95.0601L172.573 95.3088C172.518 95.1624 172.437 95.0201 172.329 94.8819C172.224 94.741 172.08 94.625 171.898 94.5338C171.715 94.4427 171.482 94.3971 171.197 94.3971C170.808 94.3971 170.483 94.4869 170.224 94.6664C169.967 94.8433 169.838 95.0684 169.838 95.3419C169.838 95.5851 169.927 95.7771 170.103 95.918C170.28 96.0589 170.556 96.1763 170.932 96.2702L171.877 96.5023C172.446 96.6405 172.87 96.8518 173.149 97.1364C173.428 97.4182 173.568 97.7815 173.568 98.2263C173.568 98.591 173.463 98.917 173.253 99.2043C173.046 99.4916 172.756 99.7182 172.383 99.884C172.01 100.05 171.576 100.133 171.081 100.133C170.432 100.133 169.895 99.9917 169.469 99.7099C169.044 99.4281 168.774 99.0164 168.661 98.4749L169.589 98.2429C169.678 98.5855 169.845 98.8424 170.091 99.0137C170.34 99.185 170.664 99.2706 171.065 99.2706C171.521 99.2706 171.883 99.1739 172.151 98.9805C172.421 98.7844 172.557 98.5495 172.557 98.276C172.557 98.055 172.479 97.8699 172.325 97.7207C172.17 97.5687 171.932 97.4555 171.612 97.3809L170.551 97.1322C169.968 96.9941 169.54 96.78 169.266 96.4899C168.995 96.197 168.86 95.831 168.86 95.3917C168.86 95.0325 168.961 94.7148 169.163 94.4385C169.367 94.1622 169.645 93.9454 169.996 93.7879C170.349 93.6304 170.75 93.5517 171.197 93.5517C171.827 93.5517 172.322 93.6898 172.681 93.9661C173.043 94.2424 173.3 94.607 173.452 95.0601Z" fill="#7E8A7B"/>
<line x1="195.5" x2="195.5" y2="119" stroke="#DEDEDE"/>
<path d="M214 27.8333C213.711 27.8333 213.472 27.7389 213.283 27.55C213.094 27.3611 213 27.1222 213 26.8333C213 26.5444 213.094 26.3056 213.283 26.1167C213.472 25.9278 213.711 25.8333 214 25.8333C214.289 25.8333 214.527 25.9278 214.716 26.1167C214.905 26.3056 215 26.5444 215 26.8333C215 27.1222 214.905 27.3611 214.716 27.55C214.527 27.7389 214.289 27.8333 214 27.8333ZM213 35.1667V31.8333H212.333V29.1667C212.333 28.9778 212.397 28.8193 212.525 28.6913C212.653 28.5638 212.811 28.5 213 28.5H215C215.189 28.5 215.347 28.5638 215.475 28.6913C215.603 28.8193 215.666 28.9778 215.666 29.1667V31.8333H215V33.8333H220.333V30.5H219.166C218.377 30.5 217.708 30.2249 217.158 29.6747C216.608 29.1249 216.333 28.4556 216.333 27.6667C216.333 27.0778 216.491 26.5527 216.808 26.0913C217.125 25.6304 217.533 25.2889 218.033 25.0667C218.155 24.3444 218.491 23.736 219.041 23.2413C219.591 22.7471 220.244 22.5 221 22.5C221.755 22.5 222.408 22.7471 222.958 23.2413C223.508 23.736 223.844 24.3444 223.966 25.0667C224.466 25.2889 224.875 25.6304 225.192 26.0913C225.508 26.5527 225.666 27.0778 225.666 27.6667C225.666 28.4556 225.391 29.1249 224.842 29.6747C224.291 30.2249 223.622 30.5 222.833 30.5H221.666V33.8333H225V35.1667H213ZM219.166 29.1667H222.833C223.255 29.1667 223.611 29.0222 223.9 28.7333C224.189 28.4444 224.333 28.0889 224.333 27.6667C224.333 27.3667 224.253 27.0944 224.092 26.85C223.93 26.6056 223.711 26.4222 223.433 26.3L222.733 26L222.633 25.2667C222.566 24.8556 222.38 24.5138 222.075 24.2413C221.769 23.9693 221.411 23.8333 221 23.8333C220.589 23.8333 220.23 23.9693 219.925 24.2413C219.619 24.5138 219.433 24.8556 219.366 25.2667L219.266 26L218.566 26.3C218.289 26.4222 218.069 26.6056 217.908 26.85C217.747 27.0944 217.666 27.3667 217.666 27.6667C217.666 28.0889 217.811 28.4444 218.1 28.7333C218.389 29.0222 218.744 29.1667 219.166 29.1667Z" fill="#282725"/>
<path d="M240.082 34L237.298 23.8182H238.551L240.679 32.1108H240.778L242.946 23.8182H244.338L246.506 32.1108H246.605L248.733 23.8182H249.986L247.202 34H245.929L243.682 25.8864H243.602L241.355 34H240.082ZM251.363 34V26.3636H252.536V34H251.363ZM251.96 25.0909C251.731 25.0909 251.534 25.013 251.368 24.8572C251.205 24.7015 251.124 24.5142 251.124 24.2955C251.124 24.0767 251.205 23.8894 251.368 23.7337C251.534 23.5779 251.731 23.5 251.96 23.5C252.188 23.5 252.384 23.5779 252.546 23.7337C252.712 23.8894 252.795 24.0767 252.795 24.2955C252.795 24.5142 252.712 24.7015 252.546 24.8572C252.384 25.013 252.188 25.0909 251.96 25.0909ZM255.858 23.8182V34H254.685V23.8182H255.858ZM260.891 34.1591C260.255 34.1591 259.693 33.9983 259.206 33.6768C258.718 33.352 258.337 32.8946 258.062 32.3047C257.787 31.7114 257.65 31.0104 257.65 30.2017C257.65 29.3996 257.787 28.7036 258.062 28.1136C258.337 27.5237 258.72 27.0679 259.211 26.7464C259.701 26.425 260.268 26.2642 260.911 26.2642C261.408 26.2642 261.801 26.3471 262.089 26.5128C262.381 26.6752 262.603 26.8608 262.755 27.0696C262.911 27.2751 263.032 27.4441 263.118 27.5767H263.218V23.8182H264.391V34H263.257V32.8267H263.118C263.032 32.9659 262.909 33.1416 262.75 33.3537C262.591 33.5625 262.364 33.7498 262.069 33.9155C261.774 34.0779 261.382 34.1591 260.891 34.1591ZM261.05 33.1051C261.521 33.1051 261.918 32.9825 262.243 32.7372C262.568 32.4886 262.815 32.1456 262.984 31.7081C263.153 31.2673 263.238 30.7585 263.238 30.1818C263.238 29.6117 263.155 29.1129 262.989 28.6854C262.823 28.2545 262.578 27.9197 262.253 27.6811C261.928 27.4392 261.527 27.3182 261.05 27.3182C260.553 27.3182 260.139 27.4458 259.807 27.701C259.479 27.9529 259.232 28.2959 259.066 28.7301C258.904 29.161 258.823 29.6449 258.823 30.1818C258.823 30.7254 258.906 31.2192 259.071 31.6634C259.24 32.1042 259.489 32.4555 259.817 32.7173C260.149 32.9759 260.56 33.1051 261.05 33.1051ZM267.876 23.8182V34H266.703V23.8182H267.876ZM270.025 34V26.3636H271.198V34H270.025ZM270.622 25.0909C270.393 25.0909 270.196 25.013 270.03 24.8572C269.868 24.7015 269.786 24.5142 269.786 24.2955C269.786 24.0767 269.868 23.8894 270.03 23.7337C270.196 23.5779 270.393 23.5 270.622 23.5C270.85 23.5 271.046 23.5779 271.208 23.7337C271.374 23.8894 271.457 24.0767 271.457 24.2955C271.457 24.5142 271.374 24.7015 271.208 24.8572C271.046 25.013 270.85 25.0909 270.622 25.0909ZM276.43 37.0227C275.863 37.0227 275.376 36.9498 274.968 36.804C274.56 36.6615 274.221 36.4725 273.949 36.2372C273.68 36.0052 273.467 35.7566 273.308 35.4915L274.242 34.8352C274.348 34.9744 274.482 35.1335 274.645 35.3125C274.807 35.4948 275.029 35.6522 275.311 35.7848C275.596 35.9207 275.969 35.9886 276.43 35.9886C277.046 35.9886 277.555 35.8395 277.956 35.5412C278.357 35.2429 278.558 34.7756 278.558 34.1392V32.5881H278.458C278.372 32.7273 278.249 32.8996 278.09 33.1051C277.934 33.3073 277.709 33.4879 277.414 33.647C277.122 33.8028 276.728 33.8807 276.231 33.8807C275.614 33.8807 275.061 33.7348 274.57 33.4432C274.083 33.1515 273.697 32.7273 273.412 32.1705C273.13 31.6136 272.989 30.9375 272.989 30.142C272.989 29.3598 273.127 28.6787 273.402 28.0987C273.677 27.5154 274.06 27.0646 274.55 26.7464C275.041 26.425 275.608 26.2642 276.251 26.2642C276.748 26.2642 277.142 26.3471 277.434 26.5128C277.729 26.6752 277.954 26.8608 278.11 27.0696C278.269 27.2751 278.392 27.4441 278.478 27.5767H278.597V26.3636H279.731V34.2188C279.731 34.875 279.582 35.4086 279.283 35.8196C278.988 36.2339 278.591 36.5372 278.09 36.7294C277.593 36.925 277.04 37.0227 276.43 37.0227ZM276.39 32.8267C276.861 32.8267 277.258 32.719 277.583 32.5036C277.908 32.2881 278.155 31.9782 278.324 31.5739C278.493 31.1695 278.577 30.6856 278.577 30.1222C278.577 29.572 278.495 29.0864 278.329 28.6655C278.163 28.2446 277.918 27.9148 277.593 27.6761C277.268 27.4375 276.867 27.3182 276.39 27.3182C275.893 27.3182 275.478 27.4441 275.147 27.696C274.819 27.9479 274.572 28.286 274.406 28.7102C274.244 29.1345 274.163 29.6051 274.163 30.1222C274.163 30.6525 274.246 31.1214 274.411 31.5291C274.58 31.9335 274.829 32.2517 275.157 32.4837C275.488 32.7124 275.899 32.8267 276.39 32.8267ZM283.052 29.4062V34H281.879V23.8182H283.052V27.5568H283.151C283.33 27.1624 283.599 26.8492 283.957 26.6172C284.318 26.3819 284.799 26.2642 285.398 26.2642C285.919 26.2642 286.375 26.3686 286.766 26.5774C287.157 26.7829 287.46 27.0994 287.675 27.527C287.894 27.9512 288.004 28.4915 288.004 29.1477V34H286.83V29.2273C286.83 28.6207 286.673 28.1518 286.358 27.8203C286.046 27.4856 285.614 27.3182 285.06 27.3182C284.676 27.3182 284.331 27.3994 284.026 27.5618C283.725 27.7242 283.486 27.9612 283.31 28.2727C283.138 28.5843 283.052 28.9621 283.052 29.4062ZM293.471 26.3636V27.358H289.514V26.3636H293.471ZM290.667 24.5341H291.84V31.8125C291.84 32.1439 291.888 32.3925 291.985 32.5582C292.084 32.7206 292.21 32.83 292.362 32.8864C292.518 32.9394 292.682 32.9659 292.855 32.9659C292.984 32.9659 293.09 32.9593 293.173 32.946C293.256 32.9295 293.322 32.9162 293.372 32.9062L293.61 33.9602C293.531 33.9901 293.42 34.0199 293.277 34.0497C293.135 34.0829 292.954 34.0994 292.735 34.0994C292.404 34.0994 292.079 34.0282 291.761 33.8857C291.446 33.7431 291.184 33.526 290.975 33.2344C290.77 32.9427 290.667 32.5748 290.667 32.1307V24.5341ZM307.526 27H306.293C306.22 26.6454 306.092 26.3338 305.91 26.0653C305.731 25.7969 305.512 25.5715 305.254 25.3892C304.999 25.2036 304.715 25.0644 304.404 24.9716C304.092 24.8788 303.767 24.8324 303.429 24.8324C302.813 24.8324 302.254 24.9882 301.754 25.2997C301.257 25.6113 300.86 26.0703 300.566 26.6768C300.274 27.2834 300.128 28.0275 300.128 28.9091C300.128 29.7907 300.274 30.5348 300.566 31.1413C300.86 31.7479 301.257 32.2069 301.754 32.5185C302.254 32.83 302.813 32.9858 303.429 32.9858C303.767 32.9858 304.092 32.9394 304.404 32.8466C304.715 32.7538 304.999 32.6162 305.254 32.4339C305.512 32.2483 305.731 32.0213 305.91 31.7528C306.092 31.4811 306.22 31.1695 306.293 30.8182H307.526C307.433 31.3385 307.264 31.8042 307.019 32.2152C306.773 32.6262 306.468 32.9759 306.104 33.2642C305.739 33.5492 305.33 33.7663 304.876 33.9155C304.425 34.0646 303.943 34.1392 303.429 34.1392C302.561 34.1392 301.789 33.9271 301.112 33.5028C300.436 33.0786 299.904 32.4754 299.517 31.6932C299.129 30.911 298.935 29.983 298.935 28.9091C298.935 27.8352 299.129 26.9072 299.517 26.125C299.904 25.3428 300.436 24.7396 301.112 24.3153C301.789 23.8911 302.561 23.679 303.429 23.679C303.943 23.679 304.425 23.7536 304.876 23.9027C305.33 24.0518 305.739 24.2706 306.104 24.5589C306.468 24.844 306.773 25.192 307.019 25.603C307.264 26.0107 307.433 26.4763 307.526 27ZM312.461 34.1591C311.772 34.1591 311.167 33.995 310.647 33.6669C310.13 33.3388 309.725 32.8797 309.434 32.2898C309.145 31.6998 309.001 31.0104 309.001 30.2216C309.001 29.4261 309.145 28.7318 309.434 28.1385C309.725 27.5452 310.13 27.0845 310.647 26.7564C311.167 26.4283 311.772 26.2642 312.461 26.2642C313.151 26.2642 313.754 26.4283 314.271 26.7564C314.791 27.0845 315.196 27.5452 315.484 28.1385C315.776 28.7318 315.922 29.4261 315.922 30.2216C315.922 31.0104 315.776 31.6998 315.484 32.2898C315.196 32.8797 314.791 33.3388 314.271 33.6669C313.754 33.995 313.151 34.1591 312.461 34.1591ZM312.461 33.1051C312.985 33.1051 313.416 32.9709 313.754 32.7024C314.092 32.4339 314.342 32.081 314.505 31.6435C314.667 31.206 314.748 30.732 314.748 30.2216C314.748 29.7112 314.667 29.2356 314.505 28.7947C314.342 28.3539 314.092 27.9976 313.754 27.7259C313.416 27.4541 312.985 27.3182 312.461 27.3182C311.938 27.3182 311.507 27.4541 311.169 27.7259C310.831 27.9976 310.58 28.3539 310.418 28.7947C310.256 29.2356 310.174 29.7112 310.174 30.2216C310.174 30.732 310.256 31.206 310.418 31.6435C310.58 32.081 310.831 32.4339 311.169 32.7024C311.507 32.9709 311.938 33.1051 312.461 33.1051ZM317.713 34V26.3636H318.846V27.5568H318.945C319.105 27.1491 319.361 26.8326 319.716 26.6072C320.071 26.3786 320.497 26.2642 320.994 26.2642C321.498 26.2642 321.917 26.3786 322.252 26.6072C322.59 26.8326 322.853 27.1491 323.042 27.5568H323.122C323.317 27.1624 323.61 26.8492 324.002 26.6172C324.393 26.3819 324.862 26.2642 325.409 26.2642C326.091 26.2642 326.65 26.478 327.084 26.9055C327.518 27.3298 327.735 27.991 327.735 28.8892V34H326.562V28.8892C326.562 28.3258 326.408 27.9231 326.1 27.6811C325.791 27.4392 325.428 27.3182 325.011 27.3182C324.474 27.3182 324.058 27.4806 323.763 27.8054C323.468 28.1269 323.32 28.5346 323.32 29.0284V34H322.127V28.7699C322.127 28.3357 321.986 27.986 321.705 27.7209C321.423 27.4524 321.06 27.3182 320.616 27.3182C320.311 27.3182 320.026 27.3994 319.761 27.5618C319.499 27.7242 319.287 27.9496 319.124 28.2379C318.965 28.523 318.886 28.8527 318.886 29.2273V34H317.713ZM329.881 34V26.3636H331.014V27.5568H331.113C331.273 27.1491 331.529 26.8326 331.884 26.6072C332.239 26.3786 332.665 26.2642 333.162 26.2642C333.666 26.2642 334.085 26.3786 334.42 26.6072C334.758 26.8326 335.021 27.1491 335.21 27.5568H335.29C335.485 27.1624 335.778 26.8492 336.17 26.6172C336.561 26.3819 337.03 26.2642 337.577 26.2642C338.259 26.2642 338.818 26.478 339.252 26.9055C339.686 27.3298 339.903 27.991 339.903 28.8892V34H338.73V28.8892C338.73 28.3258 338.576 27.9231 338.268 27.6811C337.959 27.4392 337.596 27.3182 337.179 27.3182C336.642 27.3182 336.226 27.4806 335.931 27.8054C335.636 28.1269 335.488 28.5346 335.488 29.0284V34H334.295V28.7699C334.295 28.3357 334.154 27.986 333.873 27.7209C333.591 27.4524 333.228 27.3182 332.784 27.3182C332.479 27.3182 332.194 27.3994 331.929 27.5618C331.667 27.7242 331.455 27.9496 331.292 28.2379C331.133 28.523 331.054 28.8527 331.054 29.2273V34H329.881ZM346.861 30.8778V26.3636H348.034V34H346.861V32.7074H346.781C346.602 33.0952 346.324 33.425 345.946 33.6967C345.568 33.9652 345.091 34.0994 344.514 34.0994C344.037 34.0994 343.613 33.995 343.242 33.7862C342.87 33.5741 342.579 33.2559 342.367 32.8317C342.155 32.4041 342.048 31.8655 342.048 31.2159V26.3636H343.222V31.1364C343.222 31.6932 343.378 32.1373 343.689 32.4688C344.004 32.8002 344.405 32.9659 344.892 32.9659C345.184 32.9659 345.481 32.8913 345.782 32.7422C346.087 32.593 346.342 32.3643 346.548 32.0561C346.757 31.7479 346.861 31.3551 346.861 30.8778ZM351.357 29.4062V34H350.183V26.3636H351.317V27.5568H351.416C351.595 27.169 351.867 26.8575 352.232 26.6222C352.596 26.3835 353.067 26.2642 353.643 26.2642C354.161 26.2642 354.613 26.3703 355.001 26.5824C355.388 26.7912 355.69 27.1094 355.906 27.5369C356.121 27.9612 356.229 28.4981 356.229 29.1477V34H355.055V29.2273C355.055 28.6274 354.9 28.16 354.588 27.8253C354.277 27.4872 353.849 27.3182 353.305 27.3182C352.931 27.3182 352.596 27.3994 352.301 27.5618C352.009 27.7242 351.779 27.9612 351.61 28.2727C351.441 28.5843 351.357 28.9621 351.357 29.4062ZM358.373 34V26.3636H359.546V34H358.373ZM358.969 25.0909C358.741 25.0909 358.543 25.013 358.378 24.8572C358.215 24.7015 358.134 24.5142 358.134 24.2955C358.134 24.0767 358.215 23.8894 358.378 23.7337C358.543 23.5779 358.741 23.5 358.969 23.5C359.198 23.5 359.394 23.5779 359.556 23.7337C359.722 23.8894 359.805 24.0767 359.805 24.2955C359.805 24.5142 359.722 24.7015 359.556 24.8572C359.394 25.013 359.198 25.0909 358.969 25.0909ZM365.016 26.3636V27.358H361.059V26.3636H365.016ZM362.212 24.5341H363.385V31.8125C363.385 32.1439 363.433 32.3925 363.529 32.5582C363.629 32.7206 363.755 32.83 363.907 32.8864C364.063 32.9394 364.227 32.9659 364.4 32.9659C364.529 32.9659 364.635 32.9593 364.718 32.946C364.801 32.9295 364.867 32.9162 364.917 32.9062L365.155 33.9602C365.076 33.9901 364.965 34.0199 364.822 34.0497C364.68 34.0829 364.499 34.0994 364.28 34.0994C363.949 34.0994 363.624 34.0282 363.306 33.8857C362.991 33.7431 362.729 33.526 362.52 33.2344C362.315 32.9427 362.212 32.5748 362.212 32.1307V24.5341ZM367.537 36.8636C367.338 36.8636 367.16 36.8471 367.005 36.8139C366.849 36.7841 366.741 36.7543 366.681 36.7244L366.98 35.6903C367.265 35.7633 367.517 35.7898 367.735 35.7699C367.954 35.75 368.148 35.6522 368.317 35.4766C368.489 35.3042 368.647 35.0241 368.789 34.6364L369.008 34.0398L366.184 26.3636H367.457L369.565 32.4489H369.645L371.752 26.3636H373.025L369.784 35.1136C369.638 35.508 369.457 35.8345 369.242 36.093C369.026 36.3549 368.776 36.5488 368.491 36.6747C368.209 36.8007 367.891 36.8636 367.537 36.8636ZM378.511 34V26.3636H379.685V34H378.511ZM379.108 25.0909C378.879 25.0909 378.682 25.013 378.516 24.8572C378.354 24.7015 378.273 24.5142 378.273 24.2955C378.273 24.0767 378.354 23.8894 378.516 23.7337C378.682 23.5779 378.879 23.5 379.108 23.5C379.337 23.5 379.532 23.5779 379.695 23.7337C379.86 23.8894 379.943 24.0767 379.943 24.2955C379.943 24.5142 379.86 24.7015 379.695 24.8572C379.532 25.013 379.337 25.0909 379.108 25.0909ZM383.007 29.4062V34H381.834V26.3636H382.967V27.5568H383.067C383.246 27.169 383.517 26.8575 383.882 26.6222C384.247 26.3835 384.717 26.2642 385.294 26.2642C385.811 26.2642 386.263 26.3703 386.651 26.5824C387.039 26.7912 387.34 27.1094 387.556 27.5369C387.771 27.9612 387.879 28.4981 387.879 29.1477V34H386.706V29.2273C386.706 28.6274 386.55 28.16 386.238 27.8253C385.927 27.4872 385.499 27.3182 384.956 27.3182C384.581 27.3182 384.247 27.3994 383.952 27.5618C383.66 27.7242 383.43 27.9612 383.26 28.2727C383.091 28.5843 383.007 28.9621 383.007 29.4062ZM402.313 27H401.08C401.007 26.6454 400.879 26.3338 400.697 26.0653C400.518 25.7969 400.299 25.5715 400.041 25.3892C399.786 25.2036 399.502 25.0644 399.191 24.9716C398.879 24.8788 398.554 24.8324 398.216 24.8324C397.6 24.8324 397.041 24.9882 396.541 25.2997C396.044 25.6113 395.648 26.0703 395.353 26.6768C395.061 27.2834 394.915 28.0275 394.915 28.9091C394.915 29.7907 395.061 30.5348 395.353 31.1413C395.648 31.7479 396.044 32.2069 396.541 32.5185C397.041 32.83 397.6 32.9858 398.216 32.9858C398.554 32.9858 398.879 32.9394 399.191 32.8466C399.502 32.7538 399.786 32.6162 400.041 32.4339C400.299 32.2483 400.518 32.0213 400.697 31.7528C400.879 31.4811 401.007 31.1695 401.08 30.8182H402.313C402.22 31.3385 402.051 31.8042 401.806 32.2152C401.56 32.6262 401.256 32.9759 400.891 33.2642C400.526 33.5492 400.117 33.7663 399.663 33.9155C399.212 34.0646 398.73 34.1392 398.216 34.1392C397.348 34.1392 396.576 33.9271 395.9 33.5028C395.223 33.0786 394.691 32.4754 394.304 31.6932C393.916 30.911 393.722 29.983 393.722 28.9091C393.722 27.8352 393.916 26.9072 394.304 26.125C394.691 25.3428 395.223 24.7396 395.9 24.3153C396.576 23.8911 397.348 23.679 398.216 23.679C398.73 23.679 399.212 23.7536 399.663 23.9027C400.117 24.0518 400.526 24.2706 400.891 24.5589C401.256 24.844 401.56 25.192 401.806 25.603C402.051 26.0107 402.22 26.4763 402.313 27ZM406.393 34.179C405.909 34.179 405.47 34.0878 405.076 33.9055C404.681 33.7199 404.368 33.4531 404.136 33.1051C403.904 32.7538 403.788 32.3295 403.788 31.8324C403.788 31.3949 403.874 31.0402 404.047 30.7685C404.219 30.4934 404.449 30.2779 404.738 30.1222C405.026 29.9664 405.344 29.8504 405.692 29.7741C406.044 29.6946 406.397 29.6316 406.751 29.5852C407.215 29.5256 407.591 29.4808 407.88 29.451C408.171 29.4179 408.384 29.3632 408.516 29.2869C408.652 29.2107 408.72 29.0781 408.72 28.8892V28.8494C408.72 28.3589 408.586 27.9777 408.317 27.706C408.052 27.4342 407.649 27.2983 407.109 27.2983C406.549 27.2983 406.11 27.4209 405.792 27.6662C405.474 27.9115 405.25 28.1733 405.121 28.4517L404.007 28.054C404.206 27.59 404.471 27.2287 404.802 26.9702C405.137 26.7083 405.502 26.526 405.896 26.4233C406.294 26.3172 406.685 26.2642 407.069 26.2642C407.315 26.2642 407.596 26.294 407.915 26.3537C408.236 26.41 408.546 26.5277 408.844 26.7067C409.146 26.8857 409.396 27.1558 409.595 27.517C409.794 27.8783 409.893 28.3622 409.893 28.9688V34H408.72V32.9659H408.66C408.581 33.1316 408.448 33.3089 408.263 33.4979C408.077 33.6868 407.83 33.8475 407.522 33.9801C407.214 34.1127 406.837 34.179 406.393 34.179ZM406.572 33.125C407.036 33.125 407.427 33.0339 407.746 32.8516C408.067 32.6693 408.309 32.4339 408.471 32.1456C408.637 31.8572 408.72 31.554 408.72 31.2358V30.1619C408.67 30.2216 408.561 30.2763 408.392 30.326C408.226 30.3724 408.034 30.4138 407.815 30.4503C407.6 30.4834 407.389 30.5133 407.184 30.5398C406.982 30.563 406.818 30.5829 406.692 30.5994C406.387 30.6392 406.102 30.7038 405.836 30.7933C405.575 30.8795 405.363 31.0104 405.2 31.1861C405.041 31.3584 404.961 31.5937 404.961 31.892C404.961 32.2997 405.112 32.608 405.414 32.8168C405.719 33.0223 406.105 33.125 406.572 33.125ZM413.208 29.4062V34H412.035V26.3636H413.168V27.5568H413.268C413.447 27.169 413.719 26.8575 414.083 26.6222C414.448 26.3835 414.918 26.2642 415.495 26.2642C416.012 26.2642 416.464 26.3703 416.852 26.5824C417.24 26.7912 417.542 27.1094 417.757 27.5369C417.973 27.9612 418.08 28.4981 418.08 29.1477V34H416.907V29.2273C416.907 28.6274 416.751 28.16 416.44 27.8253C416.128 27.4872 415.701 27.3182 415.157 27.3182C414.782 27.3182 414.448 27.3994 414.153 27.5618C413.861 27.7242 413.631 27.9612 413.462 28.2727C413.293 28.5843 413.208 28.9621 413.208 29.4062ZM422.471 34.179C421.988 34.179 421.548 34.0878 421.154 33.9055C420.76 33.7199 420.446 33.4531 420.214 33.1051C419.982 32.7538 419.866 32.3295 419.866 31.8324C419.866 31.3949 419.952 31.0402 420.125 30.7685C420.297 30.4934 420.528 30.2779 420.816 30.1222C421.104 29.9664 421.422 29.8504 421.77 29.7741C422.122 29.6946 422.475 29.6316 422.829 29.5852C423.293 29.5256 423.67 29.4808 423.958 29.451C424.25 29.4179 424.462 29.3632 424.594 29.2869C424.73 29.2107 424.798 29.0781 424.798 28.8892V28.8494C424.798 28.3589 424.664 27.9777 424.395 27.706C424.13 27.4342 423.728 27.2983 423.187 27.2983C422.627 27.2983 422.188 27.4209 421.87 27.6662C421.552 27.9115 421.328 28.1733 421.199 28.4517L420.085 28.054C420.284 27.59 420.549 27.2287 420.881 26.9702C421.215 26.7083 421.58 26.526 421.974 26.4233C422.372 26.3172 422.763 26.2642 423.148 26.2642C423.393 26.2642 423.675 26.294 423.993 26.3537C424.314 26.41 424.624 26.5277 424.922 26.7067C425.224 26.8857 425.474 27.1558 425.673 27.517C425.872 27.8783 425.971 28.3622 425.971 28.9688V34H424.798V32.9659H424.738C424.659 33.1316 424.526 33.3089 424.341 33.4979C424.155 33.6868 423.908 33.8475 423.6 33.9801C423.292 34.1127 422.916 34.179 422.471 34.179ZM422.65 33.125C423.114 33.125 423.506 33.0339 423.824 32.8516C424.145 32.6693 424.387 32.4339 424.55 32.1456C424.715 31.8572 424.798 31.554 424.798 31.2358V30.1619C424.748 30.2216 424.639 30.2763 424.47 30.326C424.304 30.3724 424.112 30.4138 423.893 30.4503C423.678 30.4834 423.467 30.5133 423.262 30.5398C423.06 30.563 422.896 30.5829 422.77 30.5994C422.465 30.6392 422.18 30.7038 421.915 30.7933C421.653 30.8795 421.441 31.0104 421.278 31.1861C421.119 31.3584 421.04 31.5937 421.04 31.892C421.04 32.2997 421.19 32.608 421.492 32.8168C421.797 33.0223 422.183 33.125 422.65 33.125ZM430.996 34.1591C430.36 34.1591 429.798 33.9983 429.311 33.6768C428.824 33.352 428.443 32.8946 428.168 32.3047C427.893 31.7114 427.755 31.0104 427.755 30.2017C427.755 29.3996 427.893 28.7036 428.168 28.1136C428.443 27.5237 428.826 27.0679 429.316 26.7464C429.807 26.425 430.373 26.2642 431.016 26.2642C431.513 26.2642 431.906 26.3471 432.195 26.5128C432.486 26.6752 432.708 26.8608 432.861 27.0696C433.017 27.2751 433.138 27.4441 433.224 27.5767H433.323V23.8182H434.496V34H433.363V32.8267H433.224C433.138 32.9659 433.015 33.1416 432.856 33.3537C432.697 33.5625 432.47 33.7498 432.175 33.9155C431.88 34.0779 431.487 34.1591 430.996 34.1591ZM431.156 33.1051C431.626 33.1051 432.024 32.9825 432.349 32.7372C432.674 32.4886 432.92 32.1456 433.089 31.7081C433.259 31.2673 433.343 30.7585 433.343 30.1818C433.343 29.6117 433.26 29.1129 433.094 28.6854C432.929 28.2545 432.683 27.9197 432.359 27.6811C432.034 27.4392 431.633 27.3182 431.156 27.3182C430.658 27.3182 430.244 27.4458 429.913 27.701C429.585 27.9529 429.338 28.2959 429.172 28.7301C429.009 29.161 428.928 29.6449 428.928 30.1818C428.928 30.7254 429.011 31.2192 429.177 31.6634C429.346 32.1042 429.594 32.4555 429.923 32.7173C430.254 32.9759 430.665 33.1051 431.156 33.1051ZM439.055 34.179C438.571 34.179 438.132 34.0878 437.738 33.9055C437.344 33.7199 437.03 33.4531 436.798 33.1051C436.566 32.7538 436.45 32.3295 436.45 31.8324C436.45 31.3949 436.536 31.0402 436.709 30.7685C436.881 30.4934 437.112 30.2779 437.4 30.1222C437.688 29.9664 438.006 29.8504 438.354 29.7741C438.706 29.6946 439.059 29.6316 439.413 29.5852C439.877 29.5256 440.254 29.4808 440.542 29.451C440.834 29.4179 441.046 29.3632 441.178 29.2869C441.314 29.2107 441.382 29.0781 441.382 28.8892V28.8494C441.382 28.3589 441.248 27.9777 440.979 27.706C440.714 27.4342 440.312 27.2983 439.771 27.2983C439.211 27.2983 438.772 27.4209 438.454 27.6662C438.136 27.9115 437.912 28.1733 437.783 28.4517L436.669 28.054C436.868 27.59 437.133 27.2287 437.464 26.9702C437.799 26.7083 438.164 26.526 438.558 26.4233C438.956 26.3172 439.347 26.2642 439.732 26.2642C439.977 26.2642 440.259 26.294 440.577 26.3537C440.898 26.41 441.208 26.5277 441.506 26.7067C441.808 26.8857 442.058 27.1558 442.257 27.517C442.456 27.8783 442.555 28.3622 442.555 28.9688V34H441.382V32.9659H441.322C441.243 33.1316 441.11 33.3089 440.925 33.4979C440.739 33.6868 440.492 33.8475 440.184 33.9801C439.876 34.1127 439.5 34.179 439.055 34.179ZM439.234 33.125C439.698 33.125 440.089 33.0339 440.408 32.8516C440.729 32.6693 440.971 32.4339 441.134 32.1456C441.299 31.8572 441.382 31.554 441.382 31.2358V30.1619C441.332 30.2216 441.223 30.2763 441.054 30.326C440.888 30.3724 440.696 30.4138 440.477 30.4503C440.262 30.4834 440.051 30.5133 439.846 30.5398C439.644 30.563 439.48 30.5829 439.354 30.5994C439.049 30.6392 438.764 30.7038 438.499 30.7933C438.237 30.8795 438.025 31.0104 437.862 31.1861C437.703 31.3584 437.624 31.5937 437.624 31.892C437.624 32.2997 437.774 32.608 438.076 32.8168C438.381 33.0223 438.767 33.125 439.234 33.125Z" fill="#282725"/>
<path d="M214.887 73.01C216.476 72.3969 218.022 71.6167 219.527 70.6692C221.032 69.6939 222.411 68.4817 223.665 67.0326H226.424V96H222.537V72.4248C222.202 72.7313 221.784 73.0518 221.283 73.3862C220.809 73.7206 220.28 74.0411 219.694 74.3476C219.137 74.6541 218.538 74.9467 217.897 75.2254C217.284 75.5041 216.685 75.7409 216.1 75.936L214.887 73.01ZM235.848 81.4954C235.848 76.6466 236.698 72.9125 238.398 70.293C240.126 67.6735 242.508 66.3638 245.546 66.3638C248.583 66.3638 250.952 67.6735 252.652 70.293C254.379 72.9125 255.243 76.6466 255.243 81.4954C255.243 86.3442 254.379 90.0783 252.652 92.6978C250.952 95.3173 248.583 96.627 245.546 96.627C242.508 96.627 240.126 95.3173 238.398 92.6978C236.698 90.0783 235.848 86.3442 235.848 81.4954ZM251.147 81.4954C251.147 79.907 251.049 78.4022 250.854 76.981C250.687 75.5598 250.381 74.3197 249.935 73.2608C249.517 72.2019 248.945 71.3659 248.221 70.7528C247.496 70.1119 246.605 69.7914 245.546 69.7914C244.487 69.7914 243.595 70.1119 242.871 70.7528C242.146 71.3659 241.561 72.2019 241.115 73.2608C240.697 74.3197 240.39 75.5598 240.195 76.981C240.028 78.4022 239.945 79.907 239.945 81.4954C239.945 83.0838 240.028 84.5886 240.195 86.0098C240.39 87.431 240.697 88.6711 241.115 89.73C241.561 90.7889 242.146 91.6389 242.871 92.2798C243.595 92.8929 244.487 93.1994 245.546 93.1994C246.605 93.1994 247.496 92.8929 248.221 92.2798C248.945 91.6389 249.517 90.7889 249.935 89.73C250.381 88.6711 250.687 87.431 250.854 86.0098C251.049 84.5886 251.147 83.0838 251.147 81.4954ZM264.834 78.1932C269.042 78.3604 272.122 79.28 274.072 80.952C276.051 82.624 277.04 84.8951 277.04 87.7654C277.04 89.0473 276.817 90.2316 276.371 91.3184C275.953 92.4052 275.298 93.3387 274.407 94.119C273.543 94.8993 272.442 95.5123 271.104 95.9582C269.767 96.4041 268.178 96.627 266.339 96.627C265.615 96.627 264.876 96.5713 264.124 96.4598C263.371 96.3483 262.675 96.209 262.034 96.0418C261.393 95.8746 260.822 95.7074 260.32 95.5402C259.818 95.373 259.456 95.2337 259.233 95.1222L259.986 91.7364C260.459 91.9593 261.226 92.2519 262.285 92.6142C263.371 92.9765 264.695 93.1576 266.256 93.1576C267.51 93.1576 268.555 93.0183 269.391 92.7396C270.255 92.4609 270.951 92.0847 271.481 91.611C272.01 91.1373 272.386 90.5939 272.609 89.9808C272.86 89.3399 272.985 88.6711 272.985 87.9744C272.985 86.9155 272.804 85.9819 272.442 85.1738C272.08 84.3378 271.439 83.6411 270.519 83.0838C269.6 82.5265 268.374 82.1085 266.841 81.8298C265.308 81.5233 263.371 81.37 261.031 81.37C261.198 80.0045 261.323 78.7227 261.407 77.5244C261.518 76.3261 261.616 75.1557 261.699 74.0132C261.783 72.8707 261.853 71.7421 261.908 70.6274C261.964 69.4849 262.02 68.2866 262.076 67.0326H276.037V70.3348H265.461C265.434 70.7528 265.392 71.3241 265.336 72.0486C265.28 72.7453 265.225 73.4837 265.169 74.264C265.113 75.0164 265.057 75.7549 265.002 76.4794C264.946 77.2039 264.89 77.7752 264.834 78.1932ZM300.216 78.6112C300.216 84.3517 298.781 88.6989 295.911 91.6528C293.068 94.5788 288.833 96.0557 283.204 96.0836L283.078 92.8232C284.834 92.8232 286.408 92.656 287.802 92.3216C289.223 91.9872 290.463 91.4577 291.522 90.7332C292.581 89.9808 293.459 89.0194 294.155 87.849C294.88 86.6786 295.409 85.2435 295.744 83.5436C295.019 83.878 294.197 84.1567 293.277 84.3796C292.358 84.5747 291.41 84.6722 290.435 84.6722C288.791 84.6722 287.398 84.4353 286.255 83.9616C285.112 83.46 284.179 82.8051 283.454 81.997C282.73 81.161 282.2 80.2135 281.866 79.1546C281.559 78.0678 281.406 76.9392 281.406 75.7688C281.406 74.7377 281.587 73.6649 281.95 72.5502C282.312 71.4355 282.855 70.4184 283.58 69.4988C284.332 68.5792 285.28 67.8268 286.422 67.2416C287.565 66.6564 288.916 66.3638 290.477 66.3638C292.065 66.3638 293.459 66.6425 294.657 67.1998C295.883 67.7571 296.9 68.5653 297.708 69.6242C298.544 70.6831 299.171 71.9789 299.589 73.5116C300.007 75.0164 300.216 76.7163 300.216 78.6112ZM290.853 81.4954C291.828 81.4954 292.748 81.4118 293.612 81.2446C294.476 81.0495 295.312 80.7709 296.12 80.4086C296.148 80.1021 296.162 79.8095 296.162 79.5308C296.162 79.2243 296.162 78.9177 296.162 78.6112C296.162 77.4129 296.078 76.2704 295.911 75.1836C295.744 74.0689 295.437 73.1075 294.991 72.2994C294.573 71.4634 294.002 70.8085 293.277 70.3348C292.553 69.8332 291.633 69.5824 290.519 69.5824C289.599 69.5824 288.819 69.7775 288.178 70.1676C287.537 70.5577 287.007 71.0593 286.589 71.6724C286.171 72.2576 285.865 72.9125 285.67 73.637C285.503 74.3337 285.419 75.0164 285.419 75.6852C285.419 77.5801 285.865 79.0292 286.757 80.0324C287.676 81.0077 289.042 81.4954 290.853 81.4954Z" fill="#789D4A"/>
<path d="M312.873 96.1708V100H311.895V93.6345H312.84V94.6291H312.923C313.072 94.3059 313.299 94.0462 313.603 93.85C313.906 93.6511 314.299 93.5517 314.779 93.5517C315.21 93.5517 315.588 93.6401 315.911 93.8169C316.234 93.9909 316.486 94.2562 316.665 94.6126C316.845 94.9662 316.934 95.4138 316.934 95.9553V100H315.956V96.0216C315.956 95.5215 315.827 95.132 315.567 94.8529C315.307 94.5711 314.951 94.4302 314.498 94.4302C314.185 94.4302 313.906 94.4979 313.661 94.6333C313.417 94.7687 313.225 94.9662 313.085 95.2259C312.944 95.4856 312.873 95.8006 312.873 96.1708ZM320.653 100.149C320.25 100.149 319.884 100.073 319.555 99.9213C319.226 99.7665 318.965 99.5441 318.772 99.254C318.578 98.9612 318.482 98.6076 318.482 98.1931C318.482 97.8285 318.553 97.5328 318.697 97.3063C318.841 97.077 319.033 96.8974 319.273 96.7675C319.514 96.6377 319.779 96.541 320.069 96.4775C320.362 96.4111 320.656 96.3587 320.952 96.32C321.338 96.2702 321.652 96.2329 321.892 96.2081C322.135 96.1805 322.312 96.1349 322.423 96.0713C322.536 96.0078 322.593 95.8973 322.593 95.7398V95.7066C322.593 95.2977 322.481 94.98 322.257 94.7535C322.036 94.5269 321.7 94.4137 321.25 94.4137C320.783 94.4137 320.417 94.5159 320.152 94.7203C319.886 94.9248 319.7 95.143 319.592 95.3751L318.664 95.0436C318.83 94.6568 319.051 94.3556 319.327 94.1401C319.606 93.9219 319.91 93.7699 320.239 93.6843C320.57 93.5959 320.896 93.5517 321.217 93.5517C321.421 93.5517 321.656 93.5765 321.921 93.6263C322.189 93.6732 322.448 93.7713 322.696 93.9205C322.948 94.0697 323.156 94.2949 323.322 94.596C323.488 94.8971 323.571 95.3005 323.571 95.8061V100H322.593V99.138H322.543C322.477 99.2762 322.366 99.424 322.211 99.5814C322.057 99.7389 321.851 99.8729 321.594 99.9834C321.337 100.094 321.023 100.149 320.653 100.149ZM320.802 99.2706C321.189 99.2706 321.515 99.1946 321.78 99.0427C322.048 98.8907 322.25 98.6946 322.385 98.4542C322.524 98.2139 322.593 97.9611 322.593 97.6958V96.8007C322.551 96.8504 322.46 96.896 322.319 96.9375C322.181 96.9761 322.021 97.0107 321.838 97.0411C321.659 97.0687 321.483 97.0936 321.312 97.1157C321.144 97.135 321.007 97.1516 320.902 97.1654C320.648 97.1985 320.41 97.2524 320.189 97.327C319.971 97.3988 319.794 97.508 319.659 97.6544C319.526 97.7981 319.46 97.9942 319.46 98.2429C319.46 98.5827 319.585 98.8396 319.837 99.0137C320.091 99.185 320.413 99.2706 320.802 99.2706ZM328.182 93.6345V94.4634H324.884V93.6345H328.182ZM325.845 92.1095H326.823V98.1766C326.823 98.4528 326.863 98.66 326.943 98.7982C327.026 98.9336 327.131 99.0247 327.258 99.0717C327.388 99.1159 327.525 99.138 327.669 99.138C327.776 99.138 327.865 99.1325 327.934 99.1214C328.003 99.1076 328.058 99.0966 328.1 99.0883L328.298 99.9668C328.232 99.9917 328.14 100.017 328.021 100.041C327.902 100.069 327.751 100.083 327.569 100.083C327.293 100.083 327.022 100.023 326.757 99.9047C326.494 99.7859 326.276 99.6049 326.102 99.3618C325.931 99.1187 325.845 98.812 325.845 98.4418V92.1095ZM329.712 100V93.6345H330.69V100H329.712ZM330.209 92.5736C330.019 92.5736 329.854 92.5087 329.716 92.3789C329.581 92.249 329.513 92.0929 329.513 91.9106C329.513 91.7282 329.581 91.5721 329.716 91.4423C329.854 91.3124 330.019 91.2475 330.209 91.2475C330.4 91.2475 330.563 91.3124 330.698 91.4423C330.836 91.5721 330.905 91.7282 330.905 91.9106C330.905 92.0929 330.836 92.249 330.698 92.3789C330.563 92.5087 330.4 92.5736 330.209 92.5736ZM337.745 93.6345L335.391 100H334.396L332.042 93.6345H333.103L334.86 98.707H334.927L336.684 93.6345H337.745ZM341.535 100.133C340.922 100.133 340.393 99.9972 339.948 99.7265C339.506 99.453 339.164 99.0717 338.924 98.5827C338.686 98.0909 338.568 97.519 338.568 96.867C338.568 96.215 338.686 95.6403 338.924 95.143C339.164 94.643 339.499 94.2534 339.927 93.9744C340.358 93.6926 340.861 93.5517 341.435 93.5517C341.767 93.5517 342.094 93.6069 342.418 93.7174C342.741 93.8279 343.035 94.0075 343.3 94.2562C343.566 94.5021 343.777 94.8281 343.934 95.2342C344.092 95.6403 344.171 96.1404 344.171 96.7344V97.1488H339.264V96.3034H343.176C343.176 95.9442 343.104 95.6237 342.961 95.3419C342.82 95.0601 342.618 94.8377 342.355 94.6747C342.096 94.5117 341.789 94.4302 341.435 94.4302C341.046 94.4302 340.709 94.5269 340.424 94.7203C340.142 94.911 339.926 95.1596 339.774 95.4663C339.622 95.7729 339.546 96.1017 339.546 96.4526V97.0162C339.546 97.4969 339.629 97.9044 339.794 98.2387C339.963 98.5703 340.196 98.8231 340.495 98.9971C340.793 99.1684 341.14 99.254 341.535 99.254C341.792 99.254 342.024 99.2181 342.231 99.1463C342.441 99.0717 342.622 98.9612 342.774 98.8148C342.926 98.6656 343.043 98.4805 343.126 98.2594L344.071 98.5247C343.972 98.8452 343.805 99.127 343.57 99.3701C343.335 99.6104 343.045 99.7983 342.699 99.9337C342.354 100.066 341.966 100.133 341.535 100.133ZM349.057 102.387V93.6345H350.002V94.6457H350.118C350.19 94.5352 350.289 94.3943 350.417 94.223C350.546 94.049 350.732 93.8942 350.972 93.7589C351.215 93.6207 351.544 93.5517 351.958 93.5517C352.494 93.5517 352.967 93.6857 353.375 93.9536C353.784 94.2216 354.103 94.6015 354.333 95.0933C354.562 95.5851 354.677 96.1653 354.677 96.8338C354.677 97.508 354.562 98.0923 354.333 98.5868C354.103 99.0786 353.786 99.4599 353.38 99.7306C352.974 99.9986 352.505 100.133 351.975 100.133C351.566 100.133 351.238 100.065 350.993 99.9295C350.747 99.7914 350.557 99.6353 350.425 99.4613C350.292 99.2844 350.19 99.138 350.118 99.022H350.035V102.387H349.057ZM350.019 96.8173C350.019 97.298 350.089 97.7221 350.23 98.0895C350.371 98.4542 350.577 98.7402 350.848 98.9474C351.118 99.1518 351.45 99.254 351.842 99.254C352.251 99.254 352.592 99.1463 352.866 98.9308C353.142 98.7125 353.349 98.4197 353.487 98.0522C353.628 97.682 353.699 97.2704 353.699 96.8173C353.699 96.3697 353.63 95.9663 353.492 95.6072C353.356 95.2452 353.15 94.9593 352.874 94.7493C352.601 94.5366 352.257 94.4302 351.842 94.4302C351.444 94.4302 351.11 94.5311 350.839 94.7328C350.568 94.9317 350.364 95.2107 350.226 95.5699C350.088 95.9263 350.019 96.3421 350.019 96.8173ZM358.813 100.133C358.238 100.133 357.734 99.9959 357.3 99.7223C356.869 99.4488 356.532 99.0662 356.289 98.5744C356.049 98.0826 355.929 97.508 355.929 96.8504C355.929 96.1874 356.049 95.6086 356.289 95.114C356.532 94.6195 356.869 94.2355 357.3 93.9619C357.734 93.6884 358.238 93.5517 358.813 93.5517C359.388 93.5517 359.89 93.6884 360.321 93.9619C360.755 94.2355 361.092 94.6195 361.333 95.114C361.576 95.6086 361.697 96.1874 361.697 96.8504C361.697 97.508 361.576 98.0826 361.333 98.5744C361.092 99.0662 360.755 99.4488 360.321 99.7223C359.89 99.9959 359.388 100.133 358.813 100.133ZM358.813 99.254C359.249 99.254 359.609 99.1422 359.89 98.9184C360.172 98.6946 360.381 98.4003 360.516 98.0357C360.652 97.671 360.719 97.2759 360.719 96.8504C360.719 96.425 360.652 96.0285 360.516 95.661C360.381 95.2936 360.172 94.9966 359.89 94.77C359.609 94.5435 359.249 94.4302 358.813 94.4302C358.376 94.4302 358.017 94.5435 357.735 94.77C357.454 94.9966 357.245 95.2936 357.11 95.661C356.974 96.0285 356.907 96.425 356.907 96.8504C356.907 97.2759 356.974 97.671 357.11 98.0357C357.245 98.4003 357.454 98.6946 357.735 98.9184C358.017 99.1422 358.376 99.254 358.813 99.254ZM364.227 91.5127V100H363.249V91.5127H364.227ZM367.054 91.5127V100H366.076V91.5127H367.054ZM368.904 100V93.6345H369.882V100H368.904ZM369.401 92.5736C369.211 92.5736 369.046 92.5087 368.908 92.3789C368.773 92.249 368.705 92.0929 368.705 91.9106C368.705 91.7282 368.773 91.5721 368.908 91.4423C369.046 91.3124 369.211 91.2475 369.401 91.2475C369.592 91.2475 369.755 91.3124 369.89 91.4423C370.028 91.5721 370.098 91.7282 370.098 91.9106C370.098 92.0929 370.028 92.249 369.89 92.3789C369.755 92.5087 369.592 92.5736 369.401 92.5736ZM372.71 96.1708V100H371.732V93.6345H372.677V94.6291H372.759C372.909 94.3059 373.135 94.0462 373.439 93.85C373.743 93.6511 374.135 93.5517 374.616 93.5517C375.047 93.5517 375.424 93.6401 375.747 93.8169C376.071 93.9909 376.322 94.2562 376.502 94.6126C376.681 94.9662 376.771 95.4138 376.771 95.9553V100H375.793V96.0216C375.793 95.5215 375.663 95.132 375.403 94.8529C375.144 94.5711 374.787 94.4302 374.334 94.4302C374.022 94.4302 373.743 94.4979 373.497 94.6333C373.254 94.7687 373.062 94.9662 372.921 95.2259C372.78 95.4856 372.71 95.8006 372.71 96.1708ZM380.49 100.149C380.086 100.149 379.72 100.073 379.392 99.9213C379.063 99.7665 378.802 99.5441 378.608 99.254C378.415 98.9612 378.318 98.6076 378.318 98.1931C378.318 97.8285 378.39 97.5328 378.534 97.3063C378.677 97.077 378.869 96.8974 379.11 96.7675C379.35 96.6377 379.615 96.541 379.905 96.4775C380.198 96.4111 380.492 96.3587 380.788 96.32C381.175 96.2702 381.488 96.2329 381.729 96.2081C381.972 96.1805 382.149 96.1349 382.259 96.0713C382.373 96.0078 382.429 95.8973 382.429 95.7398V95.7066C382.429 95.2977 382.317 94.98 382.094 94.7535C381.872 94.5269 381.537 94.4137 381.086 94.4137C380.62 94.4137 380.253 94.5159 379.988 94.7203C379.723 94.9248 379.537 95.143 379.429 95.3751L378.501 95.0436C378.666 94.6568 378.887 94.3556 379.164 94.1401C379.443 93.9219 379.747 93.7699 380.075 93.6843C380.407 93.5959 380.733 93.5517 381.053 93.5517C381.258 93.5517 381.493 93.5765 381.758 93.6263C382.026 93.6732 382.284 93.7713 382.533 93.9205C382.784 94.0697 382.993 94.2949 383.159 94.596C383.324 94.8971 383.407 95.3005 383.407 95.8061V100H382.429V99.138H382.379C382.313 99.2762 382.203 99.424 382.048 99.5814C381.893 99.7389 381.687 99.8729 381.43 99.9834C381.174 100.094 380.86 100.149 380.49 100.149ZM380.639 99.2706C381.026 99.2706 381.352 99.1946 381.617 99.0427C381.885 98.8907 382.087 98.6946 382.222 98.4542C382.36 98.2139 382.429 97.9611 382.429 97.6958V96.8007C382.388 96.8504 382.297 96.896 382.156 96.9375C382.018 96.9761 381.857 97.0107 381.675 97.0411C381.495 97.0687 381.32 97.0936 381.149 97.1157C380.98 97.135 380.843 97.1516 380.738 97.1654C380.484 97.1985 380.247 97.2524 380.026 97.327C379.807 97.3988 379.63 97.508 379.495 97.6544C379.362 97.7981 379.296 97.9942 379.296 98.2429C379.296 98.5827 379.422 98.8396 379.673 99.0137C379.927 99.185 380.249 99.2706 380.639 99.2706ZM388.019 93.6345V94.4634H384.72V93.6345H388.019ZM385.682 92.1095H386.66V98.1766C386.66 98.4528 386.7 98.66 386.78 98.7982C386.863 98.9336 386.968 99.0247 387.095 99.0717C387.225 99.1159 387.361 99.138 387.505 99.138C387.613 99.138 387.701 99.1325 387.77 99.1214C387.839 99.1076 387.895 99.0966 387.936 99.0883L388.135 99.9668C388.069 99.9917 387.976 100.017 387.857 100.041C387.739 100.069 387.588 100.083 387.406 100.083C387.129 100.083 386.859 100.023 386.593 99.9047C386.331 99.7859 386.113 99.6049 385.939 99.3618C385.767 99.1187 385.682 98.812 385.682 98.4418V92.1095ZM392.066 100.133C391.491 100.133 390.987 99.9959 390.553 99.7223C390.122 99.4488 389.785 99.0662 389.542 98.5744C389.302 98.0826 389.182 97.508 389.182 96.8504C389.182 96.1874 389.302 95.6086 389.542 95.114C389.785 94.6195 390.122 94.2355 390.553 93.9619C390.987 93.6884 391.491 93.5517 392.066 93.5517C392.641 93.5517 393.144 93.6884 393.575 93.9619C394.008 94.2355 394.345 94.6195 394.586 95.114C394.829 95.6086 394.95 96.1874 394.95 96.8504C394.95 97.508 394.829 98.0826 394.586 98.5744C394.345 99.0662 394.008 99.4488 393.575 99.7223C393.144 99.9959 392.641 100.133 392.066 100.133ZM392.066 99.254C392.503 99.254 392.862 99.1422 393.144 98.9184C393.425 98.6946 393.634 98.4003 393.769 98.0357C393.905 97.671 393.972 97.2759 393.972 96.8504C393.972 96.425 393.905 96.0285 393.769 95.661C393.634 95.2936 393.425 94.9966 393.144 94.77C392.862 94.5435 392.503 94.4302 392.066 94.4302C391.63 94.4302 391.27 94.5435 390.989 94.77C390.707 94.9966 390.498 95.2936 390.363 95.661C390.227 96.0285 390.16 96.425 390.16 96.8504C390.16 97.2759 390.227 97.671 390.363 98.0357C390.498 98.4003 390.707 98.6946 390.989 98.9184C391.27 99.1422 391.63 99.254 392.066 99.254ZM396.502 100V93.6345H397.447V94.596H397.513C397.629 94.281 397.839 94.0255 398.143 93.8293C398.447 93.6332 398.789 93.5351 399.171 93.5351C399.242 93.5351 399.332 93.5365 399.44 93.5392C399.548 93.542 399.629 93.5461 399.684 93.5517V94.5463C399.651 94.538 399.575 94.5255 399.457 94.509C399.34 94.4896 399.218 94.48 399.088 94.48C398.778 94.48 398.502 94.5449 398.259 94.6747C398.019 94.8018 397.828 94.9786 397.687 95.2052C397.549 95.429 397.48 95.6845 397.48 95.9719V100H396.502ZM404.243 102.387V93.6345H405.188V94.6457H405.304C405.375 94.5352 405.475 94.3943 405.602 94.223C405.732 94.049 405.917 93.8942 406.157 93.7589C406.4 93.6207 406.729 93.5517 407.144 93.5517C407.68 93.5517 408.152 93.6857 408.561 93.9536C408.97 94.2216 409.289 94.6015 409.518 95.0933C409.748 95.5851 409.862 96.1653 409.862 96.8338C409.862 97.508 409.748 98.0923 409.518 98.5868C409.289 99.0786 408.971 99.4599 408.565 99.7306C408.159 99.9986 407.691 100.133 407.16 100.133C406.751 100.133 406.424 100.065 406.178 99.9295C405.932 99.7914 405.743 99.6353 405.61 99.4613C405.478 99.2844 405.375 99.138 405.304 99.022H405.221V102.387H404.243ZM405.204 96.8173C405.204 97.298 405.275 97.7221 405.415 98.0895C405.556 98.4542 405.762 98.7402 406.033 98.9474C406.304 99.1518 406.635 99.254 407.028 99.254C407.436 99.254 407.778 99.1463 408.051 98.9308C408.327 98.7125 408.535 98.4197 408.673 98.0522C408.814 97.682 408.884 97.2704 408.884 96.8173C408.884 96.3697 408.815 95.9663 408.677 95.6072C408.542 95.2452 408.336 94.9593 408.059 94.7493C407.786 94.5366 407.442 94.4302 407.028 94.4302C406.63 94.4302 406.295 94.5311 406.025 94.7328C405.754 94.9317 405.549 95.2107 405.411 95.5699C405.273 95.9263 405.204 96.3421 405.204 96.8173ZM412.39 91.5127V100H411.412V91.5127H412.39ZM416.113 100.149C415.71 100.149 415.344 100.073 415.015 99.9213C414.686 99.7665 414.425 99.5441 414.232 99.254C414.038 98.9612 413.942 98.6076 413.942 98.1931C413.942 97.8285 414.014 97.5328 414.157 97.3063C414.301 97.077 414.493 96.8974 414.733 96.7675C414.974 96.6377 415.239 96.541 415.529 96.4775C415.822 96.4111 416.116 96.3587 416.412 96.32C416.798 96.2702 417.112 96.2329 417.352 96.2081C417.596 96.1805 417.772 96.1349 417.883 96.0713C417.996 96.0078 418.053 95.8973 418.053 95.7398V95.7066C418.053 95.2977 417.941 94.98 417.717 94.7535C417.496 94.5269 417.16 94.4137 416.71 94.4137C416.243 94.4137 415.877 94.5159 415.612 94.7203C415.347 94.9248 415.16 95.143 415.052 95.3751L414.124 95.0436C414.29 94.6568 414.511 94.3556 414.787 94.1401C415.066 93.9219 415.37 93.7699 415.699 93.6843C416.03 93.5959 416.356 93.5517 416.677 93.5517C416.881 93.5517 417.116 93.5765 417.381 93.6263C417.649 93.6732 417.908 93.7713 418.156 93.9205C418.408 94.0697 418.616 94.2949 418.782 94.596C418.948 94.8971 419.031 95.3005 419.031 95.8061V100H418.053V99.138H418.003C417.937 99.2762 417.826 99.424 417.672 99.5814C417.517 99.7389 417.311 99.8729 417.054 99.9834C416.797 100.094 416.484 100.149 416.113 100.149ZM416.262 99.2706C416.649 99.2706 416.975 99.1946 417.241 99.0427C417.509 98.8907 417.71 98.6946 417.846 98.4542C417.984 98.2139 418.053 97.9611 418.053 97.6958V96.8007C418.011 96.8504 417.92 96.896 417.779 96.9375C417.641 96.9761 417.481 97.0107 417.299 97.0411C417.119 97.0687 416.944 97.0936 416.772 97.1157C416.604 97.135 416.467 97.1516 416.362 97.1654C416.108 97.1985 415.87 97.2524 415.649 97.327C415.431 97.3988 415.254 97.508 415.119 97.6544C414.986 97.7981 414.92 97.9942 414.92 98.2429C414.92 98.5827 415.045 98.8396 415.297 99.0137C415.551 99.185 415.873 99.2706 416.262 99.2706ZM421.852 96.1708V100H420.874V93.6345H421.819V94.6291H421.902C422.051 94.3059 422.278 94.0462 422.582 93.85C422.886 93.6511 423.278 93.5517 423.759 93.5517C424.19 93.5517 424.567 93.6401 424.89 93.8169C425.213 93.9909 425.465 94.2562 425.644 94.6126C425.824 94.9662 425.914 95.4138 425.914 95.9553V100H424.936V96.0216C424.936 95.5215 424.806 95.132 424.546 94.8529C424.286 94.5711 423.93 94.4302 423.477 94.4302C423.165 94.4302 422.886 94.4979 422.64 94.6333C422.397 94.7687 422.205 94.9662 422.064 95.2259C421.923 95.4856 421.852 95.8006 421.852 96.1708ZM430.527 93.6345V94.4634H427.229V93.6345H430.527ZM428.19 92.1095H429.168V98.1766C429.168 98.4528 429.208 98.66 429.288 98.7982C429.371 98.9336 429.476 99.0247 429.603 99.0717C429.733 99.1159 429.87 99.138 430.014 99.138C430.121 99.138 430.21 99.1325 430.279 99.1214C430.348 99.1076 430.403 99.0966 430.445 99.0883L430.643 99.9668C430.577 99.9917 430.485 100.017 430.366 100.041C430.247 100.069 430.096 100.083 429.914 100.083C429.638 100.083 429.367 100.023 429.102 99.9047C428.839 99.7859 428.621 99.6049 428.447 99.3618C428.276 99.1187 428.19 98.812 428.19 98.4418V92.1095ZM436.452 95.0601L435.573 95.3088C435.518 95.1624 435.437 95.0201 435.329 94.8819C435.224 94.741 435.08 94.625 434.898 94.5338C434.715 94.4427 434.482 94.3971 434.197 94.3971C433.808 94.3971 433.483 94.4869 433.224 94.6664C432.967 94.8433 432.838 95.0684 432.838 95.3419C432.838 95.5851 432.927 95.7771 433.103 95.918C433.28 96.0589 433.556 96.1763 433.932 96.2702L434.877 96.5023C435.446 96.6405 435.87 96.8518 436.149 97.1364C436.428 97.4182 436.568 97.7815 436.568 98.2263C436.568 98.591 436.463 98.917 436.253 99.2043C436.046 99.4916 435.756 99.7182 435.383 99.884C435.01 100.05 434.576 100.133 434.081 100.133C433.432 100.133 432.895 99.9917 432.469 99.7099C432.044 99.4281 431.774 99.0164 431.661 98.4749L432.589 98.2429C432.678 98.5855 432.845 98.8424 433.091 99.0137C433.34 99.185 433.664 99.2706 434.065 99.2706C434.521 99.2706 434.883 99.1739 435.151 98.9805C435.421 98.7844 435.557 98.5495 435.557 98.276C435.557 98.055 435.479 97.8699 435.325 97.7207C435.17 97.5687 434.932 97.4555 434.612 97.3809L433.551 97.1322C432.968 96.9941 432.54 96.78 432.266 96.4899C431.995 96.197 431.86 95.831 431.86 95.3917C431.86 95.0325 431.961 94.7148 432.163 94.4385C432.367 94.1622 432.645 93.9454 432.996 93.7879C433.349 93.6304 433.75 93.5517 434.197 93.5517C434.827 93.5517 435.322 93.6898 435.681 93.9661C436.043 94.2424 436.3 94.607 436.452 95.0601ZM441.439 102.387V93.6345H442.384V94.6457H442.5C442.572 94.5352 442.671 94.3943 442.798 94.223C442.928 94.049 443.113 93.8942 443.354 93.7589C443.597 93.6207 443.925 93.5517 444.34 93.5517C444.876 93.5517 445.348 93.6857 445.757 93.9536C446.166 94.2216 446.485 94.6015 446.715 95.0933C446.944 95.5851 447.058 96.1653 447.058 96.8338C447.058 97.508 446.944 98.0923 446.715 98.5868C446.485 99.0786 446.167 99.4599 445.761 99.7306C445.355 99.9986 444.887 100.133 444.356 100.133C443.948 100.133 443.62 100.065 443.374 99.9295C443.128 99.7914 442.939 99.6353 442.807 99.4613C442.674 99.2844 442.572 99.138 442.5 99.022H442.417V102.387H441.439ZM442.4 96.8173C442.4 97.298 442.471 97.7221 442.612 98.0895C442.753 98.4542 442.959 98.7402 443.229 98.9474C443.5 99.1518 443.832 99.254 444.224 99.254C444.633 99.254 444.974 99.1463 445.247 98.9308C445.524 98.7125 445.731 98.4197 445.869 98.0522C446.01 97.682 446.08 97.2704 446.08 96.8173C446.08 96.3697 446.011 95.9663 445.873 95.6072C445.738 95.2452 445.532 94.9593 445.256 94.7493C444.982 94.5366 444.638 94.4302 444.224 94.4302C443.826 94.4302 443.492 94.5311 443.221 94.7328C442.95 94.9317 442.746 95.2107 442.608 95.5699C442.469 95.9263 442.4 96.3421 442.4 96.8173ZM449.587 91.5127V100H448.609V91.5127H449.587ZM453.31 100.149C452.906 100.149 452.54 100.073 452.211 99.9213C451.883 99.7665 451.622 99.5441 451.428 99.254C451.235 98.9612 451.138 98.6076 451.138 98.1931C451.138 97.8285 451.21 97.5328 451.354 97.3063C451.497 97.077 451.689 96.8974 451.93 96.7675C452.17 96.6377 452.435 96.541 452.725 96.4775C453.018 96.4111 453.312 96.3587 453.608 96.32C453.995 96.2702 454.308 96.2329 454.549 96.2081C454.792 96.1805 454.969 96.1349 455.079 96.0713C455.192 96.0078 455.249 95.8973 455.249 95.7398V95.7066C455.249 95.2977 455.137 94.98 454.913 94.7535C454.692 94.5269 454.357 94.4137 453.906 94.4137C453.439 94.4137 453.073 94.5159 452.808 94.7203C452.543 94.9248 452.356 95.143 452.249 95.3751L451.32 95.0436C451.486 94.6568 451.707 94.3556 451.983 94.1401C452.263 93.9219 452.566 93.7699 452.895 93.6843C453.227 93.5959 453.553 93.5517 453.873 93.5517C454.078 93.5517 454.312 93.5765 454.578 93.6263C454.846 93.6732 455.104 93.7713 455.353 93.9205C455.604 94.0697 455.813 94.2949 455.978 94.596C456.144 94.8971 456.227 95.3005 456.227 95.8061V100H455.249V99.138H455.199C455.133 99.2762 455.023 99.424 454.868 99.5814C454.713 99.7389 454.507 99.8729 454.25 99.9834C453.993 100.094 453.68 100.149 453.31 100.149ZM453.459 99.2706C453.846 99.2706 454.172 99.1946 454.437 99.0427C454.705 98.8907 454.906 98.6946 455.042 98.4542C455.18 98.2139 455.249 97.9611 455.249 97.6958V96.8007C455.208 96.8504 455.116 96.896 454.976 96.9375C454.837 96.9761 454.677 97.0107 454.495 97.0411C454.315 97.0687 454.14 97.0936 453.969 97.1157C453.8 97.135 453.663 97.1516 453.558 97.1654C453.304 97.1985 453.066 97.2524 452.845 97.327C452.627 97.3988 452.45 97.508 452.315 97.6544C452.182 97.7981 452.116 97.9942 452.116 98.2429C452.116 98.5827 452.242 98.8396 452.493 99.0137C452.747 99.185 453.069 99.2706 453.459 99.2706ZM459.049 96.1708V100H458.071V93.6345H459.015V94.6291H459.098C459.248 94.3059 459.474 94.0462 459.778 93.85C460.082 93.6511 460.474 93.5517 460.955 93.5517C461.386 93.5517 461.763 93.6401 462.086 93.8169C462.41 93.9909 462.661 94.2562 462.841 94.6126C463.02 94.9662 463.11 95.4138 463.11 95.9553V100H462.132V96.0216C462.132 95.5215 462.002 95.132 461.742 94.8529C461.483 94.5711 461.126 94.4302 460.673 94.4302C460.361 94.4302 460.082 94.4979 459.836 94.6333C459.593 94.7687 459.401 94.9662 459.26 95.2259C459.119 95.4856 459.049 95.8006 459.049 96.1708ZM467.724 93.6345V94.4634H464.425V93.6345H467.724ZM465.386 92.1095H466.364V98.1766C466.364 98.4528 466.404 98.66 466.485 98.7982C466.567 98.9336 466.672 99.0247 466.8 99.0717C466.929 99.1159 467.066 99.138 467.21 99.138C467.318 99.138 467.406 99.1325 467.475 99.1214C467.544 99.1076 467.599 99.0966 467.641 99.0883L467.84 99.9668C467.773 99.9917 467.681 100.017 467.562 100.041C467.443 100.069 467.293 100.083 467.11 100.083C466.834 100.083 466.563 100.023 466.298 99.9047C466.036 99.7859 465.817 99.6049 465.643 99.3618C465.472 99.1187 465.386 98.812 465.386 98.4418V92.1095ZM471.854 100.133C471.24 100.133 470.711 99.9972 470.266 99.7265C469.824 99.453 469.483 99.0717 469.243 98.5827C469.005 98.0909 468.886 97.519 468.886 96.867C468.886 96.215 469.005 95.6403 469.243 95.143C469.483 94.643 469.818 94.2534 470.246 93.9744C470.677 93.6926 471.18 93.5517 471.754 93.5517C472.086 93.5517 472.413 93.6069 472.736 93.7174C473.06 93.8279 473.354 94.0075 473.619 94.2562C473.884 94.5021 474.096 94.8281 474.253 95.2342C474.411 95.6403 474.489 96.1404 474.489 96.7344V97.1488H469.583V96.3034H473.495C473.495 95.9442 473.423 95.6237 473.279 95.3419C473.138 95.0601 472.937 94.8377 472.674 94.6747C472.415 94.5117 472.108 94.4302 471.754 94.4302C471.365 94.4302 471.028 94.5269 470.743 94.7203C470.461 94.911 470.244 95.1596 470.092 95.4663C469.94 95.7729 469.865 96.1017 469.865 96.4526V97.0162C469.865 97.4969 469.947 97.9044 470.113 98.2387C470.282 98.5703 470.515 98.8231 470.814 98.9971C471.112 99.1684 471.459 99.254 471.854 99.254C472.111 99.254 472.343 99.2181 472.55 99.1463C472.76 99.0717 472.941 98.9612 473.093 98.8148C473.245 98.6656 473.362 98.4805 473.445 98.2594L474.39 98.5247C474.29 98.8452 474.123 99.127 473.889 99.3701C473.654 99.6104 473.364 99.7983 473.018 99.9337C472.673 100.066 472.285 100.133 471.854 100.133ZM478.439 100.133C477.909 100.133 477.44 99.9986 477.034 99.7306C476.628 99.4599 476.31 99.0786 476.081 98.5868C475.852 98.0923 475.737 97.508 475.737 96.8338C475.737 96.1653 475.852 95.5851 476.081 95.0933C476.31 94.6015 476.63 94.2216 477.038 93.9536C477.447 93.6857 477.92 93.5517 478.456 93.5517C478.87 93.5517 479.198 93.6207 479.438 93.7589C479.681 93.8942 479.866 94.049 479.993 94.223C480.123 94.3943 480.224 94.5352 480.296 94.6457H480.379V91.5127H481.357V100H480.412V99.022H480.296C480.224 99.138 480.122 99.2844 479.989 99.4613C479.856 99.6353 479.667 99.7914 479.421 99.9295C479.175 100.065 478.848 100.133 478.439 100.133ZM478.572 99.254C478.964 99.254 479.296 99.1518 479.566 98.9474C479.837 98.7402 480.043 98.4542 480.184 98.0895C480.325 97.7221 480.395 97.298 480.395 96.8173C480.395 96.3421 480.326 95.9263 480.188 95.5699C480.05 95.2107 479.845 94.9317 479.575 94.7328C479.304 94.5311 478.97 94.4302 478.572 94.4302C478.157 94.4302 477.812 94.5366 477.536 94.7493C477.262 94.9593 477.056 95.2452 476.918 95.6072C476.783 95.9663 476.715 96.3697 476.715 96.8173C476.715 97.2704 476.784 97.682 476.922 98.0522C477.063 98.4197 477.27 98.7125 477.544 98.9308C477.82 99.1463 478.163 99.254 478.572 99.254ZM484.967 96.2868L485.033 94.4634L483.491 95.4414L483.093 94.7452L484.718 93.8998L483.093 93.0544L483.491 92.3581L485.033 93.3362L484.967 91.5127H485.762L485.696 93.3362L487.238 92.3581L487.635 93.0544L486.011 93.8998L487.635 94.7452L487.238 95.4414L485.696 94.4634L485.762 96.2868H484.967Z" fill="#7E8A7B"/>
</svg>
