<svg width="139" height="54" viewBox="0 0 139 54" fill="none" xmlns="http://www.w3.org/2000/svg">
<g filter="url(#filter0_d_3_2639)">
<mask id="path-1-inside-1_3_2639" fill="white">
<path d="M2 11C2 5.47715 6.47715 1 12 1H127C132.523 1 137 5.47715 137 11V41C137 46.5228 132.523 51 127 51H12C6.47715 51 2 46.5228 2 41V11Z"/>
</mask>
<path d="M2 11C2 5.47715 6.47715 1 12 1H127C132.523 1 137 5.47715 137 11V41C137 46.5228 132.523 51 127 51H12C6.47715 51 2 46.5228 2 41V11Z" fill="#FAFAFA"/>
<path d="M12 1V2H127V1V0H12V1ZM137 11H136V41H137H138V11H137ZM127 51V50H12V51V52H127V51ZM2 41H3V11H2H1V41H2ZM12 51V50C7.02944 50 3 45.9706 3 41H2H1C1 47.0751 5.92487 52 12 52V51ZM137 41H136C136 45.9706 131.971 50 127 50V51V52C133.075 52 138 47.0751 138 41H137ZM127 1V2C131.971 2 136 6.02944 136 11H137H138C138 4.92487 133.075 0 127 0V1ZM12 1V0C5.92487 0 1 4.92487 1 11H2H3C3 6.02944 7.02944 2 12 2V1Z" fill="#789D4A" mask="url(#path-1-inside-1_3_2639)"/>
<g clip-path="url(#clip0_3_2639)">
<path d="M43.5053 22.0391C42.0195 22.0391 40.6362 22.798 39.895 24.0196C38.7471 25.9109 39.4316 28.3373 41.4198 29.4293C42.0531 29.7776 42.7712 29.961 43.4965 29.961C44.9823 29.961 46.3656 29.2021 47.1067 27.9805C47.6621 27.0652 47.8107 25.9967 47.5224 24.9753C47.2341 23.954 46.546 23.0992 45.582 22.5708C44.9487 22.2225 44.2305 22.0391 43.5053 22.0391ZM43.5053 20.3564C44.5118 20.3564 45.5324 20.6004 46.4664 21.1136C49.3037 22.6718 50.2765 26.1229 48.6386 28.8219C47.5401 30.6324 45.5448 31.6437 43.4965 31.6437C42.49 31.6437 41.4693 31.3997 40.5354 30.8865C37.6981 29.3283 36.7252 25.8772 38.3632 23.1783C39.4617 21.3677 41.457 20.3564 43.5053 20.3564Z" fill="#789D4A"/>
<path d="M32.3809 25.1621H35.9558C36.4404 25.1621 36.8349 25.5373 36.8367 25.9984C36.8367 26.0135 36.8367 26.0287 36.8349 26.0455C36.8119 26.4864 36.4263 26.8397 35.9558 26.8397H32.3862C32.2323 26.8397 32.0784 26.8027 31.9422 26.7287C31.6716 26.5806 31.5018 26.3013 31.5018 26.0001C31.5018 25.539 31.8962 25.1638 32.3827 25.1621H32.3809Z" fill="#789D4A"/>
<path d="M50.4764 23.1344C50.1934 23.2892 49.8573 23.2791 49.5937 23.1344C49.4646 23.0638 49.3532 22.9611 49.2718 22.8282C49.0295 22.4277 49.1727 21.9145 49.5937 21.684C49.6026 21.6789 49.6114 21.6739 49.6203 21.6705L51.3396 20.7265C51.3555 20.7165 51.3714 20.7064 51.3874 20.6979C51.8066 20.4742 52.3443 20.6155 52.5884 21.016C52.8237 21.4148 52.6769 21.9263 52.2594 22.1568L50.4764 23.1378V23.1344Z" fill="#789D4A"/>
<path d="M40.1674 20.5114C40.1674 20.5114 40.1639 20.513 40.1621 20.5147C39.8809 20.6645 39.5483 20.651 39.2848 20.508C39.1556 20.4373 39.0424 20.333 38.9628 20.2018L37.1993 17.2941C37.1887 17.279 37.178 17.2638 37.1692 17.2487C36.9339 16.8499 37.0808 16.3384 37.5035 16.1062C37.9227 15.8824 38.4605 16.0221 38.701 16.4192L40.4646 19.3268C40.4752 19.3419 40.4858 19.3571 40.4947 19.3722C40.7299 19.771 40.5831 20.2825 40.1657 20.5114H40.1674Z" fill="#789D4A"/>
<path d="M37.4045 21.6856C37.8255 21.9161 37.9705 22.4293 37.7264 22.8298C37.4823 23.2303 36.9446 23.3683 36.5236 23.136L34.7388 22.1551C34.3178 21.9245 34.1728 21.4113 34.4169 21.0109C34.661 20.6104 35.1987 20.4724 35.6197 20.7046L37.4045 21.6856Z" fill="#789D4A"/>
<path d="M46.8326 20.5096C46.4116 20.2791 46.2665 19.7659 46.5106 19.3654L48.2972 16.4191C48.5395 16.0186 49.079 15.8806 49.5 16.1128C49.921 16.345 50.0661 16.8565 49.822 17.257L48.0336 20.2017C47.7913 20.6021 47.2518 20.7401 46.8308 20.5079L46.8326 20.5096Z" fill="#789D4A"/>
<path d="M43.4983 19.6564C43.3391 19.6564 43.1905 19.6161 43.0613 19.5454C42.7978 19.4007 42.6191 19.1298 42.6174 18.8185V16.8818C42.6174 16.8717 42.6174 16.8632 42.6174 16.8532C42.6191 16.3955 43.0154 16.0219 43.5 16.0186C43.9829 16.0186 44.3774 16.3938 44.3792 16.8582V18.8185C44.3792 19.2795 43.9829 19.6548 43.4965 19.6564H43.4983Z" fill="#789D4A"/>
<path d="M46.8273 31.4937C47.0307 31.381 47.2695 31.349 47.4977 31.4062C47.7258 31.4634 47.9169 31.6014 48.0354 31.7966L49.799 34.7042C49.8096 34.7194 49.8202 34.7345 49.829 34.7497C50.0643 35.1484 49.9175 35.66 49.5 35.8888C49.4982 35.8888 49.4965 35.8905 49.4947 35.8922C49.2135 36.0419 48.8809 36.0285 48.6174 35.8854C48.4882 35.8148 48.375 35.7105 48.2954 35.5792L46.5089 32.6346C46.2683 32.2375 46.4098 31.7259 46.8273 31.4937Z" fill="#789D4A"/>
<path d="M54.6191 26.8363H51.0495C50.8956 26.8363 50.7417 26.7993 50.6038 26.7236C50.3331 26.5755 50.1633 26.2962 50.1633 25.9984C50.1633 25.9765 50.1633 25.9546 50.1686 25.9328C50.204 25.5037 50.5843 25.1638 51.046 25.1621H54.6191C55.102 25.1621 55.4982 25.5373 55.5 26.0001C55.5 26.4611 55.1055 26.8363 54.6191 26.838V26.8363Z" fill="#789D4A"/>
<path d="M36.5236 28.8653C36.941 28.6365 37.4788 28.7711 37.7229 29.1682C37.8432 29.3617 37.875 29.5889 37.8149 29.8059C37.7547 30.023 37.6097 30.2031 37.4045 30.3158L35.6215 31.2968C35.3402 31.4516 35.0041 31.4398 34.7406 31.2968C34.6132 31.2261 34.5018 31.1251 34.4222 30.9956C34.3019 30.8021 34.2701 30.5749 34.3302 30.3579C34.3903 30.1408 34.5354 29.9608 34.7406 29.8463L36.5236 28.8653Z" fill="#789D4A"/>
<path d="M52.2612 29.8448C52.6822 30.0753 52.8272 30.5885 52.5831 30.989C52.339 31.3895 51.8013 31.5274 51.3803 31.2952L49.5955 30.3142C49.1745 30.0837 49.0295 29.5705 49.2736 29.17C49.5177 28.7696 50.0554 28.6316 50.4764 28.8638L52.2612 29.8448Z" fill="#789D4A"/>
<path d="M43.5 32.3401C43.9847 32.3401 44.3792 32.7153 44.3809 33.178V35.0979C44.3809 35.1131 44.3809 35.1265 44.3809 35.1417C44.3756 35.601 43.9812 35.9729 43.5071 35.9729C43.3479 35.9746 43.194 35.9359 43.0596 35.8619C42.9941 35.8265 42.934 35.7828 42.8792 35.7306C42.7129 35.5741 42.6209 35.3655 42.6174 35.1366V33.1763C42.6174 32.7153 43.0136 32.3401 43.5 32.3384V32.3401Z" fill="#789D4A"/>
<path d="M40.1674 31.4922C40.5884 31.7227 40.7335 32.2359 40.4894 32.6364L38.701 35.5811C38.4587 35.9815 37.9192 36.1195 37.4982 35.8873C37.0772 35.6551 36.9322 35.1436 37.1763 34.7431L38.9646 31.7985C39.2069 31.398 39.7465 31.26 40.1674 31.4922Z" fill="#789D4A"/>
</g>
<path d="M62.9781 30.5V22.0127H68.4153V23.3016H64.5156V25.6057H68.0423V26.8946H64.5156V30.5H62.9781ZM73.4663 27.8229V24.1345H74.9665V30.5H73.5119V29.3686H73.4456C73.302 29.725 73.0657 30.0165 72.737 30.2431C72.411 30.4696 72.009 30.5829 71.531 30.5829C71.1138 30.5829 70.745 30.4903 70.4245 30.3052C70.1068 30.1174 69.8581 29.8452 69.6786 29.4888C69.499 29.1297 69.4092 28.6959 69.4092 28.1875V24.1345H70.9094V27.9555C70.9094 28.3588 71.0199 28.6793 71.2409 28.9169C71.4619 29.1545 71.752 29.2733 72.1112 29.2733C72.3322 29.2733 72.5463 29.2194 72.7535 29.1117C72.9607 29.004 73.1307 28.8437 73.2633 28.631C73.3986 28.4155 73.4663 28.1461 73.4663 27.8229ZM78.0677 22.0127V30.5H76.5675V22.0127H78.0677ZM81.169 22.0127V30.5H79.6688V22.0127H81.169ZM90.4018 24.3459C90.3631 23.984 90.2001 23.7022 89.9128 23.5005C89.6282 23.2988 89.258 23.198 88.8022 23.198C88.4817 23.198 88.2068 23.2463 87.9775 23.343C87.7481 23.4397 87.5727 23.5709 87.4511 23.7367C87.3296 23.9025 87.2674 24.0917 87.2647 24.3045C87.2647 24.4813 87.3047 24.6346 87.3848 24.7645C87.4677 24.8943 87.5796 25.0048 87.7205 25.096C87.8614 25.1844 88.0175 25.259 88.1888 25.3198C88.3601 25.3806 88.5328 25.4317 88.7068 25.4731L89.5025 25.672C89.823 25.7466 90.1311 25.8475 90.4267 25.9746C90.725 26.1016 90.9917 26.2619 91.2265 26.4553C91.4641 26.6487 91.652 26.8821 91.7901 27.1556C91.9282 27.4292 91.9973 27.7496 91.9973 28.1171C91.9973 28.6144 91.8702 29.0523 91.616 29.4308C91.3619 29.8065 90.9944 30.1008 90.5137 30.3135C90.0357 30.5235 89.4569 30.6285 88.7773 30.6285C88.117 30.6285 87.5437 30.5262 87.0575 30.3218C86.574 30.1174 86.1955 29.819 85.9219 29.4267C85.6512 29.0343 85.5048 28.5564 85.4827 27.9928H86.9953C87.0174 28.2884 87.1086 28.5343 87.2688 28.7304C87.429 28.9266 87.6376 29.073 87.8946 29.1697C88.1543 29.2664 88.4444 29.3148 88.7649 29.3148C89.0992 29.3148 89.392 29.265 89.6434 29.1656C89.8976 29.0634 90.0965 28.9225 90.2402 28.7429C90.3838 28.5605 90.4571 28.3478 90.4598 28.1047C90.4571 27.8836 90.3921 27.7013 90.265 27.5576C90.138 27.4112 89.9598 27.2896 89.7304 27.1929C89.5039 27.0935 89.2387 27.0051 88.9348 26.9277L87.9692 26.6791C87.2702 26.4995 86.7176 26.2274 86.3115 25.8627C85.9081 25.4952 85.7065 25.0076 85.7065 24.3998C85.7065 23.8997 85.8418 23.4618 86.1126 23.0861C86.3861 22.7103 86.7577 22.4189 87.2274 22.2116C87.697 22.0017 88.2289 21.8967 88.8229 21.8967C89.4252 21.8967 89.9529 22.0017 90.4059 22.2116C90.8618 22.4189 91.2196 22.7076 91.4793 23.0778C91.739 23.4452 91.873 23.8679 91.8813 24.3459H90.4018ZM97.4172 27.8229V24.1345H98.9174V30.5H97.4628V29.3686H97.3965C97.2528 29.725 97.0166 30.0165 96.6878 30.2431C96.3618 30.4696 95.9598 30.5829 95.4819 30.5829C95.0647 30.5829 94.6958 30.4903 94.3754 30.3052C94.0576 30.1174 93.809 29.8452 93.6294 29.4888C93.4498 29.1297 93.36 28.6959 93.36 28.1875V24.1345H94.8602V27.9555C94.8602 28.3588 94.9707 28.6793 95.1918 28.9169C95.4128 29.1545 95.7029 29.2733 96.062 29.2733C96.2831 29.2733 96.4972 29.2194 96.7044 29.1117C96.9116 29.004 97.0815 28.8437 97.2141 28.631C97.3495 28.4155 97.4172 28.1461 97.4172 27.8229ZM102.019 26.7702V30.5H100.518V24.1345H101.952V25.2162H102.027C102.173 24.8598 102.407 24.5766 102.727 24.3666C103.05 24.1566 103.45 24.0517 103.925 24.0517C104.364 24.0517 104.747 24.1456 105.073 24.3335C105.402 24.5213 105.656 24.7935 105.835 25.1499C106.018 25.5063 106.108 25.9386 106.105 26.447V30.5H104.605V26.6791C104.605 26.2536 104.494 25.9207 104.273 25.6803C104.055 25.44 103.752 25.3198 103.365 25.3198C103.103 25.3198 102.87 25.3778 102.665 25.4938C102.463 25.6071 102.305 25.7715 102.189 25.987C102.075 26.2025 102.019 26.4636 102.019 26.7702Z" fill="#789D4A"/>
</g>
<defs>
<filter id="filter0_d_3_2639" x="0" y="0" width="139" height="54" filterUnits="userSpaceOnUse" color-interpolation-filters="sRGB">
<feFlood flood-opacity="0" result="BackgroundImageFix"/>
<feColorMatrix in="SourceAlpha" type="matrix" values="0 0 0 0 0 0 0 0 0 0 0 0 0 0 0 0 0 0 127 0" result="hardAlpha"/>
<feOffset dy="1"/>
<feGaussianBlur stdDeviation="1"/>
<feColorMatrix type="matrix" values="0 0 0 0 0 0 0 0 0 0 0 0 0 0 0 0 0 0 0.05 0"/>
<feBlend mode="normal" in2="BackgroundImageFix" result="effect1_dropShadow_3_2639"/>
<feBlend mode="normal" in="SourceGraphic" in2="effect1_dropShadow_3_2639" result="shape"/>
</filter>
<clipPath id="clip0_3_2639">
<rect width="24" height="20" fill="white" transform="matrix(-1 0 0 1 55.5 16)"/>
</clipPath>
</defs>
</svg>
