<svg width="127" height="54" viewBox="0 0 127 54" fill="none" xmlns="http://www.w3.org/2000/svg">
<g filter="url(#filter0_d_3_2391)">
<g clip-path="url(#clip0_3_2391)">
<mask id="path-1-inside-1_3_2391" fill="white">
<path d="M2 11C2 5.47715 6.47715 1 12 1H115C120.523 1 125 5.47715 125 11V41C125 46.5228 120.523 51 115 51H12C6.47715 51 2 46.5228 2 41V11Z"/>
</mask>
<path d="M2 11C2 5.47715 6.47715 1 12 1H115C120.523 1 125 5.47715 125 11V41C125 46.5228 120.523 51 115 51H12C6.47715 51 2 46.5228 2 41V11Z" fill="#FAFAFA"/>
<path d="M62.7935 30.5694C62.7474 30.5363 56.9691 26.5933 52.5907 22.0599C48.8793 18.2138 46.4018 16.5 44.561 16.5C43.5255 16.5 41.6888 16.967 37.6691 20.91C38.6285 21.6325 39.7261 22.6414 41.002 23.9675C41.6029 24.5887 42.2739 25.2363 43.0009 25.8906C43.1652 26.0381 43.1852 26.3025 43.053 26.4765C42.9188 26.6571 42.6785 26.6792 42.5142 26.5338C41.7711 25.8619 41.0841 25.2033 40.4732 24.5711C36.7657 20.725 35.1775 20.2844 34.3043 20.2844C33.433 20.2844 31.8427 20.7294 28.1354 24.5711C25.3974 27.4083 23.7109 28.7168 22.4228 29.6243C22.2385 29.7542 20.484 30.7961 20.2536 30.8931C19.4644 31.2191 18.4189 32.1332 18.505 32.4152C19.0277 34.096 23.6848 34.6929 30.9551 34.0056C34.1077 33.706 36.0466 34.2766 37.7552 34.7722C39.0431 35.1511 40.2529 35.5057 41.8633 35.4771H41.8953C41.9254 35.4771 45.084 35.7018 48.2324 34.7436L48.2585 34.7369C48.2645 34.7369 48.9394 34.5894 49.7867 34.433C51.2949 34.1576 52.4787 34.2854 53.6264 34.4153C54.6058 34.5233 55.5332 34.629 56.6207 34.4726C60.1839 33.9594 63.2665 32.6839 63.487 31.6354C63.5791 31.2345 63.164 30.8337 62.7935 30.5694ZM22.0056 32.8647C21.6971 32.8647 21.4668 32.5893 21.4528 32.2567C21.4367 31.9307 21.7152 31.6488 22.0056 31.6488C22.314 31.6488 22.5444 31.9241 22.5584 32.2567C22.5684 32.5827 22.292 32.8647 22.0056 32.8647ZM25.5848 31.2743C25.2764 31.2743 25.046 30.9989 25.032 30.6663C25.016 30.3403 25.2944 30.0583 25.5848 30.0583C25.8933 30.0583 26.1236 30.3337 26.1376 30.6663C26.1477 30.9989 25.8712 31.2743 25.5848 31.2743ZM27.4556 32.7457C27.1471 32.7457 26.9168 32.4704 26.9028 32.1378C26.8867 31.8118 27.1652 31.5298 27.4556 31.5298C27.764 31.5298 27.9944 31.8052 28.0084 32.1378C28.0204 32.4638 27.742 32.7457 27.4556 32.7457ZM28.6353 28.4547C28.3269 28.4547 28.0965 28.1793 28.0825 27.8467C28.0665 27.5207 28.3449 27.2388 28.6353 27.2388C28.9438 27.2388 29.1741 27.5141 29.1881 27.8467C29.1981 28.1727 28.9217 28.4547 28.6353 28.4547ZM30.3418 32.51C30.0333 32.51 29.803 32.2347 29.789 31.9021C29.773 31.5761 30.0514 31.2941 30.3418 31.2941C30.6502 31.2941 30.8806 31.5695 30.8946 31.9021C30.9066 32.2325 30.6302 32.51 30.3418 32.51ZM31.1991 30.1574C30.8906 30.1574 30.6603 29.8821 30.6463 29.5495C30.6302 29.2235 30.9087 28.9415 31.1991 28.9415C31.5075 28.9415 31.7379 29.2169 31.7519 29.5495C31.7619 29.8821 31.4855 30.1574 31.1991 30.1574ZM31.84 25.0998C31.5316 25.0998 31.3012 24.8244 31.2872 24.4918C31.2712 24.1658 31.5496 23.8839 31.84 23.8839C32.1485 23.8839 32.3788 24.1592 32.3928 24.4918C32.4028 24.8244 32.1264 25.0998 31.84 25.0998ZM33.178 28.5736C32.8695 28.5736 32.6392 28.2983 32.6252 27.9656C32.6092 27.6396 32.8876 27.3577 33.178 27.3577C33.4864 27.3577 33.7168 27.633 33.7308 27.9656C33.7408 28.2917 33.4644 28.5736 33.178 28.5736ZM34.0693 22.494C34.0533 22.168 34.3317 21.8861 34.6221 21.8861C34.9305 21.8861 35.1609 22.1614 35.1749 22.494C35.1909 22.82 34.9125 23.102 34.6221 23.102C34.3116 23.1042 34.0793 22.8266 34.0693 22.494ZM35.4754 32.2723C35.1669 32.2723 34.9366 31.997 34.9226 31.6644C34.9065 31.3384 35.185 31.0564 35.4754 31.0564C35.7838 31.0564 36.0142 31.3318 36.0282 31.6644C36.0382 31.997 35.7618 32.2723 35.4754 32.2723ZM35.6336 29.336C35.3251 29.336 35.0948 29.0607 35.0808 28.7281C35.0648 28.4021 35.3432 28.1201 35.6336 28.1201C35.9421 28.1201 36.1724 28.3955 36.1864 28.7281C36.2024 29.0585 35.926 29.336 35.6336 29.336ZM35.8499 25.4547C35.5415 25.4547 35.3111 25.1794 35.2971 24.8467C35.2811 24.5207 35.5595 24.2388 35.8499 24.2388C36.1584 24.2388 36.3887 24.5141 36.4027 24.8467C36.4127 25.1728 36.1363 25.4547 35.8499 25.4547ZM37.9871 28.043C37.6786 28.043 37.4483 27.7676 37.4343 27.435C37.4182 27.109 37.6967 26.827 37.9871 26.827C38.2955 26.827 38.5259 27.1024 38.5399 27.435C38.5519 27.761 38.2755 28.043 37.9871 28.043ZM38.5058 29.847C38.4898 29.521 38.7682 29.2391 39.0586 29.2391C39.3671 29.2391 39.5974 29.5144 39.6114 29.847C39.6274 30.1731 39.349 30.455 39.0586 30.455C38.7462 30.4506 38.5198 30.1752 38.5058 29.847ZM39.2689 33.1578C38.9605 33.1578 38.7302 32.8825 38.7162 32.5499C38.7001 32.2239 38.9785 31.9419 39.2689 31.9419C39.5774 31.9419 39.8077 32.2173 39.8217 32.5499C39.8378 32.8759 39.5614 33.1578 39.2689 33.1578ZM40.5568 21.7498C40.2484 21.7498 40.018 21.4745 40.004 21.1419C39.988 20.8159 40.2664 20.5339 40.5568 20.5339C40.8653 20.5339 41.0956 20.8093 41.1096 21.1419C41.1196 21.4745 40.8432 21.7498 40.5568 21.7498ZM42.2493 30.1973C42.2333 29.8713 42.5117 29.5893 42.8021 29.5893C43.1106 29.5893 43.3409 29.8647 43.3549 30.1973C43.3709 30.5233 43.0925 30.8052 42.8021 30.8052C42.4897 30.8075 42.2633 30.5255 42.2493 30.1973ZM43.1767 33.6887C42.8682 33.6887 42.6379 33.4134 42.6239 33.0808C42.6079 32.7548 42.8863 32.4728 43.1767 32.4728C43.4851 32.4728 43.7155 32.7482 43.7295 33.0808C43.7395 33.4068 43.4631 33.6887 43.1767 33.6887ZM43.2788 23.752C42.9704 23.752 42.74 23.4766 42.726 23.144C42.71 22.818 42.9884 22.536 43.2788 22.536C43.5873 22.536 43.8176 22.8114 43.8316 23.144C43.8477 23.47 43.5713 23.752 43.2788 23.752ZM43.9258 20.3971C43.6173 20.3971 43.387 20.1218 43.373 19.7892C43.357 19.4631 43.6354 19.1812 43.9258 19.1812C44.2342 19.1812 44.4646 19.4565 44.4786 19.7892C44.4886 20.1196 44.2122 20.3971 43.9258 20.3971ZM46.7559 22.9457C47.0644 22.9457 47.2947 23.2211 47.3087 23.5537C47.3247 23.8797 47.0463 24.1616 46.7559 24.1616C46.4475 24.1616 46.2171 23.8863 46.2031 23.5537C46.1911 23.2277 46.4675 22.9457 46.7559 22.9457ZM46.4895 26.6508C46.798 26.6508 47.0283 26.9262 47.0423 27.2588C47.0583 27.5848 46.7799 27.8667 46.4895 27.8667C46.1811 27.8667 45.9507 27.5914 45.9367 27.2588C45.9247 26.9328 46.2011 26.6508 46.4895 26.6508ZM46.0989 29.9616C46.0829 29.6356 46.3613 29.3537 46.6517 29.3537C46.9602 29.3537 47.1905 29.629 47.2045 29.9616C47.2206 30.2876 46.9422 30.5696 46.6517 30.5696C46.3393 30.5696 46.1089 30.2942 46.0989 29.9616ZM47.1865 32.746C46.8781 32.746 46.6477 32.4706 46.6337 32.138C46.6177 31.812 46.8961 31.53 47.1865 31.53C47.495 31.53 47.7253 31.8054 47.7393 32.138C47.7494 32.464 47.473 32.746 47.1865 32.746ZM47.8014 21.0735C47.493 21.0735 47.2626 20.7981 47.2486 20.4655C47.2326 20.1395 47.511 19.8576 47.8014 19.8576C48.1099 19.8576 48.3402 20.1329 48.3542 20.4655C48.3663 20.7981 48.0878 21.0735 47.8014 21.0735ZM50.1809 26.5937C50.4894 26.5937 50.7197 26.869 50.7337 27.2017C50.7497 27.5277 50.4713 27.8096 50.1809 27.8096C49.8725 27.8096 49.6421 27.5343 49.6281 27.2017C49.6121 26.8712 49.8885 26.5937 50.1809 26.5937ZM50.3031 32.9045C49.9946 32.9045 49.7643 32.6291 49.7503 32.2965C49.7343 31.9705 50.0127 31.6886 50.3031 31.6886C50.6115 31.6886 50.8419 31.9639 50.8559 32.2965C50.8679 32.6225 50.5915 32.9045 50.3031 32.9045ZM50.7137 24.7497C50.4052 24.7497 50.1749 24.4743 50.1609 24.1417C50.1449 23.8157 50.4233 23.5338 50.7137 23.5338C51.0221 23.5338 51.2525 23.8091 51.2665 24.1417C51.2785 24.4677 51.0001 24.7497 50.7137 24.7497ZM51.6731 30.8073C51.3647 30.8073 51.1343 30.5319 51.1203 30.1993C51.1043 29.8733 51.3827 29.5914 51.6731 29.5914C51.9816 29.5914 52.2119 29.8667 52.2259 30.1993C52.2419 30.5253 51.9655 30.8073 51.6731 30.8073ZM52.8668 27.4172C52.5584 27.4172 52.328 27.1418 52.314 26.8092C52.298 26.4832 52.5764 26.2013 52.8668 26.2013C53.1753 26.2013 53.4056 26.4766 53.4196 26.8092C53.4357 27.1352 53.1593 27.4172 52.8668 27.4172ZM55.6309 32.8647C55.3224 32.8647 55.0921 32.5894 55.0781 32.2568C55.0621 31.9308 55.3405 31.6488 55.6309 31.6488C55.9393 31.6488 56.1697 31.9242 56.1837 32.2568C56.1957 32.5828 55.9173 32.8647 55.6309 32.8647ZM55.8973 29.2786C55.5888 29.2786 55.3585 29.0032 55.3445 28.6706C55.3285 28.3446 55.6069 28.0626 55.8973 28.0626C56.2057 28.0626 56.4361 28.338 56.4501 28.6706C56.4621 28.9966 56.1897 29.2786 55.8973 29.2786ZM59.6969 32.3911C59.3884 32.3911 59.1581 32.1157 59.1441 31.7831C59.1281 31.4571 59.4065 31.1752 59.6969 31.1752C60.0053 31.1752 60.2357 31.4505 60.2497 31.7831C60.2617 32.1158 59.9853 32.3911 59.6969 32.3911Z" fill="#789D4A"/>
<path d="M76.6 24.3459C76.5613 23.984 76.3983 23.7022 76.1109 23.5005C75.8264 23.2988 75.4562 23.198 75.0003 23.198C74.6798 23.198 74.4049 23.2463 74.1756 23.343C73.9463 23.4397 73.7709 23.5709 73.6493 23.7367C73.5277 23.9025 73.4656 24.0917 73.4628 24.3045C73.4628 24.4813 73.5029 24.6346 73.583 24.7645C73.6659 24.8943 73.7778 25.0048 73.9187 25.096C74.0596 25.1844 74.2157 25.259 74.387 25.3198C74.5583 25.3806 74.7309 25.4317 74.905 25.4731L75.7007 25.672C76.0212 25.7466 76.3292 25.8475 76.6248 25.9746C76.9232 26.1016 77.1898 26.2619 77.4247 26.4553C77.6623 26.6487 77.8501 26.8821 77.9883 27.1556C78.1264 27.4292 78.1955 27.7496 78.1955 28.1171C78.1955 28.6144 78.0684 29.0523 77.8142 29.4308C77.56 29.8065 77.1926 30.1008 76.7119 30.3135C76.2339 30.5235 75.6551 30.6285 74.9754 30.6285C74.3151 30.6285 73.7419 30.5262 73.2556 30.3218C72.7721 30.1174 72.3936 29.819 72.1201 29.4267C71.8494 29.0343 71.7029 28.5564 71.6808 27.9928H73.1934C73.2156 28.2884 73.3067 28.5343 73.467 28.7304C73.6272 28.9266 73.8358 29.073 74.0927 29.1697C74.3524 29.2664 74.6425 29.3148 74.963 29.3148C75.2973 29.3148 75.5902 29.265 75.8416 29.1656C76.0958 29.0634 76.2947 28.9225 76.4383 28.7429C76.582 28.5605 76.6552 28.3478 76.658 28.1047C76.6552 27.8836 76.5903 27.7013 76.4632 27.5576C76.3361 27.4112 76.1579 27.2896 75.9286 27.1929C75.7021 27.0935 75.4368 27.0051 75.1329 26.9277L74.1673 26.6791C73.4683 26.4995 72.9158 26.2274 72.5097 25.8627C72.1063 25.4952 71.9046 25.0076 71.9046 24.3998C71.9046 23.8997 72.04 23.4618 72.3107 23.0861C72.5843 22.7103 72.9558 22.4189 73.4255 22.2116C73.8952 22.0017 74.427 21.8967 75.021 21.8967C75.6233 21.8967 76.151 22.0017 76.6041 22.2116C77.06 22.4189 77.4177 22.7076 77.6774 23.0778C77.9371 23.4452 78.0711 23.8679 78.0794 24.3459H76.6ZM81.3899 30.6285C80.9866 30.6285 80.6233 30.5566 80.3 30.413C79.9795 30.2665 79.7253 30.051 79.5375 29.7665C79.3524 29.4819 79.2598 29.131 79.2598 28.7139C79.2598 28.3547 79.3261 28.0577 79.4587 27.8229C79.5914 27.588 79.7723 27.4002 80.0016 27.2593C80.2309 27.1184 80.4893 27.012 80.7766 26.9402C81.0667 26.8656 81.3664 26.8117 81.6759 26.7785C82.0488 26.7399 82.3514 26.7053 82.5834 26.6749C82.8155 26.6418 82.9841 26.592 83.089 26.5257C83.1968 26.4567 83.2507 26.3503 83.2507 26.2066V26.1818C83.2507 25.8696 83.1581 25.6278 82.973 25.4565C82.7879 25.2852 82.5213 25.1996 82.1732 25.1996C81.8057 25.1996 81.5143 25.2797 81.2988 25.44C81.086 25.6002 80.9424 25.7895 80.8678 26.0077L79.467 25.8088C79.5775 25.422 79.7599 25.0988 80.0141 24.8391C80.2682 24.5766 80.579 24.3804 80.9465 24.2506C81.3139 24.118 81.7201 24.0517 82.1649 24.0517C82.4716 24.0517 82.7768 24.0876 83.0807 24.1594C83.3847 24.2312 83.6623 24.35 83.9137 24.5158C84.1651 24.6788 84.3668 24.9012 84.5188 25.183C84.6735 25.4648 84.7509 25.8171 84.7509 26.2398V30.5H83.3087V29.6256H83.2589C83.1678 29.8024 83.0393 29.9682 82.8735 30.1229C82.7105 30.2748 82.5047 30.3978 82.2561 30.4917C82.0102 30.5829 81.7215 30.6285 81.3899 30.6285ZM81.7795 29.5261C82.0806 29.5261 82.3417 29.4667 82.5627 29.3479C82.7837 29.2264 82.9537 29.0661 83.0725 28.8672C83.194 28.6683 83.2548 28.4514 83.2548 28.2166V27.4665C83.2078 27.5051 83.1277 27.5411 83.0144 27.5742C82.9039 27.6074 82.7796 27.6364 82.6415 27.6612C82.5033 27.6861 82.3666 27.7082 82.2312 27.7275C82.0958 27.7469 81.9784 27.7635 81.8789 27.7773C81.6552 27.8077 81.4549 27.8574 81.278 27.9265C81.1012 27.9955 80.9617 28.0922 80.8595 28.2166C80.7572 28.3381 80.7061 28.4956 80.7061 28.689C80.7061 28.9653 80.807 29.1739 81.0087 29.3148C81.2103 29.4557 81.4673 29.5261 81.7795 29.5261ZM87.8179 26.7702V30.5H86.3177V24.1345H87.7516V25.2162H87.8262C87.9726 24.8598 88.206 24.5766 88.5265 24.3666C88.8498 24.1566 89.249 24.0517 89.7242 24.0517C90.1635 24.0517 90.5461 24.1456 90.8721 24.3335C91.2009 24.5213 91.4551 24.7935 91.6347 25.1499C91.817 25.5063 91.9068 25.9386 91.904 26.447V30.5H90.4038V26.6791C90.4038 26.2536 90.2933 25.9207 90.0723 25.6803C89.854 25.44 89.5515 25.3198 89.1647 25.3198C88.9023 25.3198 88.6688 25.3778 88.4644 25.4938C88.2627 25.6071 88.1038 25.7715 87.9878 25.987C87.8745 26.2025 87.8179 26.4636 87.8179 26.7702ZM95.8496 30.6119C95.3496 30.6119 94.902 30.4834 94.5069 30.2265C94.1118 29.9695 93.7996 29.5966 93.5703 29.1076C93.341 28.6185 93.2264 28.0245 93.2264 27.3256C93.2264 26.6183 93.3424 26.0215 93.5745 25.5353C93.8093 25.0463 94.1256 24.6774 94.5235 24.4288C94.9213 24.1774 95.3648 24.0517 95.8538 24.0517C96.2267 24.0517 96.5334 24.1152 96.7738 24.2423C97.0141 24.3666 97.2048 24.5172 97.3457 24.694C97.4866 24.8681 97.5957 25.0325 97.6731 25.1872H97.7352V22.0127H99.2396V30.5H97.7642V29.4971H97.6731C97.5957 29.6518 97.4838 29.8162 97.3374 29.9903C97.191 30.1616 96.9976 30.308 96.7572 30.4295C96.5168 30.5511 96.2143 30.6119 95.8496 30.6119ZM96.2682 29.3811C96.5859 29.3811 96.8567 29.2954 97.0804 29.1241C97.3042 28.9501 97.4741 28.7083 97.5902 28.3989C97.7062 28.0895 97.7642 27.7289 97.7642 27.3173C97.7642 26.9056 97.7062 26.5478 97.5902 26.2439C97.4769 25.94 97.3084 25.7038 97.0846 25.5353C96.8636 25.3667 96.5914 25.2825 96.2682 25.2825C95.9339 25.2825 95.6548 25.3695 95.4311 25.5436C95.2073 25.7176 95.0387 25.958 94.9255 26.2647C94.8122 26.5713 94.7556 26.9222 94.7556 27.3173C94.7556 27.7151 94.8122 28.0701 94.9255 28.3823C95.0415 28.6918 95.2114 28.9363 95.4352 29.1158C95.6617 29.2927 95.9394 29.3811 96.2682 29.3811ZM101.829 32.887C101.625 32.887 101.435 32.8705 101.261 32.8373C101.09 32.8069 100.953 32.771 100.851 32.7296L101.199 31.5609C101.417 31.6245 101.612 31.6548 101.783 31.6521C101.955 31.6493 102.105 31.5954 102.235 31.4905C102.368 31.3882 102.48 31.2169 102.571 30.9766L102.699 30.6326L100.391 24.1345H101.982L103.449 28.9418H103.516L104.987 24.1345H106.582L104.034 31.2708C103.915 31.6079 103.757 31.8966 103.561 32.1369C103.365 32.3801 103.125 32.5652 102.84 32.6923C102.558 32.8221 102.221 32.887 101.829 32.887Z" fill="#789D4A"/>
</g>
<path d="M12 1V2H115V1V0H12V1ZM125 11H124V41H125H126V11H125ZM115 51V50H12V51V52H115V51ZM2 41H3V11H2H1V41H2ZM12 51V50C7.02944 50 3 45.9706 3 41H2H1C1 47.0751 5.92487 52 12 52V51ZM125 41H124C124 45.9706 119.971 50 115 50V51V52C121.075 52 126 47.0751 126 41H125ZM115 1V2C119.971 2 124 6.02944 124 11H125H126C126 4.92487 121.075 0 115 0V1ZM12 1V0C5.92487 0 1 4.92487 1 11H2H3C3 6.02944 7.02944 2 12 2V1Z" fill="#789D4A" mask="url(#path-1-inside-1_3_2391)"/>
</g>
<defs>
<filter id="filter0_d_3_2391" x="0" y="0" width="127" height="54" filterUnits="userSpaceOnUse" color-interpolation-filters="sRGB">
<feFlood flood-opacity="0" result="BackgroundImageFix"/>
<feColorMatrix in="SourceAlpha" type="matrix" values="0 0 0 0 0 0 0 0 0 0 0 0 0 0 0 0 0 0 127 0" result="hardAlpha"/>
<feOffset dy="1"/>
<feGaussianBlur stdDeviation="1"/>
<feColorMatrix type="matrix" values="0 0 0 0 0 0 0 0 0 0 0 0 0 0 0 0 0 0 0.05 0"/>
<feBlend mode="normal" in2="BackgroundImageFix" result="effect1_dropShadow_3_2391"/>
<feBlend mode="normal" in="SourceGraphic" in2="effect1_dropShadow_3_2391" result="shape"/>
</filter>
<clipPath id="clip0_3_2391">
<path d="M2 11C2 5.47715 6.47715 1 12 1H115C120.523 1 125 5.47715 125 11V41C125 46.5228 120.523 51 115 51H12C6.47715 51 2 46.5228 2 41V11Z" fill="white"/>
</clipPath>
</defs>
</svg>
