<svg width="259" height="119" viewBox="0 0 259 119" fill="none" xmlns="http://www.w3.org/2000/svg">
<rect x="0.5" y="0.5" width="258" height="118" rx="15.5" fill="white"/>
<rect x="0.5" y="0.5" width="258" height="118" rx="15.5" stroke="#E2E2E2"/>
<path d="M19 27.8333C18.7112 27.8333 18.4723 27.7389 18.2834 27.55C18.0945 27.3611 18 27.1222 18 26.8333C18 26.5444 18.0945 26.3056 18.2834 26.1167C18.4723 25.9278 18.7112 25.8333 19 25.8333C19.2889 25.8333 19.5278 25.9278 19.7167 26.1167C19.9056 26.3056 20 26.5444 20 26.8333C20 27.1222 19.9056 27.3611 19.7167 27.55C19.5278 27.7389 19.2889 27.8333 19 27.8333ZM18 35.1667V31.8333H17.3334V29.1667C17.3334 28.9778 17.3974 28.8193 17.5254 28.6913C17.6529 28.5638 17.8112 28.5 18 28.5H20C20.1889 28.5 20.3474 28.5638 20.4754 28.6913C20.6029 28.8193 20.6667 28.9778 20.6667 29.1667V31.8333H20V33.8333H25.3334V30.5H24.1667C23.3778 30.5 22.7085 30.2249 22.1587 29.6747C21.6085 29.1249 21.3334 28.4556 21.3334 27.6667C21.3334 27.0778 21.4918 26.5527 21.8087 26.0913C22.1252 25.6304 22.5334 25.2889 23.0334 25.0667C23.1556 24.3444 23.4916 23.736 24.0414 23.2413C24.5916 22.7471 25.2445 22.5 26 22.5C26.7556 22.5 27.4085 22.7471 27.9587 23.2413C28.5085 23.736 28.8445 24.3444 28.9667 25.0667C29.4667 25.2889 29.8752 25.6304 30.192 26.0913C30.5085 26.5527 30.6667 27.0778 30.6667 27.6667C30.6667 28.4556 30.3918 29.1249 29.842 29.6747C29.2918 30.2249 28.6223 30.5 27.8334 30.5H26.6667V33.8333H30V35.1667H18ZM24.1667 29.1667H27.8334C28.2556 29.1667 28.6112 29.0222 28.9 28.7333C29.1889 28.4444 29.3334 28.0889 29.3334 27.6667C29.3334 27.3667 29.2529 27.0944 29.092 26.85C28.9307 26.6056 28.7112 26.4222 28.4334 26.3L27.7334 26L27.6334 25.2667C27.5667 24.8556 27.3807 24.5138 27.0754 24.2413C26.7696 23.9693 26.4112 23.8333 26 23.8333C25.5889 23.8333 25.2307 23.9693 24.9254 24.2413C24.6196 24.5138 24.4334 24.8556 24.3667 25.2667L24.2667 26L23.5667 26.3C23.2889 26.4222 23.0696 26.6056 22.9087 26.85C22.7474 27.0944 22.6667 27.3667 22.6667 27.6667C22.6667 28.0889 22.8112 28.4444 23.1 28.7333C23.3889 29.0222 23.7445 29.1667 24.1667 29.1667Z" fill="black"/>
<path d="M45.0824 34L42.2983 23.8182H43.5511L45.679 32.1108H45.7784L47.946 23.8182H49.3381L51.5057 32.1108H51.6051L53.733 23.8182H54.9858L52.2017 34H50.929L48.6818 25.8864H48.6023L46.3551 34H45.0824ZM56.3629 34V26.3636H57.5362V34H56.3629ZM56.9595 25.0909C56.7308 25.0909 56.5336 25.013 56.3679 24.8572C56.2055 24.7015 56.1243 24.5142 56.1243 24.2955C56.1243 24.0767 56.2055 23.8894 56.3679 23.7337C56.5336 23.5779 56.7308 23.5 56.9595 23.5C57.1882 23.5 57.3838 23.5779 57.5462 23.7337C57.7119 23.8894 57.7947 24.0767 57.7947 24.2955C57.7947 24.5142 57.7119 24.7015 57.5462 24.8572C57.3838 25.013 57.1882 25.0909 56.9595 25.0909ZM60.8585 23.8182V34H59.6852V23.8182H60.8585ZM65.891 34.1591C65.2546 34.1591 64.6928 33.9983 64.2056 33.6768C63.7184 33.352 63.3372 32.8946 63.0621 32.3047C62.7871 31.7114 62.6495 31.0104 62.6495 30.2017C62.6495 29.3996 62.7871 28.7036 63.0621 28.1136C63.3372 27.5237 63.7201 27.0679 64.2106 26.7464C64.7011 26.425 65.2679 26.2642 65.9109 26.2642C66.408 26.2642 66.8008 26.3471 67.0891 26.5128C67.3808 26.6752 67.6029 26.8608 67.7553 27.0696C67.9111 27.2751 68.0321 27.4441 68.1183 27.5767H68.2177V23.8182H69.391V34H68.2575V32.8267H68.1183C68.0321 32.9659 67.9094 33.1416 67.7504 33.3537C67.5913 33.5625 67.3642 33.7498 67.0692 33.9155C66.7743 34.0779 66.3815 34.1591 65.891 34.1591ZM66.0501 33.1051C66.5207 33.1051 66.9184 32.9825 67.2433 32.7372C67.5681 32.4886 67.815 32.1456 67.984 31.7081C68.1531 31.2673 68.2376 30.7585 68.2376 30.1818C68.2376 29.6117 68.1547 29.1129 67.989 28.6854C67.8233 28.2545 67.578 27.9197 67.2532 27.6811C66.9284 27.4392 66.5273 27.3182 66.0501 27.3182C65.5529 27.3182 65.1386 27.4458 64.8072 27.701C64.479 27.9529 64.2321 28.2959 64.0664 28.7301C63.904 29.161 63.8228 29.6449 63.8228 30.1818C63.8228 30.7254 63.9057 31.2192 64.0714 31.6634C64.2404 32.1042 64.489 32.4555 64.8171 32.7173C65.1486 32.9759 65.5595 33.1051 66.0501 33.1051ZM72.8761 23.8182V34H71.7028V23.8182H72.8761ZM75.025 34V26.3636H76.1983V34H75.025ZM75.6216 25.0909C75.3929 25.0909 75.1957 25.013 75.03 24.8572C74.8676 24.7015 74.7864 24.5142 74.7864 24.2955C74.7864 24.0767 74.8676 23.8894 75.03 23.7337C75.1957 23.5779 75.3929 23.5 75.6216 23.5C75.8503 23.5 76.0459 23.5779 76.2083 23.7337C76.374 23.8894 76.4569 24.0767 76.4569 24.2955C76.4569 24.5142 76.374 24.7015 76.2083 24.8572C76.0459 25.013 75.8503 25.0909 75.6216 25.0909ZM81.4297 37.0227C80.8629 37.0227 80.3757 36.9498 79.968 36.804C79.5604 36.6615 79.2206 36.4725 78.9489 36.2372C78.6804 36.0052 78.4666 35.7566 78.3075 35.4915L79.2422 34.8352C79.3482 34.9744 79.4825 35.1335 79.6449 35.3125C79.8073 35.4948 80.0294 35.6522 80.3111 35.7848C80.5961 35.9207 80.969 35.9886 81.4297 35.9886C82.0462 35.9886 82.5549 35.8395 82.956 35.5412C83.357 35.2429 83.5575 34.7756 83.5575 34.1392V32.5881H83.4581C83.3719 32.7273 83.2493 32.8996 83.0902 33.1051C82.9344 33.3073 82.709 33.4879 82.4141 33.647C82.1224 33.8028 81.728 33.8807 81.2308 33.8807C80.6143 33.8807 80.0608 33.7348 79.5703 33.4432C79.0831 33.1515 78.697 32.7273 78.4119 32.1705C78.1302 31.6136 77.9893 30.9375 77.9893 30.142C77.9893 29.3598 78.1269 28.6787 78.402 28.0987C78.6771 27.5154 79.0599 27.0646 79.5504 26.7464C80.041 26.425 80.6077 26.2642 81.2507 26.2642C81.7479 26.2642 82.1423 26.3471 82.4339 26.5128C82.7289 26.6752 82.9543 26.8608 83.1101 27.0696C83.2692 27.2751 83.3918 27.4441 83.478 27.5767H83.5973V26.3636H84.7308V34.2188C84.7308 34.875 84.5817 35.4086 84.2834 35.8196C83.9884 36.2339 83.5907 36.5372 83.0902 36.7294C82.593 36.925 82.0395 37.0227 81.4297 37.0227ZM81.3899 32.8267C81.8606 32.8267 82.2583 32.719 82.5831 32.5036C82.9079 32.2881 83.1548 31.9782 83.3239 31.5739C83.4929 31.1695 83.5774 30.6856 83.5774 30.1222C83.5774 29.572 83.4946 29.0864 83.3288 28.6655C83.1631 28.2446 82.9179 27.9148 82.593 27.6761C82.2682 27.4375 81.8672 27.3182 81.3899 27.3182C80.8928 27.3182 80.4785 27.4441 80.147 27.696C79.8189 27.9479 79.572 28.286 79.4062 28.7102C79.2438 29.1345 79.1626 29.6051 79.1626 30.1222C79.1626 30.6525 79.2455 31.1214 79.4112 31.5291C79.5803 31.9335 79.8288 32.2517 80.157 32.4837C80.4884 32.7124 80.8994 32.8267 81.3899 32.8267ZM88.0518 29.4062V34H86.8786V23.8182H88.0518V27.5568H88.1513C88.3303 27.1624 88.5987 26.8492 88.9567 26.6172C89.3179 26.3819 89.7985 26.2642 90.3984 26.2642C90.9188 26.2642 91.3745 26.3686 91.7656 26.5774C92.1567 26.7829 92.46 27.0994 92.6754 27.527C92.8942 27.9512 93.0036 28.4915 93.0036 29.1477V34H91.8303V29.2273C91.8303 28.6207 91.6728 28.1518 91.358 27.8203C91.0464 27.4856 90.6139 27.3182 90.0604 27.3182C89.6759 27.3182 89.3312 27.3994 89.0263 27.5618C88.7247 27.7242 88.486 27.9612 88.3104 28.2727C88.138 28.5843 88.0518 28.9621 88.0518 29.4062ZM98.4711 26.3636V27.358H94.5137V26.3636H98.4711ZM95.6671 24.5341H96.8404V31.8125C96.8404 32.1439 96.8884 32.3925 96.9846 32.5582C97.084 32.7206 97.2099 32.83 97.3624 32.8864C97.5182 32.9394 97.6822 32.9659 97.8546 32.9659C97.9838 32.9659 98.0899 32.9593 98.1728 32.946C98.2556 32.9295 98.3219 32.9162 98.3716 32.9062L98.6103 33.9602C98.5307 33.9901 98.4197 34.0199 98.2772 34.0497C98.1346 34.0829 97.954 34.0994 97.7353 34.0994C97.4038 34.0994 97.079 34.0282 96.7608 33.8857C96.446 33.7431 96.1841 33.526 95.9753 33.2344C95.7698 32.9427 95.6671 32.5748 95.6671 32.1307V24.5341ZM112.526 27H111.293C111.22 26.6454 111.092 26.3338 110.91 26.0653C110.731 25.7969 110.512 25.5715 110.254 25.3892C109.999 25.2036 109.715 25.0644 109.404 24.9716C109.092 24.8788 108.767 24.8324 108.429 24.8324C107.813 24.8324 107.254 24.9882 106.754 25.2997C106.257 25.6113 105.86 26.0703 105.566 26.6768C105.274 27.2834 105.128 28.0275 105.128 28.9091C105.128 29.7907 105.274 30.5348 105.566 31.1413C105.86 31.7479 106.257 32.2069 106.754 32.5185C107.254 32.83 107.813 32.9858 108.429 32.9858C108.767 32.9858 109.092 32.9394 109.404 32.8466C109.715 32.7538 109.999 32.6162 110.254 32.4339C110.512 32.2483 110.731 32.0213 110.91 31.7528C111.092 31.4811 111.22 31.1695 111.293 30.8182H112.526C112.433 31.3385 112.264 31.8042 112.019 32.2152C111.773 32.6262 111.468 32.9759 111.104 33.2642C110.739 33.5492 110.33 33.7663 109.876 33.9155C109.425 34.0646 108.943 34.1392 108.429 34.1392C107.561 34.1392 106.789 33.9271 106.112 33.5028C105.436 33.0786 104.904 32.4754 104.517 31.6932C104.129 30.911 103.935 29.983 103.935 28.9091C103.935 27.8352 104.129 26.9072 104.517 26.125C104.904 25.3428 105.436 24.7396 106.112 24.3153C106.789 23.8911 107.561 23.679 108.429 23.679C108.943 23.679 109.425 23.7536 109.876 23.9027C110.33 24.0518 110.739 24.2706 111.104 24.5589C111.468 24.844 111.773 25.192 112.019 25.603C112.264 26.0107 112.433 26.4763 112.526 27ZM117.461 34.1591C116.772 34.1591 116.167 33.995 115.647 33.6669C115.13 33.3388 114.725 32.8797 114.434 32.2898C114.145 31.6998 114.001 31.0104 114.001 30.2216C114.001 29.4261 114.145 28.7318 114.434 28.1385C114.725 27.5452 115.13 27.0845 115.647 26.7564C116.167 26.4283 116.772 26.2642 117.461 26.2642C118.151 26.2642 118.754 26.4283 119.271 26.7564C119.791 27.0845 120.196 27.5452 120.484 28.1385C120.776 28.7318 120.922 29.4261 120.922 30.2216C120.922 31.0104 120.776 31.6998 120.484 32.2898C120.196 32.8797 119.791 33.3388 119.271 33.6669C118.754 33.995 118.151 34.1591 117.461 34.1591ZM117.461 33.1051C117.985 33.1051 118.416 32.9709 118.754 32.7024C119.092 32.4339 119.342 32.081 119.505 31.6435C119.667 31.206 119.748 30.732 119.748 30.2216C119.748 29.7112 119.667 29.2356 119.505 28.7947C119.342 28.3539 119.092 27.9976 118.754 27.7259C118.416 27.4541 117.985 27.3182 117.461 27.3182C116.938 27.3182 116.507 27.4541 116.169 27.7259C115.831 27.9976 115.58 28.3539 115.418 28.7947C115.256 29.2356 115.174 29.7112 115.174 30.2216C115.174 30.732 115.256 31.206 115.418 31.6435C115.58 32.081 115.831 32.4339 116.169 32.7024C116.507 32.9709 116.938 33.1051 117.461 33.1051ZM122.713 34V26.3636H123.846V27.5568H123.945C124.105 27.1491 124.361 26.8326 124.716 26.6072C125.071 26.3786 125.497 26.2642 125.994 26.2642C126.498 26.2642 126.917 26.3786 127.252 26.6072C127.59 26.8326 127.853 27.1491 128.042 27.5568H128.122C128.317 27.1624 128.61 26.8492 129.002 26.6172C129.393 26.3819 129.862 26.2642 130.409 26.2642C131.091 26.2642 131.65 26.478 132.084 26.9055C132.518 27.3298 132.735 27.991 132.735 28.8892V34H131.562V28.8892C131.562 28.3258 131.408 27.9231 131.1 27.6811C130.791 27.4392 130.428 27.3182 130.011 27.3182C129.474 27.3182 129.058 27.4806 128.763 27.8054C128.468 28.1269 128.32 28.5346 128.32 29.0284V34H127.127V28.7699C127.127 28.3357 126.986 27.986 126.705 27.7209C126.423 27.4524 126.06 27.3182 125.616 27.3182C125.311 27.3182 125.026 27.3994 124.761 27.5618C124.499 27.7242 124.287 27.9496 124.124 28.2379C123.965 28.523 123.886 28.8527 123.886 29.2273V34H122.713ZM134.881 34V26.3636H136.014V27.5568H136.113C136.273 27.1491 136.529 26.8326 136.884 26.6072C137.239 26.3786 137.665 26.2642 138.162 26.2642C138.666 26.2642 139.085 26.3786 139.42 26.6072C139.758 26.8326 140.021 27.1491 140.21 27.5568H140.29C140.485 27.1624 140.778 26.8492 141.17 26.6172C141.561 26.3819 142.03 26.2642 142.577 26.2642C143.259 26.2642 143.818 26.478 144.252 26.9055C144.686 27.3298 144.903 27.991 144.903 28.8892V34H143.73V28.8892C143.73 28.3258 143.576 27.9231 143.268 27.6811C142.959 27.4392 142.596 27.3182 142.179 27.3182C141.642 27.3182 141.226 27.4806 140.931 27.8054C140.636 28.1269 140.488 28.5346 140.488 29.0284V34H139.295V28.7699C139.295 28.3357 139.154 27.986 138.873 27.7209C138.591 27.4524 138.228 27.3182 137.784 27.3182C137.479 27.3182 137.194 27.3994 136.929 27.5618C136.667 27.7242 136.455 27.9496 136.292 28.2379C136.133 28.523 136.054 28.8527 136.054 29.2273V34H134.881ZM151.861 30.8778V26.3636H153.034V34H151.861V32.7074H151.781C151.602 33.0952 151.324 33.425 150.946 33.6967C150.568 33.9652 150.091 34.0994 149.514 34.0994C149.037 34.0994 148.613 33.995 148.242 33.7862C147.87 33.5741 147.579 33.2559 147.367 32.8317C147.155 32.4041 147.048 31.8655 147.048 31.2159V26.3636H148.222V31.1364C148.222 31.6932 148.378 32.1373 148.689 32.4688C149.004 32.8002 149.405 32.9659 149.892 32.9659C150.184 32.9659 150.481 32.8913 150.782 32.7422C151.087 32.593 151.342 32.3643 151.548 32.0561C151.757 31.7479 151.861 31.3551 151.861 30.8778ZM156.357 29.4062V34H155.183V26.3636H156.317V27.5568H156.416C156.595 27.169 156.867 26.8575 157.232 26.6222C157.596 26.3835 158.067 26.2642 158.643 26.2642C159.161 26.2642 159.613 26.3703 160.001 26.5824C160.388 26.7912 160.69 27.1094 160.906 27.5369C161.121 27.9612 161.229 28.4981 161.229 29.1477V34H160.055V29.2273C160.055 28.6274 159.9 28.16 159.588 27.8253C159.277 27.4872 158.849 27.3182 158.305 27.3182C157.931 27.3182 157.596 27.3994 157.301 27.5618C157.009 27.7242 156.779 27.9612 156.61 28.2727C156.441 28.5843 156.357 28.9621 156.357 29.4062ZM163.373 34V26.3636H164.546V34H163.373ZM163.969 25.0909C163.741 25.0909 163.543 25.013 163.378 24.8572C163.215 24.7015 163.134 24.5142 163.134 24.2955C163.134 24.0767 163.215 23.8894 163.378 23.7337C163.543 23.5779 163.741 23.5 163.969 23.5C164.198 23.5 164.394 23.5779 164.556 23.7337C164.722 23.8894 164.805 24.0767 164.805 24.2955C164.805 24.5142 164.722 24.7015 164.556 24.8572C164.394 25.013 164.198 25.0909 163.969 25.0909ZM170.016 26.3636V27.358H166.059V26.3636H170.016ZM167.212 24.5341H168.385V31.8125C168.385 32.1439 168.433 32.3925 168.529 32.5582C168.629 32.7206 168.755 32.83 168.907 32.8864C169.063 32.9394 169.227 32.9659 169.4 32.9659C169.529 32.9659 169.635 32.9593 169.718 32.946C169.801 32.9295 169.867 32.9162 169.917 32.9062L170.155 33.9602C170.076 33.9901 169.965 34.0199 169.822 34.0497C169.68 34.0829 169.499 34.0994 169.28 34.0994C168.949 34.0994 168.624 34.0282 168.306 33.8857C167.991 33.7431 167.729 33.526 167.52 33.2344C167.315 32.9427 167.212 32.5748 167.212 32.1307V24.5341ZM172.537 36.8636C172.338 36.8636 172.16 36.8471 172.005 36.8139C171.849 36.7841 171.741 36.7543 171.681 36.7244L171.98 35.6903C172.265 35.7633 172.517 35.7898 172.735 35.7699C172.954 35.75 173.148 35.6522 173.317 35.4766C173.489 35.3042 173.647 35.0241 173.789 34.6364L174.008 34.0398L171.184 26.3636H172.457L174.565 32.4489H174.645L176.752 26.3636H178.025L174.784 35.1136C174.638 35.508 174.457 35.8345 174.242 36.093C174.026 36.3549 173.776 36.5488 173.491 36.6747C173.209 36.8007 172.891 36.8636 172.537 36.8636ZM183.511 34V26.3636H184.685V34H183.511ZM184.108 25.0909C183.879 25.0909 183.682 25.013 183.516 24.8572C183.354 24.7015 183.273 24.5142 183.273 24.2955C183.273 24.0767 183.354 23.8894 183.516 23.7337C183.682 23.5779 183.879 23.5 184.108 23.5C184.337 23.5 184.532 23.5779 184.695 23.7337C184.86 23.8894 184.943 24.0767 184.943 24.2955C184.943 24.5142 184.86 24.7015 184.695 24.8572C184.532 25.013 184.337 25.0909 184.108 25.0909ZM188.007 29.4062V34H186.834V26.3636H187.967V27.5568H188.067C188.246 27.169 188.517 26.8575 188.882 26.6222C189.247 26.3835 189.717 26.2642 190.294 26.2642C190.811 26.2642 191.263 26.3703 191.651 26.5824C192.039 26.7912 192.34 27.1094 192.556 27.5369C192.771 27.9612 192.879 28.4981 192.879 29.1477V34H191.706V29.2273C191.706 28.6274 191.55 28.16 191.238 27.8253C190.927 27.4872 190.499 27.3182 189.956 27.3182C189.581 27.3182 189.247 27.3994 188.952 27.5618C188.66 27.7242 188.43 27.9612 188.26 28.2727C188.091 28.5843 188.007 28.9621 188.007 29.4062ZM199.12 34V23.8182H202.679C203.389 23.8182 203.974 23.9408 204.434 24.1861C204.895 24.428 205.238 24.7545 205.463 25.1655C205.689 25.5732 205.801 26.0256 205.801 26.5227C205.801 26.9602 205.724 27.3215 205.568 27.6065C205.415 27.8916 205.213 28.117 204.961 28.2827C204.713 28.4484 204.443 28.571 204.151 28.6506V28.75C204.462 28.7699 204.776 28.8793 205.091 29.0781C205.405 29.277 205.669 29.562 205.881 29.9332C206.093 30.3045 206.199 30.7585 206.199 31.2955C206.199 31.8059 206.083 32.2649 205.851 32.6726C205.619 33.0803 205.253 33.4034 204.752 33.642C204.252 33.8807 203.601 34 202.799 34H199.12ZM200.353 32.9062H202.799C203.604 32.9062 204.176 32.7505 204.514 32.4389C204.855 32.1241 205.026 31.7429 205.026 31.2955C205.026 30.9508 204.938 30.6326 204.762 30.3409C204.587 30.0459 204.337 29.8106 204.012 29.6349C203.687 29.456 203.302 29.3665 202.858 29.3665H200.353V32.9062ZM200.353 28.2926H202.64C203.011 28.2926 203.346 28.2197 203.644 28.0739C203.945 27.928 204.184 27.7225 204.36 27.4574C204.539 27.1922 204.628 26.8807 204.628 26.5227C204.628 26.0753 204.472 25.6958 204.161 25.3842C203.849 25.0694 203.355 24.9119 202.679 24.9119H200.353V28.2926ZM216.418 27H215.185C215.112 26.6454 214.985 26.3338 214.803 26.0653C214.624 25.7969 214.405 25.5715 214.146 25.3892C213.891 25.2036 213.608 25.0644 213.296 24.9716C212.985 24.8788 212.66 24.8324 212.322 24.8324C211.705 24.8324 211.147 24.9882 210.646 25.2997C210.149 25.6113 209.753 26.0703 209.458 26.6768C209.166 27.2834 209.021 28.0275 209.021 28.9091C209.021 29.7907 209.166 30.5348 209.458 31.1413C209.753 31.7479 210.149 32.2069 210.646 32.5185C211.147 32.83 211.705 32.9858 212.322 32.9858C212.66 32.9858 212.985 32.9394 213.296 32.8466C213.608 32.7538 213.891 32.6162 214.146 32.4339C214.405 32.2483 214.624 32.0213 214.803 31.7528C214.985 31.4811 215.112 31.1695 215.185 30.8182H216.418C216.326 31.3385 216.156 31.8042 215.911 32.2152C215.666 32.6262 215.361 32.9759 214.996 33.2642C214.632 33.5492 214.223 33.7663 213.768 33.9155C213.318 34.0646 212.835 34.1392 212.322 34.1392C211.453 34.1392 210.681 33.9271 210.005 33.5028C209.329 33.0786 208.797 32.4754 208.409 31.6932C208.021 30.911 207.827 29.983 207.827 28.9091C207.827 27.8352 208.021 26.9072 208.409 26.125C208.797 25.3428 209.329 24.7396 210.005 24.3153C210.681 23.8911 211.453 23.679 212.322 23.679C212.835 23.679 213.318 23.7536 213.768 23.9027C214.223 24.0518 214.632 24.2706 214.996 24.5589C215.361 24.844 215.666 25.192 215.911 25.603C216.156 26.0107 216.326 26.4763 216.418 27Z" fill="black"/>
<path d="M19.8874 73.01C21.4758 72.3969 23.0224 71.6167 24.5272 70.6692C26.032 69.6939 27.4114 68.4817 28.6654 67.0326H31.4242V96H27.5368V72.4248C27.2024 72.7313 26.7844 73.0518 26.2828 73.3862C25.8091 73.7206 25.2796 74.0411 24.6944 74.3476C24.1371 74.6541 23.5379 74.9467 22.897 75.2254C22.2839 75.5041 21.6848 75.7409 21.0996 75.936L19.8874 73.01ZM40.8481 81.4954C40.8481 76.6466 41.6981 72.9125 43.3979 70.293C45.1257 67.6735 47.5083 66.3638 50.5457 66.3638C53.5832 66.3638 55.9519 67.6735 57.6517 70.293C59.3795 72.9125 60.2433 76.6466 60.2433 81.4954C60.2433 86.3442 59.3795 90.0783 57.6517 92.6978C55.9519 95.3173 53.5832 96.627 50.5457 96.627C47.5083 96.627 45.1257 95.3173 43.3979 92.6978C41.6981 90.0783 40.8481 86.3442 40.8481 81.4954ZM56.1469 81.4954C56.1469 79.907 56.0494 78.4022 55.8543 76.981C55.6871 75.5598 55.3806 74.3197 54.9347 73.2608C54.5167 72.2019 53.9455 71.3659 53.2209 70.7528C52.4964 70.1119 51.6047 69.7914 50.5457 69.7914C49.4868 69.7914 48.5951 70.1119 47.8705 70.7528C47.146 71.3659 46.5608 72.2019 46.1149 73.2608C45.6969 74.3197 45.3904 75.5598 45.1953 76.981C45.0281 78.4022 44.9445 79.907 44.9445 81.4954C44.9445 83.0838 45.0281 84.5886 45.1953 86.0098C45.3904 87.431 45.6969 88.6711 46.1149 89.73C46.5608 90.7889 47.146 91.6389 47.8705 92.2798C48.5951 92.8929 49.4868 93.1994 50.5457 93.1994C51.6047 93.1994 52.4964 92.8929 53.2209 92.2798C53.9455 91.6389 54.5167 90.7889 54.9347 89.73C55.3806 88.6711 55.6871 87.431 55.8543 86.0098C56.0494 84.5886 56.1469 83.0838 56.1469 81.4954ZM69.8345 78.1932C74.0423 78.3604 77.1216 79.28 79.0723 80.952C81.0508 82.624 82.0401 84.8951 82.0401 87.7654C82.0401 89.0473 81.8171 90.2316 81.3713 91.3184C80.9533 92.4052 80.2984 93.3387 79.4067 94.119C78.5428 94.8993 77.4421 95.5123 76.1045 95.9582C74.7669 96.4041 73.1785 96.627 71.3393 96.627C70.6147 96.627 69.8763 96.5713 69.1239 96.4598C68.3715 96.3483 67.6748 96.209 67.0339 96.0418C66.3929 95.8746 65.8217 95.7074 65.3201 95.5402C64.8185 95.373 64.4562 95.2337 64.2333 95.1222L64.9857 91.7364C65.4594 91.9593 66.2257 92.2519 67.2847 92.6142C68.3715 92.9765 69.6951 93.1576 71.2557 93.1576C72.5097 93.1576 73.5547 93.0183 74.3907 92.7396C75.2545 92.4609 75.9512 92.0847 76.4807 91.611C77.0101 91.1373 77.3863 90.5939 77.6093 89.9808C77.8601 89.3399 77.9855 88.6711 77.9855 87.9744C77.9855 86.9155 77.8043 85.9819 77.4421 85.1738C77.0798 84.3378 76.4389 83.6411 75.5193 83.0838C74.5997 82.5265 73.3735 82.1085 71.8409 81.8298C70.3082 81.5233 68.3715 81.37 66.0307 81.37C66.1979 80.0045 66.3233 78.7227 66.4069 77.5244C66.5183 76.3261 66.6159 75.1557 66.6995 74.0132C66.7831 72.8707 66.8527 71.7421 66.9085 70.6274C66.9642 69.4849 67.0199 68.2866 67.0757 67.0326H81.0369V70.3348H70.4615C70.4336 70.7528 70.3918 71.3241 70.3361 72.0486C70.2803 72.7453 70.2246 73.4837 70.1689 74.264C70.1131 75.0164 70.0574 75.7549 70.0017 76.4794C69.9459 77.2039 69.8902 77.7752 69.8345 78.1932ZM105.216 78.6112C105.216 84.3517 103.781 88.6989 100.911 91.6528C98.0684 94.5788 93.8327 96.0557 88.2036 96.0836L88.0782 92.8232C89.8338 92.8232 91.4083 92.656 92.8016 92.3216C94.2228 91.9872 95.4629 91.4577 96.5218 90.7332C97.5808 89.9808 98.4586 89.0194 99.1552 87.849C99.8798 86.6786 100.409 85.2435 100.744 83.5436C100.019 83.878 99.197 84.1567 98.2774 84.3796C97.3578 84.5747 96.4104 84.6722 95.435 84.6722C93.7909 84.6722 92.3976 84.4353 91.255 83.9616C90.1125 83.46 89.179 82.8051 88.4544 81.997C87.7299 81.161 87.2004 80.2135 86.866 79.1546C86.5595 78.0678 86.4062 76.9392 86.4062 75.7688C86.4062 74.7377 86.5874 73.6649 86.9496 72.5502C87.3119 71.4355 87.8553 70.4184 88.5798 69.4988C89.3322 68.5792 90.2797 67.8268 91.4222 67.2416C92.5648 66.6564 93.9163 66.3638 95.4768 66.3638C97.0652 66.3638 98.4586 66.6425 99.6568 67.1998C100.883 67.7571 101.9 68.5653 102.708 69.6242C103.544 70.6831 104.171 71.9789 104.589 73.5116C105.007 75.0164 105.216 76.7163 105.216 78.6112ZM95.853 81.4954C96.8284 81.4954 97.748 81.4118 98.6118 81.2446C99.4757 81.0495 100.312 80.7709 101.12 80.4086C101.148 80.1021 101.162 79.8095 101.162 79.5308C101.162 79.2243 101.162 78.9177 101.162 78.6112C101.162 77.4129 101.078 76.2704 100.911 75.1836C100.744 74.0689 100.437 73.1075 99.9912 72.2994C99.5732 71.4634 99.002 70.8085 98.2774 70.3348C97.5529 69.8332 96.6333 69.5824 95.5186 69.5824C94.599 69.5824 93.8188 69.7775 93.1778 70.1676C92.5369 70.5577 92.0074 71.0593 91.5894 71.6724C91.1714 72.2576 90.8649 72.9125 90.6698 73.637C90.5026 74.3337 90.419 75.0164 90.419 75.6852C90.419 77.5801 90.8649 79.0292 91.7566 80.0324C92.6762 81.0077 94.0417 81.4954 95.853 81.4954Z" fill="#789D4A"/>
<path d="M117.873 96.1708V100H116.895V93.6345H117.84V94.6291H117.923C118.072 94.3059 118.299 94.0462 118.603 93.85C118.906 93.6511 119.299 93.5517 119.779 93.5517C120.21 93.5517 120.588 93.6401 120.911 93.8169C121.234 93.9909 121.486 94.2562 121.665 94.6126C121.845 94.9662 121.934 95.4138 121.934 95.9553V100H120.956V96.0216C120.956 95.5215 120.827 95.132 120.567 94.8529C120.307 94.5711 119.951 94.4302 119.498 94.4302C119.185 94.4302 118.906 94.4979 118.661 94.6333C118.417 94.7687 118.225 94.9662 118.085 95.2259C117.944 95.4856 117.873 95.8006 117.873 96.1708ZM125.653 100.149C125.25 100.149 124.884 100.073 124.555 99.9213C124.226 99.7665 123.965 99.5441 123.772 99.254C123.578 98.9612 123.482 98.6076 123.482 98.1931C123.482 97.8285 123.553 97.5328 123.697 97.3063C123.841 97.077 124.033 96.8974 124.273 96.7675C124.514 96.6377 124.779 96.541 125.069 96.4775C125.362 96.4111 125.656 96.3587 125.952 96.32C126.338 96.2702 126.652 96.2329 126.892 96.2081C127.135 96.1805 127.312 96.1349 127.423 96.0713C127.536 96.0078 127.593 95.8973 127.593 95.7398V95.7066C127.593 95.2977 127.481 94.98 127.257 94.7535C127.036 94.5269 126.7 94.4137 126.25 94.4137C125.783 94.4137 125.417 94.5159 125.152 94.7203C124.886 94.9248 124.7 95.143 124.592 95.3751L123.664 95.0436C123.83 94.6568 124.051 94.3556 124.327 94.1401C124.606 93.9219 124.91 93.7699 125.239 93.6843C125.57 93.5959 125.896 93.5517 126.217 93.5517C126.421 93.5517 126.656 93.5765 126.921 93.6263C127.189 93.6732 127.448 93.7713 127.696 93.9205C127.948 94.0697 128.156 94.2949 128.322 94.596C128.488 94.8971 128.571 95.3005 128.571 95.8061V100H127.593V99.138H127.543C127.477 99.2762 127.366 99.424 127.211 99.5814C127.057 99.7389 126.851 99.8729 126.594 99.9834C126.337 100.094 126.023 100.149 125.653 100.149ZM125.802 99.2706C126.189 99.2706 126.515 99.1946 126.78 99.0427C127.048 98.8907 127.25 98.6946 127.385 98.4542C127.524 98.2139 127.593 97.9611 127.593 97.6958V96.8007C127.551 96.8504 127.46 96.896 127.319 96.9375C127.181 96.9761 127.021 97.0107 126.838 97.0411C126.659 97.0687 126.483 97.0936 126.312 97.1157C126.144 97.135 126.007 97.1516 125.902 97.1654C125.648 97.1985 125.41 97.2524 125.189 97.327C124.971 97.3988 124.794 97.508 124.659 97.6544C124.526 97.7981 124.46 97.9942 124.46 98.2429C124.46 98.5827 124.585 98.8396 124.837 99.0137C125.091 99.185 125.413 99.2706 125.802 99.2706ZM133.182 93.6345V94.4634H129.884V93.6345H133.182ZM130.845 92.1095H131.823V98.1766C131.823 98.4528 131.863 98.66 131.943 98.7982C132.026 98.9336 132.131 99.0247 132.258 99.0717C132.388 99.1159 132.525 99.138 132.669 99.138C132.776 99.138 132.865 99.1325 132.934 99.1214C133.003 99.1076 133.058 99.0966 133.1 99.0883L133.298 99.9668C133.232 99.9917 133.14 100.017 133.021 100.041C132.902 100.069 132.751 100.083 132.569 100.083C132.293 100.083 132.022 100.023 131.757 99.9047C131.494 99.7859 131.276 99.6049 131.102 99.3618C130.931 99.1187 130.845 98.812 130.845 98.4418V92.1095ZM134.712 100V93.6345H135.69V100H134.712ZM135.209 92.5736C135.019 92.5736 134.854 92.5087 134.716 92.3789C134.581 92.249 134.513 92.0929 134.513 91.9106C134.513 91.7282 134.581 91.5721 134.716 91.4423C134.854 91.3124 135.019 91.2475 135.209 91.2475C135.4 91.2475 135.563 91.3124 135.698 91.4423C135.836 91.5721 135.905 91.7282 135.905 91.9106C135.905 92.0929 135.836 92.249 135.698 92.3789C135.563 92.5087 135.4 92.5736 135.209 92.5736ZM142.745 93.6345L140.391 100H139.396L137.042 93.6345H138.103L139.86 98.707H139.927L141.684 93.6345H142.745ZM146.535 100.133C145.922 100.133 145.393 99.9972 144.948 99.7265C144.506 99.453 144.164 99.0717 143.924 98.5827C143.686 98.0909 143.568 97.519 143.568 96.867C143.568 96.215 143.686 95.6403 143.924 95.143C144.164 94.643 144.499 94.2534 144.927 93.9744C145.358 93.6926 145.861 93.5517 146.435 93.5517C146.767 93.5517 147.094 93.6069 147.418 93.7174C147.741 93.8279 148.035 94.0075 148.3 94.2562C148.566 94.5021 148.777 94.8281 148.934 95.2342C149.092 95.6403 149.171 96.1404 149.171 96.7344V97.1488H144.264V96.3034H148.176C148.176 95.9442 148.104 95.6237 147.961 95.3419C147.82 95.0601 147.618 94.8377 147.355 94.6747C147.096 94.5117 146.789 94.4302 146.435 94.4302C146.046 94.4302 145.709 94.5269 145.424 94.7203C145.142 94.911 144.926 95.1596 144.774 95.4663C144.622 95.7729 144.546 96.1017 144.546 96.4526V97.0162C144.546 97.4969 144.629 97.9044 144.794 98.2387C144.963 98.5703 145.196 98.8231 145.495 98.9971C145.793 99.1684 146.14 99.254 146.535 99.254C146.792 99.254 147.024 99.2181 147.231 99.1463C147.441 99.0717 147.622 98.9612 147.774 98.8148C147.926 98.6656 148.043 98.4805 148.126 98.2594L149.071 98.5247C148.972 98.8452 148.805 99.127 148.57 99.3701C148.335 99.6104 148.045 99.7983 147.699 99.9337C147.354 100.066 146.966 100.133 146.535 100.133ZM154.057 102.387V93.6345H155.002V94.6457H155.118C155.19 94.5352 155.289 94.3943 155.417 94.223C155.546 94.049 155.732 93.8942 155.972 93.7589C156.215 93.6207 156.544 93.5517 156.958 93.5517C157.494 93.5517 157.967 93.6857 158.375 93.9536C158.784 94.2216 159.103 94.6015 159.333 95.0933C159.562 95.5851 159.677 96.1653 159.677 96.8338C159.677 97.508 159.562 98.0923 159.333 98.5868C159.103 99.0786 158.786 99.4599 158.38 99.7306C157.974 99.9986 157.505 100.133 156.975 100.133C156.566 100.133 156.238 100.065 155.993 99.9295C155.747 99.7914 155.557 99.6353 155.425 99.4613C155.292 99.2844 155.19 99.138 155.118 99.022H155.035V102.387H154.057ZM155.019 96.8173C155.019 97.298 155.089 97.7221 155.23 98.0895C155.371 98.4542 155.577 98.7402 155.848 98.9474C156.118 99.1518 156.45 99.254 156.842 99.254C157.251 99.254 157.592 99.1463 157.866 98.9308C158.142 98.7125 158.349 98.4197 158.487 98.0522C158.628 97.682 158.699 97.2704 158.699 96.8173C158.699 96.3697 158.63 95.9663 158.492 95.6072C158.356 95.2452 158.15 94.9593 157.874 94.7493C157.601 94.5366 157.257 94.4302 156.842 94.4302C156.444 94.4302 156.11 94.5311 155.839 94.7328C155.568 94.9317 155.364 95.2107 155.226 95.5699C155.088 95.9263 155.019 96.3421 155.019 96.8173ZM163.813 100.133C163.238 100.133 162.734 99.9959 162.3 99.7223C161.869 99.4488 161.532 99.0662 161.289 98.5744C161.049 98.0826 160.929 97.508 160.929 96.8504C160.929 96.1874 161.049 95.6086 161.289 95.114C161.532 94.6195 161.869 94.2355 162.3 93.9619C162.734 93.6884 163.238 93.5517 163.813 93.5517C164.388 93.5517 164.89 93.6884 165.321 93.9619C165.755 94.2355 166.092 94.6195 166.333 95.114C166.576 95.6086 166.697 96.1874 166.697 96.8504C166.697 97.508 166.576 98.0826 166.333 98.5744C166.092 99.0662 165.755 99.4488 165.321 99.7223C164.89 99.9959 164.388 100.133 163.813 100.133ZM163.813 99.254C164.249 99.254 164.609 99.1422 164.89 98.9184C165.172 98.6946 165.381 98.4003 165.516 98.0357C165.652 97.671 165.719 97.2759 165.719 96.8504C165.719 96.425 165.652 96.0285 165.516 95.661C165.381 95.2936 165.172 94.9966 164.89 94.77C164.609 94.5435 164.249 94.4302 163.813 94.4302C163.376 94.4302 163.017 94.5435 162.735 94.77C162.454 94.9966 162.245 95.2936 162.11 95.661C161.974 96.0285 161.907 96.425 161.907 96.8504C161.907 97.2759 161.974 97.671 162.11 98.0357C162.245 98.4003 162.454 98.6946 162.735 98.9184C163.017 99.1422 163.376 99.254 163.813 99.254ZM169.227 91.5127V100H168.249V91.5127H169.227ZM172.054 91.5127V100H171.076V91.5127H172.054ZM173.904 100V93.6345H174.882V100H173.904ZM174.401 92.5736C174.211 92.5736 174.046 92.5087 173.908 92.3789C173.773 92.249 173.705 92.0929 173.705 91.9106C173.705 91.7282 173.773 91.5721 173.908 91.4423C174.046 91.3124 174.211 91.2475 174.401 91.2475C174.592 91.2475 174.755 91.3124 174.89 91.4423C175.028 91.5721 175.098 91.7282 175.098 91.9106C175.098 92.0929 175.028 92.249 174.89 92.3789C174.755 92.5087 174.592 92.5736 174.401 92.5736ZM177.71 96.1708V100H176.732V93.6345H177.677V94.6291H177.759C177.909 94.3059 178.135 94.0462 178.439 93.85C178.743 93.6511 179.135 93.5517 179.616 93.5517C180.047 93.5517 180.424 93.6401 180.747 93.8169C181.071 93.9909 181.322 94.2562 181.502 94.6126C181.681 94.9662 181.771 95.4138 181.771 95.9553V100H180.793V96.0216C180.793 95.5215 180.663 95.132 180.403 94.8529C180.144 94.5711 179.787 94.4302 179.334 94.4302C179.022 94.4302 178.743 94.4979 178.497 94.6333C178.254 94.7687 178.062 94.9662 177.921 95.2259C177.78 95.4856 177.71 95.8006 177.71 96.1708ZM185.49 100.149C185.086 100.149 184.72 100.073 184.392 99.9213C184.063 99.7665 183.802 99.5441 183.608 99.254C183.415 98.9612 183.318 98.6076 183.318 98.1931C183.318 97.8285 183.39 97.5328 183.534 97.3063C183.677 97.077 183.869 96.8974 184.11 96.7675C184.35 96.6377 184.615 96.541 184.905 96.4775C185.198 96.4111 185.492 96.3587 185.788 96.32C186.175 96.2702 186.488 96.2329 186.729 96.2081C186.972 96.1805 187.149 96.1349 187.259 96.0713C187.373 96.0078 187.429 95.8973 187.429 95.7398V95.7066C187.429 95.2977 187.317 94.98 187.094 94.7535C186.872 94.5269 186.537 94.4137 186.086 94.4137C185.62 94.4137 185.253 94.5159 184.988 94.7203C184.723 94.9248 184.537 95.143 184.429 95.3751L183.501 95.0436C183.666 94.6568 183.887 94.3556 184.164 94.1401C184.443 93.9219 184.747 93.7699 185.075 93.6843C185.407 93.5959 185.733 93.5517 186.053 93.5517C186.258 93.5517 186.493 93.5765 186.758 93.6263C187.026 93.6732 187.284 93.7713 187.533 93.9205C187.784 94.0697 187.993 94.2949 188.159 94.596C188.324 94.8971 188.407 95.3005 188.407 95.8061V100H187.429V99.138H187.379C187.313 99.2762 187.203 99.424 187.048 99.5814C186.893 99.7389 186.687 99.8729 186.43 99.9834C186.174 100.094 185.86 100.149 185.49 100.149ZM185.639 99.2706C186.026 99.2706 186.352 99.1946 186.617 99.0427C186.885 98.8907 187.087 98.6946 187.222 98.4542C187.36 98.2139 187.429 97.9611 187.429 97.6958V96.8007C187.388 96.8504 187.297 96.896 187.156 96.9375C187.018 96.9761 186.857 97.0107 186.675 97.0411C186.495 97.0687 186.32 97.0936 186.149 97.1157C185.98 97.135 185.843 97.1516 185.738 97.1654C185.484 97.1985 185.247 97.2524 185.026 97.327C184.807 97.3988 184.63 97.508 184.495 97.6544C184.362 97.7981 184.296 97.9942 184.296 98.2429C184.296 98.5827 184.422 98.8396 184.673 99.0137C184.927 99.185 185.249 99.2706 185.639 99.2706ZM193.019 93.6345V94.4634H189.72V93.6345H193.019ZM190.682 92.1095H191.66V98.1766C191.66 98.4528 191.7 98.66 191.78 98.7982C191.863 98.9336 191.968 99.0247 192.095 99.0717C192.225 99.1159 192.361 99.138 192.505 99.138C192.613 99.138 192.701 99.1325 192.77 99.1214C192.839 99.1076 192.895 99.0966 192.936 99.0883L193.135 99.9668C193.069 99.9917 192.976 100.017 192.857 100.041C192.739 100.069 192.588 100.083 192.406 100.083C192.129 100.083 191.859 100.023 191.593 99.9047C191.331 99.7859 191.113 99.6049 190.939 99.3618C190.767 99.1187 190.682 98.812 190.682 98.4418V92.1095ZM197.066 100.133C196.491 100.133 195.987 99.9959 195.553 99.7223C195.122 99.4488 194.785 99.0662 194.542 98.5744C194.302 98.0826 194.182 97.508 194.182 96.8504C194.182 96.1874 194.302 95.6086 194.542 95.114C194.785 94.6195 195.122 94.2355 195.553 93.9619C195.987 93.6884 196.491 93.5517 197.066 93.5517C197.641 93.5517 198.144 93.6884 198.575 93.9619C199.008 94.2355 199.345 94.6195 199.586 95.114C199.829 95.6086 199.95 96.1874 199.95 96.8504C199.95 97.508 199.829 98.0826 199.586 98.5744C199.345 99.0662 199.008 99.4488 198.575 99.7223C198.144 99.9959 197.641 100.133 197.066 100.133ZM197.066 99.254C197.503 99.254 197.862 99.1422 198.144 98.9184C198.425 98.6946 198.634 98.4003 198.769 98.0357C198.905 97.671 198.972 97.2759 198.972 96.8504C198.972 96.425 198.905 96.0285 198.769 95.661C198.634 95.2936 198.425 94.9966 198.144 94.77C197.862 94.5435 197.503 94.4302 197.066 94.4302C196.63 94.4302 196.27 94.5435 195.989 94.77C195.707 94.9966 195.498 95.2936 195.363 95.661C195.227 96.0285 195.16 96.425 195.16 96.8504C195.16 97.2759 195.227 97.671 195.363 98.0357C195.498 98.4003 195.707 98.6946 195.989 98.9184C196.27 99.1422 196.63 99.254 197.066 99.254ZM201.502 100V93.6345H202.447V94.596H202.513C202.629 94.281 202.839 94.0255 203.143 93.8293C203.447 93.6332 203.789 93.5351 204.171 93.5351C204.242 93.5351 204.332 93.5365 204.44 93.5392C204.548 93.542 204.629 93.5461 204.684 93.5517V94.5463C204.651 94.538 204.575 94.5255 204.457 94.509C204.34 94.4896 204.218 94.48 204.088 94.48C203.778 94.48 203.502 94.5449 203.259 94.6747C203.019 94.8018 202.828 94.9786 202.687 95.2052C202.549 95.429 202.48 95.6845 202.48 95.9719V100H201.502ZM209.243 102.387V93.6345H210.188V94.6457H210.304C210.375 94.5352 210.475 94.3943 210.602 94.223C210.732 94.049 210.917 93.8942 211.157 93.7589C211.4 93.6207 211.729 93.5517 212.144 93.5517C212.68 93.5517 213.152 93.6857 213.561 93.9536C213.97 94.2216 214.289 94.6015 214.518 95.0933C214.748 95.5851 214.862 96.1653 214.862 96.8338C214.862 97.508 214.748 98.0923 214.518 98.5868C214.289 99.0786 213.971 99.4599 213.565 99.7306C213.159 99.9986 212.691 100.133 212.16 100.133C211.751 100.133 211.424 100.065 211.178 99.9295C210.932 99.7914 210.743 99.6353 210.61 99.4613C210.478 99.2844 210.375 99.138 210.304 99.022H210.221V102.387H209.243ZM210.204 96.8173C210.204 97.298 210.275 97.7221 210.415 98.0895C210.556 98.4542 210.762 98.7402 211.033 98.9474C211.304 99.1518 211.635 99.254 212.028 99.254C212.436 99.254 212.778 99.1463 213.051 98.9308C213.327 98.7125 213.535 98.4197 213.673 98.0522C213.814 97.682 213.884 97.2704 213.884 96.8173C213.884 96.3697 213.815 95.9663 213.677 95.6072C213.542 95.2452 213.336 94.9593 213.059 94.7493C212.786 94.5366 212.442 94.4302 212.028 94.4302C211.63 94.4302 211.295 94.5311 211.025 94.7328C210.754 94.9317 210.549 95.2107 210.411 95.5699C210.273 95.9263 210.204 96.3421 210.204 96.8173ZM217.39 91.5127V100H216.412V91.5127H217.39ZM221.113 100.149C220.71 100.149 220.344 100.073 220.015 99.9213C219.686 99.7665 219.425 99.5441 219.232 99.254C219.038 98.9612 218.942 98.6076 218.942 98.1931C218.942 97.8285 219.014 97.5328 219.157 97.3063C219.301 97.077 219.493 96.8974 219.733 96.7675C219.974 96.6377 220.239 96.541 220.529 96.4775C220.822 96.4111 221.116 96.3587 221.412 96.32C221.798 96.2702 222.112 96.2329 222.352 96.2081C222.596 96.1805 222.772 96.1349 222.883 96.0713C222.996 96.0078 223.053 95.8973 223.053 95.7398V95.7066C223.053 95.2977 222.941 94.98 222.717 94.7535C222.496 94.5269 222.16 94.4137 221.71 94.4137C221.243 94.4137 220.877 94.5159 220.612 94.7203C220.347 94.9248 220.16 95.143 220.052 95.3751L219.124 95.0436C219.29 94.6568 219.511 94.3556 219.787 94.1401C220.066 93.9219 220.37 93.7699 220.699 93.6843C221.03 93.5959 221.356 93.5517 221.677 93.5517C221.881 93.5517 222.116 93.5765 222.381 93.6263C222.649 93.6732 222.908 93.7713 223.156 93.9205C223.408 94.0697 223.616 94.2949 223.782 94.596C223.948 94.8971 224.031 95.3005 224.031 95.8061V100H223.053V99.138H223.003C222.937 99.2762 222.826 99.424 222.672 99.5814C222.517 99.7389 222.311 99.8729 222.054 99.9834C221.797 100.094 221.484 100.149 221.113 100.149ZM221.262 99.2706C221.649 99.2706 221.975 99.1946 222.241 99.0427C222.509 98.8907 222.71 98.6946 222.846 98.4542C222.984 98.2139 223.053 97.9611 223.053 97.6958V96.8007C223.011 96.8504 222.92 96.896 222.779 96.9375C222.641 96.9761 222.481 97.0107 222.299 97.0411C222.119 97.0687 221.944 97.0936 221.772 97.1157C221.604 97.135 221.467 97.1516 221.362 97.1654C221.108 97.1985 220.87 97.2524 220.649 97.327C220.431 97.3988 220.254 97.508 220.119 97.6544C219.986 97.7981 219.92 97.9942 219.92 98.2429C219.92 98.5827 220.045 98.8396 220.297 99.0137C220.551 99.185 220.873 99.2706 221.262 99.2706ZM226.852 96.1708V100H225.874V93.6345H226.819V94.6291H226.902C227.051 94.3059 227.278 94.0462 227.582 93.85C227.886 93.6511 228.278 93.5517 228.759 93.5517C229.19 93.5517 229.567 93.6401 229.89 93.8169C230.213 93.9909 230.465 94.2562 230.644 94.6126C230.824 94.9662 230.914 95.4138 230.914 95.9553V100H229.936V96.0216C229.936 95.5215 229.806 95.132 229.546 94.8529C229.286 94.5711 228.93 94.4302 228.477 94.4302C228.165 94.4302 227.886 94.4979 227.64 94.6333C227.397 94.7687 227.205 94.9662 227.064 95.2259C226.923 95.4856 226.852 95.8006 226.852 96.1708ZM235.527 93.6345V94.4634H232.229V93.6345H235.527ZM233.19 92.1095H234.168V98.1766C234.168 98.4528 234.208 98.66 234.288 98.7982C234.371 98.9336 234.476 99.0247 234.603 99.0717C234.733 99.1159 234.87 99.138 235.014 99.138C235.121 99.138 235.21 99.1325 235.279 99.1214C235.348 99.1076 235.403 99.0966 235.445 99.0883L235.643 99.9668C235.577 99.9917 235.485 100.017 235.366 100.041C235.247 100.069 235.096 100.083 234.914 100.083C234.638 100.083 234.367 100.023 234.102 99.9047C233.839 99.7859 233.621 99.6049 233.447 99.3618C233.276 99.1187 233.19 98.812 233.19 98.4418V92.1095ZM241.452 95.0601L240.573 95.3088C240.518 95.1624 240.437 95.0201 240.329 94.8819C240.224 94.741 240.08 94.625 239.898 94.5338C239.715 94.4427 239.482 94.3971 239.197 94.3971C238.808 94.3971 238.483 94.4869 238.224 94.6664C237.967 94.8433 237.838 95.0684 237.838 95.3419C237.838 95.5851 237.927 95.7771 238.103 95.918C238.28 96.0589 238.556 96.1763 238.932 96.2702L239.877 96.5023C240.446 96.6405 240.87 96.8518 241.149 97.1364C241.428 97.4182 241.568 97.7815 241.568 98.2263C241.568 98.591 241.463 98.917 241.253 99.2043C241.046 99.4916 240.756 99.7182 240.383 99.884C240.01 100.05 239.576 100.133 239.081 100.133C238.432 100.133 237.895 99.9917 237.469 99.7099C237.044 99.4281 236.774 99.0164 236.661 98.4749L237.589 98.2429C237.678 98.5855 237.845 98.8424 238.091 99.0137C238.34 99.185 238.664 99.2706 239.065 99.2706C239.521 99.2706 239.883 99.1739 240.151 98.9805C240.421 98.7844 240.557 98.5495 240.557 98.276C240.557 98.055 240.479 97.8699 240.325 97.7207C240.17 97.5687 239.932 97.4555 239.612 97.3809L238.551 97.1322C237.968 96.9941 237.54 96.78 237.266 96.4899C236.995 96.197 236.86 95.831 236.86 95.3917C236.86 95.0325 236.961 94.7148 237.163 94.4385C237.367 94.1622 237.645 93.9454 237.996 93.7879C238.349 93.6304 238.75 93.5517 239.197 93.5517C239.827 93.5517 240.322 93.6898 240.681 93.9661C241.043 94.2424 241.3 94.607 241.452 95.0601Z" fill="#556053"/>
</svg>
